<svg width="257" height="256" viewBox="0 0 257 256" fill="none" xmlns="http://www.w3.org/2000/svg">
<g clip-path="url(#clip0_1_276)">
<g filter="url(#filter0_b_1_276)">
<path d="M21.0508 64C21.0508 41.9086 38.9594 24 61.0508 24H191.631C213.722 24 231.631 41.9086 231.631 64V191C231.631 213.091 213.722 231 191.631 231H61.0508C38.9594 231 21.0508 213.091 21.0508 191V64Z" fill="#313036" fill-opacity="0.3"/>
<path d="M21.0508 64C21.0508 41.9086 38.9594 24 61.0508 24H191.631C213.722 24 231.631 41.9086 231.631 64V191C231.631 213.091 213.722 231 191.631 231H61.0508C38.9594 231 21.0508 213.091 21.0508 191V64Z" fill="url(#paint0_linear_1_276)"/>
<path d="M22.0508 64C22.0508 42.4609 39.5117 25 61.0508 25H191.631C213.17 25 230.631 42.4609 230.631 64V191C230.631 212.539 213.17 230 191.631 230H61.0508C39.5117 230 22.0508 212.539 22.0508 191V64Z" stroke="url(#paint1_linear_1_276)" stroke-width="2"/>
</g>
<g filter="url(#filter1_d_1_276)">
<path d="M174.46 188H148.103L137.625 160.742H89.658L79.7535 188H54.0508L100.79 68H126.41L174.46 188ZM129.849 140.523L113.314 95.994L97.1066 140.523H129.849Z" fill="#DF871E"/>
<path d="M178.766 89.2824V68H201.767V89.2824H178.766ZM178.766 188V101.07H201.767V188H178.766V188Z" fill="#DF871E"/>
</g>
</g>
<defs>
<filter id="filter0_b_1_276" x="17.0508" y="20" width="218.58" height="215" filterUnits="userSpaceOnUse" color-interpolation-filters="sRGB">
<feFlood flood-opacity="0" result="BackgroundImageFix"/>
<feGaussianBlur in="BackgroundImageFix" stdDeviation="2"/>
<feComposite in2="SourceAlpha" operator="in" result="effect1_backgroundBlur_1_276"/>
<feBlend mode="normal" in="SourceGraphic" in2="effect1_backgroundBlur_1_276" result="shape"/>
</filter>
<filter id="filter1_d_1_276" x="50.0508" y="68" width="155.715" height="128" filterUnits="userSpaceOnUse" color-interpolation-filters="sRGB">
<feFlood flood-opacity="0" result="BackgroundImageFix"/>
<feColorMatrix in="SourceAlpha" type="matrix" values="0 0 0 0 0 0 0 0 0 0 0 0 0 0 0 0 0 0 127 0" result="hardAlpha"/>
<feOffset dy="4"/>
<feGaussianBlur stdDeviation="2"/>
<feColorMatrix type="matrix" values="0 0 0 0 0 0 0 0 0 0 0 0 0 0 0 0 0 0 0.25 0"/>
<feBlend mode="normal" in2="BackgroundImageFix" result="effect1_dropShadow_1_276"/>
<feBlend mode="normal" in="SourceGraphic" in2="effect1_dropShadow_1_276" result="shape"/>
</filter>
<linearGradient id="paint0_linear_1_276" x1="31.4169" y1="35.4893" x2="123.718" y2="232.231" gradientUnits="userSpaceOnUse">
<stop stop-color="#797583" stop-opacity="0.2"/>
<stop offset="1" stop-color="#363567" stop-opacity="0.2"/>
</linearGradient>
<linearGradient id="paint1_linear_1_276" x1="-23.3115" y1="9.08682" x2="39.1748" y2="253.156" gradientUnits="userSpaceOnUse">
<stop stop-opacity="0.2"/>
<stop offset="1" stop-color="white" stop-opacity="0"/>
</linearGradient>
<clipPath id="clip0_1_276">
<rect width="256" height="256" fill="white" transform="translate(0.0507812)"/>
</clipPath>
</defs>
</svg>
