<svg width="133" height="132" viewBox="0 0 133 132" fill="none" xmlns="http://www.w3.org/2000/svg">
<path d="M109.485 33.1302H23.5267C19.9659 33.1302 17.0798 44.1934 17.0798 57.8432V99.0314H115.932V57.8432C115.932 44.1934 113.046 33.1302 109.485 33.1302Z" fill="url(#paint0_linear_101_1928)"/>
<g filter="url(#filter0_bi_101_1928)">
<path d="M124.169 16.655H8.8422C4.29267 16.655 0.604553 20.3431 0.604553 24.8926V107.269C0.604553 111.819 4.29267 115.507 8.8422 115.507H124.169C128.719 115.507 132.407 111.819 132.407 107.269V24.8926C132.407 20.3431 128.719 16.655 124.169 16.655Z" fill="url(#paint1_linear_101_1928)" fill-opacity="0.2"/>
<path d="M8.8422 17.4787H124.169C128.264 17.4787 131.583 20.798 131.583 24.8926V107.269C131.583 111.364 128.264 114.683 124.169 114.683H8.8422C4.74762 114.683 1.42832 111.364 1.42832 107.269V24.8926C1.42832 20.798 4.74762 17.4787 8.8422 17.4787Z" stroke="url(#paint2_linear_101_1928)" stroke-opacity="0.1" stroke-width="1.64753"/>
</g>
<g filter="url(#filter1_i_101_1928)">
<path d="M79.7759 80.0333C73.4221 84.7227 64.2133 87.2163 56.2833 87.2163C45.1672 87.2163 35.1596 83.1069 27.5849 76.2672C26.9896 75.7296 27.5211 74.9977 28.2349 75.4138C36.4079 80.17 46.5126 83.0341 56.9514 83.0341C63.9916 83.0341 71.7334 81.5732 78.8556 78.5512C79.9277 78.0956 80.8267 79.2588 79.7759 80.0333Z" fill="white" fill-opacity="0.16"/>
<path d="M82.418 77.0176C81.6041 75.9759 77.0453 76.5256 74.9982 76.7686C74.3786 76.8415 74.2814 76.3009 74.8403 75.9091C78.4758 73.3548 84.4347 74.0928 85.1272 74.9463C85.8258 75.8088 84.945 81.783 81.5373 84.6349C81.0118 85.0723 80.5137 84.8384 80.7476 84.2613C81.516 82.3449 83.232 78.0564 82.418 77.0176Z" fill="white" fill-opacity="0.16"/>
<path d="M75.1384 57.8647V55.3833C75.1384 55.0067 75.4239 54.7546 75.7671 54.7546H86.8893C87.2446 54.7546 87.5301 55.0127 87.5301 55.3802V57.5093C87.5271 57.8677 87.2264 58.3324 86.6918 59.0704L80.9303 67.2981C83.0685 67.2465 85.3312 67.5685 87.275 68.6618C87.7154 68.9048 87.8338 69.2693 87.8672 69.6277V72.2761C87.8672 72.6406 87.4694 73.0627 87.0472 72.844C83.6243 71.0521 79.0807 70.8547 75.2933 72.8653C74.9076 73.0718 74.5006 72.6557 74.5006 72.2913V69.7735C74.5006 69.3695 74.5067 68.6831 74.9137 68.0666L81.5894 58.4903H75.7762C75.4269 58.4903 75.1414 58.2352 75.1384 57.8647Z" fill="white" fill-opacity="0.16"/>
<path d="M34.5674 73.367H31.184C30.862 73.3457 30.6039 73.1028 30.5796 72.796L30.5826 55.4264C30.5826 55.0801 30.8742 54.8007 31.2356 54.8007H34.3882C34.7193 54.8189 34.9835 55.068 35.0048 55.3838V57.6526H35.0685C35.8886 55.4598 37.4375 54.4362 39.5211 54.4362C41.638 54.4362 42.9652 55.4598 43.9128 57.6526C44.7329 55.4598 46.5977 54.4362 48.587 54.4362C50.0084 54.4362 51.5574 55.0224 52.505 56.3375C53.5802 57.7984 53.3585 59.9183 53.3585 61.7832L53.3554 72.7444C53.3554 73.0906 53.0639 73.37 52.7024 73.37H49.322C48.9819 73.3488 48.7146 73.0785 48.7146 72.7474V63.5387C48.7146 62.8067 48.7784 60.9814 48.6205 60.2858C48.3684 59.1165 47.6091 58.7885 46.6311 58.7885C45.8111 58.7885 44.9576 59.3382 44.6083 60.213C44.2621 61.0907 44.2925 62.5516 44.2925 63.5387V72.7444C44.2925 73.0906 44.0009 73.37 43.6395 73.37H40.2591C39.9189 73.3488 39.6517 73.0785 39.6517 72.7474L39.6486 63.5387C39.6486 61.6009 39.9645 58.7521 37.5651 58.7521C35.1323 58.7521 35.2265 61.5311 35.2265 63.5387V72.7444C35.2204 73.0876 34.9258 73.367 34.5674 73.367Z" fill="white" fill-opacity="0.16"/>
<path d="M97.1114 54.4334C92.2155 54.4334 89.4972 58.6368 89.4972 64.0461C89.4972 69.4188 92.182 73.7316 97.1114 73.7316C101.849 73.7316 104.85 69.5282 104.85 64.2283C104.85 58.7462 102.132 54.4334 97.1114 54.4334ZM97.1114 70.1508C94.4569 70.1508 94.4903 65.6193 94.4903 63.4994C94.4903 61.3794 94.6482 57.9808 97.1448 57.9808C98.2169 57.9808 98.9762 58.4546 99.3559 59.6634C99.7993 61.0514 99.8601 62.8069 99.8601 64.2678C99.8601 66.494 99.7325 70.1508 97.1114 70.1508Z" fill="white" fill-opacity="0.16"/>
<path d="M111.361 73.367H107.989C107.649 73.3457 107.382 73.0754 107.382 72.7444L107.376 55.3686C107.403 55.0497 107.686 54.8007 108.026 54.8007H111.166C111.461 54.8159 111.704 55.0163 111.768 55.2866V57.9442H111.832C112.779 55.5691 114.106 54.4362 116.442 54.4362C117.958 54.4362 119.443 54.986 120.39 56.4833C121.277 57.8682 121.277 60.2099 121.277 61.8895V72.8173C121.238 73.124 120.964 73.364 120.627 73.364H117.235C116.922 73.3427 116.67 73.1149 116.633 72.8173V63.3868C116.633 61.4855 116.855 58.7095 114.516 58.7095C113.693 58.7095 112.937 59.2593 112.557 60.0975C112.084 61.1575 112.02 62.2175 112.02 63.3868V72.7383C112.014 73.0876 111.722 73.367 111.361 73.367Z" fill="white" fill-opacity="0.16"/>
<path d="M72.3033 70.1836C71.6837 69.3301 71.0247 68.6346 71.0247 67.0462V61.7736C71.0247 59.5382 71.1826 57.4881 69.5364 55.9483C68.2396 54.7061 66.0862 54.2657 64.4401 54.2657C61.2206 54.2657 57.6277 55.4684 56.8714 59.4471C56.7924 59.8693 57.0992 60.091 57.3756 60.1548L60.6557 60.5101C60.9625 60.4949 61.1842 60.1943 61.2449 59.8875C61.5274 58.5177 62.6754 57.8556 63.9663 57.8556C64.6618 57.8556 65.4545 58.1108 65.8645 58.7334C66.3383 59.4289 66.2745 60.3826 66.2745 61.1874V61.6278C64.3125 61.8465 61.7461 61.9953 59.9116 62.8002C57.7917 63.7174 56.3034 65.5853 56.3034 68.3309C56.3034 71.8479 58.5206 73.6065 61.3695 73.6065C63.7749 73.6065 65.09 73.0385 66.9488 71.1463C67.5623 72.0362 67.7658 72.4675 68.8895 73.3999C69.1416 73.5366 69.4636 73.5214 69.6883 73.321L69.6974 73.3301C70.3747 72.7287 71.6017 71.6627 72.2912 71.0826C72.5676 70.8578 72.519 70.4903 72.3033 70.1836ZM66.2775 65.072C66.2775 66.3901 66.3079 67.4896 65.6458 68.6619C65.1082 69.6156 64.2517 70.2018 63.3041 70.2018C62.0073 70.2018 61.248 69.2117 61.248 67.7477C61.248 64.8655 63.8326 64.34 66.2806 64.34L66.2775 65.072Z" fill="white" fill-opacity="0.16"/>
<path d="M27.9359 70.1836C27.3163 69.3301 26.6572 68.6346 26.6572 67.0462V61.7736C26.6572 59.5382 26.8151 57.4881 25.169 55.9483C23.8721 54.7061 21.7218 54.2657 20.0756 54.2657C16.8562 54.2657 13.2602 55.4684 12.507 59.4471C12.428 59.8693 12.7348 60.091 13.0112 60.1548L16.2913 60.5101C16.5981 60.4949 16.8198 60.1943 16.8805 59.8875C17.163 58.5177 18.311 57.8556 19.6018 57.8556C20.2974 57.8556 21.0901 58.1108 21.5001 58.7334C21.9739 59.4289 21.9101 60.3826 21.9101 61.1874V61.6278C19.9481 61.8465 17.3847 61.9953 15.5472 62.8002C13.4272 63.7174 11.939 65.5853 11.939 68.3309C11.939 71.8479 14.1562 73.6065 17.005 73.6065C19.4105 73.6065 20.7256 73.0385 22.5844 71.1463C23.1979 72.0362 23.4014 72.4675 24.5251 73.3999C24.7772 73.5366 25.0991 73.5214 25.3239 73.321L25.333 73.3301C26.0073 72.7287 27.2373 71.6627 27.9268 71.0826C28.2001 70.8578 28.1515 70.4903 27.9359 70.1836ZM21.9101 65.072C21.9101 66.3901 21.9405 67.4896 21.2784 68.6619C20.7408 69.6156 19.8843 70.2018 18.9367 70.2018C17.6398 70.2018 16.8805 69.2117 16.8805 67.7477C16.8805 64.8655 19.4652 64.34 21.9131 64.34L21.9101 65.072Z" fill="white" fill-opacity="0.16"/>
</g>
<defs>
<filter id="filter0_bi_101_1928" x="-32.346" y="-16.2956" width="197.703" height="164.753" filterUnits="userSpaceOnUse" color-interpolation-filters="sRGB">
<feFlood flood-opacity="0" result="BackgroundImageFix"/>
<feGaussianBlur in="BackgroundImageFix" stdDeviation="16.4753"/>
<feComposite in2="SourceAlpha" operator="in" result="effect1_backgroundBlur_101_1928"/>
<feBlend mode="normal" in="SourceGraphic" in2="effect1_backgroundBlur_101_1928" result="shape"/>
<feColorMatrix in="SourceAlpha" type="matrix" values="0 0 0 0 0 0 0 0 0 0 0 0 0 0 0 0 0 0 127 0" result="hardAlpha"/>
<feOffset dy="10.9835"/>
<feGaussianBlur stdDeviation="8.23764"/>
<feComposite in2="hardAlpha" operator="arithmetic" k2="-1" k3="1"/>
<feColorMatrix type="matrix" values="0 0 0 0 1 0 0 0 0 1 0 0 0 0 1 0 0 0 0.4 0"/>
<feBlend mode="normal" in2="shape" result="effect2_innerShadow_101_1928"/>
</filter>
<filter id="filter1_i_101_1928" x="11.939" y="54.2657" width="109.338" height="43.9341" filterUnits="userSpaceOnUse" color-interpolation-filters="sRGB">
<feFlood flood-opacity="0" result="BackgroundImageFix"/>
<feBlend mode="normal" in="SourceGraphic" in2="BackgroundImageFix" result="shape"/>
<feColorMatrix in="SourceAlpha" type="matrix" values="0 0 0 0 0 0 0 0 0 0 0 0 0 0 0 0 0 0 127 0" result="hardAlpha"/>
<feOffset dy="10.9835"/>
<feGaussianBlur stdDeviation="5.49176"/>
<feComposite in2="hardAlpha" operator="arithmetic" k2="-1" k3="1"/>
<feColorMatrix type="matrix" values="0 0 0 0 1 0 0 0 0 1 0 0 0 0 1 0 0 0 0.4 0"/>
<feBlend mode="normal" in2="shape" result="effect1_innerShadow_101_1928"/>
</filter>
<linearGradient id="paint0_linear_101_1928" x1="17.0798" y1="33.1302" x2="125.328" y2="74.3597" gradientUnits="userSpaceOnUse">
<stop stop-color="#FFA39E"/>
<stop offset="1" stop-color="#F01E33"/>
</linearGradient>
<linearGradient id="paint1_linear_101_1928" x1="0.604553" y1="16.655" x2="148.878" y2="66.8543" gradientUnits="userSpaceOnUse">
<stop stop-color="#FFBF80"/>
<stop offset="1" stop-color="#FF384C"/>
</linearGradient>
<linearGradient id="paint2_linear_101_1928" x1="4.72337" y1="21.1482" x2="132.407" y2="21.1482" gradientUnits="userSpaceOnUse">
<stop stop-color="#FFD580"/>
<stop offset="1" stop-color="#E65A53"/>
</linearGradient>
</defs>
</svg>
