<svg width="90" height="90" viewBox="0 0 90 90" fill="none" xmlns="http://www.w3.org/2000/svg">
<g filter="url(#filter0_bi_605_4554)">
<path d="M76.3044 39.1304C68.764 39.1304 62.6244 33.0026 62.6088 25.4641C62.6088 25.4635 62.6087 25.4629 62.6086 25.4623C62.6073 25.4529 62.6088 25.4443 62.6088 25.4348V17.6087C62.6088 7.90044 54.7103 0 45.0001 0C35.2898 0 27.3914 7.90044 27.3914 17.6087V25.4348C27.3914 25.4407 27.3933 25.4446 27.3933 25.4485C27.3933 25.4544 27.3894 25.4583 27.3894 25.4641C27.3757 33.0026 21.2361 39.1304 13.6957 39.1304H7.66308C5.59202 39.1304 3.91309 40.8094 3.91309 42.8804V86.087C3.91309 88.2489 5.66417 90 7.82613 90H82.174C84.3359 90 86.087 88.2489 86.087 86.087V42.8804C86.087 40.8094 84.4081 39.1304 82.337 39.1304H76.3044ZM45.0001 3.91304C52.5503 3.91304 58.6957 10.0565 58.6957 17.6087V19.7283C58.6957 21.7993 57.0168 23.4783 54.9457 23.4783H35.0544C32.9833 23.4783 31.3044 21.7993 31.3044 19.7283V17.6087C31.3044 10.0565 37.4498 3.91304 45.0001 3.91304Z" fill="url(#paint0_linear_605_4554)"/>
</g>
<g filter="url(#filter1_i_605_4554)">
<path d="M45.0003 74.3478C37.4501 74.3478 31.3047 68.2043 31.3047 60.6521V52.826C31.3047 51.746 32.1793 50.8695 33.2612 50.8695H56.7395C57.8214 50.8695 58.696 51.746 58.696 52.826V60.6521C58.696 68.2043 52.5506 74.3478 45.0003 74.3478Z" fill="white" fill-opacity="0.1"/>
</g>
<defs>
<filter id="filter0_bi_605_4554" x="-2.08691" y="-6" width="94.1738" height="102" filterUnits="userSpaceOnUse" color-interpolation-filters="sRGB">
<feFlood flood-opacity="0" result="BackgroundImageFix"/>
<feGaussianBlur in="BackgroundImageFix" stdDeviation="3"/>
<feComposite in2="SourceAlpha" operator="in" result="effect1_backgroundBlur_605_4554"/>
<feBlend mode="normal" in="SourceGraphic" in2="effect1_backgroundBlur_605_4554" result="shape"/>
<feColorMatrix in="SourceAlpha" type="matrix" values="0 0 0 0 0 0 0 0 0 0 0 0 0 0 0 0 0 0 127 0" result="hardAlpha"/>
<feOffset dy="2"/>
<feGaussianBlur stdDeviation="1.5"/>
<feComposite in2="hardAlpha" operator="arithmetic" k2="-1" k3="1"/>
<feColorMatrix type="matrix" values="0 0 0 0 1 0 0 0 0 1 0 0 0 0 1 0 0 0 0.15 0"/>
<feBlend mode="normal" in2="shape" result="effect2_innerShadow_605_4554"/>
</filter>
<filter id="filter1_i_605_4554" x="31.3047" y="50.8695" width="27.3914" height="25.4783" filterUnits="userSpaceOnUse" color-interpolation-filters="sRGB">
<feFlood flood-opacity="0" result="BackgroundImageFix"/>
<feBlend mode="normal" in="SourceGraphic" in2="BackgroundImageFix" result="shape"/>
<feColorMatrix in="SourceAlpha" type="matrix" values="0 0 0 0 0 0 0 0 0 0 0 0 0 0 0 0 0 0 127 0" result="hardAlpha"/>
<feOffset dy="2"/>
<feGaussianBlur stdDeviation="1"/>
<feComposite in2="hardAlpha" operator="arithmetic" k2="-1" k3="1"/>
<feColorMatrix type="matrix" values="0 0 0 0 1 0 0 0 0 1 0 0 0 0 1 0 0 0 0.4 0"/>
<feBlend mode="normal" in2="shape" result="effect1_innerShadow_605_4554"/>
</filter>
<linearGradient id="paint0_linear_605_4554" x1="3.91309" y1="0" x2="101.697" y2="22.67" gradientUnits="userSpaceOnUse">
<stop stop-color="#FFA39E"/>
<stop offset="1" stop-color="#F01E33"/>
</linearGradient>
</defs>
</svg>
