<svg width="133" height="132" viewBox="0 0 133 132" fill="none" xmlns="http://www.w3.org/2000/svg">
<path d="M95.43 33.8087H36.7958V102.413H95.43V33.8087Z" fill="url(#paint0_linear_101_1938)"/>
<path d="M121.527 24.1435H10.6934C4.90306 24.1435 0.209106 19.4495 0.209106 13.6592C0.209106 7.86889 4.90306 3.17493 10.6934 3.17493H121.527C127.317 3.17493 132.011 7.86889 132.011 13.6592C132.011 19.4495 127.317 24.1435 121.527 24.1435Z" fill="url(#paint1_linear_101_1938)"/>
<g filter="url(#filter0_bi_101_1938)">
<path d="M108.049 128.986H24.1746C19.2111 128.986 15.1881 124.963 15.1881 119.999V12.1608H117.035V119.999C117.035 124.963 113.012 128.986 108.049 128.986Z" fill="url(#paint2_linear_101_1938)" fill-opacity="0.2"/>
<path d="M108.049 128.162H24.1746C19.666 128.162 16.0119 124.508 16.0119 119.999V12.9845H116.212V119.999C116.212 124.508 112.557 128.162 108.049 128.162Z" stroke="url(#paint3_linear_101_1938)" stroke-opacity="0.1" stroke-width="1.64753"/>
</g>
<g filter="url(#filter1_i_101_1938)">
<path d="M90.0763 60.0903H75.0987V117.005H90.0763V60.0903Z" fill="white" fill-opacity="0.16"/>
</g>
<path d="M57.1262 12.1608H36.1576V128.986H57.1262V12.1608Z" fill="url(#paint4_linear_101_1938)"/>
<defs>
<filter id="filter0_bi_101_1938" x="-17.7625" y="-20.7898" width="167.748" height="182.726" filterUnits="userSpaceOnUse" color-interpolation-filters="sRGB">
<feFlood flood-opacity="0" result="BackgroundImageFix"/>
<feGaussianBlur in="BackgroundImageFix" stdDeviation="16.4753"/>
<feComposite in2="SourceAlpha" operator="in" result="effect1_backgroundBlur_101_1938"/>
<feBlend mode="normal" in="SourceGraphic" in2="effect1_backgroundBlur_101_1938" result="shape"/>
<feColorMatrix in="SourceAlpha" type="matrix" values="0 0 0 0 0 0 0 0 0 0 0 0 0 0 0 0 0 0 127 0" result="hardAlpha"/>
<feOffset dy="10.9835"/>
<feGaussianBlur stdDeviation="8.23764"/>
<feComposite in2="hardAlpha" operator="arithmetic" k2="-1" k3="1"/>
<feColorMatrix type="matrix" values="0 0 0 0 1 0 0 0 0 1 0 0 0 0 1 0 0 0 0.4 0"/>
<feBlend mode="normal" in2="shape" result="effect2_innerShadow_101_1938"/>
</filter>
<filter id="filter1_i_101_1938" x="75.0987" y="60.0903" width="14.9775" height="67.8981" filterUnits="userSpaceOnUse" color-interpolation-filters="sRGB">
<feFlood flood-opacity="0" result="BackgroundImageFix"/>
<feBlend mode="normal" in="SourceGraphic" in2="BackgroundImageFix" result="shape"/>
<feColorMatrix in="SourceAlpha" type="matrix" values="0 0 0 0 0 0 0 0 0 0 0 0 0 0 0 0 0 0 127 0" result="hardAlpha"/>
<feOffset dy="10.9835"/>
<feGaussianBlur stdDeviation="5.49176"/>
<feComposite in2="hardAlpha" operator="arithmetic" k2="-1" k3="1"/>
<feColorMatrix type="matrix" values="0 0 0 0 1 0 0 0 0 1 0 0 0 0 1 0 0 0 0.4 0"/>
<feBlend mode="normal" in2="shape" result="effect1_innerShadow_101_1938"/>
</filter>
<linearGradient id="paint0_linear_101_1938" x1="36.7958" y1="33.8087" x2="107.011" y2="49.0467" gradientUnits="userSpaceOnUse">
<stop stop-color="#CFCFCF"/>
<stop offset="1" stop-color="#999999" stop-opacity="0.7"/>
</linearGradient>
<linearGradient id="paint1_linear_101_1938" x1="0.209106" y1="3.17493" x2="46.7979" y2="77.5334" gradientUnits="userSpaceOnUse">
<stop stop-color="#CFCFCF"/>
<stop offset="1" stop-color="#999999" stop-opacity="0.7"/>
</linearGradient>
<linearGradient id="paint2_linear_101_1938" x1="15.1881" y1="12.1608" x2="136.931" y2="39.1103" gradientUnits="userSpaceOnUse">
<stop stop-color="#BFBFBF"/>
<stop offset="1" stop-color="#9C9C9C"/>
</linearGradient>
<linearGradient id="paint3_linear_101_1938" x1="18.3708" y1="17.471" x2="117.035" y2="17.471" gradientUnits="userSpaceOnUse">
<stop stop-color="#CCCCCC"/>
<stop offset="1" stop-color="#808080"/>
</linearGradient>
<linearGradient id="paint4_linear_101_1938" x1="36.1576" y1="12.1608" x2="62.396" y2="13.3566" gradientUnits="userSpaceOnUse">
<stop stop-color="#CFCFCF"/>
<stop offset="1" stop-color="#999999" stop-opacity="0.7"/>
</linearGradient>
</defs>
</svg>
