<svg width="90" height="90" viewBox="0 0 90 90" fill="none" xmlns="http://www.w3.org/2000/svg">
<path d="M17.6084 36.1958V74.9889C17.6084 78.4168 20.2946 81.1958 23.6084 81.1958H56.6084C59.9222 81.1958 62.6084 78.4168 62.6084 74.9889V36.1958H17.6084Z" fill="url(#paint0_linear_605_4563)"/>
<path d="M72.3916 68.4785H56.7395C55.1192 68.4785 53.8047 67.1649 53.8047 65.5437V38.1524C53.8047 36.5312 55.1192 35.2177 56.7395 35.2177H80.2177C81.838 35.2177 83.1525 36.5312 83.1525 38.1524V57.7177C83.1525 63.6512 78.3243 68.4785 72.3916 68.4785ZM59.6743 62.609H72.3916C75.0895 62.609 77.283 60.4146 77.283 57.7177V41.0872H59.6743V62.609Z" fill="url(#paint1_linear_605_4563)"/>
<g filter="url(#filter0_bi_605_4563)">
<path d="M10.7612 33.2606V82.1737C10.7612 86.4959 14.265 89.9998 18.5873 89.9998H61.6308C65.9531 89.9998 69.4569 86.4959 69.4569 82.1737V33.2606H10.7612Z" fill="#1D1D1D" fill-opacity="0.05"/>
<path d="M10.7612 33.2606V82.1737C10.7612 86.4959 14.265 89.9998 18.5873 89.9998H61.6308C65.9531 89.9998 69.4569 86.4959 69.4569 82.1737V33.2606H10.7612Z" fill="url(#paint2_linear_605_4563)" fill-opacity="0.2"/>
<path d="M11.3237 82.1737V33.8231H68.8944V82.1737C68.8944 86.1852 65.6424 89.4373 61.6308 89.4373H18.5873C14.5757 89.4373 11.3237 86.1852 11.3237 82.1737Z" stroke="url(#paint3_linear_605_4563)" stroke-opacity="0.1" stroke-width="1.125"/>
</g>
<g filter="url(#filter1_i_605_4563)">
<path d="M40.1084 74.3478C39.0279 74.3478 38.1519 73.4727 38.1519 72.3913V46.9565C38.1519 45.8751 39.0279 45 40.1084 45C41.1889 45 42.0649 45.8751 42.0649 46.9565V72.3913C42.0649 73.4727 41.1889 74.3478 40.1084 74.3478Z" fill="white" fill-opacity="0.1"/>
</g>
<g filter="url(#filter2_i_605_4563)">
<path d="M26.4131 74.3478C25.3326 74.3478 24.4565 73.4727 24.4565 72.3913V46.9565C24.4565 45.8751 25.3326 45 26.4131 45C27.4936 45 28.3696 45.8751 28.3696 46.9565V72.3913C28.3696 73.4727 27.4936 74.3478 26.4131 74.3478Z" fill="white" fill-opacity="0.1"/>
</g>
<g filter="url(#filter3_i_605_4563)">
<path d="M53.8047 74.3478C52.7242 74.3478 51.8481 73.4727 51.8481 72.3913V46.9565C51.8481 45.8751 52.7242 45 53.8047 45C54.8852 45 55.7612 45.8751 55.7612 46.9565V72.3913C55.7612 73.4727 54.8852 74.3478 53.8047 74.3478Z" fill="white" fill-opacity="0.1"/>
</g>
<g filter="url(#filter4_bi_605_4563)">
<path d="M63.5873 17.6087H62.8178C60.2077 7.4879 51.0451 0 40.109 0C29.173 0 20.0104 7.4879 17.4003 17.6087H16.6308C11.228 17.6087 6.84814 21.9886 6.84814 27.3913C6.84814 32.7941 11.228 37.1739 16.6308 37.1739H63.5873C68.99 37.1739 73.3699 32.7941 73.3699 27.3913C73.3699 21.9886 68.99 17.6087 63.5873 17.6087Z" fill="#1D1D1D" fill-opacity="0.05"/>
<path d="M63.5873 17.6087H62.8178C60.2077 7.4879 51.0451 0 40.109 0C29.173 0 20.0104 7.4879 17.4003 17.6087H16.6308C11.228 17.6087 6.84814 21.9886 6.84814 27.3913C6.84814 32.7941 11.228 37.1739 16.6308 37.1739H63.5873C68.99 37.1739 73.3699 32.7941 73.3699 27.3913C73.3699 21.9886 68.99 17.6087 63.5873 17.6087Z" fill="url(#paint4_linear_605_4563)" fill-opacity="0.2"/>
<path d="M22.5003 37.1739V54.7826C22.5003 56.9437 24.2522 58.6957 26.4134 58.6957C28.5745 58.6957 30.3264 56.9437 30.3264 54.7826V37.1739H22.5003Z" fill="#1D1D1D" fill-opacity="0.05"/>
<path d="M22.5003 37.1739V54.7826C22.5003 56.9437 24.2522 58.6957 26.4134 58.6957C28.5745 58.6957 30.3264 56.9437 30.3264 54.7826V37.1739H22.5003Z" fill="url(#paint5_linear_605_4563)" fill-opacity="0.2"/>
<path d="M62.2731 17.7492L62.3819 18.1712H62.8178H63.5873C68.6794 18.1712 72.8074 22.2992 72.8074 27.3913C72.8074 32.4834 68.6794 36.6114 63.5873 36.6114H30.8889H30.3264H22.5003H21.9378H16.6308C11.5387 36.6114 7.41064 32.4834 7.41064 27.3913C7.41064 22.2992 11.5387 18.1712 16.6308 18.1712H17.4003H17.8361L17.945 17.7492C20.4928 7.86957 29.4369 0.5625 40.109 0.5625C50.7811 0.5625 59.7252 7.86957 62.2731 17.7492ZM29.7639 37.7364V54.7826C29.7639 56.6331 28.2638 58.1332 26.4134 58.1332C24.5629 58.1332 23.0628 56.6331 23.0628 54.7826V37.7364H29.7639Z" stroke="url(#paint6_linear_605_4563)" stroke-opacity="0.1" stroke-width="1.125"/>
</g>
<defs>
<filter id="filter0_bi_605_4563" x="4.76123" y="27.2606" width="70.6956" height="68.7391" filterUnits="userSpaceOnUse" color-interpolation-filters="sRGB">
<feFlood flood-opacity="0" result="BackgroundImageFix"/>
<feGaussianBlur in="BackgroundImageFix" stdDeviation="3"/>
<feComposite in2="SourceAlpha" operator="in" result="effect1_backgroundBlur_605_4563"/>
<feBlend mode="normal" in="SourceGraphic" in2="effect1_backgroundBlur_605_4563" result="shape"/>
<feColorMatrix in="SourceAlpha" type="matrix" values="0 0 0 0 0 0 0 0 0 0 0 0 0 0 0 0 0 0 127 0" result="hardAlpha"/>
<feOffset dy="2"/>
<feGaussianBlur stdDeviation="1.5"/>
<feComposite in2="hardAlpha" operator="arithmetic" k2="-1" k3="1"/>
<feColorMatrix type="matrix" values="0 0 0 0 1 0 0 0 0 1 0 0 0 0 1 0 0 0 0.15 0"/>
<feBlend mode="normal" in2="shape" result="effect2_innerShadow_605_4563"/>
</filter>
<filter id="filter1_i_605_4563" x="38.1519" y="45" width="3.91309" height="31.3478" filterUnits="userSpaceOnUse" color-interpolation-filters="sRGB">
<feFlood flood-opacity="0" result="BackgroundImageFix"/>
<feBlend mode="normal" in="SourceGraphic" in2="BackgroundImageFix" result="shape"/>
<feColorMatrix in="SourceAlpha" type="matrix" values="0 0 0 0 0 0 0 0 0 0 0 0 0 0 0 0 0 0 127 0" result="hardAlpha"/>
<feOffset dy="2"/>
<feGaussianBlur stdDeviation="1"/>
<feComposite in2="hardAlpha" operator="arithmetic" k2="-1" k3="1"/>
<feColorMatrix type="matrix" values="0 0 0 0 1 0 0 0 0 1 0 0 0 0 1 0 0 0 0.1 0"/>
<feBlend mode="normal" in2="shape" result="effect1_innerShadow_605_4563"/>
</filter>
<filter id="filter2_i_605_4563" x="24.4565" y="45" width="3.91309" height="31.3478" filterUnits="userSpaceOnUse" color-interpolation-filters="sRGB">
<feFlood flood-opacity="0" result="BackgroundImageFix"/>
<feBlend mode="normal" in="SourceGraphic" in2="BackgroundImageFix" result="shape"/>
<feColorMatrix in="SourceAlpha" type="matrix" values="0 0 0 0 0 0 0 0 0 0 0 0 0 0 0 0 0 0 127 0" result="hardAlpha"/>
<feOffset dy="2"/>
<feGaussianBlur stdDeviation="1"/>
<feComposite in2="hardAlpha" operator="arithmetic" k2="-1" k3="1"/>
<feColorMatrix type="matrix" values="0 0 0 0 1 0 0 0 0 1 0 0 0 0 1 0 0 0 0.1 0"/>
<feBlend mode="normal" in2="shape" result="effect1_innerShadow_605_4563"/>
</filter>
<filter id="filter3_i_605_4563" x="51.8481" y="45" width="3.91309" height="31.3478" filterUnits="userSpaceOnUse" color-interpolation-filters="sRGB">
<feFlood flood-opacity="0" result="BackgroundImageFix"/>
<feBlend mode="normal" in="SourceGraphic" in2="BackgroundImageFix" result="shape"/>
<feColorMatrix in="SourceAlpha" type="matrix" values="0 0 0 0 0 0 0 0 0 0 0 0 0 0 0 0 0 0 127 0" result="hardAlpha"/>
<feOffset dy="2"/>
<feGaussianBlur stdDeviation="1"/>
<feComposite in2="hardAlpha" operator="arithmetic" k2="-1" k3="1"/>
<feColorMatrix type="matrix" values="0 0 0 0 1 0 0 0 0 1 0 0 0 0 1 0 0 0 0.1 0"/>
<feBlend mode="normal" in2="shape" result="effect1_innerShadow_605_4563"/>
</filter>
<filter id="filter4_bi_605_4563" x="0.848145" y="-6" width="78.5217" height="70.6957" filterUnits="userSpaceOnUse" color-interpolation-filters="sRGB">
<feFlood flood-opacity="0" result="BackgroundImageFix"/>
<feGaussianBlur in="BackgroundImageFix" stdDeviation="3"/>
<feComposite in2="SourceAlpha" operator="in" result="effect1_backgroundBlur_605_4563"/>
<feBlend mode="normal" in="SourceGraphic" in2="effect1_backgroundBlur_605_4563" result="shape"/>
<feColorMatrix in="SourceAlpha" type="matrix" values="0 0 0 0 0 0 0 0 0 0 0 0 0 0 0 0 0 0 127 0" result="hardAlpha"/>
<feOffset dy="2"/>
<feGaussianBlur stdDeviation="1.5"/>
<feComposite in2="hardAlpha" operator="arithmetic" k2="-1" k3="1"/>
<feColorMatrix type="matrix" values="0 0 0 0 1 0 0 0 0 1 0 0 0 0 1 0 0 0 0.4 0"/>
<feBlend mode="normal" in2="shape" result="effect2_innerShadow_605_4563"/>
</filter>
<linearGradient id="paint0_linear_605_4563" x1="17.6084" y1="36.1958" x2="70.617" y2="49.6557" gradientUnits="userSpaceOnUse">
<stop stop-color="#FFA39E"/>
<stop offset="1" stop-color="#F01E33"/>
</linearGradient>
<linearGradient id="paint1_linear_605_4563" x1="53.8047" y1="35.2177" x2="88.8455" y2="43.0684" gradientUnits="userSpaceOnUse">
<stop stop-color="#FFA39E"/>
<stop offset="1" stop-color="#F01E33"/>
</linearGradient>
<linearGradient id="paint2_linear_605_4563" x1="10.7612" y1="33.2606" x2="79.6104" y2="51.3455" gradientUnits="userSpaceOnUse">
<stop stop-color="#FFD580"/>
<stop offset="1" stop-color="#FF384C"/>
</linearGradient>
<linearGradient id="paint3_linear_605_4563" x1="12.5955" y1="35.8397" x2="69.4569" y2="35.8397" gradientUnits="userSpaceOnUse">
<stop stop-color="#FFD580"/>
<stop offset="1" stop-color="#E65A53"/>
</linearGradient>
<linearGradient id="paint4_linear_605_4563" x1="6.84814" y1="0" x2="83.8815" y2="22.1682" gradientUnits="userSpaceOnUse">
<stop stop-color="#FFD580"/>
<stop offset="1" stop-color="#FF384C"/>
</linearGradient>
<linearGradient id="paint5_linear_605_4563" x1="6.84814" y1="0" x2="83.8815" y2="22.1682" gradientUnits="userSpaceOnUse">
<stop stop-color="#FFD580"/>
<stop offset="1" stop-color="#FF384C"/>
</linearGradient>
<linearGradient id="paint6_linear_605_4563" x1="8.92695" y1="2.66799" x2="73.3699" y2="2.66799" gradientUnits="userSpaceOnUse">
<stop stop-color="#FFD580"/>
<stop offset="1" stop-color="#E65A53"/>
</linearGradient>
</defs>
</svg>
