<svg width="87" height="84" viewBox="0 0 87 84" fill="none" xmlns="http://www.w3.org/2000/svg">
<g clip-path="url(#clip0_15_321)">
<path d="M16.1452 0H71.5995C79.9706 0 86.7701 6.76975 86.7701 15.1411V23.496H0.974609V15.1411C0.974609 6.76975 7.75751 0 16.1452 0Z" fill="#3680FF"/>
<g filter="url(#filter0_biii_15_321)">
<path d="M71.6823 0H16.0459C8.25382 0 1.85142 5.89463 1.05733 13.4569C1.0077 13.9688 0.974609 14.5137 0.974609 15.042V23.4795V81.0058C0.974609 82.657 2.72824 83.7137 4.20062 82.9542L32.1098 68.4735C32.755 68.1433 33.5326 68.1433 34.1612 68.49L61.1439 82.9046C62.6163 83.6807 64.3865 82.6239 64.3865 80.9728V15.042C64.3865 8.07416 69.1345 2.22906 75.57 0.52837C74.3292 0.198139 73.0388 0 71.6823 0Z" fill="#3680FF" fill-opacity="0.14"/>
</g>
<path d="M43.7566 38.0096C41.2585 38.0096 38.7438 38.0096 36.2458 38.0096C36.2458 36.3915 36.2458 34.7569 36.2458 33.1387C36.2458 32.2636 36.2458 31.3885 36.2458 30.5134C36.2458 28.8457 34.823 27.4092 33.1355 27.4092C31.4481 27.4092 30.0253 28.8292 30.0253 30.5134C30.0253 33.0066 30.0253 35.5164 30.0253 38.0096C28.4041 38.0096 26.7662 38.0096 25.1449 38.0096C24.2681 38.0096 23.3913 38.0096 22.5145 38.0096C20.8436 38.0096 19.4043 39.4296 19.4043 41.1138C19.4043 42.798 20.8271 44.218 22.5145 44.218C25.0126 44.218 27.5272 44.218 30.0253 44.218C30.0253 45.8361 30.0253 47.4708 30.0253 49.0889C30.0253 49.964 30.0253 50.8391 30.0253 51.7143C30.0253 53.3819 31.4481 54.8184 33.1355 54.8184C34.823 54.8184 36.2458 53.3984 36.2458 51.7143C36.2458 49.221 36.2458 46.7112 36.2458 44.218C37.867 44.218 39.5049 44.218 41.1261 44.218C42.0029 44.218 42.8798 44.218 43.7566 44.218C45.4275 44.218 46.8668 42.798 46.8668 41.1138C46.8668 39.4296 45.444 38.0096 43.7566 38.0096Z" fill="#3680FF"/>
</g>
<defs>
<filter id="filter0_biii_15_321" x="-35.0254" y="-36" width="146.595" height="155.205" filterUnits="userSpaceOnUse" color-interpolation-filters="sRGB">
<feFlood flood-opacity="0" result="BackgroundImageFix"/>
<feGaussianBlur in="BackgroundImageFix" stdDeviation="18"/>
<feComposite in2="SourceAlpha" operator="in" result="effect1_backgroundBlur_15_321"/>
<feBlend mode="normal" in="SourceGraphic" in2="effect1_backgroundBlur_15_321" result="shape"/>
<feColorMatrix in="SourceAlpha" type="matrix" values="0 0 0 0 0 0 0 0 0 0 0 0 0 0 0 0 0 0 127 0" result="hardAlpha"/>
<feOffset dy="4"/>
<feGaussianBlur stdDeviation="18"/>
<feComposite in2="hardAlpha" operator="arithmetic" k2="-1" k3="1"/>
<feColorMatrix type="matrix" values="0 0 0 0 1 0 0 0 0 1 0 0 0 0 1 0 0 0 0.36 0"/>
<feBlend mode="normal" in2="shape" result="effect2_innerShadow_15_321"/>
<feColorMatrix in="SourceAlpha" type="matrix" values="0 0 0 0 0 0 0 0 0 0 0 0 0 0 0 0 0 0 127 0" result="hardAlpha"/>
<feOffset dy="4"/>
<feGaussianBlur stdDeviation="2"/>
<feComposite in2="hardAlpha" operator="arithmetic" k2="-1" k3="1"/>
<feColorMatrix type="matrix" values="0 0 0 0 1 0 0 0 0 1 0 0 0 0 1 0 0 0 0.15 0"/>
<feBlend mode="normal" in2="effect2_innerShadow_15_321" result="effect3_innerShadow_15_321"/>
<feColorMatrix in="SourceAlpha" type="matrix" values="0 0 0 0 0 0 0 0 0 0 0 0 0 0 0 0 0 0 127 0" result="hardAlpha"/>
<feOffset dy="1"/>
<feGaussianBlur stdDeviation="0.5"/>
<feComposite in2="hardAlpha" operator="arithmetic" k2="-1" k3="1"/>
<feColorMatrix type="matrix" values="0 0 0 0 1 0 0 0 0 1 0 0 0 0 1 0 0 0 0.05 0"/>
<feBlend mode="normal" in2="effect3_innerShadow_15_321" result="effect4_innerShadow_15_321"/>
</filter>
<clipPath id="clip0_15_321">
<rect width="85.7789" height="83.2184" fill="white" transform="translate(0.974609)"/>
</clipPath>
</defs>
</svg>
