<svg width="90" height="90" viewBox="0 0 90 90" fill="none" xmlns="http://www.w3.org/2000/svg">
<path d="M19.7542 82.174H11.5506C11.3597 82.1739 11.1723 82.1227 11.0078 82.0258C10.8433 81.9289 10.7078 81.7897 10.6152 81.6228C8.90139 78.1357 8.05891 74.2851 8.15999 70.401C8.15654 67.2376 8.79481 64.1063 10.0362 61.1966C10.8575 59.3769 11.3111 57.4128 11.3708 55.4172C11.3714 54.1963 11.1778 52.9832 10.7971 51.8232C10.4906 50.9109 10.3232 49.9577 10.3005 48.9955C10.3005 47.5763 10.8643 46.2151 11.8679 45.2115C12.8715 44.208 14.2326 43.6442 15.6519 43.6442C17.0711 43.6442 18.4323 44.208 19.4359 45.2115C20.4394 46.2151 21.0032 47.5763 21.0032 48.9955C20.9805 49.9577 20.8131 50.9109 20.5066 51.8232C20.126 52.9832 19.9323 54.1963 19.933 55.4172C19.9927 57.4128 20.4463 59.3769 21.2676 61.1966C22.509 64.1063 23.1472 67.2376 23.1438 70.401C23.2445 74.2849 22.4025 78.1354 20.6896 81.6228C20.5971 81.7897 20.4615 81.9289 20.297 82.0258C20.1325 82.1227 19.9451 82.1739 19.7542 82.174Z" fill="url(#paint0_linear_605_4559)"/>
<path d="M78.4505 82.1742H70.2469C70.056 82.1741 69.8686 82.1229 69.7041 82.026C69.5396 81.9291 69.4041 81.79 69.3115 81.623C67.5977 78.136 66.7552 74.2853 66.8563 70.4013C66.8528 67.2378 67.4911 64.1066 68.7325 61.1969C69.5538 59.3772 70.0074 57.4131 70.0671 55.4175C70.0677 54.1967 69.8741 52.9835 69.4934 51.8235C69.1869 50.9112 69.0195 49.958 68.9968 48.9959C68.9968 47.5766 69.5606 46.2155 70.5642 45.2119C71.5678 44.2083 72.9289 43.6445 74.3482 43.6445C75.7674 43.6445 77.1286 44.2083 78.1321 45.2119C79.1357 46.2155 79.6995 47.5766 79.6995 48.9959C79.6768 49.958 79.5094 50.9112 79.2029 51.8235C78.8223 52.9835 78.6286 54.1967 78.6292 55.4175C78.689 57.4131 79.1426 59.3772 79.9639 61.1969C81.2052 64.1066 81.8435 67.2378 81.8401 70.4013C81.9408 74.2852 81.0988 78.1357 79.3859 81.623C79.2933 81.79 79.1578 81.9291 78.9933 82.026C78.8288 82.1229 78.6414 82.1741 78.4505 82.1742Z" fill="url(#paint1_linear_605_4559)"/>
<g filter="url(#filter0_bi_605_4559)">
<path d="M23.1518 82.1742H8.15502C7.80603 82.174 7.46344 82.0805 7.16277 81.9033C6.8621 81.7261 6.61428 81.4718 6.44502 81.1666C3.31209 74.7921 1.77198 67.7528 1.95676 60.6524C1.95046 54.8695 3.11725 49.1454 5.38654 43.8263C6.88798 40.4998 7.71713 36.9092 7.82633 33.2611C7.82748 31.0294 7.47349 28.8116 6.77763 26.6911C6.21733 25.0234 5.91129 23.2808 5.86981 21.522C5.86981 18.9275 6.90047 16.4392 8.73507 14.6046C10.5697 12.77 13.0579 11.7394 15.6524 11.7394C18.2469 11.7394 20.7352 12.77 22.5698 14.6046C24.4044 16.4392 25.435 18.9275 25.435 21.522C25.3935 23.2808 25.0875 25.0234 24.5272 26.6911C23.8313 28.8116 23.4774 31.0294 23.4785 33.2611C23.5877 36.9092 24.4169 40.4998 25.9183 43.8263C28.1876 49.1454 29.3544 54.8695 29.3481 60.6524C29.5323 67.7525 27.9929 74.7915 24.8618 81.1666C24.6925 81.4718 24.4447 81.7261 24.144 81.9033C23.8433 82.0805 23.5008 82.174 23.1518 82.1742Z" fill="#1D1D1D" fill-opacity="0.05"/>
<path d="M23.1518 82.1742H8.15502C7.80603 82.174 7.46344 82.0805 7.16277 81.9033C6.8621 81.7261 6.61428 81.4718 6.44502 81.1666C3.31209 74.7921 1.77198 67.7528 1.95676 60.6524C1.95046 54.8695 3.11725 49.1454 5.38654 43.8263C6.88798 40.4998 7.71713 36.9092 7.82633 33.2611C7.82748 31.0294 7.47349 28.8116 6.77763 26.6911C6.21733 25.0234 5.91129 23.2808 5.86981 21.522C5.86981 18.9275 6.90047 16.4392 8.73507 14.6046C10.5697 12.77 13.0579 11.7394 15.6524 11.7394C18.2469 11.7394 20.7352 12.77 22.5698 14.6046C24.4044 16.4392 25.435 18.9275 25.435 21.522C25.3935 23.2808 25.0875 25.0234 24.5272 26.6911C23.8313 28.8116 23.4774 31.0294 23.4785 33.2611C23.5877 36.9092 24.4169 40.4998 25.9183 43.8263C28.1876 49.1454 29.3544 54.8695 29.3481 60.6524C29.5323 67.7525 27.9929 74.7915 24.8618 81.1666C24.6925 81.4718 24.4447 81.7261 24.144 81.9033C23.8433 82.0805 23.5008 82.174 23.1518 82.1742Z" fill="url(#paint2_linear_605_4559)" fill-opacity="0.2"/>
<path d="M2.51907 60.6671L2.51927 60.6594L2.51926 60.6518C2.51305 54.9469 3.66371 49.3 5.90167 44.0524C7.43207 40.6597 8.27722 36.9982 8.38858 33.278L8.38882 33.2697L8.38883 33.2614C8.39001 30.97 8.02656 28.6929 7.31209 26.5157L7.3121 26.5157L7.31084 26.512C6.76923 24.8999 6.47307 23.2155 6.43231 21.5154C6.43405 19.0725 7.40526 16.7299 9.13281 15.0024C10.8619 13.2733 13.2071 12.3019 15.6524 12.3019C18.0977 12.3019 20.4429 13.2733 22.172 15.0024C23.8996 16.7299 24.8708 19.0725 24.8725 21.5154C24.8318 23.2155 24.5356 24.8999 23.994 26.512L23.9927 26.5157C23.2783 28.6929 22.9148 30.97 22.916 33.2614L22.916 33.2697L22.9163 33.278C23.0276 36.9982 23.8728 40.6597 25.4032 44.0523C27.6411 49.3 28.7918 54.9469 28.7856 60.6518L28.7856 60.6594L28.7858 60.667C28.9675 67.6712 27.4501 74.6151 24.3636 80.905C24.2432 81.1174 24.069 81.2946 23.8585 81.4187C23.6442 81.5449 23.4001 81.6116 23.1515 81.6117H8.15531C7.90666 81.6116 7.66257 81.5449 7.44833 81.4187C7.23777 81.2946 7.0636 81.1174 6.94319 80.9049C3.85487 74.6156 2.33679 67.6715 2.51907 60.6671Z" stroke="url(#paint3_linear_605_4559)" stroke-opacity="0.1" stroke-width="1.125"/>
</g>
<g filter="url(#filter1_bi_605_4559)">
<path d="M81.8471 82.1742H66.8503C66.5013 82.174 66.1588 82.0805 65.8581 81.9033C65.5574 81.7261 65.3096 81.4718 65.1403 81.1666C62.0074 74.7921 60.4673 67.7528 60.6521 60.6524C60.6458 54.8695 61.8126 49.1454 64.0819 43.8263C65.5833 40.4998 66.4124 36.9092 66.5216 33.2611C66.5228 31.0294 66.1688 28.8116 65.4729 26.6911C64.9126 25.0234 64.6066 23.2808 64.5651 21.522C64.5651 18.9275 65.5958 16.4392 67.4304 14.6046C69.265 12.77 71.7532 11.7394 74.3477 11.7394C76.9422 11.7394 79.4305 12.77 81.2651 14.6046C83.0997 16.4392 84.1303 18.9275 84.1303 21.522C84.0889 23.2808 83.7828 25.0234 83.2225 26.6911C82.5267 28.8116 82.1727 31.0294 82.1738 33.2611C82.283 36.9092 83.1122 40.4998 84.6136 43.8263C86.8829 49.1454 88.0497 54.8695 88.0434 60.6524C88.2276 67.7525 86.6882 74.7915 83.5571 81.1666C83.3878 81.4718 83.14 81.7261 82.8393 81.9033C82.5387 82.0805 82.1961 82.174 81.8471 82.1742Z" fill="#1D1D1D" fill-opacity="0.05"/>
<path d="M81.8471 82.1742H66.8503C66.5013 82.174 66.1588 82.0805 65.8581 81.9033C65.5574 81.7261 65.3096 81.4718 65.1403 81.1666C62.0074 74.7921 60.4673 67.7528 60.6521 60.6524C60.6458 54.8695 61.8126 49.1454 64.0819 43.8263C65.5833 40.4998 66.4124 36.9092 66.5216 33.2611C66.5228 31.0294 66.1688 28.8116 65.4729 26.6911C64.9126 25.0234 64.6066 23.2808 64.5651 21.522C64.5651 18.9275 65.5958 16.4392 67.4304 14.6046C69.265 12.77 71.7532 11.7394 74.3477 11.7394C76.9422 11.7394 79.4305 12.77 81.2651 14.6046C83.0997 16.4392 84.1303 18.9275 84.1303 21.522C84.0889 23.2808 83.7828 25.0234 83.2225 26.6911C82.5267 28.8116 82.1727 31.0294 82.1738 33.2611C82.283 36.9092 83.1122 40.4998 84.6136 43.8263C86.8829 49.1454 88.0497 54.8695 88.0434 60.6524C88.2276 67.7525 86.6882 74.7915 83.5571 81.1666C83.3878 81.4718 83.14 81.7261 82.8393 81.9033C82.5387 82.0805 82.1961 82.174 81.8471 82.1742Z" fill="url(#paint4_linear_605_4559)" fill-opacity="0.2"/>
<path d="M61.2144 60.6671L61.2146 60.6594L61.2146 60.6518C61.2084 54.9469 62.359 49.3 64.597 44.0524C66.1274 40.6597 66.9725 36.9982 67.0839 33.278L67.0841 33.2697L67.0841 33.2614C67.0853 30.97 66.7219 28.6929 66.0074 26.5157L66.0074 26.5157L66.0062 26.512C65.4645 24.8999 65.1684 23.2155 65.1276 21.5154C65.1294 19.0725 66.1006 16.7299 67.8281 15.0024C69.5572 13.2733 71.9024 12.3019 74.3477 12.3019C76.7931 12.3019 79.1382 13.2733 80.8673 15.0024C82.5949 16.7299 83.5661 19.0725 83.5678 21.5154C83.5271 23.2155 83.2309 24.8999 82.6893 26.512L82.6881 26.5157C81.9736 28.6929 81.6101 30.97 81.6113 33.2614L81.6113 33.2697L81.6116 33.278C81.7229 36.9982 82.5681 40.6597 84.0985 44.0523C86.3364 49.3 87.4871 54.9469 87.4809 60.6518L87.4809 60.6594L87.4811 60.667C87.6628 67.6712 86.1455 74.6151 83.0589 80.905C82.9385 81.1174 82.7643 81.2946 82.5538 81.4187C82.3395 81.5449 82.0954 81.6116 81.8468 81.6117H66.8506C66.602 81.6116 66.3579 81.5449 66.1436 81.4187C65.9331 81.2946 65.7589 81.1174 65.6385 80.9049C62.5502 74.6156 61.0321 67.6715 61.2144 60.6671Z" stroke="url(#paint5_linear_605_4559)" stroke-opacity="0.1" stroke-width="1.125"/>
</g>
<g filter="url(#filter2_i_605_4559)">
<path d="M55.0744 90H34.9223C34.574 89.9999 34.2321 89.9068 33.9318 89.7303C33.6315 89.5539 33.3838 89.3005 33.2142 88.9963C29.5144 82.3696 27.3916 72.7533 27.3916 62.6087C27.5449 55.4231 29.0558 48.3313 31.8446 41.7072C33.8345 37.1815 34.9777 32.3293 35.2177 27.3913C35.3224 24.1776 34.9512 20.9661 34.1162 17.8611C33.5361 15.8726 33.2481 13.8104 33.2612 11.7391C33.2612 8.62572 34.498 5.63983 36.6995 3.43831C38.901 1.2368 41.8869 0 45.0003 0C48.1137 0 51.0996 1.2368 53.3011 3.43831C55.5026 5.63983 56.7394 8.62572 56.7394 11.7391C56.7524 13.8098 56.4644 15.8713 55.8844 17.8591C55.0494 20.9649 54.6782 24.177 54.7829 27.3913C55.0229 32.3293 56.1662 37.1815 58.156 41.7072C60.9449 48.3313 62.4558 55.4231 62.609 62.6087C62.609 72.7533 60.4862 82.3696 56.7825 88.9963C56.6129 89.3005 56.3652 89.5539 56.0649 89.7303C55.7646 89.9068 55.4227 89.9999 55.0744 90Z" fill="url(#paint6_linear_605_4559)"/>
</g>
<g filter="url(#filter3_i_605_4559)">
<path d="M66.4337 31.3042C66.4885 31.9029 66.5217 32.5466 66.5217 33.2607C66.5217 33.9749 66.4493 34.5794 66.3887 35.2172H82.3069C82.2463 34.5794 82.1739 33.9553 82.1739 33.2607C82.1739 32.5662 82.2072 31.9029 82.2619 31.3042H66.4337Z" fill="white" fill-opacity="0.1"/>
</g>
<g filter="url(#filter4_i_605_4559)">
<path d="M7.73811 31.3042C7.7929 31.9029 7.82616 32.5466 7.82616 33.2607C7.82616 33.9749 7.75377 34.5794 7.69312 35.2172H23.6114C23.5507 34.5794 23.4783 33.9553 23.4783 33.2607C23.4783 32.5662 23.5116 31.9029 23.5664 31.3042H7.73811Z" fill="white" fill-opacity="0.1"/>
</g>
<g filter="url(#filter5_i_605_4559)">
<path d="M35.1063 25.4347C35.1258 26.0393 35.1376 26.6849 35.1376 27.3912C35.1376 28.0564 35.1082 28.708 35.0593 29.3477H54.783C54.7322 28.708 54.7028 28.0564 54.7028 27.3912C54.7028 26.6849 54.7165 26.0393 54.7341 25.4347H35.1063Z" fill="white" fill-opacity="0.1"/>
</g>
<defs>
<filter id="filter0_bi_605_4559" x="-4.05811" y="5.73938" width="39.4209" height="82.4348" filterUnits="userSpaceOnUse" color-interpolation-filters="sRGB">
<feFlood flood-opacity="0" result="BackgroundImageFix"/>
<feGaussianBlur in="BackgroundImageFix" stdDeviation="3"/>
<feComposite in2="SourceAlpha" operator="in" result="effect1_backgroundBlur_605_4559"/>
<feBlend mode="normal" in="SourceGraphic" in2="effect1_backgroundBlur_605_4559" result="shape"/>
<feColorMatrix in="SourceAlpha" type="matrix" values="0 0 0 0 0 0 0 0 0 0 0 0 0 0 0 0 0 0 127 0" result="hardAlpha"/>
<feOffset dy="2"/>
<feGaussianBlur stdDeviation="1.5"/>
<feComposite in2="hardAlpha" operator="arithmetic" k2="-1" k3="1"/>
<feColorMatrix type="matrix" values="0 0 0 0 1 0 0 0 0 1 0 0 0 0 1 0 0 0 0.15 0"/>
<feBlend mode="normal" in2="shape" result="effect2_innerShadow_605_4559"/>
</filter>
<filter id="filter1_bi_605_4559" x="54.6372" y="5.73938" width="39.4209" height="82.4348" filterUnits="userSpaceOnUse" color-interpolation-filters="sRGB">
<feFlood flood-opacity="0" result="BackgroundImageFix"/>
<feGaussianBlur in="BackgroundImageFix" stdDeviation="3"/>
<feComposite in2="SourceAlpha" operator="in" result="effect1_backgroundBlur_605_4559"/>
<feBlend mode="normal" in="SourceGraphic" in2="effect1_backgroundBlur_605_4559" result="shape"/>
<feColorMatrix in="SourceAlpha" type="matrix" values="0 0 0 0 0 0 0 0 0 0 0 0 0 0 0 0 0 0 127 0" result="hardAlpha"/>
<feOffset dy="2"/>
<feGaussianBlur stdDeviation="1.5"/>
<feComposite in2="hardAlpha" operator="arithmetic" k2="-1" k3="1"/>
<feColorMatrix type="matrix" values="0 0 0 0 1 0 0 0 0 1 0 0 0 0 1 0 0 0 0.15 0"/>
<feBlend mode="normal" in2="shape" result="effect2_innerShadow_605_4559"/>
</filter>
<filter id="filter2_i_605_4559" x="27.3916" y="0" width="35.2173" height="92" filterUnits="userSpaceOnUse" color-interpolation-filters="sRGB">
<feFlood flood-opacity="0" result="BackgroundImageFix"/>
<feBlend mode="normal" in="SourceGraphic" in2="BackgroundImageFix" result="shape"/>
<feColorMatrix in="SourceAlpha" type="matrix" values="0 0 0 0 0 0 0 0 0 0 0 0 0 0 0 0 0 0 127 0" result="hardAlpha"/>
<feOffset dy="2"/>
<feGaussianBlur stdDeviation="1"/>
<feComposite in2="hardAlpha" operator="arithmetic" k2="-1" k3="1"/>
<feColorMatrix type="matrix" values="0 0 0 0 1 0 0 0 0 1 0 0 0 0 1 0 0 0 0.1 0"/>
<feBlend mode="normal" in2="shape" result="effect1_innerShadow_605_4559"/>
</filter>
<filter id="filter3_i_605_4559" x="66.3887" y="31.3042" width="15.9182" height="5.91309" filterUnits="userSpaceOnUse" color-interpolation-filters="sRGB">
<feFlood flood-opacity="0" result="BackgroundImageFix"/>
<feBlend mode="normal" in="SourceGraphic" in2="BackgroundImageFix" result="shape"/>
<feColorMatrix in="SourceAlpha" type="matrix" values="0 0 0 0 0 0 0 0 0 0 0 0 0 0 0 0 0 0 127 0" result="hardAlpha"/>
<feOffset dy="2"/>
<feGaussianBlur stdDeviation="1"/>
<feComposite in2="hardAlpha" operator="arithmetic" k2="-1" k3="1"/>
<feColorMatrix type="matrix" values="0 0 0 0 1 0 0 0 0 1 0 0 0 0 1 0 0 0 0.1 0"/>
<feBlend mode="normal" in2="shape" result="effect1_innerShadow_605_4559"/>
</filter>
<filter id="filter4_i_605_4559" x="7.69312" y="31.3042" width="15.9182" height="5.91309" filterUnits="userSpaceOnUse" color-interpolation-filters="sRGB">
<feFlood flood-opacity="0" result="BackgroundImageFix"/>
<feBlend mode="normal" in="SourceGraphic" in2="BackgroundImageFix" result="shape"/>
<feColorMatrix in="SourceAlpha" type="matrix" values="0 0 0 0 0 0 0 0 0 0 0 0 0 0 0 0 0 0 127 0" result="hardAlpha"/>
<feOffset dy="2"/>
<feGaussianBlur stdDeviation="1"/>
<feComposite in2="hardAlpha" operator="arithmetic" k2="-1" k3="1"/>
<feColorMatrix type="matrix" values="0 0 0 0 1 0 0 0 0 1 0 0 0 0 1 0 0 0 0.1 0"/>
<feBlend mode="normal" in2="shape" result="effect1_innerShadow_605_4559"/>
</filter>
<filter id="filter5_i_605_4559" x="35.0593" y="25.4347" width="19.7236" height="5.91309" filterUnits="userSpaceOnUse" color-interpolation-filters="sRGB">
<feFlood flood-opacity="0" result="BackgroundImageFix"/>
<feBlend mode="normal" in="SourceGraphic" in2="BackgroundImageFix" result="shape"/>
<feColorMatrix in="SourceAlpha" type="matrix" values="0 0 0 0 0 0 0 0 0 0 0 0 0 0 0 0 0 0 127 0" result="hardAlpha"/>
<feOffset dy="2"/>
<feGaussianBlur stdDeviation="1"/>
<feComposite in2="hardAlpha" operator="arithmetic" k2="-1" k3="1"/>
<feColorMatrix type="matrix" values="0 0 0 0 1 0 0 0 0 1 0 0 0 0 1 0 0 0 0.1 0"/>
<feBlend mode="normal" in2="shape" result="effect1_innerShadow_605_4559"/>
</filter>
<linearGradient id="paint0_linear_605_4559" x1="8.15186" y1="43.6442" x2="26.7786" y2="45.4855" gradientUnits="userSpaceOnUse">
<stop stop-color="#FFA39E"/>
<stop offset="1" stop-color="#F01E33"/>
</linearGradient>
<linearGradient id="paint1_linear_605_4559" x1="66.8481" y1="43.6445" x2="85.4749" y2="45.4858" gradientUnits="userSpaceOnUse">
<stop stop-color="#FFA39E"/>
<stop offset="1" stop-color="#F01E33"/>
</linearGradient>
<linearGradient id="paint2_linear_605_4559" x1="1.94189" y1="11.7394" x2="35.9928" y2="15.1054" gradientUnits="userSpaceOnUse">
<stop stop-color="#FFD580"/>
<stop offset="1" stop-color="#FF384C"/>
</linearGradient>
<linearGradient id="paint3_linear_605_4559" x1="2.7988" y1="14.941" x2="29.3629" y2="14.941" gradientUnits="userSpaceOnUse">
<stop stop-color="#FFD580"/>
<stop offset="1" stop-color="#E65A53"/>
</linearGradient>
<linearGradient id="paint4_linear_605_4559" x1="60.6372" y1="11.7394" x2="94.6881" y2="15.1054" gradientUnits="userSpaceOnUse">
<stop stop-color="#FFD580"/>
<stop offset="1" stop-color="#FF384C"/>
</linearGradient>
<linearGradient id="paint5_linear_605_4559" x1="61.4941" y1="14.941" x2="88.0582" y2="14.941" gradientUnits="userSpaceOnUse">
<stop stop-color="#FFD580"/>
<stop offset="1" stop-color="#E65A53"/>
</linearGradient>
<linearGradient id="paint6_linear_605_4559" x1="27.3916" y1="0" x2="71.1197" y2="4.34479" gradientUnits="userSpaceOnUse">
<stop stop-color="#FFA39E"/>
<stop offset="1" stop-color="#F01E33"/>
</linearGradient>
</defs>
</svg>
