<svg width="147" height="147" viewBox="0 0 147 147" fill="none" xmlns="http://www.w3.org/2000/svg">
<g filter="url(#filter0_b_26_693)">
<path fill-rule="evenodd" clip-rule="evenodd" d="M49.9627 43.5174V43.5065C49.9627 33.8338 57.804 25.9925 67.4767 25.9925H80.2142C89.887 25.9925 97.7283 33.8338 97.7283 43.5065V43.5174C106.625 43.5822 111.497 44.0379 114.696 47.2373C118.427 50.968 118.427 56.9725 118.427 68.9815V81.719H29.2646V68.9815C29.2646 56.9725 29.2646 50.968 32.9953 47.2373C36.1947 44.038 41.0662 43.5823 49.9627 43.5174ZM59.5158 43.5065C59.5158 39.1098 63.08 35.5456 67.4767 35.5456H80.2142C84.6109 35.5456 88.1751 39.1098 88.1751 43.5065L59.5158 43.5065Z" fill="url(#paint0_linear_26_693)"/>
</g>
<g filter="url(#filter1_b_26_693)">
<mask id="path-2-inside-1_26_693" fill="white">
<path d="M29.2645 81.719C29.2645 69.71 29.2645 63.7055 32.9952 59.9748C32.9952 59.9748 32.9952 59.9748 32.9952 59.9748C36.7259 56.2441 42.7304 56.2441 54.7395 56.2441H92.9519C104.961 56.2441 110.965 56.2441 114.696 59.9748C114.696 59.9748 114.696 59.9748 114.696 59.9748C118.427 63.7055 118.427 69.71 118.427 81.719C118.427 99.7326 118.427 108.739 112.831 114.335V114.335C107.235 119.931 98.228 119.931 80.2145 119.931H67.4769C49.4634 119.931 40.4567 119.931 34.8606 114.335C34.8606 114.335 34.8606 114.335 34.8606 114.335C29.2645 108.739 29.2645 99.7326 29.2645 81.719Z"/>
</mask>
<path d="M29.2645 81.719C29.2645 69.71 29.2645 63.7055 32.9952 59.9748C32.9952 59.9748 32.9952 59.9748 32.9952 59.9748C36.7259 56.2441 42.7304 56.2441 54.7395 56.2441H92.9519C104.961 56.2441 110.965 56.2441 114.696 59.9748C114.696 59.9748 114.696 59.9748 114.696 59.9748C118.427 63.7055 118.427 69.71 118.427 81.719C118.427 99.7326 118.427 108.739 112.831 114.335V114.335C107.235 119.931 98.228 119.931 80.2145 119.931H67.4769C49.4634 119.931 40.4567 119.931 34.8606 114.335C34.8606 114.335 34.8606 114.335 34.8606 114.335C29.2645 108.739 29.2645 99.7326 29.2645 81.719Z" fill="#F8B77B" fill-opacity="0.6"/>
<path d="M34.8606 114.335L35.2933 113.903L34.8606 114.335ZM34.8606 114.335L35.2933 113.903L34.8606 114.335ZM112.831 114.335L112.398 113.903L112.831 114.335ZM112.831 114.335L112.398 113.903L112.831 114.335ZM114.696 59.9748L115.129 59.5421L114.696 59.9748ZM114.696 59.9748L115.129 59.5421L114.696 59.9748ZM32.9952 59.9748L32.5625 59.5421L32.9952 59.9748ZM32.9952 59.9748L32.5625 59.5421L32.9952 59.9748ZM54.7395 56.856H92.9519V55.6322H54.7395V56.856ZM80.2145 119.32H67.4769V120.543H80.2145V119.32ZM67.4769 119.32C58.4529 119.32 51.7464 119.318 46.5938 118.626C41.4587 117.935 37.9587 116.568 35.2933 113.903L34.4279 114.768C37.3586 117.699 41.1599 119.13 46.4307 119.838C51.6838 120.545 58.4875 120.543 67.4769 120.543V119.32ZM28.6526 81.719C28.6526 90.7085 28.6513 97.5122 29.3576 102.765C30.0662 108.036 31.4972 111.837 34.4279 114.768L35.2933 113.903C32.6279 111.237 31.2608 107.737 30.5704 102.602C29.8777 97.4496 29.8764 90.7431 29.8764 81.719H28.6526ZM35.2933 113.903C35.2933 113.903 35.2933 113.903 35.2933 113.903L34.4279 114.768C34.4279 114.768 34.4279 114.768 34.4279 114.768L35.2933 113.903ZM117.815 81.719C117.815 90.7431 117.814 97.4496 117.121 102.602C116.431 107.737 115.064 111.237 112.398 113.903L113.263 114.768C116.194 111.837 117.625 108.036 118.334 102.765C119.04 97.5122 119.039 90.7085 119.039 81.719H117.815ZM80.2145 120.543C89.2039 120.543 96.0076 120.545 101.261 119.838C106.531 119.13 110.333 117.699 113.263 114.768L112.398 113.903C109.733 116.568 106.233 117.935 101.098 118.626C95.945 119.318 89.2385 119.32 80.2145 119.32V120.543ZM112.398 113.903C112.398 113.903 112.398 113.903 112.398 113.903L113.263 114.768C113.263 114.768 113.263 114.768 113.263 114.768L112.398 113.903ZM92.9519 56.856C98.9737 56.856 103.429 56.8573 106.847 57.3169C110.248 57.7741 112.531 58.6748 114.263 60.4075L115.129 59.5421C113.131 57.5441 110.546 56.5794 107.01 56.104C103.491 55.6309 98.9391 55.6322 92.9519 55.6322V56.856ZM119.039 81.719C119.039 75.7318 119.04 71.1799 118.567 67.661C118.092 64.1246 117.127 61.5401 115.129 59.5421L114.263 60.4075C115.996 62.1402 116.897 64.4234 117.354 67.8241C117.814 71.2424 117.815 75.6972 117.815 81.719H119.039ZM114.263 60.4075C114.263 60.4075 114.263 60.4075 114.263 60.4075L115.129 59.5421C115.129 59.5421 115.129 59.5421 115.129 59.5421L114.263 60.4075ZM54.7395 55.6322C48.7523 55.6322 44.2003 55.6309 40.6814 56.104C37.145 56.5794 34.5605 57.5441 32.5625 59.5421L33.4279 60.4075C35.1606 58.6748 37.4438 57.7741 40.8445 57.3169C44.2629 56.8573 48.7177 56.856 54.7395 56.856V55.6322ZM29.8764 81.719C29.8764 75.6972 29.8777 71.2424 30.3373 67.8241C30.7945 64.4234 31.6952 62.1402 33.4279 60.4075L32.5625 59.5421C30.5645 61.5401 29.5999 64.1246 29.1244 67.661C28.6513 71.1799 28.6526 75.7318 28.6526 81.719H29.8764ZM32.5625 59.5421C32.5625 59.5421 32.5625 59.5421 32.5625 59.5421L33.4279 60.4075C33.4279 60.4075 33.4279 60.4075 33.4279 60.4075L32.5625 59.5421Z" fill="url(#paint1_linear_26_693)" mask="url(#path-2-inside-1_26_693)"/>
</g>
<g filter="url(#filter2_b_26_693)">
<rect x="86.8892" y="68.5323" width="6.11896" height="25.6996" rx="3.05948" transform="rotate(90 86.8892 68.5323)" fill="url(#paint2_linear_26_693)" fill-opacity="0.9"/>
<rect x="86.6444" y="68.777" width="5.62944" height="25.2101" rx="2.81472" transform="rotate(90 86.6444 68.777)" stroke="url(#paint3_linear_26_693)" stroke-width="0.489516"/>
</g>
<defs>
<filter id="filter0_b_26_693" x="16.5271" y="13.255" width="114.637" height="81.2015" filterUnits="userSpaceOnUse" color-interpolation-filters="sRGB">
<feFlood flood-opacity="0" result="BackgroundImageFix"/>
<feGaussianBlur in="BackgroundImageFix" stdDeviation="6.36874"/>
<feComposite in2="SourceAlpha" operator="in" result="effect1_backgroundBlur_26_693"/>
<feBlend mode="normal" in="SourceGraphic" in2="effect1_backgroundBlur_26_693" result="shape"/>
</filter>
<filter id="filter1_b_26_693" x="16.527" y="43.5066" width="114.637" height="89.1624" filterUnits="userSpaceOnUse" color-interpolation-filters="sRGB">
<feFlood flood-opacity="0" result="BackgroundImageFix"/>
<feGaussianBlur in="BackgroundImageFix" stdDeviation="6.36874"/>
<feComposite in2="SourceAlpha" operator="in" result="effect1_backgroundBlur_26_693"/>
<feBlend mode="normal" in="SourceGraphic" in2="effect1_backgroundBlur_26_693" result="shape"/>
</filter>
<filter id="filter2_b_26_693" x="47.8843" y="55.227" width="52.3101" height="32.7295" filterUnits="userSpaceOnUse" color-interpolation-filters="sRGB">
<feFlood flood-opacity="0" result="BackgroundImageFix"/>
<feGaussianBlur in="BackgroundImageFix" stdDeviation="6.65263"/>
<feComposite in2="SourceAlpha" operator="in" result="effect1_backgroundBlur_26_693"/>
<feBlend mode="normal" in="SourceGraphic" in2="effect1_backgroundBlur_26_693" result="shape"/>
</filter>
<linearGradient id="paint0_linear_26_693" x1="54.9845" y1="38.1827" x2="113.71" y2="70.4948" gradientUnits="userSpaceOnUse">
<stop stop-color="#FBA47F"/>
<stop offset="1" stop-color="#DF6B00"/>
</linearGradient>
<linearGradient id="paint1_linear_26_693" x1="22.8958" y1="62.0338" x2="127.71" y2="137.8" gradientUnits="userSpaceOnUse">
<stop stop-color="white"/>
<stop offset="1" stop-color="white" stop-opacity="0"/>
</linearGradient>
<linearGradient id="paint2_linear_26_693" x1="97.5953" y1="65.499" x2="93.6365" y2="90.5446" gradientUnits="userSpaceOnUse">
<stop stop-color="white" stop-opacity="0"/>
<stop offset="0.979167" stop-color="white"/>
</linearGradient>
<linearGradient id="paint3_linear_26_693" x1="89.9486" y1="68.5323" x2="89.9486" y2="94.2319" gradientUnits="userSpaceOnUse">
<stop stop-color="white" stop-opacity="0"/>
<stop offset="1" stop-color="white"/>
</linearGradient>
</defs>
</svg>
