<svg width="226" height="209" viewBox="0 0 226 209" fill="none" xmlns="http://www.w3.org/2000/svg">
<g style="mix-blend-mode:hard-light" filter="url(#filter0_f_102_2)">
<ellipse cx="71.7897" cy="120.715" rx="57.3379" ry="74.2752" fill="#FF922D" fill-opacity="0.2"/>
</g>
<g style="mix-blend-mode:hard-light" filter="url(#filter1_f_102_2)">
<path d="M47.5024 66.203L47.5025 66.203C54.187 62.3433 61.7799 60.3044 69.4576 60.3044C85.1371 60.3044 99.7466 68.7347 107.578 82.2999C113.453 92.4762 115.013 104.323 111.972 115.672C109.646 124.353 104.837 131.932 98.1576 137.646L97.2199 138.449L97.837 139.518L117.542 173.648L105.533 180.582L85.8238 146.446L85.2079 145.379L84.0455 145.787C79.3866 147.423 74.4743 148.275 69.5263 148.275C53.8462 148.275 39.2373 139.844 31.4049 126.279C25.5304 116.103 23.9701 104.256 27.0115 92.9071L27.0115 92.907C30.0523 81.5577 37.3269 72.0774 47.5024 66.203ZM54.4373 78.212L54.4371 78.2121C47.4745 82.2327 42.4885 88.7301 40.4077 96.4961C38.3262 104.263 39.3953 112.382 43.4153 119.345L44.7015 118.602L43.4153 119.345C48.7805 128.637 58.7837 134.406 69.5263 134.406C74.7773 134.406 79.9709 133.008 84.5474 130.366C91.5101 126.346 96.4961 119.849 98.5769 112.083C100.658 104.317 99.5887 96.1968 95.5687 89.234L94.2824 89.9766L95.5687 89.234C90.2035 79.9415 80.2009 74.1725 69.4576 74.1725C64.2066 74.1725 59.0131 75.5704 54.4373 78.212Z" stroke="#FFAB2D" stroke-width="2.97044"/>
</g>
<g style="mix-blend-mode:hard-light" filter="url(#filter2_f_102_2)">
<path d="M47.7309 66.5988L47.731 66.5987C54.3464 62.779 61.8605 60.7614 69.4576 60.7614C84.974 60.7614 99.4326 69.1048 107.183 82.5284C112.997 92.5998 114.54 104.321 111.531 115.554C109.229 124.146 104.469 131.645 97.8606 137.299L96.6342 138.348L97.4412 139.746L116.918 173.481L105.7 179.958L86.2196 146.217L85.4141 144.822L83.8941 145.356C79.283 146.975 74.4219 147.818 69.5263 147.818C54.0093 147.818 39.5514 139.474 31.8007 126.051C25.9868 115.98 24.4429 104.257 27.4529 93.0254L27.4529 93.0253C30.4624 81.7931 37.6603 72.4125 47.7309 66.5988ZM95.9644 89.0055L94.2824 89.9766L95.9644 89.0055C90.5175 79.5714 80.3639 73.7155 69.4576 73.7155C64.1258 73.7155 58.8535 75.1348 54.2088 77.8163L54.2086 77.8164C47.1411 81.8976 42.0785 88.4947 39.9663 96.3777C37.8534 104.261 38.9389 112.506 43.0195 119.573L44.7015 118.602L43.0195 119.573C48.4665 129.008 58.6207 134.863 69.5263 134.863C74.8582 134.863 80.1305 133.444 84.7759 130.762C91.8436 126.681 96.9061 120.084 99.0183 112.201C101.131 104.318 100.045 96.0732 95.9644 89.0055Z" stroke="#FFAB2D" stroke-width="3.88442"/>
</g>
<g style="mix-blend-mode:hard-light" filter="url(#filter3_ddi_102_2)">
<path d="M47.5024 66.203L47.5025 66.203C54.187 62.3433 61.7799 60.3044 69.4576 60.3044C85.1371 60.3044 99.7466 68.7347 107.578 82.2999C113.453 92.4762 115.013 104.323 111.972 115.672C109.646 124.353 104.837 131.932 98.1576 137.646L97.2199 138.449L97.837 139.518L117.542 173.648L105.533 180.582L85.8238 146.446L85.2079 145.379L84.0455 145.787C79.3866 147.423 74.4743 148.275 69.5263 148.275C53.8462 148.275 39.2373 139.844 31.4049 126.279C25.5304 116.103 23.9701 104.256 27.0115 92.9071L27.0115 92.907C30.0523 81.5577 37.3269 72.0774 47.5024 66.203ZM54.4373 78.212L54.4371 78.2121C47.4745 82.2327 42.4885 88.7301 40.4077 96.4961C38.3262 104.263 39.3953 112.382 43.4153 119.345L44.7015 118.602L43.4153 119.345C48.7805 128.637 58.7837 134.406 69.5263 134.406C74.7773 134.406 79.9709 133.008 84.5474 130.366C91.5101 126.346 96.4961 119.849 98.5769 112.083C100.658 104.317 99.5887 96.1968 95.5687 89.234L94.2824 89.9766L95.5687 89.234C90.2035 79.9415 80.2009 74.1725 69.4576 74.1725C64.2066 74.1725 59.0131 75.5704 54.4373 78.212Z" stroke="#FFC940" stroke-opacity="0.2" stroke-width="2.97044"/>
</g>
<g filter="url(#filter4_f_102_2)">
<path d="M47.2168 65.7083L47.2169 65.7083C53.9878 61.7987 61.6791 59.7331 69.4576 59.7331C85.341 59.7331 100.139 68.2722 108.073 82.0143C114.023 92.3218 115.604 104.324 112.524 115.82C110.168 124.612 105.296 132.291 98.529 138.08L97.9519 138.574L98.3317 139.232L118.323 173.857L105.324 181.363L85.3291 146.731L84.9501 146.075L84.2348 146.326C79.516 147.983 74.5398 148.846 69.5263 148.846C53.6423 148.846 38.8447 140.307 30.9101 126.565C24.96 116.258 23.3791 104.255 26.4597 92.7592L26.4597 92.7592C29.5398 81.2635 36.9101 71.6584 47.2168 65.7083ZM54.7229 78.7068L54.7228 78.7068C47.8913 82.6517 43.0011 89.0243 40.9595 96.6438C38.9172 104.264 39.9657 112.228 43.91 119.059C49.173 128.175 58.9874 133.835 69.5263 133.835C74.6763 133.835 79.7715 132.464 84.2618 129.871C91.0933 125.927 95.9835 119.555 98.0251 111.935C100.067 104.315 99.0182 96.3512 95.074 89.5196C89.811 80.4042 79.9972 74.7438 69.4576 74.7438C64.3077 74.7438 59.2125 76.1149 54.7229 78.7068Z" stroke="#FFD56A" stroke-width="1.82796"/>
</g>
<g filter="url(#filter5_f_102_2)">
<path d="M46.9883 65.3125L46.9884 65.3125C53.8285 61.363 61.5985 59.2761 69.4576 59.2761C85.504 59.2761 100.453 67.9022 108.469 81.7858C114.48 92.1983 116.077 104.325 112.966 115.938C110.586 124.82 105.663 132.578 98.8261 138.428L98.5376 138.675L98.7274 139.003L118.947 174.025L105.156 181.987L84.9334 146.96L84.7438 146.631L84.3862 146.757C79.6196 148.431 74.5922 149.303 69.5263 149.303C53.4792 149.303 38.5307 140.677 30.5144 126.793C24.5036 116.381 22.9063 104.254 26.0183 92.6409L25.5769 92.5226L26.0183 92.6409C29.1297 81.0282 36.5766 71.3232 46.9883 65.3125ZM94.6782 89.7481L94.2824 89.9766L94.6782 89.7481C89.497 80.7743 79.8342 75.2008 69.4576 75.2008C64.3885 75.2008 59.3721 76.5504 54.9514 79.1025L54.9513 79.1026C48.2248 82.9869 43.4111 89.2597 41.4009 96.7621C39.39 104.265 40.4221 112.104 44.3058 118.831C49.4869 127.805 59.1504 133.378 69.5263 133.378C74.5954 133.378 79.6119 132.028 84.0333 129.476C90.7598 125.592 95.5735 119.319 97.5837 111.817C99.594 104.314 98.5618 96.4747 94.6782 89.7481Z" stroke="white" stroke-width="0.91398"/>
</g>
<g filter="url(#filter6_bd_102_2)">
<rect x="64" y="17.4399" width="131.373" height="124.804" rx="15.7647" fill="white" fill-opacity="0.02" shape-rendering="crispEdges"/>
<rect x="65" y="18.4399" width="129.373" height="122.804" rx="14.7647" stroke="white" stroke-opacity="0.33" stroke-width="2" shape-rendering="crispEdges"/>
</g>
<defs>
<filter id="filter0_f_102_2" x="0.742097" y="32.7302" width="142.095" height="175.97" filterUnits="userSpaceOnUse" color-interpolation-filters="sRGB">
<feFlood flood-opacity="0" result="BackgroundImageFix"/>
<feBlend mode="normal" in="SourceGraphic" in2="BackgroundImageFix" result="shape"/>
<feGaussianBlur stdDeviation="6.85485" result="effect1_foregroundBlur_102_2"/>
</filter>
<filter id="filter1_f_102_2" x="10.2984" y="45.1095" width="122.983" height="151.211" filterUnits="userSpaceOnUse" color-interpolation-filters="sRGB">
<feFlood flood-opacity="0" result="BackgroundImageFix"/>
<feBlend mode="normal" in="SourceGraphic" in2="BackgroundImageFix" result="shape"/>
<feGaussianBlur stdDeviation="6.85485" result="effect1_foregroundBlur_102_2"/>
</filter>
<filter id="filter2_f_102_2" x="19.4382" y="54.2493" width="104.703" height="132.932" filterUnits="userSpaceOnUse" color-interpolation-filters="sRGB">
<feFlood flood-opacity="0" result="BackgroundImageFix"/>
<feBlend mode="normal" in="SourceGraphic" in2="BackgroundImageFix" result="shape"/>
<feGaussianBlur stdDeviation="2.28495" result="effect1_foregroundBlur_102_2"/>
</filter>
<filter id="filter3_ddi_102_2" x="18.0672" y="57.4482" width="107.445" height="135.674" filterUnits="userSpaceOnUse" color-interpolation-filters="sRGB">
<feFlood flood-opacity="0" result="BackgroundImageFix"/>
<feColorMatrix in="SourceAlpha" type="matrix" values="0 0 0 0 0 0 0 0 0 0 0 0 0 0 0 0 0 0 127 0" result="hardAlpha"/>
<feOffset dy="2.97044"/>
<feGaussianBlur stdDeviation="1.14248"/>
<feColorMatrix type="matrix" values="0 0 0 0 0.224 0 0 0 0 0.15 0 0 0 0 0 0 0 0 0.7 0"/>
<feBlend mode="multiply" in2="BackgroundImageFix" result="effect1_dropShadow_102_2"/>
<feColorMatrix in="SourceAlpha" type="matrix" values="0 0 0 0 0 0 0 0 0 0 0 0 0 0 0 0 0 0 127 0" result="hardAlpha"/>
<feOffset dy="4.5699"/>
<feGaussianBlur stdDeviation="2.97044"/>
<feColorMatrix type="matrix" values="0 0 0 0 0.56 0 0 0 0 0.44 0 0 0 0 0 0 0 0 1 0"/>
<feBlend mode="color-dodge" in2="effect1_dropShadow_102_2" result="effect2_dropShadow_102_2"/>
<feBlend mode="normal" in="SourceGraphic" in2="effect2_dropShadow_102_2" result="shape"/>
<feColorMatrix in="SourceAlpha" type="matrix" values="0 0 0 0 0 0 0 0 0 0 0 0 0 0 0 0 0 0 127 0" result="hardAlpha"/>
<feOffset dx="-0.297044" dy="0.594087"/>
<feGaussianBlur stdDeviation="0.148522"/>
<feComposite in2="hardAlpha" operator="arithmetic" k2="-1" k3="1"/>
<feColorMatrix type="matrix" values="0 0 0 0 1 0 0 0 0 1 0 0 0 0 1 0 0 0 0.5 0"/>
<feBlend mode="normal" in2="shape" result="effect3_innerShadow_102_2"/>
</filter>
<filter id="filter4_f_102_2" x="23.5511" y="58.3622" width="96.4772" height="124.706" filterUnits="userSpaceOnUse" color-interpolation-filters="sRGB">
<feFlood flood-opacity="0" result="BackgroundImageFix"/>
<feBlend mode="normal" in="SourceGraphic" in2="BackgroundImageFix" result="shape"/>
<feGaussianBlur stdDeviation="0.228495" result="effect1_foregroundBlur_102_2"/>
</filter>
<filter id="filter5_f_102_2" x="23.7035" y="58.5145" width="96.1725" height="124.401" filterUnits="userSpaceOnUse" color-interpolation-filters="sRGB">
<feFlood flood-opacity="0" result="BackgroundImageFix"/>
<feBlend mode="normal" in="SourceGraphic" in2="BackgroundImageFix" result="shape"/>
<feGaussianBlur stdDeviation="0.15233" result="effect1_foregroundBlur_102_2"/>
</filter>
<filter id="filter6_bd_102_2" x="31.1569" y="0.36151" width="194.431" height="187.863" filterUnits="userSpaceOnUse" color-interpolation-filters="sRGB">
<feFlood flood-opacity="0" result="BackgroundImageFix"/>
<feGaussianBlur in="BackgroundImageFix" stdDeviation="5.125"/>
<feComposite in2="SourceAlpha" operator="in" result="effect1_backgroundBlur_102_2"/>
<feColorMatrix in="SourceAlpha" type="matrix" values="0 0 0 0 0 0 0 0 0 0 0 0 0 0 0 0 0 0 127 0" result="hardAlpha"/>
<feOffset dx="-1.31373" dy="14.451"/>
<feGaussianBlur stdDeviation="15.7647"/>
<feComposite in2="hardAlpha" operator="out"/>
<feColorMatrix type="matrix" values="0 0 0 0 0.241667 0 0 0 0 0.2175 0 0 0 0 0.18125 0 0 0 0.32 0"/>
<feBlend mode="normal" in2="effect1_backgroundBlur_102_2" result="effect2_dropShadow_102_2"/>
<feBlend mode="normal" in="SourceGraphic" in2="effect2_dropShadow_102_2" result="shape"/>
</filter>
</defs>
</svg>
