<svg width="232" height="205" viewBox="0 0 232 205" fill="none" xmlns="http://www.w3.org/2000/svg">
<g style="mix-blend-mode:hard-light" filter="url(#filter0_f_102_5)">
<ellipse cx="79.3008" cy="124.204" rx="65.5754" ry="66.2039" fill="#FF922D" fill-opacity="0.2"/>
</g>
<g style="mix-blend-mode:hard-light" filter="url(#filter1_f_102_5)">
<path d="M96.5694 88.831H95.0823H61.6435H60.1552L60.1564 87.3427L60.1599 83.0109L96.5694 88.831ZM96.5694 88.831V87.3439M96.5694 88.831V87.3439M96.5694 87.3439V83.0109C96.5694 79.7333 93.9171 77.076 90.6345 77.076H66.0948C62.8168 77.076 60.1605 79.7319 60.1599 83.0097L96.5694 87.3439ZM55.4833 171.417H53.9962V172.904V175.11C53.9962 176.643 52.7532 177.887 51.2234 177.887H36.011C34.4827 177.887 33.2416 176.645 33.2416 175.11V172.904V171.417H31.7545C28.654 171.417 26.1418 168.902 26.1418 165.804V96.9148C26.1418 92.4495 29.7603 88.831 34.2256 88.831H52.3128H53.7999V87.3439V78.0515C53.7999 73.8917 57.1685 70.5211 61.3268 70.5211H94.8631C99.3315 70.5211 102.947 74.1392 102.947 78.6049V87.3439V88.831H104.434H124.376C128.845 88.831 132.46 92.4491 132.46 96.9148V167.673C132.46 169.742 130.786 171.417 128.72 171.417H127.232V172.904V175.11C127.232 176.641 125.988 177.887 124.453 177.887H109.251C107.718 177.887 106.478 176.644 106.478 175.11V172.904V171.417H104.991H55.4833ZM62.8442 120.04C58.7787 120.04 55.4893 123.331 55.4893 127.399V129.859C55.4893 133.927 58.7816 137.221 62.8442 137.221H69.689V144.244C69.689 148.311 72.9813 151.605 77.0439 151.605H79.6959C83.7573 151.605 87.0543 148.312 87.0543 144.244V137.221H93.899C97.9576 137.221 101.254 133.927 101.254 129.859V127.399C101.254 123.33 97.9565 120.04 93.899 120.04H87.0543V113.196C87.0543 109.129 83.7556 105.841 79.6959 105.841H77.0439C72.9789 105.841 69.689 109.131 69.689 113.196V120.04H62.8442Z" stroke="#FFAB2D" stroke-width="2.97419"/>
</g>
<g style="mix-blend-mode:hard-light" filter="url(#filter2_f_102_5)">
<path d="M97.027 89.2886H95.0823H61.6435H59.6973L59.6988 87.3424L59.7023 83.0109L97.027 89.2886ZM97.027 89.2886V87.3439M97.027 89.2886V87.3439M97.027 87.3439V83.0109C97.027 79.4808 94.1701 76.6184 90.6345 76.6184H66.0948C62.5642 76.6184 59.7031 79.479 59.7023 83.0094L97.027 87.3439ZM55.4833 170.959H53.5387V172.904V175.11C53.5387 176.391 52.5 177.429 51.2234 177.429H36.011C34.7364 177.429 33.6992 176.393 33.6992 175.11V172.904V170.959H31.7545C28.9069 170.959 26.5994 168.65 26.5994 165.804V96.9148C26.5994 92.7022 30.013 89.2886 34.2256 89.2886H52.3128H54.2574V87.3439V78.0515C54.2574 74.1442 57.4214 70.9787 61.3268 70.9787H94.8631C99.0787 70.9787 102.489 74.3918 102.489 78.6049V87.3439V89.2886H104.434H124.376C128.592 89.2886 132.002 92.7017 132.002 96.9148V167.673C132.002 169.489 130.533 170.959 128.72 170.959H126.775V172.904V175.11C126.775 176.388 125.736 177.429 124.453 177.429H109.251C107.972 177.429 106.935 176.392 106.935 175.11V172.904V170.959H104.991H55.4833ZM62.8442 119.583C58.5258 119.583 55.0317 123.078 55.0317 127.399V129.859C55.0317 134.179 58.5285 137.679 62.8442 137.679H69.2314V144.244C69.2314 148.563 72.7282 152.063 77.0439 152.063H79.6959C84.0101 152.063 87.5118 148.565 87.5118 144.244V137.679H93.899C98.2105 137.679 101.712 134.18 101.712 129.859V127.399C101.712 123.077 98.209 119.583 93.899 119.583H87.5118V113.196C87.5118 108.876 84.0078 105.383 79.6959 105.383H77.0439C72.7262 105.383 69.2314 108.878 69.2314 113.196V119.583H62.8442Z" stroke="#FFAB2D" stroke-width="3.88932"/>
</g>
<g style="mix-blend-mode:hard-light" filter="url(#filter3_ddi_102_5)">
<path d="M96.5694 88.831H95.0823H61.6435H60.1552L60.1564 87.3427L60.1599 83.0109L96.5694 88.831ZM96.5694 88.831V87.3439M96.5694 88.831V87.3439M96.5694 87.3439V83.0109C96.5694 79.7333 93.9171 77.076 90.6345 77.076H66.0948C62.8168 77.076 60.1605 79.7319 60.1599 83.0097L96.5694 87.3439ZM55.4833 171.417H53.9962V172.904V175.11C53.9962 176.643 52.7532 177.887 51.2234 177.887H36.011C34.4827 177.887 33.2416 176.645 33.2416 175.11V172.904V171.417H31.7545C28.654 171.417 26.1418 168.902 26.1418 165.804V96.9148C26.1418 92.4495 29.7603 88.831 34.2256 88.831H52.3128H53.7999V87.3439V78.0515C53.7999 73.8917 57.1685 70.5211 61.3268 70.5211H94.8631C99.3315 70.5211 102.947 74.1392 102.947 78.6049V87.3439V88.831H104.434H124.376C128.845 88.831 132.46 92.4491 132.46 96.9148V167.673C132.46 169.742 130.786 171.417 128.72 171.417H127.232V172.904V175.11C127.232 176.641 125.988 177.887 124.453 177.887H109.251C107.718 177.887 106.478 176.644 106.478 175.11V172.904V171.417H104.991H55.4833ZM62.8442 120.04C58.7787 120.04 55.4893 123.331 55.4893 127.399V129.859C55.4893 133.927 58.7816 137.221 62.8442 137.221H69.689V144.244C69.689 148.311 72.9813 151.605 77.0439 151.605H79.6959C83.7573 151.605 87.0543 148.312 87.0543 144.244V137.221H93.899C97.9576 137.221 101.254 133.927 101.254 129.859V127.399C101.254 123.33 97.9565 120.04 93.899 120.04H87.0543V113.196C87.0543 109.129 83.7556 105.841 79.6959 105.841H77.0439C72.9789 105.841 69.689 109.131 69.689 113.196V120.04H62.8442Z" stroke="#FFC940" stroke-opacity="0.2" stroke-width="2.97419"/>
</g>
<g filter="url(#filter4_f_102_5)">
<path d="M95.9975 88.2591H95.0823H61.6435H60.7276L60.7284 87.3432L60.7318 83.0109L95.9975 88.2591ZM95.9975 88.2591V87.3439M95.9975 88.2591V87.3439M95.9975 87.3439V83.0109C95.9975 80.0489 93.601 77.648 90.6345 77.648H66.0948C63.1325 77.648 60.7322 80.048 60.7318 83.0102L95.9975 87.3439ZM55.4833 171.989H54.5682V172.904V175.11C54.5682 176.959 53.0697 178.459 51.2234 178.459H36.011C34.1656 178.459 32.6697 176.96 32.6697 175.11V172.904V171.989H31.7545C28.3379 171.989 25.5698 169.218 25.5698 165.804V96.9148C25.5698 92.1336 29.4444 88.2591 34.2256 88.2591H52.3128H53.2279V87.3439V78.0515C53.2279 73.5761 56.8523 69.9491 61.3268 69.9491H94.8631C99.6475 69.9491 103.519 73.8235 103.519 78.6049V87.3439V88.2591H104.434H124.376C129.161 88.2591 133.032 92.1334 133.032 96.9148V167.673C133.032 170.057 131.102 171.989 128.72 171.989H127.804V172.904V175.11C127.804 176.957 126.304 178.459 124.453 178.459H109.251C107.401 178.459 105.906 176.959 105.906 175.11V172.904V171.989H104.991H55.4833ZM62.8442 120.612C59.0948 120.612 56.0613 123.647 56.0613 127.399V129.859C56.0613 133.611 59.0979 136.649 62.8442 136.649H70.2609V144.244C70.2609 147.995 73.2976 151.033 77.0439 151.033H79.6959C83.4415 151.033 86.4823 147.996 86.4823 144.244V136.649H93.899C97.6415 136.649 100.682 133.612 100.682 129.859V127.399C100.682 123.646 97.6408 120.612 93.899 120.612H86.4823V113.196C86.4823 109.446 83.4404 106.413 79.6959 106.413H77.0439C73.2948 106.413 70.2609 109.447 70.2609 113.196V120.612H62.8442Z" stroke="#FFD56A" stroke-width="1.83027"/>
</g>
<g filter="url(#filter5_f_102_5)">
<path d="M95.5399 87.8015H95.0823H61.6435H61.1856L61.1859 87.3436L61.1894 83.0109L95.5399 87.8015ZM95.5399 87.8015V87.3439M95.5399 87.8015V87.3439M95.5399 87.3439V83.0109C95.5399 80.3014 93.348 78.1055 90.6345 78.1055H66.0948C63.3851 78.1055 61.1896 80.3009 61.1894 83.0106L95.5399 87.3439ZM55.4833 172.446H55.0258V172.904V175.11C55.0258 177.211 53.3229 178.916 51.2234 178.916H36.011C33.912 178.916 32.2121 177.211 32.2121 175.11V172.904V172.446H31.7545C28.0851 172.446 25.1123 169.47 25.1123 165.804V96.9148C25.1123 91.8809 29.1917 87.8015 34.2256 87.8015H52.3128H52.7703V87.3439V78.0515C52.7703 73.3236 56.5994 69.4916 61.3268 69.4916H94.8631C99.9003 69.4916 103.976 73.5709 103.976 78.6049V87.3439V87.8015H104.434H124.376C129.413 87.8015 133.489 91.8808 133.489 96.9148V167.673C133.489 170.309 131.355 172.446 128.72 172.446H128.262V172.904V175.11C128.262 177.21 126.556 178.916 124.453 178.916H109.251C107.148 178.916 105.448 177.211 105.448 175.11V172.904V172.446H104.991H55.4833ZM62.8442 121.07C59.3477 121.07 56.5188 123.899 56.5188 127.399V129.859C56.5188 133.359 59.351 136.192 62.8442 136.192H70.7185V144.244C70.7185 147.743 73.5506 150.576 77.0439 150.576H79.6959C83.1888 150.576 86.0247 147.743 86.0247 144.244V136.192H93.899C97.3886 136.192 100.224 133.359 100.224 129.859V127.399C100.224 123.899 97.3883 121.07 93.899 121.07H86.0247V113.196C86.0247 109.699 83.1882 106.87 79.6959 106.87H77.0439C73.5475 106.87 70.7185 109.699 70.7185 113.196V121.07H62.8442Z" stroke="white" stroke-width="0.915134"/>
</g>
<g filter="url(#filter6_bd_102_5)">
<rect x="69.7255" y="18" width="131.373" height="124.804" rx="15.7647" fill="white" fill-opacity="0.02" shape-rendering="crispEdges"/>
<rect x="70.7255" y="19" width="129.373" height="122.804" rx="14.7647" stroke="white" stroke-opacity="0.33" stroke-width="2" shape-rendering="crispEdges"/>
</g>
<defs>
<filter id="filter0_f_102_5" x="-0.00154495" y="44.273" width="158.605" height="159.862" filterUnits="userSpaceOnUse" color-interpolation-filters="sRGB">
<feFlood flood-opacity="0" result="BackgroundImageFix"/>
<feBlend mode="normal" in="SourceGraphic" in2="BackgroundImageFix" result="shape"/>
<feGaussianBlur stdDeviation="6.8635" result="effect1_foregroundBlur_102_5"/>
</filter>
<filter id="filter1_f_102_5" x="10.9277" y="55.307" width="136.746" height="137.794" filterUnits="userSpaceOnUse" color-interpolation-filters="sRGB">
<feFlood flood-opacity="0" result="BackgroundImageFix"/>
<feBlend mode="normal" in="SourceGraphic" in2="BackgroundImageFix" result="shape"/>
<feGaussianBlur stdDeviation="6.8635" result="effect1_foregroundBlur_102_5"/>
</filter>
<filter id="filter2_f_102_5" x="20.079" y="64.4583" width="118.444" height="119.491" filterUnits="userSpaceOnUse" color-interpolation-filters="sRGB">
<feFlood flood-opacity="0" result="BackgroundImageFix"/>
<feBlend mode="normal" in="SourceGraphic" in2="BackgroundImageFix" result="shape"/>
<feGaussianBlur stdDeviation="2.28783" result="effect1_foregroundBlur_102_5"/>
</filter>
<filter id="filter3_ddi_102_5" x="18.7063" y="67.6613" width="121.189" height="122.237" filterUnits="userSpaceOnUse" color-interpolation-filters="sRGB">
<feFlood flood-opacity="0" result="BackgroundImageFix"/>
<feColorMatrix in="SourceAlpha" type="matrix" values="0 0 0 0 0 0 0 0 0 0 0 0 0 0 0 0 0 0 127 0" result="hardAlpha"/>
<feOffset dy="2.97419"/>
<feGaussianBlur stdDeviation="1.14392"/>
<feColorMatrix type="matrix" values="0 0 0 0 0.224 0 0 0 0 0.15 0 0 0 0 0 0 0 0 0.7 0"/>
<feBlend mode="multiply" in2="BackgroundImageFix" result="effect1_dropShadow_102_5"/>
<feColorMatrix in="SourceAlpha" type="matrix" values="0 0 0 0 0 0 0 0 0 0 0 0 0 0 0 0 0 0 127 0" result="hardAlpha"/>
<feOffset dy="4.57567"/>
<feGaussianBlur stdDeviation="2.97419"/>
<feColorMatrix type="matrix" values="0 0 0 0 0.56 0 0 0 0 0.44 0 0 0 0 0 0 0 0 1 0"/>
<feBlend mode="color-dodge" in2="effect1_dropShadow_102_5" result="effect2_dropShadow_102_5"/>
<feBlend mode="normal" in="SourceGraphic" in2="effect2_dropShadow_102_5" result="shape"/>
<feColorMatrix in="SourceAlpha" type="matrix" values="0 0 0 0 0 0 0 0 0 0 0 0 0 0 0 0 0 0 127 0" result="hardAlpha"/>
<feOffset dx="-0.297419" dy="0.594837"/>
<feGaussianBlur stdDeviation="0.148709"/>
<feComposite in2="hardAlpha" operator="arithmetic" k2="-1" k3="1"/>
<feColorMatrix type="matrix" values="0 0 0 0 1 0 0 0 0 1 0 0 0 0 1 0 0 0 0.5 0"/>
<feBlend mode="normal" in2="shape" result="effect3_innerShadow_102_5"/>
</filter>
<filter id="filter4_f_102_5" x="24.1971" y="68.5764" width="110.207" height="111.255" filterUnits="userSpaceOnUse" color-interpolation-filters="sRGB">
<feFlood flood-opacity="0" result="BackgroundImageFix"/>
<feBlend mode="normal" in="SourceGraphic" in2="BackgroundImageFix" result="shape"/>
<feGaussianBlur stdDeviation="0.228783" result="effect1_foregroundBlur_102_5"/>
</filter>
<filter id="filter5_f_102_5" x="24.3497" y="68.729" width="109.902" height="110.95" filterUnits="userSpaceOnUse" color-interpolation-filters="sRGB">
<feFlood flood-opacity="0" result="BackgroundImageFix"/>
<feBlend mode="normal" in="SourceGraphic" in2="BackgroundImageFix" result="shape"/>
<feGaussianBlur stdDeviation="0.152522" result="effect1_foregroundBlur_102_5"/>
</filter>
<filter id="filter6_bd_102_5" x="36.8823" y="0.921569" width="194.431" height="187.863" filterUnits="userSpaceOnUse" color-interpolation-filters="sRGB">
<feFlood flood-opacity="0" result="BackgroundImageFix"/>
<feGaussianBlur in="BackgroundImageFix" stdDeviation="5.125"/>
<feComposite in2="SourceAlpha" operator="in" result="effect1_backgroundBlur_102_5"/>
<feColorMatrix in="SourceAlpha" type="matrix" values="0 0 0 0 0 0 0 0 0 0 0 0 0 0 0 0 0 0 127 0" result="hardAlpha"/>
<feOffset dx="-1.31373" dy="14.451"/>
<feGaussianBlur stdDeviation="15.7647"/>
<feComposite in2="hardAlpha" operator="out"/>
<feColorMatrix type="matrix" values="0 0 0 0 0.241667 0 0 0 0 0.2175 0 0 0 0 0.18125 0 0 0 0.32 0"/>
<feBlend mode="normal" in2="effect1_backgroundBlur_102_5" result="effect2_dropShadow_102_5"/>
<feBlend mode="normal" in="SourceGraphic" in2="effect2_dropShadow_102_5" result="shape"/>
</filter>
</defs>
</svg>
