<svg width="212" height="222" viewBox="0 0 212 222" fill="none" xmlns="http://www.w3.org/2000/svg">
<g style="mix-blend-mode:hard-light" filter="url(#filter0_f_102_4)">
<ellipse cx="78.6912" cy="132.699" rx="41.9789" ry="77.4662" transform="rotate(34.8134 78.6912 132.699)" fill="#FF922D" fill-opacity="0.2"/>
</g>
<g style="mix-blend-mode:hard-light" filter="url(#filter1_f_102_4)">
<path d="M101.915 82.0671L101.913 82.0667C95.8614 79.8607 82.4481 79.8531 72.7541 93.7938L62.1226 109.083C59.7846 112.445 60.8301 117.037 64.0534 119.279C67.2852 121.526 71.9466 120.9 74.2834 117.539L84.9149 102.25C87.9435 97.8946 90.9746 96.3632 93.1503 95.845C95.3431 95.3227 96.926 95.7704 97.1488 95.8415C100.964 97.1583 104.927 95.0552 106.264 91.4008L106.264 91.4001C107.641 87.6325 105.686 83.4442 101.915 82.0671ZM82.5187 174.454L82.6013 174.512L83.9164 172.62L95.8428 155.469C98.8132 151.197 97.7582 145.333 93.4846 142.361L64.4764 122.19C60.2094 119.223 54.3414 120.273 51.371 124.545L39.4446 141.696C30.9059 153.976 33.9054 170.891 46.1907 179.434C57.8425 187.536 73.6345 185.185 82.5187 174.454ZM68.8728 89.5782C79.0764 74.9044 99.5242 71.3625 114.229 81.5879C128.937 91.8154 132.733 112.215 122.532 126.891C122.532 126.891 122.532 126.891 122.532 126.892L88.512 175.816C78.306 190.493 57.8583 194.035 43.1498 183.807C28.445 173.582 24.6485 153.177 34.8524 138.503L68.8728 89.5782Z" stroke="#FFAB2D" stroke-width="4.60721"/>
</g>
<g style="mix-blend-mode:hard-light" filter="url(#filter2_f_102_4)">
<path d="M102.158 81.4013L102.156 81.4007C95.8449 79.1003 82.0748 79.1483 72.1722 93.3892L61.5407 108.678C58.9648 112.383 60.1252 117.41 63.6487 119.861C67.1815 122.317 72.2911 121.646 74.8653 117.944L85.4968 102.655C88.435 98.4293 91.3231 97.0088 93.3145 96.5345C95.323 96.0561 96.7597 96.4626 96.9263 96.5145C101.127 97.9591 105.469 95.6358 106.929 91.6443L106.93 91.6435C108.442 87.5067 106.295 82.9122 102.158 81.4013ZM82.6429 175.404L82.7785 175.498L84.4983 173.025L96.4248 155.874C99.6188 151.28 98.4841 144.974 93.8893 141.779L64.8811 121.608C60.2929 118.418 53.9831 119.547 50.7891 124.14L38.8627 141.291C30.1015 153.891 33.178 171.249 45.7861 180.016C57.562 188.204 73.4559 185.988 82.6429 175.404ZM69.4547 89.9828C79.4315 75.6353 99.4361 72.1646 113.825 82.1699C128.216 92.1772 131.924 112.136 121.95 126.487C121.95 126.487 121.95 126.487 121.95 126.487L87.93 175.411C77.9509 189.762 57.9464 193.233 43.5545 183.225C29.1663 173.22 25.4572 153.255 35.4343 138.907L69.4547 89.9828Z" stroke="#FFAB2D" stroke-width="6.02482"/>
</g>
<g style="mix-blend-mode:hard-light" filter="url(#filter3_ddi_102_4)">
<path d="M101.915 82.0671L101.913 82.0667C95.8614 79.8607 82.4481 79.8531 72.7541 93.7938L62.1226 109.083C59.7846 112.445 60.8301 117.037 64.0534 119.279C67.2852 121.526 71.9466 120.9 74.2834 117.539L84.9149 102.25C87.9435 97.8946 90.9746 96.3632 93.1503 95.845C95.3431 95.3227 96.926 95.7704 97.1488 95.8415C100.964 97.1583 104.927 95.0552 106.264 91.4008L106.264 91.4001C107.641 87.6325 105.686 83.4442 101.915 82.0671ZM82.5187 174.454L82.6013 174.512L83.9164 172.62L95.8428 155.469C98.8132 151.197 97.7582 145.333 93.4846 142.361L64.4764 122.19C60.2094 119.223 54.3414 120.273 51.371 124.545L39.4446 141.696C30.9059 153.976 33.9054 170.891 46.1907 179.434C57.8425 187.536 73.6345 185.185 82.5187 174.454ZM68.8728 89.5782C79.0764 74.9044 99.5242 71.3625 114.229 81.5879C128.937 91.8154 132.733 112.215 122.532 126.891C122.532 126.891 122.532 126.891 122.532 126.892L88.512 175.816C78.306 190.493 57.8583 194.035 43.1498 183.807C28.445 173.582 24.6485 153.177 34.8524 138.503L68.8728 89.5782Z" stroke="#FFC940" stroke-opacity="0.2" stroke-width="4.60721"/>
</g>
<g filter="url(#filter4_f_102_4)">
<path d="M101.611 82.8994L101.61 82.8991C95.882 80.8112 82.9147 80.734 73.4816 94.2997L62.85 109.589C60.8093 112.524 61.7113 116.571 64.5592 118.551C67.4149 120.537 71.5161 119.967 73.5559 117.033L84.1875 101.744C87.3292 97.2261 90.5389 95.5562 92.945 94.9831C95.3635 94.4071 97.1278 94.9031 97.4296 95.0011C100.763 96.1564 104.249 94.3287 105.432 91.0963L105.432 91.0959C106.64 87.7898 104.924 84.1092 101.611 82.8994ZM82.3454 173.254L82.3797 173.278L83.189 172.114L95.1154 154.963C97.8062 151.093 96.851 145.781 92.9788 143.089L63.9706 122.917C60.1051 120.229 54.7893 121.181 52.0985 125.051L40.172 142.202C31.9115 154.081 34.8148 170.444 46.6966 178.706C58.1914 186.7 73.8559 184.175 82.3454 173.254ZM68.1454 89.0724C78.6326 73.9908 99.6343 70.3599 114.735 80.8605C129.839 91.3633 133.744 112.313 123.26 127.397C123.26 127.397 123.26 127.397 123.26 127.397L89.2394 176.322C78.7499 191.406 57.7481 195.037 42.644 184.534C27.5433 174.034 23.6376 153.079 34.1249 137.997L68.1454 89.0724Z" stroke="#FFD56A" stroke-width="2.83521"/>
</g>
<g filter="url(#filter5_f_102_4)">
<path d="M101.368 83.5652L101.367 83.565C95.8985 81.5717 83.288 81.4387 74.0635 94.7043L63.432 109.993C61.6291 112.586 62.4163 116.198 64.9639 117.969C67.5187 119.746 71.1716 119.221 72.974 116.629L83.6055 101.34C86.8377 96.6913 90.1904 94.9106 92.7808 94.2936C95.378 93.675 97.2871 94.2084 97.6559 94.3294C100.602 95.3542 103.707 93.7469 104.766 90.8528L104.766 90.8526C105.84 87.9156 104.314 84.6412 101.368 83.5652ZM82.1911 172.284L82.2024 172.292L82.607 171.71L94.5335 154.558C97.0007 151.01 96.1251 146.14 92.5742 143.671L63.5659 123.499C60.0216 121.035 55.1476 121.907 52.6804 125.455L40.754 142.607C32.7159 154.166 35.5423 170.087 47.1012 178.125C58.4691 186.029 74.0316 183.361 82.1911 172.284ZM67.5635 88.6677C78.2775 73.26 99.7224 69.5579 115.14 80.2786C130.56 91.0015 134.553 112.392 123.842 127.802C123.842 127.802 123.842 127.802 123.842 127.802L89.8213 176.726C79.105 192.137 57.66 195.839 42.2393 185.116C26.822 174.396 22.8289 153 33.543 137.592L67.5635 88.6677Z" stroke="white" stroke-width="1.4176"/>
</g>
<g filter="url(#filter6_bd_102_4)">
<rect x="50" y="18" width="131.373" height="124.804" rx="15.7647" fill="white" fill-opacity="0.02" shape-rendering="crispEdges"/>
<rect x="51" y="19" width="129.373" height="122.804" rx="14.7647" stroke="white" stroke-opacity="0.33" stroke-width="2" shape-rendering="crispEdges"/>
</g>
<defs>
<filter id="filter0_f_102_4" x="1.35511" y="43.4497" width="154.672" height="178.498" filterUnits="userSpaceOnUse" color-interpolation-filters="sRGB">
<feFlood flood-opacity="0" result="BackgroundImageFix"/>
<feBlend mode="normal" in="SourceGraphic" in2="BackgroundImageFix" result="shape"/>
<feGaussianBlur stdDeviation="10.632" result="effect1_foregroundBlur_102_4"/>
</filter>
<filter id="filter1_f_102_4" x="5.54688" y="52.1818" width="146.289" height="161.033" filterUnits="userSpaceOnUse" color-interpolation-filters="sRGB">
<feFlood flood-opacity="0" result="BackgroundImageFix"/>
<feBlend mode="normal" in="SourceGraphic" in2="BackgroundImageFix" result="shape"/>
<feGaussianBlur stdDeviation="10.632" result="effect1_foregroundBlur_102_4"/>
</filter>
<filter id="filter2_f_102_4" x="19.7229" y="66.3578" width="117.937" height="132.681" filterUnits="userSpaceOnUse" color-interpolation-filters="sRGB">
<feFlood flood-opacity="0" result="BackgroundImageFix"/>
<feBlend mode="normal" in="SourceGraphic" in2="BackgroundImageFix" result="shape"/>
<feGaussianBlur stdDeviation="3.54401" result="effect1_foregroundBlur_102_4"/>
</filter>
<filter id="filter3_ddi_102_4" x="17.5965" y="71.3194" width="122.189" height="136.934" filterUnits="userSpaceOnUse" color-interpolation-filters="sRGB">
<feFlood flood-opacity="0" result="BackgroundImageFix"/>
<feColorMatrix in="SourceAlpha" type="matrix" values="0 0 0 0 0 0 0 0 0 0 0 0 0 0 0 0 0 0 127 0" result="hardAlpha"/>
<feOffset dy="4.60721"/>
<feGaussianBlur stdDeviation="1.772"/>
<feColorMatrix type="matrix" values="0 0 0 0 0.224 0 0 0 0 0.15 0 0 0 0 0 0 0 0 0.7 0"/>
<feBlend mode="multiply" in2="BackgroundImageFix" result="effect1_dropShadow_102_4"/>
<feColorMatrix in="SourceAlpha" type="matrix" values="0 0 0 0 0 0 0 0 0 0 0 0 0 0 0 0 0 0 127 0" result="hardAlpha"/>
<feOffset dy="7.08802"/>
<feGaussianBlur stdDeviation="4.60721"/>
<feColorMatrix type="matrix" values="0 0 0 0 0.56 0 0 0 0 0.44 0 0 0 0 0 0 0 0 1 0"/>
<feBlend mode="color-dodge" in2="effect1_dropShadow_102_4" result="effect2_dropShadow_102_4"/>
<feBlend mode="normal" in="SourceGraphic" in2="effect2_dropShadow_102_4" result="shape"/>
<feColorMatrix in="SourceAlpha" type="matrix" values="0 0 0 0 0 0 0 0 0 0 0 0 0 0 0 0 0 0 127 0" result="hardAlpha"/>
<feOffset dx="-0.460721" dy="0.921443"/>
<feGaussianBlur stdDeviation="0.230361"/>
<feComposite in2="hardAlpha" operator="arithmetic" k2="-1" k3="1"/>
<feColorMatrix type="matrix" values="0 0 0 0 1 0 0 0 0 1 0 0 0 0 1 0 0 0 0.5 0"/>
<feBlend mode="normal" in2="shape" result="effect3_innerShadow_102_4"/>
</filter>
<filter id="filter4_f_102_4" x="26.1021" y="72.737" width="105.178" height="119.923" filterUnits="userSpaceOnUse" color-interpolation-filters="sRGB">
<feFlood flood-opacity="0" result="BackgroundImageFix"/>
<feBlend mode="normal" in="SourceGraphic" in2="BackgroundImageFix" result="shape"/>
<feGaussianBlur stdDeviation="0.354401" result="effect1_foregroundBlur_102_4"/>
</filter>
<filter id="filter5_f_102_4" x="26.3384" y="72.9733" width="104.706" height="119.45" filterUnits="userSpaceOnUse" color-interpolation-filters="sRGB">
<feFlood flood-opacity="0" result="BackgroundImageFix"/>
<feBlend mode="normal" in="SourceGraphic" in2="BackgroundImageFix" result="shape"/>
<feGaussianBlur stdDeviation="0.236267" result="effect1_foregroundBlur_102_4"/>
</filter>
<filter id="filter6_bd_102_4" x="17.1569" y="0.921569" width="194.431" height="187.863" filterUnits="userSpaceOnUse" color-interpolation-filters="sRGB">
<feFlood flood-opacity="0" result="BackgroundImageFix"/>
<feGaussianBlur in="BackgroundImageFix" stdDeviation="5.125"/>
<feComposite in2="SourceAlpha" operator="in" result="effect1_backgroundBlur_102_4"/>
<feColorMatrix in="SourceAlpha" type="matrix" values="0 0 0 0 0 0 0 0 0 0 0 0 0 0 0 0 0 0 127 0" result="hardAlpha"/>
<feOffset dx="-1.31373" dy="14.451"/>
<feGaussianBlur stdDeviation="15.7647"/>
<feComposite in2="hardAlpha" operator="out"/>
<feColorMatrix type="matrix" values="0 0 0 0 0.241667 0 0 0 0 0.2175 0 0 0 0 0.18125 0 0 0 0.32 0"/>
<feBlend mode="normal" in2="effect1_backgroundBlur_102_4" result="effect2_dropShadow_102_4"/>
<feBlend mode="normal" in="SourceGraphic" in2="effect2_dropShadow_102_4" result="shape"/>
</filter>
</defs>
</svg>
