<svg width="237" height="196" viewBox="0 0 237 196" fill="none" xmlns="http://www.w3.org/2000/svg">
<g style="mix-blend-mode:hard-light" filter="url(#filter0_f_102_3)">
<ellipse cx="83.8051" cy="122.94" rx="70.0797" ry="59.5" fill="#FF922D" fill-opacity="0.2"/>
</g>
<g style="mix-blend-mode:hard-light" filter="url(#filter1_f_102_3)">
<path d="M115.198 78.1044C102.899 78.1049 92.9411 88.0564 92.9411 100.352C92.9411 112.647 102.908 122.615 115.189 122.615C127.5 122.615 137.446 112.653 137.457 100.369V100.366C137.446 88.0535 127.481 78.0888 115.198 78.1044ZM115.198 78.1044C115.198 78.1044 115.199 78.1044 115.199 78.1044V79.5667L115.197 78.1044C115.197 78.1044 115.198 78.1044 115.198 78.1044ZM88.4588 99.0729H89.7785L89.9135 97.7602C91.2374 84.883 101.985 74.8189 115.194 74.8189C129.297 74.8189 140.733 86.2482 140.743 100.357C140.733 113.007 131.508 123.445 119.408 125.475L118.168 125.683L118.188 126.94L118.293 133.636L118.311 134.763L119.406 135.033L121.897 135.646L121.892 168.402C121.885 168.408 121.877 168.415 121.87 168.421C121.569 168.679 121.113 169.036 120.52 169.403C119.329 170.139 117.616 170.901 115.487 171.044L115.486 171.044C113.459 171.182 111.615 170.457 110.223 169.63C109.534 169.222 108.982 168.803 108.604 168.49C108.559 168.452 108.516 168.416 108.476 168.382V135.548L111.338 134.589L112.355 134.248L112.336 133.175L112.22 126.89L112.198 125.673L110.997 125.474C107.022 124.816 103.363 123.243 100.23 120.967L97.9082 119.281V122.15V163.536C97.9082 167.14 94.9489 170.088 91.3359 170.088H33.42C29.8206 170.088 26.8677 167.143 26.8677 163.536V105.62C26.8677 102.022 29.8217 99.0689 33.4184 99.0729H33.42H88.4588ZM85.5369 157.134H86.9992V155.672V150.399V148.937H85.5369H39.219H37.7568V150.399V155.672V157.134H39.219H85.5369ZM85.5369 138.684H86.9992V137.222V131.939V130.477H85.5369H39.219H37.7568V131.939V137.222V138.684H39.219H85.5369ZM85.5369 120.24H86.9992V118.777V113.494V112.032H85.5369H39.219H37.7568V113.494V118.777V120.24H39.219H85.5369Z" stroke="#FFAB2D" stroke-width="2.92454"/>
</g>
<g style="mix-blend-mode:hard-light" filter="url(#filter2_f_102_3)">
<path d="M115.198 77.6545C102.65 77.6551 92.4911 87.8078 92.4911 100.352C92.4911 112.895 102.659 123.065 115.189 123.065C127.749 123.065 137.896 112.901 137.907 100.369V100.366C137.896 87.8056 127.73 77.6388 115.198 77.6545ZM115.198 77.6545C115.198 77.6545 115.199 77.6545 115.199 77.6545V79.5667L115.196 77.6545C115.197 77.6545 115.197 77.6545 115.198 77.6545ZM88.4588 99.5229H90.1845L90.361 97.8062C91.662 85.1523 102.221 75.2688 115.194 75.2688C129.049 75.2688 140.283 86.4966 140.293 100.357C140.283 112.781 131.223 123.036 119.334 125.031L117.712 125.303L117.738 126.947L117.843 133.643L117.867 135.117L119.298 135.47L121.447 135.999L121.442 168.193C121.16 168.426 120.77 168.719 120.283 169.02C119.137 169.729 117.494 170.458 115.457 170.595L115.455 170.595C113.552 170.725 111.801 170.044 110.452 169.243C109.809 168.862 109.289 168.471 108.926 168.172V135.871L111.481 135.015L112.811 134.57L112.785 133.167L112.67 126.882L112.641 125.291L111.071 125.03C107.166 124.383 103.573 122.839 100.494 120.603L97.4583 118.398V122.15V163.536C97.4583 166.89 94.7019 169.638 91.3359 169.638H33.42C30.0687 169.638 27.3176 166.894 27.3176 163.536V105.62C27.3176 102.27 30.0702 99.5192 33.4179 99.5229H33.42H88.4588ZM85.5369 157.584H87.4491V155.672V150.399V148.487H85.5369H39.219H37.3068V150.399V155.672V157.584H39.219H85.5369ZM85.5369 139.134H87.4491V137.222V131.939V130.027H85.5369H39.219H37.3068V131.939V137.222V139.134H39.219H85.5369ZM85.5369 120.69H87.4491V118.777V113.494V111.582H85.5369H39.219H37.3068V113.494V118.777V120.69H39.219H85.5369Z" stroke="#FFAB2D" stroke-width="3.8244"/>
</g>
<g style="mix-blend-mode:hard-light" filter="url(#filter3_ddi_102_3)">
<path d="M115.198 78.1044C102.899 78.1049 92.9411 88.0564 92.9411 100.352C92.9411 112.647 102.908 122.615 115.189 122.615C127.5 122.615 137.446 112.653 137.457 100.369V100.366C137.446 88.0535 127.481 78.0888 115.198 78.1044ZM115.198 78.1044C115.198 78.1044 115.199 78.1044 115.199 78.1044V79.5667L115.197 78.1044C115.197 78.1044 115.198 78.1044 115.198 78.1044ZM88.4588 99.0729H89.7785L89.9135 97.7602C91.2374 84.883 101.985 74.8189 115.194 74.8189C129.297 74.8189 140.733 86.2482 140.743 100.357C140.733 113.007 131.508 123.445 119.408 125.475L118.168 125.683L118.188 126.94L118.293 133.636L118.311 134.763L119.406 135.033L121.897 135.646L121.892 168.402C121.885 168.408 121.877 168.415 121.87 168.421C121.569 168.679 121.113 169.036 120.52 169.403C119.329 170.139 117.616 170.901 115.487 171.044L115.486 171.044C113.459 171.182 111.615 170.457 110.223 169.63C109.534 169.222 108.982 168.803 108.604 168.49C108.559 168.452 108.516 168.416 108.476 168.382V135.548L111.338 134.589L112.355 134.248L112.336 133.175L112.22 126.89L112.198 125.673L110.997 125.474C107.022 124.816 103.363 123.243 100.23 120.967L97.9082 119.281V122.15V163.536C97.9082 167.14 94.9489 170.088 91.3359 170.088H33.42C29.8206 170.088 26.8677 167.143 26.8677 163.536V105.62C26.8677 102.022 29.8217 99.0689 33.4184 99.0729H33.42H88.4588ZM85.5369 157.134H86.9992V155.672V150.399V148.937H85.5369H39.219H37.7568V150.399V155.672V157.134H39.219H85.5369ZM85.5369 138.684H86.9992V137.222V131.939V130.477H85.5369H39.219H37.7568V131.939V137.222V138.684H39.219H85.5369ZM85.5369 120.24H86.9992V118.777V113.494V112.032H85.5369H39.219H37.7568V113.494V118.777V120.24H39.219H85.5369Z" stroke="#FFC940" stroke-opacity="0.2" stroke-width="2.92454"/>
</g>
<g filter="url(#filter4_f_102_3)">
<path d="M115.198 78.6668C103.209 78.6671 93.5035 88.3671 93.5035 100.352C93.5035 112.337 103.218 122.053 115.189 122.053C127.189 122.053 136.884 112.342 136.894 100.368V100.367C136.884 88.3634 127.17 78.6515 115.198 78.6668ZM115.198 78.6668C115.199 78.6668 115.199 78.6668 115.199 78.6668V79.5667L115.198 78.6668C115.198 78.6668 115.198 78.6668 115.198 78.6668ZM88.4588 98.5105H89.2709L89.354 97.7027C90.7066 84.5463 101.689 74.2565 115.194 74.2565C129.608 74.2565 141.295 85.9377 141.305 100.357C141.295 113.289 131.865 123.955 119.501 126.029L118.738 126.157L118.75 126.931L118.856 133.627L118.866 134.321L119.54 134.487L122.459 135.205L122.454 168.655C122.393 168.711 122.32 168.776 122.236 168.848C121.916 169.122 121.438 169.496 120.815 169.881C119.569 170.652 117.768 171.454 115.525 171.605L115.524 171.605C113.341 171.754 111.383 170.973 109.936 170.114C109.217 169.687 108.64 169.251 108.245 168.922C108.113 168.813 108.003 168.717 107.914 168.637V135.143L111.159 134.056L111.785 133.846L111.773 133.186L111.658 126.9L111.644 126.152L110.905 126.029C106.841 125.356 103.102 123.748 99.8993 121.422L98.4707 120.385V122.15V163.536C98.4707 167.452 95.2577 170.651 91.3359 170.651H33.42C29.5105 170.651 26.3053 167.454 26.3053 163.536V105.62C26.3053 101.711 29.5111 98.5062 33.419 98.5105H33.42H88.4588ZM85.5369 156.572H86.4368V155.672V150.399V149.499H85.5369H39.219H38.3192V150.399V155.672V156.572H39.219H85.5369ZM85.5369 138.122H86.4368V137.222V131.939V131.039H85.5369H39.219H38.3192V131.939V137.222V138.122H39.219H85.5369ZM85.5369 119.677H86.4368V118.777V113.494V112.595H85.5369H39.219H38.3192V113.494V118.777V119.677H39.219H85.5369Z" stroke="#FFD56A" stroke-width="1.79972"/>
</g>
<g filter="url(#filter5_f_102_3)">
<path d="M115.199 79.1167C103.458 79.1169 93.9534 88.6157 93.9534 100.352C93.9534 112.088 103.467 121.603 115.189 121.603C126.941 121.603 136.434 112.094 136.444 100.368V100.367C136.434 88.6113 126.921 79.1015 115.199 79.1167ZM115.199 79.1167C115.199 79.1167 115.199 79.1167 115.199 79.1167V79.5667L115.198 79.1167C115.198 79.1167 115.199 79.1167 115.199 79.1167ZM88.4588 98.0606H88.8649L88.9064 97.6567C90.282 84.2769 101.452 73.8065 115.194 73.8065C129.857 73.8065 141.745 85.6894 141.755 100.357C141.745 113.514 132.151 124.363 119.576 126.473L119.194 126.537L119.2 126.924L119.305 133.62L119.311 133.967L119.648 134.05L122.909 134.853L122.904 168.849C122.821 168.93 122.695 169.047 122.529 169.189C122.195 169.476 121.697 169.865 121.052 170.264C119.761 171.063 117.889 171.897 115.555 172.054L115.554 172.054C113.248 172.211 111.197 171.386 109.706 170.501C108.963 170.06 108.367 169.609 107.957 169.268C107.752 169.098 107.595 168.957 107.49 168.859C107.481 168.85 107.472 168.842 107.464 168.834V134.819L111.016 133.629L111.329 133.524L111.323 133.194L111.208 126.909L111.201 126.534L110.832 126.473C106.697 125.788 102.893 124.152 99.6349 121.786L98.9206 121.268V122.15V163.536C98.9206 167.702 95.5047 171.101 91.3359 171.101H33.42C29.2623 171.101 25.8553 167.703 25.8553 163.536V105.62C25.8553 101.463 29.2627 98.056 33.4195 98.0606H33.42H88.4588ZM85.5369 156.122H85.9868V155.672V150.399V149.949H85.5369H39.219H38.7691V150.399V155.672V156.122H39.219H85.5369ZM85.5369 137.672H85.9868V137.222V131.939V131.489H85.5369H39.219H38.7691V131.939V137.222V137.672H39.219H85.5369ZM85.5369 119.227H85.9868V118.777V113.494V113.044H85.5369H39.219H38.7691V113.494V118.777V119.227H39.219H85.5369Z" stroke="white" stroke-width="0.899859"/>
</g>
<g filter="url(#filter6_bd_102_3)">
<rect x="74.7255" y="17.4399" width="131.373" height="124.804" rx="15.7647" fill="white" fill-opacity="0.02" shape-rendering="crispEdges"/>
<rect x="75.7255" y="18.4399" width="129.373" height="122.804" rx="14.7647" stroke="white" stroke-opacity="0.33" stroke-width="2" shape-rendering="crispEdges"/>
</g>
<defs>
<filter id="filter0_f_102_3" x="0.227583" y="49.9421" width="167.155" height="145.996" filterUnits="userSpaceOnUse" color-interpolation-filters="sRGB">
<feFlood flood-opacity="0" result="BackgroundImageFix"/>
<feBlend mode="normal" in="SourceGraphic" in2="BackgroundImageFix" result="shape"/>
<feGaussianBlur stdDeviation="6.74894" result="effect1_foregroundBlur_102_3"/>
</filter>
<filter id="filter1_f_102_3" x="11.9075" y="59.8587" width="143.795" height="126.162" filterUnits="userSpaceOnUse" color-interpolation-filters="sRGB">
<feFlood flood-opacity="0" result="BackgroundImageFix"/>
<feBlend mode="normal" in="SourceGraphic" in2="BackgroundImageFix" result="shape"/>
<feGaussianBlur stdDeviation="6.74894" result="effect1_foregroundBlur_102_3"/>
</filter>
<filter id="filter2_f_102_3" x="20.9061" y="68.8573" width="125.798" height="108.165" filterUnits="userSpaceOnUse" color-interpolation-filters="sRGB">
<feFlood flood-opacity="0" result="BackgroundImageFix"/>
<feBlend mode="normal" in="SourceGraphic" in2="BackgroundImageFix" result="shape"/>
<feGaussianBlur stdDeviation="2.24965" result="effect1_foregroundBlur_102_3"/>
</filter>
<filter id="filter3_ddi_102_3" x="19.5563" y="72.0068" width="128.498" height="110.865" filterUnits="userSpaceOnUse" color-interpolation-filters="sRGB">
<feFlood flood-opacity="0" result="BackgroundImageFix"/>
<feColorMatrix in="SourceAlpha" type="matrix" values="0 0 0 0 0 0 0 0 0 0 0 0 0 0 0 0 0 0 127 0" result="hardAlpha"/>
<feOffset dy="2.92454"/>
<feGaussianBlur stdDeviation="1.12482"/>
<feColorMatrix type="matrix" values="0 0 0 0 0.224 0 0 0 0 0.15 0 0 0 0 0 0 0 0 0.7 0"/>
<feBlend mode="multiply" in2="BackgroundImageFix" result="effect1_dropShadow_102_3"/>
<feColorMatrix in="SourceAlpha" type="matrix" values="0 0 0 0 0 0 0 0 0 0 0 0 0 0 0 0 0 0 127 0" result="hardAlpha"/>
<feOffset dy="4.49929"/>
<feGaussianBlur stdDeviation="2.92454"/>
<feColorMatrix type="matrix" values="0 0 0 0 0.56 0 0 0 0 0.44 0 0 0 0 0 0 0 0 1 0"/>
<feBlend mode="color-dodge" in2="effect1_dropShadow_102_3" result="effect2_dropShadow_102_3"/>
<feBlend mode="normal" in="SourceGraphic" in2="effect2_dropShadow_102_3" result="shape"/>
<feColorMatrix in="SourceAlpha" type="matrix" values="0 0 0 0 0 0 0 0 0 0 0 0 0 0 0 0 0 0 127 0" result="hardAlpha"/>
<feOffset dx="-0.292454" dy="0.584908"/>
<feGaussianBlur stdDeviation="0.146227"/>
<feComposite in2="hardAlpha" operator="arithmetic" k2="-1" k3="1"/>
<feColorMatrix type="matrix" values="0 0 0 0 1 0 0 0 0 1 0 0 0 0 1 0 0 0 0.5 0"/>
<feBlend mode="normal" in2="shape" result="effect3_innerShadow_102_3"/>
</filter>
<filter id="filter4_f_102_3" x="24.9555" y="72.9067" width="117.699" height="100.067" filterUnits="userSpaceOnUse" color-interpolation-filters="sRGB">
<feFlood flood-opacity="0" result="BackgroundImageFix"/>
<feBlend mode="normal" in="SourceGraphic" in2="BackgroundImageFix" result="shape"/>
<feGaussianBlur stdDeviation="0.224965" result="effect1_foregroundBlur_102_3"/>
</filter>
<filter id="filter5_f_102_3" x="25.1055" y="73.0566" width="117.399" height="99.7666" filterUnits="userSpaceOnUse" color-interpolation-filters="sRGB">
<feFlood flood-opacity="0" result="BackgroundImageFix"/>
<feBlend mode="normal" in="SourceGraphic" in2="BackgroundImageFix" result="shape"/>
<feGaussianBlur stdDeviation="0.149976" result="effect1_foregroundBlur_102_3"/>
</filter>
<filter id="filter6_bd_102_3" x="41.8823" y="0.36151" width="194.431" height="187.863" filterUnits="userSpaceOnUse" color-interpolation-filters="sRGB">
<feFlood flood-opacity="0" result="BackgroundImageFix"/>
<feGaussianBlur in="BackgroundImageFix" stdDeviation="5.125"/>
<feComposite in2="SourceAlpha" operator="in" result="effect1_backgroundBlur_102_3"/>
<feColorMatrix in="SourceAlpha" type="matrix" values="0 0 0 0 0 0 0 0 0 0 0 0 0 0 0 0 0 0 127 0" result="hardAlpha"/>
<feOffset dx="-1.31373" dy="14.451"/>
<feGaussianBlur stdDeviation="15.7647"/>
<feComposite in2="hardAlpha" operator="out"/>
<feColorMatrix type="matrix" values="0 0 0 0 0.241667 0 0 0 0 0.2175 0 0 0 0 0.18125 0 0 0 0.32 0"/>
<feBlend mode="normal" in2="effect1_backgroundBlur_102_3" result="effect2_dropShadow_102_3"/>
<feBlend mode="normal" in="SourceGraphic" in2="effect2_dropShadow_102_3" result="shape"/>
</filter>
</defs>
</svg>
