<svg width="241" height="192" viewBox="0 0 241 192" fill="none" xmlns="http://www.w3.org/2000/svg">
<g style="mix-blend-mode:hard-light" filter="url(#filter0_f_102_6)">
<ellipse cx="87.8627" cy="98.5255" rx="77.8627" ry="83.5255" fill="#FF922D" fill-opacity="0.2"/>
</g>
<g style="mix-blend-mode:hard-light" filter="url(#filter1_f_102_6)">
<path d="M124.85 59.5776L124.854 58.5924C121.23 58.5787 117.805 57.8626 114.815 56.5687L114.811 56.5674C114.736 56.5349 114.671 56.505 114.595 56.4695C114.55 56.4486 114.5 56.4257 114.442 56.3991L114.441 56.3986C113.488 55.9669 112.586 55.5025 111.761 54.9748C111.732 54.9555 111.705 54.9401 111.684 54.9282C107.985 52.5554 104.213 50.9013 100.405 49.993L100.405 49.9929C98.1126 49.4472 95.8111 49.171 93.5113 49.171H59.5584H59.3119L59.0944 49.2871C39.1057 59.9601 26.7108 80.5829 26.7108 103.244C26.7108 136.965 54.142 164.396 87.8627 164.396C99.9162 164.396 111.478 160.924 121.467 154.326L122.464 153.667L121.627 152.814C120.163 151.322 118.299 149.415 116.636 147.7C116.635 147.699 116.634 147.698 116.634 147.698L116.614 147.677C116.52 147.579 116.425 147.48 116.326 147.378C116.119 147.164 115.915 146.953 115.717 146.748L115.713 146.744C115.61 146.638 115.508 146.532 115.405 146.424C115.234 146.244 115.059 146.064 114.906 145.904L114.905 145.903L114.83 145.825C114.739 145.731 114.649 145.637 114.565 145.549C114.319 145.291 114.083 145.044 113.87 144.821L113.325 144.251L112.649 144.659C105.091 149.227 96.5086 151.629 87.7306 151.629C74.9841 151.629 63.0056 146.667 53.9955 137.655L53.9954 137.654C44.6426 128.302 39.6879 115.874 40.0348 102.647C40.384 89.4318 46.0013 77.2714 55.8666 68.3936L55.2286 67.6845L55.8666 68.3936C64.5255 60.6011 75.8273 56.3064 87.6999 56.3064C100.243 56.3064 112.02 61.017 120.874 69.5638C130.803 79.1531 135.754 91.9987 135.504 104.834C135.421 109.113 134.76 113.392 133.512 117.547L133.512 117.548C131.85 123.088 129.146 128.414 125.376 133.238L124.834 133.931L125.462 134.548C125.528 134.613 125.596 134.679 125.665 134.747C125.861 134.938 126.067 135.14 126.28 135.351C126.3 135.372 126.32 135.39 126.329 135.399C126.342 135.411 126.343 135.412 126.343 135.412L126.348 135.417C128.468 137.506 131.484 140.497 133.424 142.42L134.187 143.177L134.875 142.351C144.012 131.377 149.015 117.587 149.015 103.244C149.015 86.3465 141.972 70.1434 129.65 58.6037L129.313 58.2879L128.877 58.3424L128.862 58.3433C128.849 58.3442 128.829 58.3458 128.806 58.3483L128.797 58.3494L128.787 58.3507C128.111 58.4397 127.425 58.5059 126.729 58.5469L126.721 58.5475C126.498 58.5625 126.282 58.5683 126.044 58.5747C125.972 58.5767 125.898 58.5787 125.822 58.581C125.664 58.5854 125.554 58.5915 125.457 58.5969C125.342 58.6033 125.245 58.6087 125.109 58.6089C125.104 58.6085 125.094 58.6076 125.073 58.6055L125.066 58.6048C125.028 58.601 124.943 58.5924 124.85 58.5924V59.5776ZM124.85 59.5776C124.892 59.5776 124.934 59.5818 124.975 59.5859C125.016 59.59 125.058 59.5942 125.1 59.5942C125.251 59.5942 125.399 59.5866 125.548 59.5789C125.648 59.5738 125.749 59.5687 125.85 59.5658M124.85 59.5776C121.101 59.5635 117.543 58.8226 114.423 57.473C114.335 57.4352 114.249 57.3954 114.163 57.3555C114.12 57.3356 114.077 57.3157 114.034 57.296C113.05 56.8501 112.099 56.3617 111.219 55.7978C111.214 55.7942 111.209 55.7919 111.204 55.7895C111.199 55.7871 111.193 55.7848 111.189 55.7812L125.85 59.5658M125.85 59.5658C125.92 59.5637 125.989 59.5619 126.059 59.56C126.301 59.5535 126.543 59.547 126.787 59.5305C127.507 59.488 128.217 59.4196 128.915 59.3275C128.926 59.3264 128.936 59.3258 128.946 59.3252C128.957 59.3246 128.967 59.324 128.977 59.3228C141.1 70.6766 148.029 86.6196 148.029 103.244C148.029 117.025 143.336 130.286 134.745 140.955C134.767 140.977 134.79 140.999 134.812 141.021L134.118 141.72L133.361 141.09C133.379 141.068 133.397 141.046 133.416 141.024C131.502 139.127 128.919 136.567 127.039 134.715L125.85 59.5658ZM134.013 57.0816L132.574 57.5994L133.641 58.6955C145.199 70.5793 151.763 86.5855 151.763 103.244C151.763 118.462 146.361 133.072 136.534 144.621L136.072 145.164L136.443 145.772C138.289 148.805 137.918 152.802 135.311 155.412C133.829 156.892 131.859 157.707 129.751 157.707C127.994 157.707 126.342 157.109 124.967 156.045L124.4 155.605L123.808 156.01C113.171 163.277 100.8 167.145 87.8627 167.145C52.6301 167.145 23.9624 138.477 23.9624 103.244C23.9624 82.1914 34.2018 62.8394 51.1484 50.9631L53.7056 49.171H50.583H45.0972C42.5504 49.171 40.4787 47.0993 40.4787 44.5525V43.9626C40.4787 41.4159 42.5504 39.3441 45.0972 39.3441H93.5113C99.6494 39.3441 105.782 37.3805 111.718 33.563C115.369 31.2191 120.118 29.9062 125.098 29.9062C130.704 29.9062 135.749 31.5721 139.369 34.2139C142.99 36.8567 145.126 40.4217 145.126 44.2576C145.126 49.7188 140.749 54.6573 134.013 57.0816ZM128.891 58.3415L128.889 58.3417C128.894 58.3413 128.897 58.3412 128.891 58.3415ZM111.604 54.8892C111.602 54.8881 111.607 54.8904 111.613 54.8932L111.604 54.8892ZM59.5176 132.137L59.5177 132.137C67.0546 139.674 77.0828 143.829 87.7424 143.829C98.402 143.829 108.43 139.674 115.967 132.137C131.533 116.571 131.533 91.2508 115.967 75.6852C108.43 68.1483 98.402 63.9932 87.7424 63.9932C77.0828 63.9932 67.0546 68.1483 59.5177 75.6852L59.5176 75.6852C43.9544 91.2508 43.9544 116.571 59.5176 132.137Z" stroke="#FFAB2D" stroke-width="1.9705"/>
</g>
<g style="mix-blend-mode:hard-light" filter="url(#filter2_f_102_6)">
<path d="M59.236 48.8678H59.5584H93.5113C95.8355 48.8678 98.1606 49.147 100.475 49.698L100.476 49.6981C104.318 50.6145 108.118 52.2816 111.839 54.6675C111.864 54.6815 111.893 54.699 111.926 54.7202C112.734 55.2373 113.622 55.6947 114.566 56.1225L114.567 56.1231C114.631 56.152 114.682 56.1757 114.727 56.1968C114.8 56.2307 114.859 56.2578 114.931 56.2888L114.935 56.2905C117.886 57.5672 121.27 58.2757 124.855 58.2892L124.85 59.5776M59.236 48.8678L111.189 55.7812C111.193 55.7848 111.199 55.7871 111.204 55.7895C111.209 55.7919 111.214 55.7942 111.219 55.7978C112.099 56.3617 113.05 56.8501 114.034 57.296C114.077 57.3157 114.12 57.3356 114.163 57.3555C114.249 57.3954 114.335 57.4352 114.423 57.473C117.543 58.8226 121.101 59.5635 124.85 59.5776M59.236 48.8678L58.9516 49.0197C38.8644 59.7453 26.4077 80.4708 26.4077 103.244C26.4077 137.133 53.9746 164.7 87.8627 164.7C99.9754 164.7 111.595 161.209 121.634 154.579L122.938 153.717L121.843 152.601C120.38 151.11 118.517 149.204 116.854 147.49L59.236 48.8678ZM124.85 59.5776V58.2892C124.959 58.2892 125.058 58.2993 125.096 58.3032L125.103 58.3039C125.111 58.3047 125.117 58.3053 125.122 58.3057C125.247 58.3052 125.33 58.3005 125.432 58.2946C125.526 58.2893 125.637 58.2829 125.813 58.278M124.85 59.5776C124.892 59.5776 124.934 59.5818 124.975 59.5859C125.016 59.59 125.058 59.5942 125.1 59.5942C125.251 59.5942 125.399 59.5866 125.548 59.5789C125.648 59.5738 125.749 59.5687 125.85 59.5658M125.813 58.278C125.813 58.278 125.814 58.278 125.814 58.2779L125.85 59.5658M125.813 58.278C125.812 58.278 125.812 58.278 125.811 58.278L125.85 59.5658M125.813 58.278C125.892 58.2756 125.968 58.2735 126.04 58.2716C126.277 58.2652 126.485 58.2596 126.7 58.245L126.711 58.2442C127.399 58.2037 128.079 58.1382 128.747 58.0502L128.76 58.0485L128.773 58.047C128.801 58.0439 128.825 58.042 128.841 58.0409C128.844 58.0407 128.846 58.0405 128.849 58.0404M125.85 59.5658C125.92 59.5637 125.989 59.5619 126.059 59.56C126.301 59.5535 126.543 59.547 126.787 59.5305C127.507 59.488 128.217 59.4196 128.915 59.3275C128.926 59.3264 128.936 59.3258 128.946 59.3252C128.957 59.3246 128.967 59.324 128.977 59.3228C141.1 70.6766 148.029 86.6196 148.029 103.244C148.029 116.923 143.406 130.089 134.936 140.717C134.966 140.747 134.995 140.776 135.025 140.806L134.118 141.72L133.128 140.896C133.152 140.867 133.176 140.839 133.199 140.81C131.311 138.938 128.849 136.499 127.039 134.715C127.029 134.705 127.018 134.694 127.006 134.683C126.995 134.673 126.984 134.662 126.973 134.651M128.849 58.0404L128.817 58.0444C128.841 58.0414 128.859 58.0399 128.867 58.0393C128.874 58.0388 128.88 58.0385 128.873 58.0389L128.872 58.0389C128.869 58.0391 128.86 58.0397 128.849 58.0404ZM128.849 58.0404L129.416 57.9694L129.857 58.3824C142.24 69.9793 149.318 86.2625 149.318 103.244C149.318 117.658 144.29 131.517 135.108 142.545L134.209 143.625L133.211 142.635C131.271 140.712 128.255 137.722 126.135 135.633L126.131 135.629L126.129 135.626L126.12 135.619C126.116 135.614 126.108 135.607 126.098 135.597C126.088 135.588 126.077 135.578 126.066 135.566M126.066 135.566L126.973 134.651M126.066 135.566C125.854 135.356 125.649 135.155 125.454 134.964C125.385 134.896 125.317 134.83 125.25 134.764L124.428 133.958L125.137 133.051C128.883 128.257 131.57 122.965 133.221 117.461L133.221 117.46C134.461 113.331 135.118 109.08 135.201 104.829C135.449 92.0748 130.53 79.3112 120.664 69.7821M126.066 135.566C126.065 135.565 126.064 135.564 126.063 135.563L126.973 134.651M126.973 134.651C126.683 134.364 126.402 134.09 126.152 133.845C129.998 128.923 132.759 123.486 134.455 117.831C135.729 113.588 136.404 109.221 136.489 104.854C136.744 91.7515 131.69 78.6399 121.558 68.8551M121.558 68.8551C112.517 60.1274 100.493 55.3211 87.6999 55.3211C75.5887 55.3211 64.0509 59.7027 55.2076 67.6612C45.142 76.7192 39.4062 89.1348 39.0499 102.622C38.6959 116.118 43.7547 128.807 53.2988 138.351C62.4936 147.548 74.7228 152.614 87.7306 152.614C96.6895 152.614 105.448 150.163 113.159 145.503C113.371 145.725 113.605 145.97 113.852 146.229M121.558 68.8551L120.663 69.7819C120.663 69.7819 120.664 69.782 120.664 69.7821M121.558 68.8551L120.664 69.7821M120.664 69.7821C111.867 61.2908 100.166 56.6096 87.6999 56.6096C75.9006 56.6096 64.6715 60.8775 56.0694 68.6189L56.0694 68.6189C46.2657 77.4414 40.6847 89.5234 40.3378 102.656M40.3378 102.656C40.3378 102.656 40.3378 102.655 40.3378 102.655L39.0499 102.622L40.3378 102.656ZM40.3378 102.656C39.9932 115.799 44.9159 128.146 54.2098 137.44L54.2099 137.44C63.1631 146.396 75.0645 151.326 87.7306 151.326C96.4529 151.326 104.981 148.939 112.492 144.4L113.376 143.866L114.089 144.612C114.195 144.722 114.306 144.838 114.421 144.959C114.538 145.082 114.659 145.209 114.783 145.338M114.783 145.338L113.852 146.229M114.783 145.338C114.783 145.339 114.784 145.339 114.784 145.34L113.852 146.229M114.783 145.338C114.869 145.428 114.962 145.524 115.055 145.621L115.124 145.693L115.125 145.695C115.178 145.749 115.233 145.807 115.291 145.868C115.398 145.979 115.512 146.096 115.623 146.214M113.852 146.229C113.94 146.321 114.034 146.419 114.128 146.517L114.194 146.586C114.252 146.646 114.311 146.707 114.369 146.768C114.474 146.877 114.581 146.988 114.69 147.102M115.623 146.214C115.622 146.213 115.622 146.212 115.621 146.212L114.69 147.102M115.623 146.214C115.624 146.214 115.624 146.215 115.625 146.216L114.69 147.102M115.623 146.214C115.726 146.322 115.827 146.427 115.929 146.532L115.935 146.538C116.133 146.742 116.337 146.954 116.544 147.168M114.69 147.102C114.794 147.211 114.9 147.322 115.009 147.433C115.082 147.509 115.157 147.586 115.232 147.664C115.359 147.796 115.489 147.93 115.62 148.065M116.544 147.168C116.543 147.167 116.542 147.166 116.541 147.164L115.62 148.065M116.544 147.168C116.545 147.168 116.545 147.169 116.546 147.169L115.62 148.065M116.544 147.168C116.644 147.27 116.739 147.369 116.831 147.466L116.851 147.487L115.926 148.384C115.823 148.275 115.723 148.171 115.62 148.065M133.91 56.7963L132.029 57.4735L133.423 58.9069C144.927 70.7345 151.46 86.665 151.46 103.244C151.46 118.39 146.084 132.93 136.303 144.425L135.7 145.134L136.184 145.93C137.96 148.847 137.602 152.691 135.096 155.198C133.671 156.621 131.779 157.404 129.751 157.404C128.064 157.404 126.477 156.831 125.153 155.805L124.411 155.231L123.637 155.76C113.05 162.993 100.738 166.842 87.8627 166.842C52.7975 166.842 24.2655 138.31 24.2655 103.244C24.2655 82.2911 34.4562 63.0314 51.3224 51.2114L54.6664 48.8678H50.583H45.0972C42.7179 48.8678 40.7819 46.9318 40.7819 44.5525V43.9626C40.7819 41.5833 42.7179 39.6473 45.0972 39.6473H93.5113C99.7165 39.6473 105.905 37.6617 111.882 33.8181C115.478 31.5095 120.168 30.2094 125.098 30.2094C130.647 30.2094 135.628 31.8586 139.19 34.4588C142.754 37.0602 144.823 40.5424 144.823 44.2576C144.823 49.5429 140.579 54.3964 133.91 56.7963ZM59.3033 132.351L59.3033 132.351C66.897 139.945 77.0024 144.132 87.7424 144.132C98.4824 144.132 108.588 139.945 116.181 132.351C131.865 116.667 131.865 91.1548 116.181 75.4708C108.588 67.8771 98.4824 63.6901 87.7424 63.6901C77.0024 63.6901 66.897 67.8771 59.3033 75.4708L59.3033 75.4709C43.6217 91.1549 43.6217 116.667 59.3033 132.351Z" stroke="#FFAB2D" stroke-width="2.57681"/>
</g>
<g style="mix-blend-mode:hard-light" filter="url(#filter3_ddi_102_6)">
<path d="M124.85 59.5776L124.854 58.5924C121.23 58.5787 117.805 57.8626 114.815 56.5687L114.811 56.5674C114.736 56.5349 114.671 56.505 114.595 56.4695C114.55 56.4486 114.5 56.4257 114.442 56.3991L114.441 56.3986C113.488 55.9669 112.586 55.5025 111.761 54.9748C111.732 54.9555 111.705 54.9401 111.684 54.9282C107.985 52.5554 104.213 50.9013 100.405 49.993L100.405 49.9929C98.1126 49.4472 95.8111 49.171 93.5113 49.171H59.5584H59.3119L59.0944 49.2871C39.1057 59.9601 26.7108 80.5829 26.7108 103.244C26.7108 136.965 54.142 164.396 87.8627 164.396C99.9162 164.396 111.478 160.924 121.467 154.326L122.464 153.667L121.627 152.814C120.163 151.322 118.299 149.415 116.636 147.7C116.635 147.699 116.634 147.698 116.634 147.698L116.614 147.677C116.52 147.579 116.425 147.48 116.326 147.378C116.119 147.164 115.915 146.953 115.717 146.748L115.713 146.744C115.61 146.638 115.508 146.532 115.405 146.424C115.234 146.244 115.059 146.064 114.906 145.904L114.905 145.903L114.83 145.825C114.739 145.731 114.649 145.637 114.565 145.549C114.319 145.291 114.083 145.044 113.87 144.821L113.325 144.251L112.649 144.659C105.091 149.227 96.5086 151.629 87.7306 151.629C74.9841 151.629 63.0056 146.667 53.9955 137.655L53.9954 137.654C44.6426 128.302 39.6879 115.874 40.0348 102.647C40.384 89.4318 46.0013 77.2714 55.8666 68.3936L55.2286 67.6845L55.8666 68.3936C64.5255 60.6011 75.8273 56.3064 87.6999 56.3064C100.243 56.3064 112.02 61.017 120.874 69.5638C130.803 79.1531 135.754 91.9987 135.504 104.834C135.421 109.113 134.76 113.392 133.512 117.547L133.512 117.548C131.85 123.088 129.146 128.414 125.376 133.238L124.834 133.931L125.462 134.548C125.528 134.613 125.596 134.679 125.665 134.747C125.861 134.938 126.067 135.14 126.28 135.351C126.3 135.372 126.32 135.39 126.329 135.399C126.342 135.411 126.343 135.412 126.343 135.412L126.348 135.417C128.468 137.506 131.484 140.497 133.424 142.42L134.187 143.177L134.875 142.351C144.012 131.377 149.015 117.587 149.015 103.244C149.015 86.3465 141.972 70.1434 129.65 58.6037L129.313 58.2879L128.877 58.3424L128.862 58.3433C128.849 58.3442 128.829 58.3458 128.806 58.3483L128.797 58.3494L128.787 58.3507C128.111 58.4397 127.425 58.5059 126.729 58.5469L126.721 58.5475C126.498 58.5625 126.282 58.5683 126.044 58.5747C125.972 58.5767 125.898 58.5787 125.822 58.581C125.664 58.5854 125.554 58.5915 125.457 58.5969C125.342 58.6033 125.245 58.6087 125.109 58.6089C125.104 58.6085 125.094 58.6076 125.073 58.6055L125.066 58.6048C125.028 58.601 124.943 58.5924 124.85 58.5924V59.5776ZM124.85 59.5776C124.892 59.5776 124.934 59.5818 124.975 59.5859C125.016 59.59 125.058 59.5942 125.1 59.5942C125.251 59.5942 125.399 59.5866 125.548 59.5789C125.648 59.5738 125.749 59.5687 125.85 59.5658M124.85 59.5776C121.101 59.5635 117.543 58.8226 114.423 57.473C114.335 57.4352 114.249 57.3954 114.163 57.3555C114.12 57.3356 114.077 57.3157 114.034 57.296C113.05 56.8501 112.099 56.3617 111.219 55.7978C111.214 55.7942 111.209 55.7919 111.204 55.7895C111.199 55.7871 111.193 55.7848 111.189 55.7812L125.85 59.5658M125.85 59.5658C125.92 59.5637 125.989 59.5619 126.059 59.56C126.301 59.5535 126.543 59.547 126.787 59.5305C127.507 59.488 128.217 59.4196 128.915 59.3275C128.926 59.3264 128.936 59.3258 128.946 59.3252C128.957 59.3246 128.967 59.324 128.977 59.3228C141.1 70.6766 148.029 86.6196 148.029 103.244C148.029 117.025 143.336 130.286 134.745 140.955C134.767 140.977 134.79 140.999 134.812 141.021L134.118 141.72L133.361 141.09C133.379 141.068 133.397 141.046 133.416 141.024C131.502 139.127 128.919 136.567 127.039 134.715L125.85 59.5658ZM134.013 57.0816L132.574 57.5994L133.641 58.6955C145.199 70.5793 151.763 86.5855 151.763 103.244C151.763 118.462 146.361 133.072 136.534 144.621L136.072 145.164L136.443 145.772C138.289 148.805 137.918 152.802 135.311 155.412C133.829 156.892 131.859 157.707 129.751 157.707C127.994 157.707 126.342 157.109 124.967 156.045L124.4 155.605L123.808 156.01C113.171 163.277 100.8 167.145 87.8627 167.145C52.6301 167.145 23.9624 138.477 23.9624 103.244C23.9624 82.1914 34.2018 62.8394 51.1484 50.9631L53.7056 49.171H50.583H45.0972C42.5504 49.171 40.4787 47.0993 40.4787 44.5525V43.9626C40.4787 41.4159 42.5504 39.3441 45.0972 39.3441H93.5113C99.6494 39.3441 105.782 37.3805 111.718 33.563C115.369 31.2191 120.118 29.9062 125.098 29.9062C130.704 29.9062 135.749 31.5721 139.369 34.2139C142.99 36.8567 145.126 40.4217 145.126 44.2576C145.126 49.7188 140.749 54.6573 134.013 57.0816ZM128.891 58.3415L128.889 58.3417C128.894 58.3413 128.897 58.3412 128.891 58.3415ZM111.604 54.8892C111.602 54.8881 111.607 54.8904 111.613 54.8932L111.604 54.8892ZM59.5176 132.137L59.5177 132.137C67.0546 139.674 77.0828 143.829 87.7424 143.829C98.402 143.829 108.43 139.674 115.967 132.137C131.533 116.571 131.533 91.2508 115.967 75.6852C108.43 68.1483 98.402 63.9932 87.7424 63.9932C77.0828 63.9932 67.0546 68.1483 59.5177 75.6852L59.5176 75.6852C43.9544 91.2508 43.9544 116.571 59.5176 132.137Z" stroke="#FFC940" stroke-opacity="0.2" stroke-width="1.9705"/>
</g>
<g filter="url(#filter4_f_102_6)">
<path d="M59.4067 49.5499H59.5584H93.5113C95.7805 49.5499 98.0526 49.8225 100.317 50.3616L100.318 50.3616C104.083 51.2599 107.821 52.8982 111.492 55.2555C111.508 55.2639 111.529 55.2758 111.554 55.292C112.4 55.8333 113.32 56.3067 114.284 56.7438L114.285 56.7441C114.337 56.7679 114.384 56.7897 114.429 56.8104C114.509 56.8477 114.582 56.8812 114.662 56.9157L114.664 56.9165C117.704 58.2319 121.181 58.9575 124.852 58.9713L124.85 59.5776M59.4067 49.5499L111.189 55.7812C111.193 55.7848 111.199 55.7871 111.204 55.7895C111.209 55.7919 111.214 55.7942 111.219 55.7978C112.099 56.3617 113.05 56.8501 114.034 57.296C114.077 57.3157 114.12 57.3356 114.163 57.3555C114.249 57.3954 114.335 57.4352 114.423 57.473C117.543 58.8226 121.101 59.5635 124.85 59.5776M59.4067 49.5499L59.2729 49.6214C39.4073 60.2286 27.0898 80.7231 27.0898 103.244C27.0898 136.756 54.3513 164.017 87.8627 164.017C99.8422 164.017 111.331 160.566 121.258 154.01L121.872 153.604L121.357 153.079C119.892 151.587 118.028 149.679 116.363 147.963C116.261 147.857 116.16 147.751 116.055 147.643C115.969 147.554 115.883 147.466 115.798 147.378C115.679 147.254 115.56 147.132 115.445 147.012L115.442 147.009C115.336 146.901 115.232 146.792 115.129 146.684C115.019 146.568 114.909 146.454 114.803 146.344C114.745 146.283 114.688 146.224 114.632 146.166L114.632 146.166C114.516 146.045 114.399 145.923 114.291 145.81M59.4067 49.5499L114.291 145.81M124.85 59.5776V58.9713C124.923 58.9713 124.991 58.9781 125.029 58.982L125.035 58.9826C125.081 58.9872 125.093 58.9879 125.1 58.9879C125.244 58.9879 125.36 58.9816 125.491 58.9747C125.59 58.9694 125.698 58.9636 125.833 58.9598M124.85 59.5776C124.892 59.5776 124.934 59.5818 124.975 59.5859C125.016 59.59 125.058 59.5942 125.1 59.5942C125.251 59.5942 125.399 59.5866 125.548 59.5789C125.648 59.5738 125.749 59.5687 125.85 59.5658M125.833 58.9598C125.833 58.9598 125.833 58.9598 125.833 58.9598L125.85 59.5658M125.833 58.9598C125.832 58.9598 125.832 58.9598 125.832 58.9598L125.85 59.5658M125.833 58.9598C125.907 58.9576 125.979 58.9556 126.05 58.9537C126.29 58.9472 126.516 58.9411 126.746 58.9255L126.751 58.9252C127.456 58.8836 128.152 58.8166 128.836 58.7264L128.848 58.7248L128.848 58.7249C128.864 58.7232 128.878 58.722 128.889 58.7213L128.912 58.7199L128.901 58.7212C128.91 58.7201 128.916 58.7197 128.917 58.7196L128.912 58.7199L129.184 58.6859L129.391 58.8803C141.636 70.3485 148.636 86.4515 148.636 103.244C148.636 117.498 143.664 131.203 134.584 142.108L134.161 142.617L133.691 142.151C131.751 140.228 128.734 137.237 126.614 135.147L126.611 135.144C126.607 135.14 126.602 135.135 126.589 135.123L126.588 135.122C126.578 135.113 126.561 135.097 126.545 135.08M125.85 59.5658C125.92 59.5637 125.989 59.5619 126.059 59.56C126.301 59.5535 126.543 59.547 126.787 59.5305C127.507 59.488 128.217 59.4196 128.915 59.3275C128.926 59.3264 128.936 59.3258 128.946 59.3252C128.957 59.3246 128.967 59.324 128.977 59.3228C141.1 70.6766 148.029 86.6196 148.029 103.244C148.029 117.153 143.249 130.531 134.505 141.251C134.518 141.264 134.532 141.277 134.545 141.29L134.118 141.72L133.652 141.333C133.663 141.319 133.674 141.305 133.686 141.292C131.751 139.374 129.009 136.656 127.039 134.715C127.029 134.705 127.018 134.694 127.006 134.683C126.995 134.673 126.984 134.662 126.973 134.651M126.545 135.08C126.545 135.081 126.546 135.081 126.546 135.082L126.973 134.651M126.545 135.08L126.973 134.651M126.545 135.08C126.332 134.869 126.125 134.667 125.93 134.476C125.861 134.408 125.794 134.342 125.728 134.277L125.341 133.898L125.675 133.471C129.474 128.61 132.2 123.241 133.875 117.657L133.875 117.656C135.133 113.467 135.799 109.155 135.883 104.842C136.135 91.9036 131.144 78.9558 121.137 69.2913M126.973 134.651C126.683 134.364 126.402 134.09 126.152 133.845C129.998 128.923 132.759 123.486 134.455 117.831C135.729 113.588 136.404 109.221 136.489 104.854C136.744 91.7515 131.69 78.6399 121.558 68.8551M121.137 69.2913L121.558 68.8551M121.137 69.2913C121.137 69.2913 121.137 69.2913 121.137 69.2912L121.558 68.8551M121.137 69.2913C112.211 60.6749 100.339 55.9275 87.6999 55.9275C75.7355 55.9275 64.3429 60.2556 55.6132 68.1119L55.2076 67.6612M121.558 68.8551C112.517 60.1274 100.493 55.3211 87.6999 55.3211C75.5887 55.3211 64.0509 59.7027 55.2076 67.6612M55.2076 67.6612L55.6131 68.1119C45.6708 77.059 40.0079 89.3176 39.656 102.637M55.2076 67.6612C45.142 76.7192 39.4062 89.1348 39.0499 102.622M39.656 102.637L113.159 145.503C105.448 150.163 96.6895 152.614 87.7306 152.614C74.7228 152.614 62.4936 147.548 53.2988 138.351C43.7547 128.807 38.6959 116.118 39.0499 102.622M39.656 102.637L39.0499 102.622M39.656 102.637C39.656 102.638 39.656 102.638 39.656 102.638L39.0499 102.622M39.656 102.637C39.3064 115.968 44.3011 128.496 53.7275 137.922L53.7275 137.922C62.8087 147.006 74.8836 152.008 87.7306 152.008C96.5782 152.008 105.228 149.587 112.845 144.984L113.261 144.733L113.597 145.083C113.711 145.203 113.832 145.33 113.958 145.462C114.066 145.575 114.177 145.691 114.291 145.81M39.656 102.637L114.291 145.81M134.141 57.4381L133.256 57.7568L133.912 58.4313C145.539 70.3854 152.142 86.4861 152.142 103.244C152.142 118.552 146.708 133.249 136.823 144.867L136.539 145.201L136.766 145.575C138.7 148.752 138.314 152.942 135.579 155.68C134.025 157.231 131.959 158.086 129.751 158.086C127.905 158.086 126.173 157.458 124.735 156.344L124.386 156.074L124.022 156.323C113.322 163.633 100.877 167.524 87.8627 167.524C52.4208 167.524 23.5834 138.686 23.5834 103.244C23.5834 82.0669 33.884 62.5995 50.931 50.6528L52.5046 49.5499H50.583H45.0972C42.3411 49.5499 40.0998 47.3086 40.0998 44.5525V43.9626C40.0998 41.2066 42.3411 38.9652 45.0972 38.9652H93.5113C99.5656 38.9652 105.628 37.0289 111.514 33.2438C115.234 30.856 120.055 29.5273 125.098 29.5273C130.776 29.5273 135.901 31.214 139.592 33.9079C143.284 36.6023 145.505 40.2708 145.505 44.2576C145.505 49.9388 140.962 54.9834 134.141 57.4381ZM111.45 55.2355C111.448 55.2346 111.451 55.2357 111.454 55.2372L111.45 55.2355ZM59.7857 75.9531L59.7856 75.9531C44.3704 91.3708 44.3704 116.451 59.7856 131.869L60.2144 131.44L59.7857 131.869C67.2515 139.335 77.1833 143.45 87.7424 143.45C98.3015 143.45 108.233 139.335 115.699 131.869C131.117 116.451 131.117 91.3708 115.699 75.9531C108.233 68.4873 98.3015 64.3722 87.7424 64.3722C77.1833 64.3722 67.2515 68.4873 59.7857 75.9531Z" stroke="#FFD56A" stroke-width="1.21262"/>
</g>
<g filter="url(#filter5_f_102_6)">
<path d="M59.4826 49.8531H59.5584H93.5113C95.756 49.8531 98.0046 50.1227 100.247 50.6565L100.247 50.6565C103.98 51.5469 107.691 53.1733 111.341 55.5191C111.344 55.5204 111.347 55.5219 111.35 55.5236C111.36 55.5285 111.373 55.5357 111.388 55.5456C112.25 56.0979 113.185 56.5786 114.159 57.0199L114.16 57.0201C114.207 57.0417 114.252 57.0626 114.296 57.083C114.38 57.1216 114.459 57.1582 114.543 57.1943L114.544 57.1948C117.623 58.5272 121.141 59.2605 124.851 59.2745L124.85 59.5776M59.4826 49.8531L126.973 134.651L126.759 134.866C126.773 134.88 126.787 134.893 126.797 134.903L126.798 134.903C126.803 134.908 126.808 134.912 126.812 134.916C126.817 134.921 126.821 134.926 126.825 134.93L126.827 134.931C128.947 137.021 131.965 140.013 133.904 141.936L134.139 142.169L134.351 141.914C143.386 131.063 148.333 117.427 148.333 103.244C148.333 86.5356 141.368 70.5126 129.184 59.1016L129.08 59.0044L128.94 59.0219C128.939 59.0219 128.936 59.0221 128.93 59.0225C128.921 59.023 128.902 59.024 128.882 59.0262L128.876 59.027C128.184 59.1181 127.481 59.1858 126.769 59.2278L126.767 59.228C126.529 59.244 126.295 59.2504 126.054 59.2568C125.984 59.2587 125.913 59.2606 125.842 59.2628M59.4826 49.8531L59.4157 49.8888M59.4826 49.8531L59.4157 49.8888M124.85 59.5776V59.2745C124.908 59.2745 124.962 59.2799 125.001 59.2838L125.005 59.2843C125.049 59.2886 125.075 59.291 125.1 59.291C125.248 59.291 125.379 59.2841 125.519 59.2768C125.619 59.2716 125.724 59.2661 125.842 59.2628M124.85 59.5776C124.892 59.5776 124.934 59.5818 124.975 59.5859C125.016 59.59 125.058 59.5942 125.1 59.5942C125.251 59.5942 125.399 59.5866 125.548 59.5789C125.648 59.5738 125.749 59.5687 125.85 59.5658M124.85 59.5776C121.101 59.5635 117.543 58.8226 114.423 57.473L126.787 59.5305C126.543 59.547 126.301 59.5535 126.059 59.56C125.989 59.5619 125.92 59.5637 125.85 59.5658M125.842 59.2628L125.85 59.5658M125.842 59.2628C125.842 59.2628 125.841 59.2628 125.841 59.2628L125.85 59.5658M120.924 153.504C120.853 153.431 120.78 153.358 120.707 153.283C120.724 153.272 120.74 153.262 120.757 153.251L120.924 153.504ZM120.924 153.504C120.838 153.56 120.752 153.617 120.665 153.673C120.679 153.688 120.693 153.702 120.707 153.716L120.924 153.504ZM59.4157 49.8888C39.6486 60.4435 27.3929 80.8353 27.3929 103.244C27.3929 136.589 54.5187 163.714 87.8627 163.714C99.783 163.714 111.214 160.28 121.091 153.757L121.398 153.554L121.14 153.291C119.675 151.798 117.809 149.89 116.144 148.173C116.144 148.173 116.144 148.173 116.144 148.173L116.12 148.147C116.025 148.048 115.933 147.952 115.837 147.853C115.629 147.639 115.424 147.427 115.227 147.222L115.225 147.221C115.118 147.112 115.014 147.002 114.91 146.894C114.801 146.778 114.692 146.666 114.586 146.556C114.528 146.495 114.47 146.435 114.413 146.376L114.413 146.376L114.248 146.204C114.188 146.141 114.128 146.079 114.071 146.02C113.824 145.761 113.59 145.515 113.378 145.293L113.21 145.118M59.4157 49.8888L113.21 145.118M113.21 145.118L113.002 145.243C105.338 149.875 96.6339 152.311 87.7306 152.311C74.8032 152.311 62.6512 147.277 53.5131 138.137L53.2988 138.351L113.21 145.118ZM134.244 57.7234L133.801 57.8827L134.129 58.22C145.811 70.2302 152.445 86.4066 152.445 103.244C152.445 118.624 146.985 133.391 137.053 145.063L136.911 145.23L137.025 145.417C139.029 148.709 138.631 153.054 135.794 155.894C134.182 157.503 132.039 158.389 129.751 158.389C127.835 158.389 126.038 157.736 124.549 156.584L124.375 156.449L124.193 156.573C113.443 163.917 100.939 167.827 87.8627 167.827C52.2534 167.827 23.2803 138.854 23.2803 103.244C23.2803 81.9673 33.6296 62.4075 50.757 50.4045L51.5438 49.8531H50.583H45.0972C42.1737 49.8531 39.7966 47.476 39.7966 44.5525V43.9626C39.7966 41.0391 42.1737 38.662 45.0972 38.662H93.5113C99.4984 38.662 105.505 36.7477 111.35 32.9889C115.125 30.5657 120.004 29.2241 125.098 29.2241C130.834 29.2241 136.023 30.9275 139.771 33.663C143.519 36.3988 145.808 40.1501 145.808 44.2576C145.808 50.1148 141.132 55.2443 134.244 57.7234ZM121.348 69.0732C121.348 69.0732 121.348 69.0732 121.348 69.0732L121.558 68.8551L121.348 69.0732ZM60 131.655L60.2144 131.44L60 131.655C67.409 139.064 77.2638 143.147 87.7424 143.147C98.221 143.147 108.076 139.064 115.485 131.655C130.784 116.355 130.784 91.4667 115.485 76.1675C108.076 68.7585 98.221 64.6753 87.7424 64.6753C77.2638 64.6753 67.409 68.7585 60 76.1675L60.2144 76.3818L60 76.1675C44.7031 91.4668 44.7031 116.355 60 131.655Z" stroke="white" stroke-width="0.606308"/>
</g>
<g filter="url(#filter6_bd_102_6)">
<rect x="78.7255" y="17.8149" width="131.373" height="124.804" rx="15.7647" fill="white" fill-opacity="0.02" shape-rendering="crispEdges"/>
<rect x="79.7255" y="18.8149" width="129.373" height="122.804" rx="14.7647" stroke="white" stroke-opacity="0.33" stroke-width="2" shape-rendering="crispEdges"/>
</g>
<defs>
<filter id="filter0_f_102_6" x="0.905375" y="5.90538" width="173.915" height="185.24" filterUnits="userSpaceOnUse" color-interpolation-filters="sRGB">
<feFlood flood-opacity="0" result="BackgroundImageFix"/>
<feBlend mode="normal" in="SourceGraphic" in2="BackgroundImageFix" result="shape"/>
<feGaussianBlur stdDeviation="4.54731" result="effect1_foregroundBlur_102_6"/>
</filter>
<filter id="filter1_f_102_6" x="13.8825" y="19.8263" width="147.96" height="157.398" filterUnits="userSpaceOnUse" color-interpolation-filters="sRGB">
<feFlood flood-opacity="0" result="BackgroundImageFix"/>
<feBlend mode="normal" in="SourceGraphic" in2="BackgroundImageFix" result="shape"/>
<feGaussianBlur stdDeviation="4.54731" result="effect1_foregroundBlur_102_6"/>
</filter>
<filter id="filter2_f_102_6" x="19.9456" y="25.8894" width="135.834" height="145.272" filterUnits="userSpaceOnUse" color-interpolation-filters="sRGB">
<feFlood flood-opacity="0" result="BackgroundImageFix"/>
<feBlend mode="normal" in="SourceGraphic" in2="BackgroundImageFix" result="shape"/>
<feGaussianBlur stdDeviation="1.51577" result="effect1_foregroundBlur_102_6"/>
</filter>
<filter id="filter3_ddi_102_6" x="19.0361" y="28.0115" width="137.653" height="147.091" filterUnits="userSpaceOnUse" color-interpolation-filters="sRGB">
<feFlood flood-opacity="0" result="BackgroundImageFix"/>
<feColorMatrix in="SourceAlpha" type="matrix" values="0 0 0 0 0 0 0 0 0 0 0 0 0 0 0 0 0 0 127 0" result="hardAlpha"/>
<feOffset dy="1.9705"/>
<feGaussianBlur stdDeviation="0.757885"/>
<feColorMatrix type="matrix" values="0 0 0 0 0.224 0 0 0 0 0.15 0 0 0 0 0 0 0 0 0.7 0"/>
<feBlend mode="multiply" in2="BackgroundImageFix" result="effect1_dropShadow_102_6"/>
<feColorMatrix in="SourceAlpha" type="matrix" values="0 0 0 0 0 0 0 0 0 0 0 0 0 0 0 0 0 0 127 0" result="hardAlpha"/>
<feOffset dy="3.03154"/>
<feGaussianBlur stdDeviation="1.9705"/>
<feColorMatrix type="matrix" values="0 0 0 0 0.56 0 0 0 0 0.44 0 0 0 0 0 0 0 0 1 0"/>
<feBlend mode="color-dodge" in2="effect1_dropShadow_102_6" result="effect2_dropShadow_102_6"/>
<feBlend mode="normal" in="SourceGraphic" in2="effect2_dropShadow_102_6" result="shape"/>
<feColorMatrix in="SourceAlpha" type="matrix" values="0 0 0 0 0 0 0 0 0 0 0 0 0 0 0 0 0 0 127 0" result="hardAlpha"/>
<feOffset dx="-0.19705" dy="0.3941"/>
<feGaussianBlur stdDeviation="0.0985251"/>
<feComposite in2="hardAlpha" operator="arithmetic" k2="-1" k3="1"/>
<feColorMatrix type="matrix" values="0 0 0 0 1 0 0 0 0 1 0 0 0 0 1 0 0 0 0.5 0"/>
<feBlend mode="normal" in2="shape" result="effect3_innerShadow_102_6"/>
</filter>
<filter id="filter4_f_102_6" x="22.674" y="28.6178" width="130.378" height="139.815" filterUnits="userSpaceOnUse" color-interpolation-filters="sRGB">
<feFlood flood-opacity="0" result="BackgroundImageFix"/>
<feBlend mode="normal" in="SourceGraphic" in2="BackgroundImageFix" result="shape"/>
<feGaussianBlur stdDeviation="0.151577" result="effect1_foregroundBlur_102_6"/>
</filter>
<filter id="filter5_f_102_6" x="22.775" y="28.7189" width="130.175" height="139.613" filterUnits="userSpaceOnUse" color-interpolation-filters="sRGB">
<feFlood flood-opacity="0" result="BackgroundImageFix"/>
<feBlend mode="normal" in="SourceGraphic" in2="BackgroundImageFix" result="shape"/>
<feGaussianBlur stdDeviation="0.101051" result="effect1_foregroundBlur_102_6"/>
</filter>
<filter id="filter6_bd_102_6" x="45.8823" y="0.73651" width="194.431" height="187.863" filterUnits="userSpaceOnUse" color-interpolation-filters="sRGB">
<feFlood flood-opacity="0" result="BackgroundImageFix"/>
<feGaussianBlur in="BackgroundImageFix" stdDeviation="5.125"/>
<feComposite in2="SourceAlpha" operator="in" result="effect1_backgroundBlur_102_6"/>
<feColorMatrix in="SourceAlpha" type="matrix" values="0 0 0 0 0 0 0 0 0 0 0 0 0 0 0 0 0 0 127 0" result="hardAlpha"/>
<feOffset dx="-1.31373" dy="14.451"/>
<feGaussianBlur stdDeviation="15.7647"/>
<feComposite in2="hardAlpha" operator="out"/>
<feColorMatrix type="matrix" values="0 0 0 0 0.241667 0 0 0 0 0.2175 0 0 0 0 0.18125 0 0 0 0.32 0"/>
<feBlend mode="normal" in2="effect1_backgroundBlur_102_6" result="effect2_dropShadow_102_6"/>
<feBlend mode="normal" in="SourceGraphic" in2="effect2_dropShadow_102_6" result="shape"/>
</filter>
</defs>
</svg>
