<svg width="90" height="90" viewBox="0 0 90 90" fill="none" xmlns="http://www.w3.org/2000/svg">
<g filter="url(#filter0_bi_605_4558)">
<path d="M67.5 3.75H79.8529C80.555 3.75 81.2283 4.37085 81.7247 5.47598C82.2211 6.5811 82.5 8.07998 82.5 9.64286V80.3572C82.5 81.92 82.2211 83.4189 81.7247 84.524C81.2283 85.6292 80.555 86.25 79.8529 86.25H67.5V3.75Z" fill="url(#paint0_linear_605_4558)"/>
</g>
<g filter="url(#filter1_bi_605_4558)">
<path d="M66.5216 0H11.739C10.1822 0 8.6893 0.618399 7.58854 1.71916C6.48778 2.81991 5.86938 4.31286 5.86938 5.86957V84.1305C5.86938 85.6872 6.48778 87.1801 7.58854 88.2809C8.6893 89.3816 10.1822 90 11.739 90H66.5216C68.0783 90 69.5712 89.3816 70.672 88.2809C71.7727 87.1801 72.3911 85.6872 72.3911 84.1305V5.86957C72.3911 4.31286 71.7727 2.81991 70.672 1.71916C69.5712 0.618399 68.0783 0 66.5216 0ZM14.9457 15.0241L14.8948 14.9733C14.4653 14.5347 14.1375 14.0071 13.9344 13.4277C13.7314 12.8484 13.6582 12.2315 13.72 11.6208C13.7818 11.01 13.9771 10.4203 14.292 9.89341C14.6069 9.36648 15.0338 8.91521 15.5424 8.57152C16.4866 7.92996 17.6469 7.68971 18.7682 7.90362C19.8895 8.11753 20.8799 8.76808 21.5216 9.71218C21.8759 9.19088 22.3403 8.75376 22.8821 8.4317C23.424 8.10964 24.0299 7.91051 24.6571 7.84836C25.2843 7.78622 25.9176 7.86258 26.512 8.07206C27.1065 8.28154 27.6477 8.61902 28.0974 9.06065L28.1483 9.10957C28.9257 9.90072 29.3571 10.9682 29.3475 12.0774C29.338 13.1865 28.8883 14.2465 28.0974 15.0241L21.5216 21.5217L14.9457 15.0241ZM24.337 47.7587C23.3867 46.8098 22.6457 45.6725 22.1616 44.4199C21.6775 43.1674 21.461 41.8273 21.5262 40.486C21.5913 39.1447 21.9366 37.8319 22.5398 36.6321C23.143 35.4324 23.9908 34.3722 25.0285 33.5199C26.0662 32.6676 27.271 32.042 28.5651 31.6835C29.8592 31.3249 31.2141 31.2413 32.5425 31.4381C33.8708 31.6349 35.1433 32.1076 36.2779 32.8259C37.4125 33.5442 38.3842 34.4922 39.1303 35.6087C39.8747 34.4893 40.8456 33.5384 41.9802 32.8174C43.1148 32.0963 44.3879 31.6211 45.7175 31.4224C47.0471 31.2237 48.4036 31.306 49.6994 31.6638C50.9952 32.0217 52.2017 32.6472 53.2409 33.5C54.28 34.3529 55.1289 35.4141 55.7327 36.6152C56.3365 37.8163 56.6818 39.1307 56.7463 40.4735C56.8108 41.8163 56.5931 43.1577 56.1072 44.4112C55.6214 45.6646 54.8781 46.8023 53.9255 47.7509L39.1303 62.6087L24.337 47.7587ZM63.3657 80.8885L63.3148 80.9394C62.8651 81.381 62.3239 81.7185 61.7294 81.928C61.135 82.1374 60.5017 82.2138 59.8745 82.1517C59.2473 82.0895 58.6414 81.8904 58.0995 81.5683C57.5577 81.2463 57.0933 80.8091 56.739 80.2878C56.3847 80.8091 55.9202 81.2463 55.3784 81.5683C54.8366 81.8904 54.2306 82.0895 53.6034 82.1517C52.9762 82.2138 52.343 82.1374 51.7485 81.928C51.154 81.7185 50.6128 81.381 50.1631 80.9394C49.3723 80.162 48.9227 79.1024 48.9132 77.9936C48.9036 76.8848 49.3349 75.8176 50.1122 75.0268L50.1631 74.9759L56.739 68.4783L63.3148 74.9759C64.1056 75.7532 64.5552 76.8128 64.5648 77.9217C64.5743 79.0305 64.143 80.0977 63.3657 80.8885Z" fill="#1D1D1D" fill-opacity="0.05"/>
<path d="M66.5216 0H11.739C10.1822 0 8.6893 0.618399 7.58854 1.71916C6.48778 2.81991 5.86938 4.31286 5.86938 5.86957V84.1305C5.86938 85.6872 6.48778 87.1801 7.58854 88.2809C8.6893 89.3816 10.1822 90 11.739 90H66.5216C68.0783 90 69.5712 89.3816 70.672 88.2809C71.7727 87.1801 72.3911 85.6872 72.3911 84.1305V5.86957C72.3911 4.31286 71.7727 2.81991 70.672 1.71916C69.5712 0.618399 68.0783 0 66.5216 0ZM14.9457 15.0241L14.8948 14.9733C14.4653 14.5347 14.1375 14.0071 13.9344 13.4277C13.7314 12.8484 13.6582 12.2315 13.72 11.6208C13.7818 11.01 13.9771 10.4203 14.292 9.89341C14.6069 9.36648 15.0338 8.91521 15.5424 8.57152C16.4866 7.92996 17.6469 7.68971 18.7682 7.90362C19.8895 8.11753 20.8799 8.76808 21.5216 9.71218C21.8759 9.19088 22.3403 8.75376 22.8821 8.4317C23.424 8.10964 24.0299 7.91051 24.6571 7.84836C25.2843 7.78622 25.9176 7.86258 26.512 8.07206C27.1065 8.28154 27.6477 8.61902 28.0974 9.06065L28.1483 9.10957C28.9257 9.90072 29.3571 10.9682 29.3475 12.0774C29.338 13.1865 28.8883 14.2465 28.0974 15.0241L21.5216 21.5217L14.9457 15.0241ZM24.337 47.7587C23.3867 46.8098 22.6457 45.6725 22.1616 44.4199C21.6775 43.1674 21.461 41.8273 21.5262 40.486C21.5913 39.1447 21.9366 37.8319 22.5398 36.6321C23.143 35.4324 23.9908 34.3722 25.0285 33.5199C26.0662 32.6676 27.271 32.042 28.5651 31.6835C29.8592 31.3249 31.2141 31.2413 32.5425 31.4381C33.8708 31.6349 35.1433 32.1076 36.2779 32.8259C37.4125 33.5442 38.3842 34.4922 39.1303 35.6087C39.8747 34.4893 40.8456 33.5384 41.9802 32.8174C43.1148 32.0963 44.3879 31.6211 45.7175 31.4224C47.0471 31.2237 48.4036 31.306 49.6994 31.6638C50.9952 32.0217 52.2017 32.6472 53.2409 33.5C54.28 34.3529 55.1289 35.4141 55.7327 36.6152C56.3365 37.8163 56.6818 39.1307 56.7463 40.4735C56.8108 41.8163 56.5931 43.1577 56.1072 44.4112C55.6214 45.6646 54.8781 46.8023 53.9255 47.7509L39.1303 62.6087L24.337 47.7587ZM63.3657 80.8885L63.3148 80.9394C62.8651 81.381 62.3239 81.7185 61.7294 81.928C61.135 82.1374 60.5017 82.2138 59.8745 82.1517C59.2473 82.0895 58.6414 81.8904 58.0995 81.5683C57.5577 81.2463 57.0933 80.8091 56.739 80.2878C56.3847 80.8091 55.9202 81.2463 55.3784 81.5683C54.8366 81.8904 54.2306 82.0895 53.6034 82.1517C52.9762 82.2138 52.343 82.1374 51.7485 81.928C51.154 81.7185 50.6128 81.381 50.1631 80.9394C49.3723 80.162 48.9227 79.1024 48.9132 77.9936C48.9036 76.8848 49.3349 75.8176 50.1122 75.0268L50.1631 74.9759L56.739 68.4783L63.3148 74.9759C64.1056 75.7532 64.5552 76.8128 64.5648 77.9217C64.5743 79.0305 64.143 80.0977 63.3657 80.8885Z" fill="url(#paint1_linear_605_4558)" fill-opacity="0.2"/>
<path d="M70.2742 2.1169L70.672 1.71916L70.2742 2.1169C71.2695 3.11217 71.8286 4.46205 71.8286 5.86957V84.1305C71.8286 85.538 71.2695 86.8878 70.2742 87.8831C69.279 88.8784 67.9291 89.4375 66.5216 89.4375H11.739C10.3314 89.4375 8.98156 88.8784 7.98629 87.8831L7.58854 88.2809L7.98629 87.8831C6.99102 86.8878 6.43188 85.538 6.43188 84.1305V5.86957C6.43188 4.46205 6.99102 3.11217 7.98629 2.1169C8.98156 1.12164 10.3314 0.5625 11.739 0.5625H66.5216C67.9291 0.5625 69.279 1.12164 70.2742 2.1169ZM14.5479 15.4219L14.5479 15.4219L14.5503 15.4243L21.1262 21.9219L21.5216 22.3125L21.9169 21.9219L28.4918 15.4252C28.492 15.425 28.4922 15.4249 28.4924 15.4247C29.3893 14.5425 29.8992 13.3403 29.91 12.0822C29.9208 10.8239 29.4315 9.61286 28.5495 8.71532L28.5439 8.70963L28.5382 8.7041L28.4894 8.65723C27.9814 8.15891 27.3702 7.77806 26.699 7.54153C26.0268 7.30468 25.3109 7.21834 24.6017 7.2886C23.8925 7.35887 23.2073 7.58403 22.5947 7.94817C22.1967 8.18477 21.8356 8.47627 21.5216 8.81312C20.821 8.06158 19.8954 7.54601 18.8736 7.35108C17.606 7.10926 16.2943 7.38076 15.2269 8.10586C14.6502 8.49564 14.1662 9.00736 13.8091 9.60484C13.4519 10.2025 13.2304 10.8714 13.1604 11.5642C13.0903 12.2569 13.1733 12.9566 13.4036 13.6138C13.6339 14.2709 14.0058 14.8694 14.4929 15.3668L14.4929 15.3669L14.4971 15.371L14.5479 15.4219ZM38.7318 63.0057L39.1303 63.4058L39.5289 63.0056L54.3224 48.1495C54.3227 48.1492 54.3229 48.1489 54.3232 48.1486C55.3312 47.1448 56.1176 45.9409 56.6317 44.6145C57.146 43.2877 57.3764 41.8678 57.3081 40.4465C57.2398 39.0252 56.8744 37.634 56.2353 36.3626C55.5962 35.0912 54.6977 33.9679 53.5977 33.0652C52.4977 32.1625 51.2208 31.5004 49.8491 31.1216C48.4775 30.7428 47.0417 30.6558 45.6344 30.8661C44.2271 31.0764 42.8794 31.5794 41.6785 32.3426C40.7023 32.963 39.8407 33.744 39.1292 34.6509C38.4167 33.7468 37.5547 32.9685 36.5788 32.3507C35.3778 31.5904 34.031 31.09 32.6249 30.8817C31.2188 30.6734 29.7847 30.7619 28.4149 31.1414C27.0451 31.5209 25.7699 32.183 24.6715 33.0852C23.5731 33.9874 22.6757 35.1095 22.0373 36.3795C21.3988 37.6494 21.0333 39.039 20.9643 40.4587C20.8954 41.8784 21.1245 43.2969 21.6369 44.6227C22.1493 45.9486 22.9337 47.1524 23.9395 48.1567L38.7318 63.0057ZM63.7635 81.2862L63.7669 81.2828L63.3148 74.9759L63.7102 74.5758L63.7097 74.5753C63.7096 74.5751 63.7094 74.5749 63.7092 74.5747L57.1343 68.0782L56.739 67.6875L56.3436 68.0782L49.7677 74.5758L49.7653 74.5781L49.7144 74.629L49.7111 74.6325C48.8292 75.5297 48.3399 76.7404 48.3507 77.9984C48.3615 79.2564 48.8716 80.4586 49.7688 81.3405L49.769 81.3407C50.2774 81.84 50.8894 82.2216 51.5615 82.4585C52.2337 82.6953 52.9497 82.7817 53.6589 82.7114C54.3681 82.6412 55.0532 82.416 55.6658 82.0518C56.0638 81.8153 56.4249 81.5237 56.739 81.1869C57.053 81.5237 57.4141 81.8153 57.8121 82.0518C58.4247 82.416 59.1099 82.6412 59.8191 82.7114C60.5283 82.7817 61.2442 82.6953 61.9164 82.4585C62.5885 82.2216 63.2005 81.84 63.709 81.3407L63.7126 81.3371L63.7635 81.2862Z" stroke="url(#paint2_linear_605_4558)" stroke-opacity="0.1" stroke-width="1.125"/>
</g>
<path d="M14.9459 15.0241L14.8951 14.9732C14.4656 14.5346 14.1377 14.007 13.9347 13.4277C13.7317 12.8483 13.6585 12.2315 13.7202 11.6207C13.782 11.01 13.9773 10.4203 14.2922 9.89333C14.6071 9.3664 15.034 8.91513 15.5427 8.57144C16.4868 7.92988 17.6472 7.68963 18.7685 7.90354C19.8897 8.11745 20.8801 8.768 21.5218 9.7121C21.8761 9.1908 22.3406 8.75368 22.8824 8.43162C23.4242 8.10956 24.0301 7.91043 24.6574 7.84828C25.2846 7.78614 25.9178 7.8625 26.5123 8.07198C27.1068 8.28146 27.648 8.61894 28.0977 9.06057L28.1485 9.10949C28.926 9.90064 29.3573 10.9682 29.3478 12.0773C29.3382 13.1864 28.8886 14.2464 28.0977 15.0241L21.5218 21.5217L14.9459 15.0241ZM24.3372 47.7586C23.387 46.8098 22.646 45.6724 22.1618 44.4199C21.6777 43.1673 21.4613 41.8272 21.5264 40.4859C21.5916 39.1446 21.9369 37.8318 22.5401 36.6321C23.1433 35.4323 23.991 34.3721 25.0288 33.5198C26.0665 32.6675 27.2712 32.0419 28.5653 31.6834C29.8595 31.3248 31.2143 31.2413 32.5427 31.438C33.8711 31.6348 35.1435 32.1076 36.2782 32.8259C37.4128 33.5442 38.3844 34.4921 39.1305 35.6086C39.875 34.4892 40.8458 33.5383 41.9804 32.8173C43.115 32.0962 44.3882 31.621 45.7178 31.4223C47.0473 31.2236 48.4038 31.3059 49.6996 31.6637C50.9955 32.0216 52.2019 32.6471 53.2411 33.5C54.2803 34.3528 55.1292 35.414 55.7329 36.6151C56.3367 37.8163 56.682 39.1306 56.7465 40.4734C56.811 41.8162 56.5933 43.1576 56.1075 44.4111C55.6216 45.6646 54.8784 46.8023 53.9257 47.7508L39.1305 62.6086L24.3372 47.7586ZM63.366 80.8884L63.3151 80.9393C62.8654 81.3809 62.3242 81.7184 61.7297 81.9279C61.1352 82.1374 60.502 82.2137 59.8748 82.1516C59.2475 82.0894 58.6416 81.8903 58.0998 81.5682C57.558 81.2462 57.0935 80.8091 56.7392 80.2878C56.3849 80.8091 55.9204 81.2462 55.3786 81.5682C54.8368 81.8903 54.2309 82.0894 53.6037 82.1516C52.9764 82.2137 52.3432 82.1374 51.7487 81.9279C51.1543 81.7184 50.613 81.3809 50.1633 80.9393C49.3726 80.162 48.9229 79.1023 48.9134 77.9935C48.9039 76.8847 49.3352 75.8175 50.1125 75.0267L50.1633 74.9758L56.7392 68.4782L63.3151 74.9758C64.1059 75.7531 64.5555 76.8128 64.565 77.9216C64.5746 79.0304 64.1432 80.0976 63.366 80.8884Z" fill="url(#paint3_linear_605_4558)"/>
<defs>
<filter id="filter0_bi_605_4558" x="61.5" y="-2.25" width="27" height="94.5" filterUnits="userSpaceOnUse" color-interpolation-filters="sRGB">
<feFlood flood-opacity="0" result="BackgroundImageFix"/>
<feGaussianBlur in="BackgroundImageFix" stdDeviation="3"/>
<feComposite in2="SourceAlpha" operator="in" result="effect1_backgroundBlur_605_4558"/>
<feBlend mode="normal" in="SourceGraphic" in2="effect1_backgroundBlur_605_4558" result="shape"/>
<feColorMatrix in="SourceAlpha" type="matrix" values="0 0 0 0 0 0 0 0 0 0 0 0 0 0 0 0 0 0 127 0" result="hardAlpha"/>
<feOffset dy="2"/>
<feGaussianBlur stdDeviation="1.5"/>
<feComposite in2="hardAlpha" operator="arithmetic" k2="-1" k3="1"/>
<feColorMatrix type="matrix" values="0 0 0 0 1 0 0 0 0 1 0 0 0 0 1 0 0 0 0.15 0"/>
<feBlend mode="normal" in2="shape" result="effect2_innerShadow_605_4558"/>
</filter>
<filter id="filter1_bi_605_4558" x="-0.130615" y="-6" width="78.5217" height="102" filterUnits="userSpaceOnUse" color-interpolation-filters="sRGB">
<feFlood flood-opacity="0" result="BackgroundImageFix"/>
<feGaussianBlur in="BackgroundImageFix" stdDeviation="3"/>
<feComposite in2="SourceAlpha" operator="in" result="effect1_backgroundBlur_605_4558"/>
<feBlend mode="normal" in="SourceGraphic" in2="effect1_backgroundBlur_605_4558" result="shape"/>
<feColorMatrix in="SourceAlpha" type="matrix" values="0 0 0 0 0 0 0 0 0 0 0 0 0 0 0 0 0 0 127 0" result="hardAlpha"/>
<feOffset dy="2"/>
<feGaussianBlur stdDeviation="1.5"/>
<feComposite in2="hardAlpha" operator="arithmetic" k2="-1" k3="1"/>
<feColorMatrix type="matrix" values="0 0 0 0 1 0 0 0 0 1 0 0 0 0 1 0 0 0 0.15 0"/>
<feBlend mode="normal" in2="shape" result="effect2_innerShadow_605_4558"/>
</filter>
<linearGradient id="paint0_linear_605_4558" x1="67.5" y1="3.75" x2="86.2688" y2="4.6165" gradientUnits="userSpaceOnUse">
<stop stop-color="#FFA39E"/>
<stop offset="1" stop-color="#F01E33"/>
</linearGradient>
<linearGradient id="paint1_linear_605_4558" x1="5.86938" y1="0" x2="86.4441" y2="15.1222" gradientUnits="userSpaceOnUse">
<stop stop-color="#FFD580"/>
<stop offset="1" stop-color="#FF384C"/>
</linearGradient>
<linearGradient id="paint2_linear_605_4558" x1="7.94819" y1="4.09091" x2="72.3911" y2="4.09091" gradientUnits="userSpaceOnUse">
<stop stop-color="#FFD580"/>
<stop offset="1" stop-color="#E65A53"/>
</linearGradient>
<linearGradient id="paint3_linear_605_4558" x1="13.699" y1="7.82727" x2="75.6124" y2="18.5834" gradientUnits="userSpaceOnUse">
<stop stop-color="#FFA39E"/>
<stop offset="1" stop-color="#F01E33"/>
</linearGradient>
</defs>
</svg>
