<svg width="96" height="96" viewBox="0 0 96 96" fill="none" xmlns="http://www.w3.org/2000/svg">
<path d="M25.0443 58.8828H8.34868C7.19609 58.8828 6.26172 59.3568 6.26172 59.9416V78.9992C6.26172 79.584 7.19609 80.058 8.34868 80.058H25.0443C26.197 80.058 27.1313 79.584 27.1313 78.9992V59.9416C27.1313 59.3568 26.197 58.8828 25.0443 58.8828Z" fill="url(#paint0_linear_202_1999)"/>
<path d="M56.349 27.4199H39.6534C38.5007 27.4199 37.5664 28.1131 37.5664 28.9682V78.512C37.5664 79.3671 38.5007 80.0603 39.6534 80.0603H56.349C57.5016 80.0603 58.436 79.3671 58.436 78.512V28.9682C58.436 28.1131 57.5016 27.4199 56.349 27.4199Z" fill="url(#paint1_linear_202_1999)"/>
<path d="M87.6498 63.8711H70.9541C69.8015 63.8711 68.8672 64.475 68.8672 65.2199V78.7084C68.8672 79.4534 69.8015 80.0573 70.9541 80.0573H87.6498C88.8024 80.0573 89.7368 79.4534 89.7368 78.7084V65.2199C89.7368 64.475 88.8024 63.8711 87.6498 63.8711Z" fill="url(#paint2_linear_202_1999)"/>
<path d="M85.913 85.9902H10.087C8.93496 85.9902 0 89.3408 0 90.4928C0 91.6448 0.934957 92.5797 2.08696 92.5797H93.913C95.065 92.5797 96 91.6448 96 90.4928C96 89.3408 87.065 85.9902 85.913 85.9902Z" fill="url(#paint3_linear_202_1999)"/>
<g filter="url(#filter0_bi_202_1999)">
<path d="M25.0443 34.6367H8.34868C7.19609 34.6367 6.26172 35.6535 6.26172 36.9078V77.7881C6.26172 79.0424 7.19609 80.0592 8.34868 80.0592H25.0443C26.197 80.0592 27.1313 79.0424 27.1313 77.7881V36.9078C27.1313 35.6535 26.197 34.6367 25.0443 34.6367Z" fill="#1D1D1D" fill-opacity="0.05"/>
<path d="M25.0443 34.6367H8.34868C7.19609 34.6367 6.26172 35.6535 6.26172 36.9078V77.7881C6.26172 79.0424 7.19609 80.0592 8.34868 80.0592H25.0443C26.197 80.0592 27.1313 79.0424 27.1313 77.7881V36.9078C27.1313 35.6535 26.197 34.6367 25.0443 34.6367Z" fill="url(#paint4_linear_202_1999)" fill-opacity="0.2"/>
<path d="M8.34868 35.2367H25.0443C25.8188 35.2367 26.5313 35.9361 26.5313 36.9078V77.7881C26.5313 78.7598 25.8188 79.4592 25.0443 79.4592H8.34868C7.57421 79.4592 6.86172 78.7598 6.86172 77.7881V36.9078C6.86172 35.9361 7.57421 35.2367 8.34868 35.2367Z" stroke="url(#paint5_linear_202_1999)" stroke-opacity="0.1" stroke-width="1.2"/>
</g>
<g filter="url(#filter1_bi_202_1999)">
<path d="M56.349 3.42188H39.6534C38.5007 3.42188 37.5664 4.43106 37.5664 5.67594V77.8059C37.5664 79.0508 38.5007 80.06 39.6534 80.06H56.349C57.5016 80.06 58.436 79.0508 58.436 77.8059V5.67594C58.436 4.43106 57.5016 3.42188 56.349 3.42188Z" fill="#1D1D1D" fill-opacity="0.05"/>
<path d="M56.349 3.42188H39.6534C38.5007 3.42188 37.5664 4.43106 37.5664 5.67594V77.8059C37.5664 79.0508 38.5007 80.06 39.6534 80.06H56.349C57.5016 80.06 58.436 79.0508 58.436 77.8059V5.67594C58.436 4.43106 57.5016 3.42188 56.349 3.42188Z" fill="url(#paint6_linear_202_1999)" fill-opacity="0.2"/>
<path d="M39.6534 4.02188H56.349C57.1276 4.02188 57.836 4.71807 57.836 5.67594V77.8059C57.836 78.7638 57.1276 79.46 56.349 79.46H39.6534C38.8748 79.46 38.1664 78.7638 38.1664 77.8059V5.67594C38.1664 4.71807 38.8748 4.02188 39.6534 4.02188Z" stroke="url(#paint7_linear_202_1999)" stroke-opacity="0.1" stroke-width="1.2"/>
</g>
<g filter="url(#filter2_bi_202_1999)">
<path d="M87.6498 52.8047H70.9541C69.8015 52.8047 68.8672 53.8215 68.8672 55.0758V77.787C68.8672 79.0414 69.8015 80.0582 70.9541 80.0582H87.6498C88.8024 80.0582 89.7368 79.0414 89.7368 77.787V55.0758C89.7368 53.8215 88.8024 52.8047 87.6498 52.8047Z" fill="#1D1D1D" fill-opacity="0.05"/>
<path d="M87.6498 52.8047H70.9541C69.8015 52.8047 68.8672 53.8215 68.8672 55.0758V77.787C68.8672 79.0414 69.8015 80.0582 70.9541 80.0582H87.6498C88.8024 80.0582 89.7368 79.0414 89.7368 77.787V55.0758C89.7368 53.8215 88.8024 52.8047 87.6498 52.8047Z" fill="url(#paint8_linear_202_1999)" fill-opacity="0.2"/>
<path d="M70.9541 53.4047H87.6498C88.4243 53.4047 89.1368 54.1041 89.1368 55.0758V77.787C89.1368 78.7588 88.4243 79.4582 87.6498 79.4582H70.9541C70.1796 79.4582 69.4672 78.7588 69.4672 77.787V55.0758C69.4672 54.1041 70.1796 53.4047 70.9541 53.4047Z" stroke="url(#paint9_linear_202_1999)" stroke-opacity="0.1" stroke-width="1.2"/>
</g>
<defs>
<filter id="filter0_bi_202_1999" x="-17.7383" y="10.6367" width="68.8696" height="93.4225" filterUnits="userSpaceOnUse" color-interpolation-filters="sRGB">
<feFlood flood-opacity="0" result="BackgroundImageFix"/>
<feGaussianBlur in="BackgroundImageFix" stdDeviation="12"/>
<feComposite in2="SourceAlpha" operator="in" result="effect1_backgroundBlur_202_1999"/>
<feBlend mode="normal" in="SourceGraphic" in2="effect1_backgroundBlur_202_1999" result="shape"/>
<feColorMatrix in="SourceAlpha" type="matrix" values="0 0 0 0 0 0 0 0 0 0 0 0 0 0 0 0 0 0 127 0" result="hardAlpha"/>
<feOffset dy="8"/>
<feGaussianBlur stdDeviation="6"/>
<feComposite in2="hardAlpha" operator="arithmetic" k2="-1" k3="1"/>
<feColorMatrix type="matrix" values="0 0 0 0 1 0 0 0 0 1 0 0 0 0 1 0 0 0 0.15 0"/>
<feBlend mode="normal" in2="shape" result="effect2_innerShadow_202_1999"/>
</filter>
<filter id="filter1_bi_202_1999" x="13.5664" y="-20.5781" width="68.8696" height="124.638" filterUnits="userSpaceOnUse" color-interpolation-filters="sRGB">
<feFlood flood-opacity="0" result="BackgroundImageFix"/>
<feGaussianBlur in="BackgroundImageFix" stdDeviation="12"/>
<feComposite in2="SourceAlpha" operator="in" result="effect1_backgroundBlur_202_1999"/>
<feBlend mode="normal" in="SourceGraphic" in2="effect1_backgroundBlur_202_1999" result="shape"/>
<feColorMatrix in="SourceAlpha" type="matrix" values="0 0 0 0 0 0 0 0 0 0 0 0 0 0 0 0 0 0 127 0" result="hardAlpha"/>
<feOffset dy="8"/>
<feGaussianBlur stdDeviation="6"/>
<feComposite in2="hardAlpha" operator="arithmetic" k2="-1" k3="1"/>
<feColorMatrix type="matrix" values="0 0 0 0 1 0 0 0 0 1 0 0 0 0 1 0 0 0 0.15 0"/>
<feBlend mode="normal" in2="shape" result="effect2_innerShadow_202_1999"/>
</filter>
<filter id="filter2_bi_202_1999" x="44.8672" y="28.8047" width="68.8696" height="75.2534" filterUnits="userSpaceOnUse" color-interpolation-filters="sRGB">
<feFlood flood-opacity="0" result="BackgroundImageFix"/>
<feGaussianBlur in="BackgroundImageFix" stdDeviation="12"/>
<feComposite in2="SourceAlpha" operator="in" result="effect1_backgroundBlur_202_1999"/>
<feBlend mode="normal" in="SourceGraphic" in2="effect1_backgroundBlur_202_1999" result="shape"/>
<feColorMatrix in="SourceAlpha" type="matrix" values="0 0 0 0 0 0 0 0 0 0 0 0 0 0 0 0 0 0 127 0" result="hardAlpha"/>
<feOffset dy="8"/>
<feGaussianBlur stdDeviation="6"/>
<feComposite in2="hardAlpha" operator="arithmetic" k2="-1" k3="1"/>
<feColorMatrix type="matrix" values="0 0 0 0 1 0 0 0 0 1 0 0 0 0 1 0 0 0 0.15 0"/>
<feBlend mode="normal" in2="shape" result="effect2_innerShadow_202_1999"/>
</filter>
<linearGradient id="paint0_linear_202_1999" x1="7.13128" y1="63.1178" x2="29.8932" y2="66.2336" gradientUnits="userSpaceOnUse">
<stop stop-color="#8AE6CF"/>
<stop offset="1" stop-color="#7C3AE7"/>
</linearGradient>
<linearGradient id="paint1_linear_202_1999" x1="38.436" y1="37.948" x2="61.5543" y2="39.221" gradientUnits="userSpaceOnUse">
<stop stop-color="#8AE6CF"/>
<stop offset="1" stop-color="#7C3AE7"/>
</linearGradient>
<linearGradient id="paint2_linear_202_1999" x1="69.7368" y1="67.1083" x2="92.2047" y2="71.1318" gradientUnits="userSpaceOnUse">
<stop stop-color="#8AE6CF"/>
<stop offset="1" stop-color="#7C3AE7"/>
</linearGradient>
<linearGradient id="paint3_linear_202_1999" x1="4" y1="87.3081" x2="24.9387" y2="129.676" gradientUnits="userSpaceOnUse">
<stop stop-color="#8AE6CF"/>
<stop offset="1" stop-color="#7C3AE7"/>
</linearGradient>
<linearGradient id="paint4_linear_202_1999" x1="7.13128" y1="43.7212" x2="30.2256" y2="45.1949" gradientUnits="userSpaceOnUse">
<stop stop-color="#66FECB"/>
<stop offset="1" stop-color="#8940FF"/>
</linearGradient>
<linearGradient id="paint5_linear_202_1999" x1="6.91389" y1="36.7014" x2="27.1313" y2="36.7014" gradientUnits="userSpaceOnUse">
<stop stop-color="#C8A6FF"/>
<stop offset="1" stop-color="#69CFB5"/>
</linearGradient>
<linearGradient id="paint6_linear_202_1999" x1="38.436" y1="18.7495" x2="61.5913" y2="19.6253" gradientUnits="userSpaceOnUse">
<stop stop-color="#66FECB"/>
<stop offset="1" stop-color="#8940FF"/>
</linearGradient>
<linearGradient id="paint7_linear_202_1999" x1="38.2186" y1="6.90543" x2="58.436" y2="6.90543" gradientUnits="userSpaceOnUse">
<stop stop-color="#C8A6FF"/>
<stop offset="1" stop-color="#69CFB5"/>
</linearGradient>
<linearGradient id="paint8_linear_202_1999" x1="69.7368" y1="58.2554" x2="92.6658" y2="60.694" gradientUnits="userSpaceOnUse">
<stop stop-color="#66FECB"/>
<stop offset="1" stop-color="#8940FF"/>
</linearGradient>
<linearGradient id="paint9_linear_202_1999" x1="69.5194" y1="54.0435" x2="89.7368" y2="54.0435" gradientUnits="userSpaceOnUse">
<stop stop-color="#C8A6FF"/>
<stop offset="1" stop-color="#69CFB5"/>
</linearGradient>
</defs>
</svg>
