<svg width="90" height="90" viewBox="0 0 90 90" fill="none" xmlns="http://www.w3.org/2000/svg">
<g clip-path="url(#clip0_703_420)">
<path d="M62.5239 57.036C62.5321 51.6268 56.8799 25.8542 53.1472 21.9392C49.4145 18.0242 44.3154 15.7 38.9119 15.4506C38.7864 15.4445 38.6609 15.4633 38.5426 15.5058C38.4243 15.5483 38.3155 15.6137 38.2225 15.6982C38.1296 15.7828 38.0541 15.8849 38.0006 15.9986C37.9471 16.1123 37.9165 16.2355 37.9106 16.361C37.9106 16.3763 37.9106 16.3916 37.9106 16.4069V18.2967C50.2677 27.1872 49.2452 36.2613 47.7116 46.4856C45.8658 48.6852 38.6438 63.8233 37.9285 67.5559H37.9237C37.7447 68.5017 27.556 91.0659 45.018 78.283C61.7608 78.283 56.1061 73.781 59.7065 67.5559H59.6864C61.536 64.3578 62.5144 60.7305 62.5239 57.036Z" fill="url(#paint0_linear_703_420)"/>
<g filter="url(#filter0_bi_703_420)">
<path d="M78.3753 90.0001H11.8205C11.3014 90.0001 10.8035 89.7938 10.4364 89.4267C10.0693 89.0596 9.86304 88.5617 9.86304 88.0426V76.3191C9.86304 74.7617 10.4817 73.268 11.583 72.1667C12.6844 71.0654 14.178 70.4467 15.7355 70.4467H74.4603C76.0178 70.4467 77.5115 71.0654 78.6128 72.1667C79.7141 73.268 80.3328 74.7617 80.3328 76.3191V88.0426C80.3328 88.5617 80.1266 89.0596 79.7595 89.4267C79.3924 89.7938 78.8945 90.0001 78.3753 90.0001Z" fill="#1D1D1D" fill-opacity="0.05"/>
<path d="M78.3753 90.0001H11.8205C11.3014 90.0001 10.8035 89.7938 10.4364 89.4267C10.0693 89.0596 9.86304 88.5617 9.86304 88.0426V76.3191C9.86304 74.7617 10.4817 73.268 11.583 72.1667C12.6844 71.0654 14.178 70.4467 15.7355 70.4467H74.4603C76.0178 70.4467 77.5115 71.0654 78.6128 72.1667C79.7141 73.268 80.3328 74.7617 80.3328 76.3191V88.0426C80.3328 88.5617 80.1266 89.0596 79.7595 89.4267C79.3924 89.7938 78.8945 90.0001 78.3753 90.0001Z" fill="url(#paint1_linear_703_420)" fill-opacity="0.2"/>
<path d="M78.3753 89.4376H11.8205C11.4506 89.4376 11.0957 89.2906 10.8341 89.029C10.5725 88.7674 10.4255 88.4125 10.4255 88.0426V76.3191C10.4255 74.9108 10.985 73.5602 11.9808 72.5644C12.9766 71.5686 14.3272 71.0092 15.7355 71.0092H74.4603C75.8686 71.0092 77.2192 71.5686 78.2151 72.5644C79.2109 73.5602 79.7703 74.9108 79.7703 76.3191V88.0426C79.7703 88.4125 79.6233 88.7674 79.3617 89.029C79.1001 89.2906 78.7453 89.4376 78.3753 89.4376Z" stroke="url(#paint2_linear_703_420)" stroke-opacity="0.1" stroke-width="1.125"/>
</g>
<g filter="url(#filter1_bi_703_420)">
<path d="M74.4604 43.0201C74.4772 31.9483 70.2225 21.2967 62.5823 13.2834C54.942 5.27012 44.5051 0.512851 33.4451 0.00226564C33.1881 -0.0101084 32.9312 0.0282936 32.6891 0.115276C32.447 0.202259 32.2244 0.336115 32.034 0.509191C31.8437 0.682267 31.6893 0.891167 31.5798 1.12394C31.4702 1.35672 31.4076 1.60881 31.3956 1.8658C31.3956 1.89712 31.3956 1.92844 31.3956 1.95976V5.82777L16.6165 22.4547C16.3559 22.7464 16.1886 23.1095 16.1363 23.4971C16.0839 23.8847 16.1489 24.2791 16.3229 24.6295L18.9087 29.8012C19.1148 30.2138 19.4599 30.5403 19.8832 30.7233C20.3064 30.9063 20.7808 30.934 21.2225 30.8015L39.2255 25.4027C43.3363 35.6952 38.8125 41.1018 33.5625 47.3638C29.7845 51.8661 25.5818 56.9125 24.1176 64.5526H24.1078C23.7415 66.4885 23.5599 68.4548 23.5656 70.4251H64.6162C66.1347 68.5832 67.4985 66.619 68.6936 64.5526H68.6525C72.4383 58.0065 74.4409 50.582 74.4604 43.0201Z" fill="#1D1D1D" fill-opacity="0.05"/>
<path d="M74.4604 43.0201C74.4772 31.9483 70.2225 21.2967 62.5823 13.2834C54.942 5.27012 44.5051 0.512851 33.4451 0.00226564C33.1881 -0.0101084 32.9312 0.0282936 32.6891 0.115276C32.447 0.202259 32.2244 0.336115 32.034 0.509191C31.8437 0.682267 31.6893 0.891167 31.5798 1.12394C31.4702 1.35672 31.4076 1.60881 31.3956 1.8658C31.3956 1.89712 31.3956 1.92844 31.3956 1.95976V5.82777L16.6165 22.4547C16.3559 22.7464 16.1886 23.1095 16.1363 23.4971C16.0839 23.8847 16.1489 24.2791 16.3229 24.6295L18.9087 29.8012C19.1148 30.2138 19.4599 30.5403 19.8832 30.7233C20.3064 30.9063 20.7808 30.934 21.2225 30.8015L39.2255 25.4027C43.3363 35.6952 38.8125 41.1018 33.5625 47.3638C29.7845 51.8661 25.5818 56.9125 24.1176 64.5526H24.1078C23.7415 66.4885 23.5599 68.4548 23.5656 70.4251H64.6162C66.1347 68.5832 67.4985 66.619 68.6936 64.5526H68.6525C72.4383 58.0065 74.4409 50.582 74.4604 43.0201Z" fill="url(#paint3_linear_703_420)" fill-opacity="0.2"/>
<path d="M67.6774 65.1151H67.7055C66.696 66.7716 65.5749 68.3578 64.3499 69.8626H24.1316C24.1563 68.2709 24.3053 66.6836 24.5775 65.1151H24.5825L24.67 64.6584C26.1038 57.177 30.2131 52.2304 33.9934 47.7254L33.9936 47.7252L34.0194 47.6943C36.621 44.5913 39.1225 41.6077 40.4315 38.0909C41.7598 34.5221 41.8479 30.4522 39.7479 25.1941L39.557 24.7161L39.064 24.8639L21.0609 30.2627L21.0608 30.2627C20.746 30.3571 20.408 30.3374 20.1064 30.207C19.8047 30.0766 19.5588 29.8439 19.4119 29.5499L19.4118 29.5496L16.8267 24.3794C16.8266 24.3791 16.8264 24.3789 16.8263 24.3786C16.7026 24.1291 16.6564 23.8483 16.6937 23.5724C16.731 23.2961 16.8502 23.0374 17.0359 22.8295L17.0369 22.8284L31.816 6.20147L31.9581 6.04162V5.82777V1.95976V1.95958V1.95939V1.95921V1.95902V1.95884V1.95866V1.95847V1.95829V1.95811V1.95792V1.95774V1.95756V1.95737V1.95719V1.95701V1.95682V1.95664V1.95646V1.95627V1.95609V1.95591V1.95572V1.95554V1.95535V1.95517V1.95499V1.9548V1.95462V1.95444V1.95425V1.95407V1.95389V1.9537V1.95352V1.95334V1.95315V1.95297V1.95279V1.9526V1.95242V1.95223V1.95205V1.95187V1.95168V1.9515V1.95132V1.95113V1.95095V1.95077V1.95058V1.9504V1.95022V1.95003V1.94985V1.94967V1.94948V1.9493V1.94912V1.94893V1.94875V1.94856V1.94838V1.9482V1.94801V1.94783V1.94765V1.94746V1.94728V1.9471V1.94691V1.94673V1.94655V1.94636V1.94618V1.946V1.94581V1.94563V1.94544V1.94526V1.94508V1.94489V1.94471V1.94453V1.94434V1.94416V1.94398V1.94379V1.94361V1.94343V1.94324V1.94306V1.94288V1.94269V1.94251V1.94233V1.94214V1.94196V1.94177V1.94159V1.94141V1.94122V1.94104V1.94086V1.94067V1.94049V1.94031V1.94012V1.93994V1.93976V1.93957V1.93939V1.93921V1.93902V1.93884V1.93865V1.93847V1.93829V1.9381V1.93792V1.93774V1.93755V1.93737V1.93719V1.937V1.93682V1.93664V1.93645V1.93627V1.93609V1.9359V1.93572V1.93554V1.93535V1.93517V1.93498V1.9348V1.93462V1.93443V1.93425V1.93407V1.93388V1.9337V1.93352V1.93333V1.93315V1.93297V1.93278V1.9326V1.93242V1.93223V1.93205V1.93186V1.93168V1.9315V1.93131V1.93113V1.93095V1.93076V1.93058V1.9304V1.93021V1.93003V1.92985V1.92966V1.92948V1.9293V1.92911V1.92893V1.92875V1.92856V1.92838V1.92819V1.92801V1.92783V1.92764V1.92746V1.92728V1.92709V1.92691V1.92673V1.92654V1.92636V1.92618V1.92599V1.92581V1.92563V1.92544V1.92526V1.92507V1.92489V1.92471V1.92452V1.92434V1.92416V1.92397V1.92379V1.92361V1.92342V1.92324V1.92306V1.92287V1.92269V1.92251V1.92232V1.92214V1.92195V1.92177V1.92159V1.9214V1.92122V1.92104V1.92085V1.92067V1.92049V1.9203V1.92012V1.91994V1.91975V1.91957V1.91939V1.9192V1.91902V1.91884V1.91865V1.91847V1.91828V1.9181V1.91792V1.91773V1.91755V1.91737V1.91718V1.917V1.91682V1.91663V1.91645V1.91627V1.91608V1.9159V1.91572V1.91553V1.91535V1.91516V1.91498V1.9148V1.91461V1.91443V1.91425V1.91406V1.91388V1.9137V1.91351V1.91333V1.91315V1.91296V1.91278V1.9126V1.91241V1.91223V1.91205V1.91186V1.91168V1.91149V1.91131V1.91113V1.91094V1.91076V1.91058V1.91039V1.91021V1.91003V1.90984V1.90966V1.90948V1.90929V1.90911V1.90893V1.90874V1.90856V1.90837V1.90819V1.90801V1.90782V1.90764V1.90746V1.90727V1.90709V1.90691V1.90672V1.90654V1.90636V1.90617V1.90599V1.90581V1.90562V1.90544V1.90526V1.90507V1.90489V1.9047V1.90452V1.90434V1.90415V1.90397V1.90379V1.9036V1.90342V1.90324V1.90305V1.90287V1.90269V1.9025V1.90232V1.90214V1.90195V1.90177V1.90158V1.9014V1.90122V1.90103V1.90085V1.90067V1.90048V1.9003V1.90012V1.89993V1.89975V1.89957V1.89938V1.8992V1.89902V1.89883V1.89865V1.89847V1.89828V1.8981V1.89791V1.89773V1.89755V1.89736V1.89718V1.897V1.89681V1.89663V1.89645V1.89626V1.89608V1.8959V1.89571V1.89553V1.89535V1.89516V1.89498V1.89479V1.89461V1.89443V1.89424V1.89406V1.89388V1.89369V1.89351V1.89333V1.89314V1.89296V1.89278V1.89259V1.89241V1.89223V1.89204V1.89186V1.89167V1.89149V1.89131V1.89112V1.89094V1.89076V1.89057V1.89039V1.89021V1.89002V1.88984V1.88966V1.88947V1.88929V1.88911V1.88892V1.88874V1.88856V1.88837V1.88819V1.888V1.88782V1.88764V1.88745V1.88727V1.88709V1.8869V1.88672V1.88654V1.88635V1.88617V1.88599V1.8858V1.88562V1.88544V1.88525V1.88507V1.88488V1.8847V1.88452V1.88433V1.88415V1.88397V1.88378V1.8836V1.88342V1.88323V1.88305V1.88287V1.88268V1.8825V1.88232V1.88213V1.88195V1.88177V1.88158V1.8814V1.88121V1.88103V1.88085V1.88066V1.88048V1.8803V1.88011V1.8801C31.968 1.70114 32.0123 1.52572 32.0887 1.36347C32.1668 1.19758 32.2768 1.04871 32.4124 0.925372C32.5481 0.802031 32.7067 0.706639 32.8793 0.644651L32.6891 0.115276L32.8793 0.64465C33.0518 0.582664 33.2349 0.555296 33.418 0.564116L33.4191 0.564167C44.3345 1.06807 54.6348 5.7631 62.1751 13.6716C69.7153 21.5799 73.9144 32.0919 73.8979 43.0187C73.8787 50.4822 71.9021 57.8101 68.1656 64.271L67.6774 65.1151Z" stroke="url(#paint4_linear_703_420)" stroke-opacity="0.1" stroke-width="1.125"/>
</g>
</g>
<defs>
<filter id="filter0_bi_703_420" x="-12.637" y="47.9467" width="115.47" height="64.5533" filterUnits="userSpaceOnUse" color-interpolation-filters="sRGB">
<feFlood flood-opacity="0" result="BackgroundImageFix"/>
<feGaussianBlur in="BackgroundImageFix" stdDeviation="11.25"/>
<feComposite in2="SourceAlpha" operator="in" result="effect1_backgroundBlur_703_420"/>
<feBlend mode="normal" in="SourceGraphic" in2="effect1_backgroundBlur_703_420" result="shape"/>
<feColorMatrix in="SourceAlpha" type="matrix" values="0 0 0 0 0 0 0 0 0 0 0 0 0 0 0 0 0 0 127 0" result="hardAlpha"/>
<feOffset dy="7.5"/>
<feGaussianBlur stdDeviation="5.625"/>
<feComposite in2="hardAlpha" operator="arithmetic" k2="-1" k3="1"/>
<feColorMatrix type="matrix" values="0 0 0 0 1 0 0 0 0 1 0 0 0 0 1 0 0 0 0.15 0"/>
<feBlend mode="normal" in2="shape" result="effect2_innerShadow_703_420"/>
</filter>
<filter id="filter1_bi_703_420" x="-6.38135" y="-22.5" width="103.342" height="115.425" filterUnits="userSpaceOnUse" color-interpolation-filters="sRGB">
<feFlood flood-opacity="0" result="BackgroundImageFix"/>
<feGaussianBlur in="BackgroundImageFix" stdDeviation="11.25"/>
<feComposite in2="SourceAlpha" operator="in" result="effect1_backgroundBlur_703_420"/>
<feBlend mode="normal" in="SourceGraphic" in2="effect1_backgroundBlur_703_420" result="shape"/>
<feColorMatrix in="SourceAlpha" type="matrix" values="0 0 0 0 0 0 0 0 0 0 0 0 0 0 0 0 0 0 127 0" result="hardAlpha"/>
<feOffset dy="7.5"/>
<feGaussianBlur stdDeviation="5.625"/>
<feComposite in2="hardAlpha" operator="arithmetic" k2="-1" k3="1"/>
<feColorMatrix type="matrix" values="0 0 0 0 1 0 0 0 0 1 0 0 0 0 1 0 0 0 0.15 0"/>
<feBlend mode="normal" in2="shape" result="effect2_innerShadow_703_420"/>
</filter>
<linearGradient id="paint0_linear_703_420" x1="34.8074" y1="15.4495" x2="69.1795" y2="19.0738" gradientUnits="userSpaceOnUse">
<stop stop-color="#FFA39E"/>
<stop offset="1" stop-color="#F01E33"/>
</linearGradient>
<linearGradient id="paint1_linear_703_420" x1="9.86304" y1="70.4467" x2="57.9537" y2="114.455" gradientUnits="userSpaceOnUse">
<stop stop-color="#FFD580"/>
<stop offset="1" stop-color="#FF384C"/>
</linearGradient>
<linearGradient id="paint2_linear_703_420" x1="12.0652" y1="71.3354" x2="80.3328" y2="71.3354" gradientUnits="userSpaceOnUse">
<stop stop-color="#FFD580"/>
<stop offset="1" stop-color="#E65A53"/>
</linearGradient>
<linearGradient id="paint3_linear_703_420" x1="16.1187" y1="0" x2="86.1747" y2="14.7364" gradientUnits="userSpaceOnUse">
<stop stop-color="#FFD580"/>
<stop offset="1" stop-color="#FF384C"/>
</linearGradient>
<linearGradient id="paint4_linear_703_420" x1="17.9418" y1="3.20114" x2="74.4605" y2="3.20114" gradientUnits="userSpaceOnUse">
<stop stop-color="#FFD580"/>
<stop offset="1" stop-color="#E65A53"/>
</linearGradient>
<clipPath id="clip0_703_420">
<rect width="90" height="90" fill="white"/>
</clipPath>
</defs>
</svg>
