<svg width="206" height="150" viewBox="0 0 206 150" fill="none" xmlns="http://www.w3.org/2000/svg">
<g filter="url(#filter0_f_1_154)">
<path d="M137.07 93.86C151.115 93.86 162.5 82.4746 162.5 68.43C162.5 54.3854 151.115 43 137.07 43C123.025 43 111.64 54.3854 111.64 68.43C111.64 82.4746 123.025 93.86 137.07 93.86Z" fill="url(#paint0_linear_1_154)"/>
</g>
<g filter="url(#filter1_f_1_154)">
<path d="M68.43 93.86C82.4746 93.86 93.86 82.4746 93.86 68.43C93.86 54.3854 82.4746 43 68.43 43C54.3854 43 43 54.3854 43 68.43C43 82.4746 54.3854 93.86 68.43 93.86Z" fill="url(#paint1_linear_1_154)"/>
</g>
<path d="M137.07 93.86C151.115 93.86 162.5 82.4746 162.5 68.43C162.5 54.3854 151.115 43 137.07 43C123.025 43 111.64 54.3854 111.64 68.43C111.64 82.4746 123.025 93.86 137.07 93.86Z" fill="url(#paint2_linear_1_154)"/>
<path d="M68.43 93.86C82.4746 93.86 93.86 82.4746 93.86 68.43C93.86 54.3854 82.4746 43 68.43 43C54.3854 43 43 54.3854 43 68.43C43 82.4746 54.3854 93.86 68.43 93.86Z" fill="url(#paint3_linear_1_154)"/>
<g filter="url(#filter2_b_1_154)">
<path d="M135.6 129.18C143.64 120.92 148.6 109.64 148.6 97.2C148.6 71.87 128.07 51.34 102.74 51.34C77.41 51.34 56.88 71.87 56.88 97.2C56.88 109.64 61.84 120.92 69.88 129.18L65.26 138.85C63.43 142.68 65.05 147.27 68.88 149.11C72.71 150.94 77.3 149.32 79.14 145.49L82.54 138.38C88.64 141.38 95.49 143.07 102.74 143.07C109.99 143.07 116.84 141.38 122.94 138.38L126.34 145.49C128.17 149.32 132.76 150.94 136.6 149.11C140.43 147.28 142.05 142.69 140.22 138.85L135.6 129.18Z" fill="url(#paint4_linear_1_154)"/>
<path d="M135.421 129.006L135.299 129.131L135.374 129.288L139.994 138.958C141.765 142.673 140.197 147.114 136.492 148.884C132.777 150.655 128.336 149.087 126.566 145.382L126.566 145.382L123.166 138.272L123.056 138.044L122.83 138.156C116.763 141.139 109.951 142.82 102.74 142.82C95.5293 142.82 88.7169 141.139 82.6503 138.156L82.4235 138.044L82.3144 138.272L78.9147 145.382C77.1343 149.088 72.6935 150.655 68.9882 148.885C65.2823 147.104 63.7152 142.663 65.4856 138.958L70.1056 129.288L70.1807 129.131L70.0592 129.006C62.0627 120.79 57.13 109.572 57.13 97.2C57.13 72.0081 77.5481 51.59 102.74 51.59C127.932 51.59 148.35 72.0081 148.35 97.2C148.35 109.572 143.417 120.79 135.421 129.006Z" stroke="url(#paint5_linear_1_154)" stroke-width="0.5"/>
</g>
<path d="M106.49 69.38C106.49 67.2813 104.789 65.58 102.69 65.58C100.591 65.58 98.89 67.2813 98.89 69.38V97.95C98.89 100.049 100.591 101.75 102.69 101.75C104.789 101.75 106.49 100.049 106.49 97.95V69.38Z" fill="white"/>
<path d="M120.35 101.76C122.449 101.76 124.15 100.059 124.15 97.96C124.15 95.8613 122.449 94.16 120.35 94.16H102.7C100.601 94.16 98.9 95.8613 98.9 97.96C98.9 100.059 100.601 101.76 102.7 101.76H120.35Z" fill="white"/>
<defs>
<filter id="filter0_f_1_154" x="68.64" y="0" width="136.86" height="136.86" filterUnits="userSpaceOnUse" color-interpolation-filters="sRGB">
<feFlood flood-opacity="0" result="BackgroundImageFix"/>
<feBlend mode="normal" in="SourceGraphic" in2="BackgroundImageFix" result="shape"/>
<feGaussianBlur stdDeviation="21.5" result="effect1_foregroundBlur_1_154"/>
</filter>
<filter id="filter1_f_1_154" x="0" y="0" width="136.86" height="136.86" filterUnits="userSpaceOnUse" color-interpolation-filters="sRGB">
<feFlood flood-opacity="0" result="BackgroundImageFix"/>
<feBlend mode="normal" in="SourceGraphic" in2="BackgroundImageFix" result="shape"/>
<feGaussianBlur stdDeviation="21.5" result="effect1_foregroundBlur_1_154"/>
</filter>
<filter id="filter2_b_1_154" x="38.88" y="33.34" width="127.72" height="134.523" filterUnits="userSpaceOnUse" color-interpolation-filters="sRGB">
<feFlood flood-opacity="0" result="BackgroundImageFix"/>
<feGaussianBlur in="BackgroundImageFix" stdDeviation="9"/>
<feComposite in2="SourceAlpha" operator="in" result="effect1_backgroundBlur_1_154"/>
<feBlend mode="normal" in="SourceGraphic" in2="effect1_backgroundBlur_1_154" result="shape"/>
</filter>
<linearGradient id="paint0_linear_1_154" x1="47.62" y1="86.62" x2="168.1" y2="62.12" gradientUnits="userSpaceOnUse">
<stop stop-color="#3B3BF9"/>
<stop offset="0.51" stop-color="#10E0F9"/>
<stop offset="1" stop-color="#92FFFF"/>
</linearGradient>
<linearGradient id="paint1_linear_1_154" x1="44.9" y1="73.22" x2="165.38" y2="48.72" gradientUnits="userSpaceOnUse">
<stop stop-color="#3B3BF9"/>
<stop offset="0.51" stop-color="#10E0F9"/>
<stop offset="1" stop-color="#92FFFF"/>
</linearGradient>
<linearGradient id="paint2_linear_1_154" x1="47.62" y1="86.62" x2="168.1" y2="62.12" gradientUnits="userSpaceOnUse">
<stop stop-color="#3B3BF9"/>
<stop offset="0.51" stop-color="#10E0F9"/>
<stop offset="1" stop-color="#92FFFF"/>
</linearGradient>
<linearGradient id="paint3_linear_1_154" x1="44.9" y1="73.22" x2="165.38" y2="48.72" gradientUnits="userSpaceOnUse">
<stop stop-color="#3B3BF9"/>
<stop offset="0.51" stop-color="#10E0F9"/>
<stop offset="1" stop-color="#92FFFF"/>
</linearGradient>
<linearGradient id="paint4_linear_1_154" x1="62.0581" y1="144.301" x2="149.234" y2="63.1449" gradientUnits="userSpaceOnUse">
<stop stop-color="white" stop-opacity="0.2"/>
<stop offset="1" stop-color="white" stop-opacity="0.49"/>
</linearGradient>
<linearGradient id="paint5_linear_1_154" x1="63.3544" y1="59.0887" x2="145.894" y2="141.249" gradientUnits="userSpaceOnUse">
<stop stop-color="white"/>
<stop offset="1" stop-color="white" stop-opacity="0"/>
</linearGradient>
</defs>
</svg>
