<svg width="77" height="77" viewBox="0 0 77 77" fill="none" xmlns="http://www.w3.org/2000/svg">
<g clip-path="url(#clip0_3_523)">
<rect x="27.4092" y="44.9328" width="22.0419" height="31.1014" rx="2.54599" fill="#BB6BD9"/>
<g filter="url(#filter0_b_3_523)">
<path d="M8.06833 71.1144C6.66222 71.1144 5.52234 69.9745 5.52234 68.5684V34.2481C5.52234 33.572 5.79123 32.9237 6.26973 32.4461L36.6317 2.14082C37.6256 1.14879 39.2351 1.1488 40.2289 2.14082L70.591 32.4461C71.0695 32.9237 71.3383 33.572 71.3383 34.2481V68.5684C71.3383 69.9745 70.1985 71.1144 68.7923 71.1144H8.06833Z" fill="url(#paint0_radial_3_523)" fill-opacity="0.4"/>
<path d="M8.06833 70.4779C7.01375 70.4779 6.15884 69.623 6.15884 68.5684V34.2481C6.15884 33.741 6.36051 33.2548 6.71938 32.8966L37.0814 2.59132C37.8268 1.84729 39.0339 1.84729 39.7793 2.59132L70.1413 32.8966C70.5002 33.2548 70.7018 33.741 70.7018 34.2481V68.5684C70.7018 69.623 69.8469 70.4779 68.7923 70.4779H8.06833Z" stroke="url(#paint1_linear_3_523)" stroke-width="1.273" stroke-miterlimit="10" stroke-linecap="round" stroke-linejoin="round"/>
</g>
<path d="M27.7765 44.9328H49.0839" stroke="white" stroke-width="3.81899" stroke-miterlimit="10" stroke-linecap="round" stroke-linejoin="round"/>
</g>
<defs>
<filter id="filter0_b_3_523" x="-9.75362" y="-13.8792" width="96.3679" height="100.269" filterUnits="userSpaceOnUse" color-interpolation-filters="sRGB">
<feFlood flood-opacity="0" result="BackgroundImageFix"/>
<feGaussianBlur in="BackgroundImageFix" stdDeviation="7.63798"/>
<feComposite in2="SourceAlpha" operator="in" result="effect1_backgroundBlur_3_523"/>
<feBlend mode="normal" in="SourceGraphic" in2="effect1_backgroundBlur_3_523" result="shape"/>
</filter>
<radialGradient id="paint0_radial_3_523" cx="0" cy="0" r="1" gradientUnits="userSpaceOnUse" gradientTransform="translate(21.9682 31.0288) rotate(-19.1481) scale(77.9571 160.017)">
<stop stop-color="#3347FF"/>
<stop offset="0.749777" stop-color="#DFE2FF" stop-opacity="0.54725"/>
<stop offset="1" stop-color="#6B7AFF"/>
</radialGradient>
<linearGradient id="paint1_linear_3_523" x1="10.903" y1="26.0936" x2="38.4303" y2="71.1144" gradientUnits="userSpaceOnUse">
<stop stop-color="white" stop-opacity="0.64"/>
<stop offset="1" stop-color="white" stop-opacity="0.24"/>
</linearGradient>
<clipPath id="clip0_3_523">
<rect width="76.3798" height="76.3798" fill="white" transform="translate(0.240479)"/>
</clipPath>
</defs>
</svg>
