<svg width="133" height="133" viewBox="0 0 133 133" fill="none" xmlns="http://www.w3.org/2000/svg">
<path d="M109.386 33.806H23.4279C19.8671 33.806 16.981 44.8692 16.981 58.519V99.7072H115.833V58.519C115.833 44.8692 112.947 33.806 109.386 33.806Z" fill="url(#paint0_linear_101_1873)"/>
<g filter="url(#filter0_bi_101_1873)">
<path d="M124.07 17.3307H8.74338C4.19386 17.3307 0.505737 21.0189 0.505737 25.5684V107.945C0.505737 112.494 4.19386 116.182 8.74338 116.182H124.07C128.62 116.182 132.308 112.494 132.308 107.945V25.5684C132.308 21.0189 128.62 17.3307 124.07 17.3307Z" fill="url(#paint1_linear_101_1873)" fill-opacity="0.2"/>
<path d="M8.74338 18.1545H124.07C128.165 18.1545 131.484 21.4738 131.484 25.5684V107.945C131.484 112.039 128.165 115.359 124.07 115.359H8.74338C4.64881 115.359 1.3295 112.039 1.3295 107.945V25.5684C1.3295 21.4738 4.64881 18.1545 8.74338 18.1545Z" stroke="url(#paint2_linear_101_1873)" stroke-opacity="0.1" stroke-width="1.64753"/>
</g>
<g filter="url(#filter1_i_101_1873)">
<path d="M69.4892 99.7076H17.1073C16.2901 99.7076 15.5063 99.383 14.9285 98.8051C14.3506 98.2273 14.026 97.4435 14.026 96.6263C14.026 95.8091 14.3506 95.0254 14.9285 94.4475C15.5063 93.8697 16.2901 93.545 17.1073 93.545H69.4892C70.3064 93.545 71.0901 93.8697 71.668 94.4475C72.2458 95.0254 72.5704 95.8091 72.5704 96.6263C72.5704 97.4435 72.2458 98.2273 71.668 98.8051C71.0901 99.383 70.3064 99.7076 69.4892 99.7076Z" fill="white" fill-opacity="0.16"/>
</g>
<g filter="url(#filter2_i_101_1873)">
<path d="M115.706 99.7076H94.1367C93.3195 99.7076 92.5358 99.383 91.9579 98.8051C91.3801 98.2273 91.0555 97.4435 91.0555 96.6263C91.0555 95.8091 91.3801 95.0254 91.9579 94.4475C92.5358 93.8697 93.3195 93.545 94.1367 93.545H115.706C116.523 93.545 117.307 93.8697 117.885 94.4475C118.462 95.0254 118.787 95.8091 118.787 96.6263C118.787 97.4435 118.462 98.2273 117.885 98.8051C117.307 99.383 116.523 99.7076 115.706 99.7076Z" fill="white" fill-opacity="0.16"/>
</g>
<g filter="url(#filter3_i_101_1873)">
<path d="M38.6763 56.5683H17.1073C16.2901 56.5683 15.5063 56.2437 14.9285 55.6658C14.3506 55.088 14.026 54.3042 14.026 53.487V38.0806C14.026 37.2634 14.3506 36.4797 14.9285 35.9018C15.5063 35.3239 16.2901 34.9993 17.1073 34.9993H38.6763C39.4935 34.9993 40.2772 35.3239 40.8551 35.9018C41.4329 36.4797 41.7576 37.2634 41.7576 38.0806V53.487C41.7576 54.3042 41.4329 55.088 40.8551 55.6658C40.2772 56.2437 39.4935 56.5683 38.6763 56.5683Z" fill="white" fill-opacity="0.16"/>
</g>
<g filter="url(#filter4_i_101_1873)">
<path d="M97.7953 63.9429C97.223 63.9429 96.6621 63.7835 96.1753 63.4827C95.6886 63.1819 95.2952 62.7514 95.0393 62.2396C94.7834 61.7278 94.675 61.1548 94.7264 60.5849C94.7778 60.015 94.9869 59.4706 95.3302 59.0128C96.5483 57.4304 97.2088 55.4896 97.2088 53.4927C97.2088 51.4958 96.5483 49.555 95.3302 47.9726C94.8399 47.3188 94.6294 46.497 94.745 45.688C94.8605 44.879 95.2927 44.1491 95.9465 43.6588C96.6003 43.1684 97.422 42.9579 98.231 43.0735C99.04 43.189 99.77 43.6213 100.26 44.275C102.285 46.9225 103.382 50.1628 103.382 53.4958C103.382 56.8288 102.285 60.0691 100.26 62.7165C99.9726 63.0981 99.6002 63.4075 99.1724 63.6203C98.7446 63.8332 98.2731 63.9436 97.7953 63.9429Z" fill="white" fill-opacity="0.16"/>
<path d="M81.8153 59.6499C85.2188 59.6499 87.9779 56.8908 87.9779 53.4874C87.9779 50.0839 85.2188 47.3248 81.8153 47.3248C78.4118 47.3248 75.6528 50.0839 75.6528 53.4874C75.6528 56.8908 78.4118 59.6499 81.8153 59.6499Z" fill="white" fill-opacity="0.16"/>
<path d="M110.137 73.2065C109.565 73.2065 109.004 73.0471 108.518 72.7463C108.031 72.4454 107.637 72.015 107.381 71.5032C107.126 70.9914 107.017 70.4184 107.069 69.8485C107.12 69.2785 107.329 68.7342 107.672 68.2764C110.886 64.0228 112.625 58.8373 112.625 53.5063C112.625 48.1752 110.886 42.9897 107.672 38.7361C107.182 38.0823 106.972 37.2606 107.087 36.4516C107.203 35.6426 107.635 34.9126 108.289 34.4223C108.942 33.932 109.764 33.7214 110.573 33.837C111.382 33.9526 112.112 34.3848 112.603 35.0386C116.617 40.3596 118.789 46.8437 118.789 53.5093C118.789 60.1749 116.617 66.6591 112.603 71.9801C112.315 72.3617 111.942 72.6711 111.515 72.8839C111.087 73.0968 110.615 73.2072 110.137 73.2065Z" fill="white" fill-opacity="0.16"/>
</g>
<defs>
<filter id="filter0_bi_101_1873" x="-32.4448" y="-15.6198" width="197.703" height="164.753" filterUnits="userSpaceOnUse" color-interpolation-filters="sRGB">
<feFlood flood-opacity="0" result="BackgroundImageFix"/>
<feGaussianBlur in="BackgroundImageFix" stdDeviation="16.4753"/>
<feComposite in2="SourceAlpha" operator="in" result="effect1_backgroundBlur_101_1873"/>
<feBlend mode="normal" in="SourceGraphic" in2="effect1_backgroundBlur_101_1873" result="shape"/>
<feColorMatrix in="SourceAlpha" type="matrix" values="0 0 0 0 0 0 0 0 0 0 0 0 0 0 0 0 0 0 127 0" result="hardAlpha"/>
<feOffset dy="10.9835"/>
<feGaussianBlur stdDeviation="8.23764"/>
<feComposite in2="hardAlpha" operator="arithmetic" k2="-1" k3="1"/>
<feColorMatrix type="matrix" values="0 0 0 0 1 0 0 0 0 1 0 0 0 0 1 0 0 0 0.4 0"/>
<feBlend mode="normal" in2="shape" result="effect2_innerShadow_101_1873"/>
</filter>
<filter id="filter1_i_101_1873" x="14.026" y="93.545" width="58.5445" height="17.1461" filterUnits="userSpaceOnUse" color-interpolation-filters="sRGB">
<feFlood flood-opacity="0" result="BackgroundImageFix"/>
<feBlend mode="normal" in="SourceGraphic" in2="BackgroundImageFix" result="shape"/>
<feColorMatrix in="SourceAlpha" type="matrix" values="0 0 0 0 0 0 0 0 0 0 0 0 0 0 0 0 0 0 127 0" result="hardAlpha"/>
<feOffset dy="10.9835"/>
<feGaussianBlur stdDeviation="5.49176"/>
<feComposite in2="hardAlpha" operator="arithmetic" k2="-1" k3="1"/>
<feColorMatrix type="matrix" values="0 0 0 0 1 0 0 0 0 1 0 0 0 0 1 0 0 0 0.4 0"/>
<feBlend mode="normal" in2="shape" result="effect1_innerShadow_101_1873"/>
</filter>
<filter id="filter2_i_101_1873" x="91.0555" y="93.545" width="27.7316" height="17.1461" filterUnits="userSpaceOnUse" color-interpolation-filters="sRGB">
<feFlood flood-opacity="0" result="BackgroundImageFix"/>
<feBlend mode="normal" in="SourceGraphic" in2="BackgroundImageFix" result="shape"/>
<feColorMatrix in="SourceAlpha" type="matrix" values="0 0 0 0 0 0 0 0 0 0 0 0 0 0 0 0 0 0 127 0" result="hardAlpha"/>
<feOffset dy="10.9835"/>
<feGaussianBlur stdDeviation="5.49176"/>
<feComposite in2="hardAlpha" operator="arithmetic" k2="-1" k3="1"/>
<feColorMatrix type="matrix" values="0 0 0 0 1 0 0 0 0 1 0 0 0 0 1 0 0 0 0.4 0"/>
<feBlend mode="normal" in2="shape" result="effect1_innerShadow_101_1873"/>
</filter>
<filter id="filter3_i_101_1873" x="14.026" y="34.9993" width="27.7316" height="32.5525" filterUnits="userSpaceOnUse" color-interpolation-filters="sRGB">
<feFlood flood-opacity="0" result="BackgroundImageFix"/>
<feBlend mode="normal" in="SourceGraphic" in2="BackgroundImageFix" result="shape"/>
<feColorMatrix in="SourceAlpha" type="matrix" values="0 0 0 0 0 0 0 0 0 0 0 0 0 0 0 0 0 0 127 0" result="hardAlpha"/>
<feOffset dy="10.9835"/>
<feGaussianBlur stdDeviation="5.49176"/>
<feComposite in2="hardAlpha" operator="arithmetic" k2="-1" k3="1"/>
<feColorMatrix type="matrix" values="0 0 0 0 1 0 0 0 0 1 0 0 0 0 1 0 0 0 0.4 0"/>
<feBlend mode="normal" in2="shape" result="effect1_innerShadow_101_1873"/>
</filter>
<filter id="filter4_i_101_1873" x="75.6528" y="33.806" width="43.136" height="50.384" filterUnits="userSpaceOnUse" color-interpolation-filters="sRGB">
<feFlood flood-opacity="0" result="BackgroundImageFix"/>
<feBlend mode="normal" in="SourceGraphic" in2="BackgroundImageFix" result="shape"/>
<feColorMatrix in="SourceAlpha" type="matrix" values="0 0 0 0 0 0 0 0 0 0 0 0 0 0 0 0 0 0 127 0" result="hardAlpha"/>
<feOffset dy="10.9835"/>
<feGaussianBlur stdDeviation="5.49176"/>
<feComposite in2="hardAlpha" operator="arithmetic" k2="-1" k3="1"/>
<feColorMatrix type="matrix" values="0 0 0 0 1 0 0 0 0 1 0 0 0 0 1 0 0 0 0.4 0"/>
<feBlend mode="normal" in2="shape" result="effect1_innerShadow_101_1873"/>
</filter>
<linearGradient id="paint0_linear_101_1873" x1="16.981" y1="33.806" x2="125.23" y2="75.0355" gradientUnits="userSpaceOnUse">
<stop stop-color="#CFCFCF"/>
<stop offset="1" stop-color="#999999" stop-opacity="0.7"/>
</linearGradient>
<linearGradient id="paint1_linear_101_1873" x1="0.505737" y1="17.3307" x2="148.78" y2="67.5301" gradientUnits="userSpaceOnUse">
<stop stop-color="#BFBFBF"/>
<stop offset="1" stop-color="#9C9C9C"/>
</linearGradient>
<linearGradient id="paint2_linear_101_1873" x1="4.62456" y1="21.824" x2="132.308" y2="21.824" gradientUnits="userSpaceOnUse">
<stop stop-color="#CCCCCC"/>
<stop offset="1" stop-color="#808080"/>
</linearGradient>
</defs>
</svg>
