<svg width="132" height="133" viewBox="0 0 132 133" fill="none" xmlns="http://www.w3.org/2000/svg">
<g clip-path="url(#clip0_101_1944)">
<path d="M69.0408 88.21H18.8304C17.0974 88.21 15.6923 89.6151 15.6923 91.3481V100.763C15.6923 109.003 29.8997 113.315 43.9356 113.315C57.9715 113.315 72.179 109.003 72.179 100.763V91.3481C72.179 89.6151 70.7738 88.21 69.0408 88.21Z" fill="url(#paint0_linear_101_1944)"/>
<g filter="url(#filter0_bi_101_1944)">
<path d="M43.9356 78.7955C29.8997 78.7955 15.6923 83.1074 15.6923 91.3481C15.6923 99.5888 29.8997 103.901 43.9356 103.901C57.9715 103.901 72.179 99.5888 72.179 91.3481C72.179 83.1074 57.9715 78.7955 43.9356 78.7955Z" fill="url(#paint1_linear_101_1944)" fill-opacity="0.2"/>
<path d="M16.516 91.3481C16.516 87.7763 19.6036 84.8331 24.8546 82.7471C30.0361 80.6886 36.9867 79.6192 43.9356 79.6192C50.8846 79.6192 57.8351 80.6886 63.0166 82.7471C68.2676 84.8331 71.3552 87.7763 71.3552 91.3481C71.3552 94.9198 68.2676 97.863 63.0166 99.9491C57.8351 102.008 50.8846 103.077 43.9356 103.077C36.9867 103.077 30.0361 102.008 24.8546 99.9491C19.6036 97.863 16.516 94.9198 16.516 91.3481Z" stroke="url(#paint2_linear_101_1944)" stroke-opacity="0.1" stroke-width="1.64753"/>
</g>
<path d="M69.0408 72.5194H18.8304C17.0974 72.5194 15.6923 73.9245 15.6923 75.6576V85.072C15.6923 93.3127 29.8997 97.6246 43.9356 97.6246C57.9715 97.6246 72.179 93.3127 72.179 85.072V75.6576C72.179 73.9245 70.7738 72.5194 69.0408 72.5194Z" fill="url(#paint3_linear_101_1944)"/>
<g filter="url(#filter1_bi_101_1944)">
<path d="M43.9356 63.1049C29.8997 63.1049 15.6923 67.4167 15.6923 75.6575C15.6923 83.8982 29.8997 88.2101 43.9356 88.2101C57.9715 88.2101 72.179 83.8982 72.179 75.6575C72.179 67.4167 57.9715 63.1049 43.9356 63.1049Z" fill="url(#paint4_linear_101_1944)" fill-opacity="0.2"/>
<path d="M16.516 75.6575C16.516 72.0857 19.6036 69.1425 24.8546 67.0565C30.0361 64.998 36.9867 63.9286 43.9356 63.9286C50.8846 63.9286 57.8351 64.998 63.0166 67.0565C68.2676 69.1425 71.3552 72.0857 71.3552 75.6575C71.3552 79.2292 68.2676 82.1724 63.0166 84.2585C57.8351 86.3169 50.8846 87.3863 43.9356 87.3863C36.9867 87.3863 30.0361 86.3169 24.8546 84.2585C19.6036 82.1724 16.516 79.2292 16.516 75.6575Z" stroke="url(#paint5_linear_101_1944)" stroke-opacity="0.1" stroke-width="1.64753"/>
</g>
<path d="M69.0408 56.8284H18.8304C17.0974 56.8284 15.6923 58.2335 15.6923 59.9666V69.381C15.6923 77.6217 29.8997 81.9336 43.9356 81.9336C57.9715 81.9336 72.179 77.6217 72.179 69.381V59.9666C72.179 58.2335 70.7738 56.8284 69.0408 56.8284Z" fill="url(#paint6_linear_101_1944)"/>
<g filter="url(#filter2_bi_101_1944)">
<path d="M43.9356 47.4139C29.8997 47.4139 15.6923 51.7258 15.6923 59.9665C15.6923 68.2073 29.8997 72.5191 43.9356 72.5191C57.9715 72.5191 72.179 68.2073 72.179 59.9665C72.179 51.7258 57.9715 47.4139 43.9356 47.4139Z" fill="url(#paint7_linear_101_1944)" fill-opacity="0.2"/>
<path d="M16.516 59.9665C16.516 56.3948 19.6036 53.4516 24.8546 51.3655C30.0361 49.3071 36.9867 48.2377 43.9356 48.2377C50.8846 48.2377 57.8351 49.3071 63.0166 51.3655C68.2676 53.4516 71.3552 56.3948 71.3552 59.9665C71.3552 63.5383 68.2676 66.4815 63.0166 68.5675C57.8351 70.626 50.8846 71.6954 43.9356 71.6954C36.9867 71.6954 30.0361 70.626 24.8546 68.5675C19.6036 66.4815 16.516 63.5383 16.516 59.9665Z" stroke="url(#paint8_linear_101_1944)" stroke-opacity="0.1" stroke-width="1.64753"/>
</g>
<path d="M69.0408 41.1378H18.8304C17.0974 41.1378 15.6923 42.5429 15.6923 44.276V53.6904C15.6923 61.9311 29.8997 66.243 43.9356 66.243C57.9715 66.243 72.179 61.9311 72.179 53.6904V44.276C72.179 42.5429 70.7738 41.1378 69.0408 41.1378Z" fill="url(#paint9_linear_101_1944)"/>
<g filter="url(#filter3_bi_101_1944)">
<path d="M43.9356 31.7233C29.8997 31.7233 15.6923 36.0352 15.6923 44.2759C15.6923 52.5166 29.8997 56.8285 43.9356 56.8285C57.9715 56.8285 72.179 52.5166 72.179 44.2759C72.179 36.0352 57.9715 31.7233 43.9356 31.7233Z" fill="url(#paint10_linear_101_1944)" fill-opacity="0.2"/>
<path d="M16.516 44.2759C16.516 40.7042 19.6036 37.761 24.8546 35.6749C30.0361 33.6165 36.9867 32.5471 43.9356 32.5471C50.8846 32.5471 57.8351 33.6165 63.0166 35.6749C68.2676 37.761 71.3552 40.7042 71.3552 44.2759C71.3552 47.8477 68.2676 50.7909 63.0166 52.8769C57.8351 54.9354 50.8846 56.0048 43.9356 56.0048C36.9867 56.0048 30.0361 54.9354 24.8546 52.8769C19.6036 50.7909 16.516 47.8477 16.516 44.2759Z" stroke="url(#paint11_linear_101_1944)" stroke-opacity="0.1" stroke-width="1.64753"/>
</g>
<path d="M69.0408 25.4469H18.8304C17.0974 25.4469 15.6923 26.852 15.6923 28.585V37.9995C15.6923 46.2402 29.8997 50.5521 43.9356 50.5521C57.9715 50.5521 72.179 46.2402 72.179 37.9995V28.585C72.179 26.852 70.7738 25.4469 69.0408 25.4469Z" fill="url(#paint12_linear_101_1944)"/>
<g filter="url(#filter4_bi_101_1944)">
<path d="M43.9356 16.0324C29.8997 16.0324 15.6923 20.3443 15.6923 28.585C15.6923 36.8257 29.8997 41.1376 43.9356 41.1376C57.9715 41.1376 72.179 36.8257 72.179 28.585C72.179 20.3443 57.9715 16.0324 43.9356 16.0324Z" fill="url(#paint13_linear_101_1944)" fill-opacity="0.2"/>
<path d="M16.516 28.585C16.516 25.0133 19.6036 22.0701 24.8546 19.984C30.0361 17.9255 36.9867 16.8562 43.9356 16.8562C50.8846 16.8562 57.8351 17.9255 63.0166 19.984C68.2676 22.0701 71.3552 25.0133 71.3552 28.585C71.3552 32.1567 68.2676 35.0999 63.0166 37.186C57.8351 39.2445 50.8846 40.3138 43.9356 40.3138C36.9867 40.3138 30.0361 39.2445 24.8546 37.186C19.6036 35.0999 16.516 32.1567 16.516 28.585Z" stroke="url(#paint14_linear_101_1944)" stroke-opacity="0.1" stroke-width="1.64753"/>
</g>
<path d="M69.0408 9.75629H18.8304C17.0974 9.75629 15.6923 11.1614 15.6923 12.8944V22.3089C15.6923 30.5496 29.8997 34.8615 43.9356 34.8615C57.9715 34.8615 72.179 30.5496 72.179 22.3089V12.8944C72.179 11.1614 70.7738 9.75629 69.0408 9.75629Z" fill="url(#paint15_linear_101_1944)"/>
<g filter="url(#filter5_bi_101_1944)">
<path d="M43.9356 0.341797C29.8997 0.341797 15.6923 4.65368 15.6923 12.8944C15.6923 21.1351 29.8997 25.447 43.9356 25.447C57.9715 25.447 72.179 21.1351 72.179 12.8944C72.179 4.65368 57.9715 0.341797 43.9356 0.341797Z" fill="url(#paint16_linear_101_1944)" fill-opacity="0.2"/>
<path d="M16.516 12.8944C16.516 9.32266 19.6036 6.37947 24.8546 4.29339C30.0361 2.23492 36.9867 1.16556 43.9356 1.16556C50.8846 1.16556 57.8351 2.23492 63.0166 4.29339C68.2676 6.37947 71.3552 9.32266 71.3552 12.8944C71.3552 16.4661 68.2676 19.4093 63.0166 21.4954C57.8351 23.5539 50.8846 24.6232 43.9356 24.6232C36.9867 24.6232 30.0361 23.5539 24.8546 21.4954C19.6036 19.4093 16.516 16.4661 16.516 12.8944Z" stroke="url(#paint17_linear_101_1944)" stroke-opacity="0.1" stroke-width="1.64753"/>
</g>
<path d="M112.975 107.039H62.7645C61.0314 107.039 59.6263 108.444 59.6263 110.177V119.592C59.6263 127.832 73.8338 132.144 87.8697 132.144C101.906 132.144 116.113 127.832 116.113 119.592V110.177C116.113 108.444 114.708 107.039 112.975 107.039Z" fill="url(#paint18_linear_101_1944)"/>
<g filter="url(#filter6_bi_101_1944)">
<path d="M87.8697 97.6245C73.8338 97.6245 59.6263 101.936 59.6263 110.177C59.6263 118.418 73.8338 122.73 87.8697 122.73C101.906 122.73 116.113 118.418 116.113 110.177C116.113 101.936 101.906 97.6245 87.8697 97.6245Z" fill="url(#paint19_linear_101_1944)" fill-opacity="0.2"/>
<path d="M60.4501 110.177C60.4501 106.605 63.5377 103.662 68.7887 101.576C73.9702 99.5176 80.9207 98.4483 87.8697 98.4483C94.8186 98.4483 101.769 99.5176 106.951 101.576C112.202 103.662 115.289 106.605 115.289 110.177C115.289 113.749 112.202 116.692 106.951 118.778C101.769 120.837 94.8186 121.906 87.8697 121.906C80.9207 121.906 73.9702 120.837 68.7887 118.778C63.5377 116.692 60.4501 113.749 60.4501 110.177Z" stroke="url(#paint20_linear_101_1944)" stroke-opacity="0.1" stroke-width="1.64753"/>
</g>
<path d="M112.975 91.348H62.7645C61.0314 91.348 59.6263 92.7531 59.6263 94.4862V103.901C59.6263 112.141 73.8338 116.453 87.8697 116.453C101.906 116.453 116.113 112.141 116.113 103.901V94.4862C116.113 92.7531 114.708 91.348 112.975 91.348Z" fill="url(#paint21_linear_101_1944)"/>
<g filter="url(#filter7_bi_101_1944)">
<path d="M87.8697 81.9335C73.8338 81.9335 59.6263 86.2454 59.6263 94.4861C59.6263 102.727 73.8338 107.039 87.8697 107.039C101.906 107.039 116.113 102.727 116.113 94.4861C116.113 86.2454 101.906 81.9335 87.8697 81.9335Z" fill="url(#paint22_linear_101_1944)" fill-opacity="0.2"/>
<path d="M60.4501 94.4861C60.4501 90.9144 63.5377 87.9712 68.7887 85.8851C73.9702 83.8267 80.9207 82.7573 87.8697 82.7573C94.8186 82.7573 101.769 83.8267 106.951 85.8851C112.202 87.9712 115.289 90.9144 115.289 94.4861C115.289 98.0579 112.202 101.001 106.951 103.087C101.769 105.146 94.8186 106.215 87.8697 106.215C80.9207 106.215 73.9702 105.146 68.7887 103.087C63.5377 101.001 60.4501 98.0579 60.4501 94.4861Z" stroke="url(#paint23_linear_101_1944)" stroke-opacity="0.1" stroke-width="1.64753"/>
</g>
<path d="M112.975 75.6574H62.7645C61.0314 75.6574 59.6263 77.0625 59.6263 78.7956V88.21C59.6263 96.4507 73.8338 100.763 87.8697 100.763C101.906 100.763 116.113 96.4507 116.113 88.21V78.7956C116.113 77.0625 114.708 75.6574 112.975 75.6574Z" fill="url(#paint24_linear_101_1944)"/>
<g filter="url(#filter8_bi_101_1944)">
<path d="M87.8697 66.2429C73.8338 66.2429 59.6263 70.5548 59.6263 78.7955C59.6263 87.0362 73.8338 91.3481 87.8697 91.3481C101.906 91.3481 116.113 87.0362 116.113 78.7955C116.113 70.5548 101.906 66.2429 87.8697 66.2429Z" fill="url(#paint25_linear_101_1944)" fill-opacity="0.2"/>
<path d="M60.4501 78.7955C60.4501 75.2238 63.5377 72.2806 68.7887 70.1945C73.9702 68.136 80.9207 67.0667 87.8697 67.0667C94.8186 67.0667 101.769 68.136 106.951 70.1945C112.202 72.2806 115.289 75.2238 115.289 78.7955C115.289 82.3673 112.202 85.3104 106.951 87.3965C101.769 89.455 94.8186 90.5244 87.8697 90.5244C80.9207 90.5244 73.9702 89.455 68.7887 87.3965C63.5377 85.3104 60.4501 82.3673 60.4501 78.7955Z" stroke="url(#paint26_linear_101_1944)" stroke-opacity="0.1" stroke-width="1.64753"/>
</g>
<path d="M112.975 59.9665H62.7645C61.0314 59.9665 59.6263 61.3716 59.6263 63.1046V72.5191C59.6263 80.7598 73.8338 85.0717 87.8697 85.0717C101.906 85.0717 116.113 80.7598 116.113 72.5191V63.1046C116.113 61.3716 114.708 59.9665 112.975 59.9665Z" fill="url(#paint27_linear_101_1944)"/>
<g filter="url(#filter9_bi_101_1944)">
<path d="M87.8697 50.5523C73.8338 50.5523 59.6263 54.8642 59.6263 63.1049C59.6263 71.3456 73.8338 75.6575 87.8697 75.6575C101.906 75.6575 116.113 71.3456 116.113 63.1049C116.113 54.8642 101.906 50.5523 87.8697 50.5523Z" fill="url(#paint28_linear_101_1944)" fill-opacity="0.2"/>
<path d="M60.4501 63.1049C60.4501 59.5332 63.5377 56.59 68.7887 54.5039C73.9702 52.4454 80.9207 51.3761 87.8697 51.3761C94.8186 51.3761 101.769 52.4454 106.951 54.5039C112.202 56.59 115.289 59.5332 115.289 63.1049C115.289 66.6766 112.202 69.6198 106.951 71.7059C101.769 73.7644 94.8186 74.8337 87.8697 74.8337C80.9207 74.8337 73.9702 73.7644 68.7887 71.7059C63.5377 69.6198 60.4501 66.6766 60.4501 63.1049Z" stroke="url(#paint29_linear_101_1944)" stroke-opacity="0.1" stroke-width="1.64753"/>
</g>
<path d="M112.975 44.2759H62.7645C61.0314 44.2759 59.6263 45.681 59.6263 47.414V56.8285C59.6263 65.0692 73.8338 69.3811 87.8697 69.3811C101.906 69.3811 116.113 65.0692 116.113 56.8285V47.414C116.113 45.681 114.708 44.2759 112.975 44.2759Z" fill="url(#paint30_linear_101_1944)"/>
<g filter="url(#filter10_bi_101_1944)">
<path d="M87.8697 34.8614C73.8338 34.8614 59.6263 39.1733 59.6263 47.414C59.6263 55.6547 73.8338 59.9666 87.8697 59.9666C101.906 59.9666 116.113 55.6547 116.113 47.414C116.113 39.1733 101.906 34.8614 87.8697 34.8614Z" fill="url(#paint31_linear_101_1944)" fill-opacity="0.2"/>
<path d="M60.4501 47.414C60.4501 43.8422 63.5377 40.8991 68.7887 38.813C73.9702 36.7545 80.9207 35.6852 87.8697 35.6852C94.8186 35.6852 101.769 36.7545 106.951 38.813C112.202 40.8991 115.289 43.8422 115.289 47.414C115.289 50.9857 112.202 53.9289 106.951 56.015C101.769 58.0735 94.8186 59.1428 87.8697 59.1428C80.9207 59.1428 73.9702 58.0735 68.7887 56.015C63.5377 53.9289 60.4501 50.9857 60.4501 47.414Z" stroke="url(#paint32_linear_101_1944)" stroke-opacity="0.1" stroke-width="1.64753"/>
</g>
<path d="M112.975 28.5853H62.7645C61.0314 28.5853 59.6263 29.9904 59.6263 31.7234V41.1379C59.6263 49.3786 73.8338 53.6905 87.8697 53.6905C101.906 53.6905 116.113 49.3786 116.113 41.1379V31.7234C116.113 29.9904 114.708 28.5853 112.975 28.5853Z" fill="url(#paint33_linear_101_1944)"/>
<g filter="url(#filter11_bi_101_1944)">
<path d="M87.8697 19.1708C73.8338 19.1708 59.6263 23.4827 59.6263 31.7234C59.6263 39.9641 73.8338 44.276 87.8697 44.276C101.906 44.276 116.113 39.9641 116.113 31.7234C116.113 23.4827 101.906 19.1708 87.8697 19.1708Z" fill="url(#paint34_linear_101_1944)" fill-opacity="0.2"/>
<path d="M60.4501 31.7234C60.4501 28.1516 63.5377 25.2085 68.7887 23.1224C73.9702 21.0639 80.9207 19.9945 87.8697 19.9945C94.8186 19.9945 101.769 21.0639 106.951 23.1224C112.202 25.2085 115.289 28.1516 115.289 31.7234C115.289 35.2951 112.202 38.2383 106.951 40.3244C101.769 42.3828 94.8186 43.4522 87.8697 43.4522C80.9207 43.4522 73.9702 42.3828 68.7887 40.3244C63.5377 38.2383 60.4501 35.2951 60.4501 31.7234Z" stroke="url(#paint35_linear_101_1944)" stroke-opacity="0.1" stroke-width="1.64753"/>
</g>
</g>
<defs>
<filter id="filter0_bi_101_1944" x="-17.2583" y="45.8449" width="122.388" height="91.0064" filterUnits="userSpaceOnUse" color-interpolation-filters="sRGB">
<feFlood flood-opacity="0" result="BackgroundImageFix"/>
<feGaussianBlur in="BackgroundImageFix" stdDeviation="16.4753"/>
<feComposite in2="SourceAlpha" operator="in" result="effect1_backgroundBlur_101_1944"/>
<feBlend mode="normal" in="SourceGraphic" in2="effect1_backgroundBlur_101_1944" result="shape"/>
<feColorMatrix in="SourceAlpha" type="matrix" values="0 0 0 0 0 0 0 0 0 0 0 0 0 0 0 0 0 0 127 0" result="hardAlpha"/>
<feOffset dy="10.9835"/>
<feGaussianBlur stdDeviation="8.23764"/>
<feComposite in2="hardAlpha" operator="arithmetic" k2="-1" k3="1"/>
<feColorMatrix type="matrix" values="0 0 0 0 1 0 0 0 0 1 0 0 0 0 1 0 0 0 0.4 0"/>
<feBlend mode="normal" in2="shape" result="effect2_innerShadow_101_1944"/>
</filter>
<filter id="filter1_bi_101_1944" x="-17.2583" y="30.1543" width="122.388" height="91.0064" filterUnits="userSpaceOnUse" color-interpolation-filters="sRGB">
<feFlood flood-opacity="0" result="BackgroundImageFix"/>
<feGaussianBlur in="BackgroundImageFix" stdDeviation="16.4753"/>
<feComposite in2="SourceAlpha" operator="in" result="effect1_backgroundBlur_101_1944"/>
<feBlend mode="normal" in="SourceGraphic" in2="effect1_backgroundBlur_101_1944" result="shape"/>
<feColorMatrix in="SourceAlpha" type="matrix" values="0 0 0 0 0 0 0 0 0 0 0 0 0 0 0 0 0 0 127 0" result="hardAlpha"/>
<feOffset dy="10.9835"/>
<feGaussianBlur stdDeviation="8.23764"/>
<feComposite in2="hardAlpha" operator="arithmetic" k2="-1" k3="1"/>
<feColorMatrix type="matrix" values="0 0 0 0 1 0 0 0 0 1 0 0 0 0 1 0 0 0 0.4 0"/>
<feBlend mode="normal" in2="shape" result="effect2_innerShadow_101_1944"/>
</filter>
<filter id="filter2_bi_101_1944" x="-17.2583" y="14.4634" width="122.388" height="91.0064" filterUnits="userSpaceOnUse" color-interpolation-filters="sRGB">
<feFlood flood-opacity="0" result="BackgroundImageFix"/>
<feGaussianBlur in="BackgroundImageFix" stdDeviation="16.4753"/>
<feComposite in2="SourceAlpha" operator="in" result="effect1_backgroundBlur_101_1944"/>
<feBlend mode="normal" in="SourceGraphic" in2="effect1_backgroundBlur_101_1944" result="shape"/>
<feColorMatrix in="SourceAlpha" type="matrix" values="0 0 0 0 0 0 0 0 0 0 0 0 0 0 0 0 0 0 127 0" result="hardAlpha"/>
<feOffset dy="10.9835"/>
<feGaussianBlur stdDeviation="8.23764"/>
<feComposite in2="hardAlpha" operator="arithmetic" k2="-1" k3="1"/>
<feColorMatrix type="matrix" values="0 0 0 0 1 0 0 0 0 1 0 0 0 0 1 0 0 0 0.4 0"/>
<feBlend mode="normal" in2="shape" result="effect2_innerShadow_101_1944"/>
</filter>
<filter id="filter3_bi_101_1944" x="-17.2583" y="-1.22724" width="122.388" height="91.0064" filterUnits="userSpaceOnUse" color-interpolation-filters="sRGB">
<feFlood flood-opacity="0" result="BackgroundImageFix"/>
<feGaussianBlur in="BackgroundImageFix" stdDeviation="16.4753"/>
<feComposite in2="SourceAlpha" operator="in" result="effect1_backgroundBlur_101_1944"/>
<feBlend mode="normal" in="SourceGraphic" in2="effect1_backgroundBlur_101_1944" result="shape"/>
<feColorMatrix in="SourceAlpha" type="matrix" values="0 0 0 0 0 0 0 0 0 0 0 0 0 0 0 0 0 0 127 0" result="hardAlpha"/>
<feOffset dy="10.9835"/>
<feGaussianBlur stdDeviation="8.23764"/>
<feComposite in2="hardAlpha" operator="arithmetic" k2="-1" k3="1"/>
<feColorMatrix type="matrix" values="0 0 0 0 1 0 0 0 0 1 0 0 0 0 1 0 0 0 0.4 0"/>
<feBlend mode="normal" in2="shape" result="effect2_innerShadow_101_1944"/>
</filter>
<filter id="filter4_bi_101_1944" x="-17.2583" y="-16.9182" width="122.388" height="91.0064" filterUnits="userSpaceOnUse" color-interpolation-filters="sRGB">
<feFlood flood-opacity="0" result="BackgroundImageFix"/>
<feGaussianBlur in="BackgroundImageFix" stdDeviation="16.4753"/>
<feComposite in2="SourceAlpha" operator="in" result="effect1_backgroundBlur_101_1944"/>
<feBlend mode="normal" in="SourceGraphic" in2="effect1_backgroundBlur_101_1944" result="shape"/>
<feColorMatrix in="SourceAlpha" type="matrix" values="0 0 0 0 0 0 0 0 0 0 0 0 0 0 0 0 0 0 127 0" result="hardAlpha"/>
<feOffset dy="10.9835"/>
<feGaussianBlur stdDeviation="8.23764"/>
<feComposite in2="hardAlpha" operator="arithmetic" k2="-1" k3="1"/>
<feColorMatrix type="matrix" values="0 0 0 0 1 0 0 0 0 1 0 0 0 0 1 0 0 0 0.4 0"/>
<feBlend mode="normal" in2="shape" result="effect2_innerShadow_101_1944"/>
</filter>
<filter id="filter5_bi_101_1944" x="-17.2583" y="-32.6088" width="122.388" height="91.0064" filterUnits="userSpaceOnUse" color-interpolation-filters="sRGB">
<feFlood flood-opacity="0" result="BackgroundImageFix"/>
<feGaussianBlur in="BackgroundImageFix" stdDeviation="16.4753"/>
<feComposite in2="SourceAlpha" operator="in" result="effect1_backgroundBlur_101_1944"/>
<feBlend mode="normal" in="SourceGraphic" in2="effect1_backgroundBlur_101_1944" result="shape"/>
<feColorMatrix in="SourceAlpha" type="matrix" values="0 0 0 0 0 0 0 0 0 0 0 0 0 0 0 0 0 0 127 0" result="hardAlpha"/>
<feOffset dy="10.9835"/>
<feGaussianBlur stdDeviation="8.23764"/>
<feComposite in2="hardAlpha" operator="arithmetic" k2="-1" k3="1"/>
<feColorMatrix type="matrix" values="0 0 0 0 1 0 0 0 0 1 0 0 0 0 1 0 0 0 0.4 0"/>
<feBlend mode="normal" in2="shape" result="effect2_innerShadow_101_1944"/>
</filter>
<filter id="filter6_bi_101_1944" x="26.6758" y="64.6739" width="122.388" height="91.0064" filterUnits="userSpaceOnUse" color-interpolation-filters="sRGB">
<feFlood flood-opacity="0" result="BackgroundImageFix"/>
<feGaussianBlur in="BackgroundImageFix" stdDeviation="16.4753"/>
<feComposite in2="SourceAlpha" operator="in" result="effect1_backgroundBlur_101_1944"/>
<feBlend mode="normal" in="SourceGraphic" in2="effect1_backgroundBlur_101_1944" result="shape"/>
<feColorMatrix in="SourceAlpha" type="matrix" values="0 0 0 0 0 0 0 0 0 0 0 0 0 0 0 0 0 0 127 0" result="hardAlpha"/>
<feOffset dy="10.9835"/>
<feGaussianBlur stdDeviation="8.23764"/>
<feComposite in2="hardAlpha" operator="arithmetic" k2="-1" k3="1"/>
<feColorMatrix type="matrix" values="0 0 0 0 1 0 0 0 0 1 0 0 0 0 1 0 0 0 0.4 0"/>
<feBlend mode="normal" in2="shape" result="effect2_innerShadow_101_1944"/>
</filter>
<filter id="filter7_bi_101_1944" x="26.6758" y="48.983" width="122.388" height="91.0064" filterUnits="userSpaceOnUse" color-interpolation-filters="sRGB">
<feFlood flood-opacity="0" result="BackgroundImageFix"/>
<feGaussianBlur in="BackgroundImageFix" stdDeviation="16.4753"/>
<feComposite in2="SourceAlpha" operator="in" result="effect1_backgroundBlur_101_1944"/>
<feBlend mode="normal" in="SourceGraphic" in2="effect1_backgroundBlur_101_1944" result="shape"/>
<feColorMatrix in="SourceAlpha" type="matrix" values="0 0 0 0 0 0 0 0 0 0 0 0 0 0 0 0 0 0 127 0" result="hardAlpha"/>
<feOffset dy="10.9835"/>
<feGaussianBlur stdDeviation="8.23764"/>
<feComposite in2="hardAlpha" operator="arithmetic" k2="-1" k3="1"/>
<feColorMatrix type="matrix" values="0 0 0 0 1 0 0 0 0 1 0 0 0 0 1 0 0 0 0.4 0"/>
<feBlend mode="normal" in2="shape" result="effect2_innerShadow_101_1944"/>
</filter>
<filter id="filter8_bi_101_1944" x="26.6758" y="33.2924" width="122.388" height="91.0064" filterUnits="userSpaceOnUse" color-interpolation-filters="sRGB">
<feFlood flood-opacity="0" result="BackgroundImageFix"/>
<feGaussianBlur in="BackgroundImageFix" stdDeviation="16.4753"/>
<feComposite in2="SourceAlpha" operator="in" result="effect1_backgroundBlur_101_1944"/>
<feBlend mode="normal" in="SourceGraphic" in2="effect1_backgroundBlur_101_1944" result="shape"/>
<feColorMatrix in="SourceAlpha" type="matrix" values="0 0 0 0 0 0 0 0 0 0 0 0 0 0 0 0 0 0 127 0" result="hardAlpha"/>
<feOffset dy="10.9835"/>
<feGaussianBlur stdDeviation="8.23764"/>
<feComposite in2="hardAlpha" operator="arithmetic" k2="-1" k3="1"/>
<feColorMatrix type="matrix" values="0 0 0 0 1 0 0 0 0 1 0 0 0 0 1 0 0 0 0.4 0"/>
<feBlend mode="normal" in2="shape" result="effect2_innerShadow_101_1944"/>
</filter>
<filter id="filter9_bi_101_1944" x="26.6758" y="17.6017" width="122.388" height="91.0064" filterUnits="userSpaceOnUse" color-interpolation-filters="sRGB">
<feFlood flood-opacity="0" result="BackgroundImageFix"/>
<feGaussianBlur in="BackgroundImageFix" stdDeviation="16.4753"/>
<feComposite in2="SourceAlpha" operator="in" result="effect1_backgroundBlur_101_1944"/>
<feBlend mode="normal" in="SourceGraphic" in2="effect1_backgroundBlur_101_1944" result="shape"/>
<feColorMatrix in="SourceAlpha" type="matrix" values="0 0 0 0 0 0 0 0 0 0 0 0 0 0 0 0 0 0 127 0" result="hardAlpha"/>
<feOffset dy="10.9835"/>
<feGaussianBlur stdDeviation="8.23764"/>
<feComposite in2="hardAlpha" operator="arithmetic" k2="-1" k3="1"/>
<feColorMatrix type="matrix" values="0 0 0 0 1 0 0 0 0 1 0 0 0 0 1 0 0 0 0.4 0"/>
<feBlend mode="normal" in2="shape" result="effect2_innerShadow_101_1944"/>
</filter>
<filter id="filter10_bi_101_1944" x="26.6758" y="1.91082" width="122.388" height="91.0064" filterUnits="userSpaceOnUse" color-interpolation-filters="sRGB">
<feFlood flood-opacity="0" result="BackgroundImageFix"/>
<feGaussianBlur in="BackgroundImageFix" stdDeviation="16.4753"/>
<feComposite in2="SourceAlpha" operator="in" result="effect1_backgroundBlur_101_1944"/>
<feBlend mode="normal" in="SourceGraphic" in2="effect1_backgroundBlur_101_1944" result="shape"/>
<feColorMatrix in="SourceAlpha" type="matrix" values="0 0 0 0 0 0 0 0 0 0 0 0 0 0 0 0 0 0 127 0" result="hardAlpha"/>
<feOffset dy="10.9835"/>
<feGaussianBlur stdDeviation="8.23764"/>
<feComposite in2="hardAlpha" operator="arithmetic" k2="-1" k3="1"/>
<feColorMatrix type="matrix" values="0 0 0 0 1 0 0 0 0 1 0 0 0 0 1 0 0 0 0.4 0"/>
<feBlend mode="normal" in2="shape" result="effect2_innerShadow_101_1944"/>
</filter>
<filter id="filter11_bi_101_1944" x="26.6758" y="-13.7798" width="122.388" height="91.0064" filterUnits="userSpaceOnUse" color-interpolation-filters="sRGB">
<feFlood flood-opacity="0" result="BackgroundImageFix"/>
<feGaussianBlur in="BackgroundImageFix" stdDeviation="16.4753"/>
<feComposite in2="SourceAlpha" operator="in" result="effect1_backgroundBlur_101_1944"/>
<feBlend mode="normal" in="SourceGraphic" in2="effect1_backgroundBlur_101_1944" result="shape"/>
<feColorMatrix in="SourceAlpha" type="matrix" values="0 0 0 0 0 0 0 0 0 0 0 0 0 0 0 0 0 0 127 0" result="hardAlpha"/>
<feOffset dy="10.9835"/>
<feGaussianBlur stdDeviation="8.23764"/>
<feComposite in2="hardAlpha" operator="arithmetic" k2="-1" k3="1"/>
<feColorMatrix type="matrix" values="0 0 0 0 1 0 0 0 0 1 0 0 0 0 1 0 0 0 0.4 0"/>
<feBlend mode="normal" in2="shape" result="effect2_innerShadow_101_1944"/>
</filter>
<linearGradient id="paint0_linear_101_1944" x1="15.6923" y1="88.21" x2="69.0921" y2="118.718" gradientUnits="userSpaceOnUse">
<stop stop-color="#CFCFCF"/>
<stop offset="1" stop-color="#999999" stop-opacity="0.7"/>
</linearGradient>
<linearGradient id="paint1_linear_101_1944" x1="15.6923" y1="78.7955" x2="69.0921" y2="109.304" gradientUnits="userSpaceOnUse">
<stop stop-color="#BFBFBF"/>
<stop offset="1" stop-color="#9C9C9C"/>
</linearGradient>
<linearGradient id="paint2_linear_101_1944" x1="17.4575" y1="79.9366" x2="72.179" y2="79.9366" gradientUnits="userSpaceOnUse">
<stop stop-color="#CCCCCC"/>
<stop offset="1" stop-color="#808080"/>
</linearGradient>
<linearGradient id="paint3_linear_101_1944" x1="15.6923" y1="72.5194" x2="69.0921" y2="103.028" gradientUnits="userSpaceOnUse">
<stop stop-color="#CFCFCF"/>
<stop offset="1" stop-color="#999999" stop-opacity="0.7"/>
</linearGradient>
<linearGradient id="paint4_linear_101_1944" x1="15.6923" y1="63.1049" x2="69.0921" y2="93.6131" gradientUnits="userSpaceOnUse">
<stop stop-color="#BFBFBF"/>
<stop offset="1" stop-color="#9C9C9C"/>
</linearGradient>
<linearGradient id="paint5_linear_101_1944" x1="17.4575" y1="64.246" x2="72.179" y2="64.246" gradientUnits="userSpaceOnUse">
<stop stop-color="#CCCCCC"/>
<stop offset="1" stop-color="#808080"/>
</linearGradient>
<linearGradient id="paint6_linear_101_1944" x1="15.6923" y1="56.8284" x2="69.0921" y2="87.3367" gradientUnits="userSpaceOnUse">
<stop stop-color="#CFCFCF"/>
<stop offset="1" stop-color="#999999" stop-opacity="0.7"/>
</linearGradient>
<linearGradient id="paint7_linear_101_1944" x1="15.6923" y1="47.4139" x2="69.0921" y2="77.9222" gradientUnits="userSpaceOnUse">
<stop stop-color="#BFBFBF"/>
<stop offset="1" stop-color="#9C9C9C"/>
</linearGradient>
<linearGradient id="paint8_linear_101_1944" x1="17.4575" y1="48.5551" x2="72.179" y2="48.5551" gradientUnits="userSpaceOnUse">
<stop stop-color="#CCCCCC"/>
<stop offset="1" stop-color="#808080"/>
</linearGradient>
<linearGradient id="paint9_linear_101_1944" x1="15.6923" y1="41.1378" x2="69.0921" y2="71.646" gradientUnits="userSpaceOnUse">
<stop stop-color="#CFCFCF"/>
<stop offset="1" stop-color="#999999" stop-opacity="0.7"/>
</linearGradient>
<linearGradient id="paint10_linear_101_1944" x1="15.6923" y1="31.7233" x2="69.0921" y2="62.2316" gradientUnits="userSpaceOnUse">
<stop stop-color="#BFBFBF"/>
<stop offset="1" stop-color="#9C9C9C"/>
</linearGradient>
<linearGradient id="paint11_linear_101_1944" x1="17.4575" y1="32.8645" x2="72.179" y2="32.8645" gradientUnits="userSpaceOnUse">
<stop stop-color="#CCCCCC"/>
<stop offset="1" stop-color="#808080"/>
</linearGradient>
<linearGradient id="paint12_linear_101_1944" x1="15.6923" y1="25.4469" x2="69.0921" y2="55.9551" gradientUnits="userSpaceOnUse">
<stop stop-color="#CFCFCF"/>
<stop offset="1" stop-color="#999999" stop-opacity="0.7"/>
</linearGradient>
<linearGradient id="paint13_linear_101_1944" x1="15.6923" y1="16.0324" x2="69.0921" y2="46.5406" gradientUnits="userSpaceOnUse">
<stop stop-color="#BFBFBF"/>
<stop offset="1" stop-color="#9C9C9C"/>
</linearGradient>
<linearGradient id="paint14_linear_101_1944" x1="17.4575" y1="17.1736" x2="72.179" y2="17.1736" gradientUnits="userSpaceOnUse">
<stop stop-color="#CCCCCC"/>
<stop offset="1" stop-color="#808080"/>
</linearGradient>
<linearGradient id="paint15_linear_101_1944" x1="15.6923" y1="9.75629" x2="69.0921" y2="40.2645" gradientUnits="userSpaceOnUse">
<stop stop-color="#CFCFCF"/>
<stop offset="1" stop-color="#999999" stop-opacity="0.7"/>
</linearGradient>
<linearGradient id="paint16_linear_101_1944" x1="15.6923" y1="0.341797" x2="69.0921" y2="30.85" gradientUnits="userSpaceOnUse">
<stop stop-color="#BFBFBF"/>
<stop offset="1" stop-color="#9C9C9C"/>
</linearGradient>
<linearGradient id="paint17_linear_101_1944" x1="17.4575" y1="1.48294" x2="72.179" y2="1.48294" gradientUnits="userSpaceOnUse">
<stop stop-color="#CCCCCC"/>
<stop offset="1" stop-color="#808080"/>
</linearGradient>
<linearGradient id="paint18_linear_101_1944" x1="59.6263" y1="107.039" x2="113.026" y2="137.547" gradientUnits="userSpaceOnUse">
<stop stop-color="#CFCFCF"/>
<stop offset="1" stop-color="#999999" stop-opacity="0.7"/>
</linearGradient>
<linearGradient id="paint19_linear_101_1944" x1="59.6263" y1="97.6245" x2="113.026" y2="128.133" gradientUnits="userSpaceOnUse">
<stop stop-color="#BFBFBF"/>
<stop offset="1" stop-color="#9C9C9C"/>
</linearGradient>
<linearGradient id="paint20_linear_101_1944" x1="61.3916" y1="98.7657" x2="116.113" y2="98.7657" gradientUnits="userSpaceOnUse">
<stop stop-color="#CCCCCC"/>
<stop offset="1" stop-color="#808080"/>
</linearGradient>
<linearGradient id="paint21_linear_101_1944" x1="59.6263" y1="91.348" x2="113.026" y2="121.856" gradientUnits="userSpaceOnUse">
<stop stop-color="#CFCFCF"/>
<stop offset="1" stop-color="#999999" stop-opacity="0.7"/>
</linearGradient>
<linearGradient id="paint22_linear_101_1944" x1="59.6263" y1="81.9335" x2="113.026" y2="112.442" gradientUnits="userSpaceOnUse">
<stop stop-color="#BFBFBF"/>
<stop offset="1" stop-color="#9C9C9C"/>
</linearGradient>
<linearGradient id="paint23_linear_101_1944" x1="61.3916" y1="83.0747" x2="116.113" y2="83.0747" gradientUnits="userSpaceOnUse">
<stop stop-color="#CCCCCC"/>
<stop offset="1" stop-color="#808080"/>
</linearGradient>
<linearGradient id="paint24_linear_101_1944" x1="59.6263" y1="75.6574" x2="113.026" y2="106.166" gradientUnits="userSpaceOnUse">
<stop stop-color="#CFCFCF"/>
<stop offset="1" stop-color="#999999" stop-opacity="0.7"/>
</linearGradient>
<linearGradient id="paint25_linear_101_1944" x1="59.6263" y1="66.2429" x2="113.026" y2="96.7511" gradientUnits="userSpaceOnUse">
<stop stop-color="#BFBFBF"/>
<stop offset="1" stop-color="#9C9C9C"/>
</linearGradient>
<linearGradient id="paint26_linear_101_1944" x1="61.3916" y1="67.3841" x2="116.113" y2="67.3841" gradientUnits="userSpaceOnUse">
<stop stop-color="#CCCCCC"/>
<stop offset="1" stop-color="#808080"/>
</linearGradient>
<linearGradient id="paint27_linear_101_1944" x1="59.6263" y1="59.9665" x2="113.026" y2="90.4747" gradientUnits="userSpaceOnUse">
<stop stop-color="#CFCFCF"/>
<stop offset="1" stop-color="#999999" stop-opacity="0.7"/>
</linearGradient>
<linearGradient id="paint28_linear_101_1944" x1="59.6263" y1="50.5523" x2="113.026" y2="81.0605" gradientUnits="userSpaceOnUse">
<stop stop-color="#BFBFBF"/>
<stop offset="1" stop-color="#9C9C9C"/>
</linearGradient>
<linearGradient id="paint29_linear_101_1944" x1="61.3916" y1="51.6935" x2="116.113" y2="51.6935" gradientUnits="userSpaceOnUse">
<stop stop-color="#CCCCCC"/>
<stop offset="1" stop-color="#808080"/>
</linearGradient>
<linearGradient id="paint30_linear_101_1944" x1="59.6263" y1="44.2759" x2="113.026" y2="74.7841" gradientUnits="userSpaceOnUse">
<stop stop-color="#CFCFCF"/>
<stop offset="1" stop-color="#999999" stop-opacity="0.7"/>
</linearGradient>
<linearGradient id="paint31_linear_101_1944" x1="59.6263" y1="34.8614" x2="113.026" y2="65.3696" gradientUnits="userSpaceOnUse">
<stop stop-color="#BFBFBF"/>
<stop offset="1" stop-color="#9C9C9C"/>
</linearGradient>
<linearGradient id="paint32_linear_101_1944" x1="61.3916" y1="36.0025" x2="116.113" y2="36.0025" gradientUnits="userSpaceOnUse">
<stop stop-color="#CCCCCC"/>
<stop offset="1" stop-color="#808080"/>
</linearGradient>
<linearGradient id="paint33_linear_101_1944" x1="59.6263" y1="28.5853" x2="113.026" y2="59.0935" gradientUnits="userSpaceOnUse">
<stop stop-color="#CFCFCF"/>
<stop offset="1" stop-color="#999999" stop-opacity="0.7"/>
</linearGradient>
<linearGradient id="paint34_linear_101_1944" x1="59.6263" y1="19.1708" x2="113.026" y2="49.679" gradientUnits="userSpaceOnUse">
<stop stop-color="#BFBFBF"/>
<stop offset="1" stop-color="#9C9C9C"/>
</linearGradient>
<linearGradient id="paint35_linear_101_1944" x1="61.3916" y1="20.3119" x2="116.113" y2="20.3119" gradientUnits="userSpaceOnUse">
<stop stop-color="#CCCCCC"/>
<stop offset="1" stop-color="#808080"/>
</linearGradient>
<clipPath id="clip0_101_1944">
<rect y="0.341797" width="131.802" height="131.802" fill="white"/>
</clipPath>
</defs>
</svg>
