<svg width="90" height="90" viewBox="0 0 90 90" fill="none" xmlns="http://www.w3.org/2000/svg">
<path d="M73.4997 28.0826C73.3687 27.7774 73.1292 27.5316 72.8274 27.3926L45.5547 15.1199C45.3789 15.0409 45.1883 15 44.9956 15C44.8028 15 44.6123 15.0409 44.4365 15.1199L17.1637 27.3926C16.862 27.5316 16.6225 27.7774 16.4915 28.0826L44.9997 40.909L73.4997 28.0826Z" fill="url(#paint0_linear_605_4552)"/>
<path d="M16.4996 28.0827C16.4152 28.2554 16.3687 28.4442 16.3633 28.6364V61.3637C16.3633 61.6264 16.4392 61.8836 16.582 62.1042C16.7247 62.3249 16.9282 62.4995 17.1678 62.6073L44.4406 74.88C44.6164 74.9591 44.8069 75 44.9997 75L44.9997 40.909L16.4996 28.0827Z" fill="url(#paint1_linear_605_4552)"/>
<path d="M73.4997 28.0826L44.9997 40.909L44.9997 75C45.1924 75 45.383 74.9591 45.5588 74.88L72.8315 62.6073C73.0712 62.4995 73.2747 62.3249 73.4174 62.1042C73.5601 61.8836 73.6361 61.6264 73.6361 61.3637V28.6364C73.6307 28.4442 73.5842 28.2553 73.4997 28.0826Z" fill="url(#paint2_linear_605_4552)"/>
<g filter="url(#filter0_bi_605_4552)">
<path d="M87.7502 19.6239C87.5536 19.1661 87.1943 18.7974 86.7418 18.5889L45.8326 0.179825C45.5689 0.0612889 45.283 0 44.9939 0C44.7048 0 44.419 0.0612889 44.1553 0.179825L3.24608 18.5889C2.79353 18.7974 2.43427 19.1661 2.23767 19.6239L45.0001 38.8635L87.7502 19.6239Z" fill="#1D1D1D" fill-opacity="0.05"/>
<path d="M87.7502 19.6239C87.5536 19.1661 87.1943 18.7974 86.7418 18.5889L45.8326 0.179825C45.5689 0.0612889 45.283 0 44.9939 0C44.7048 0 44.419 0.0612889 44.1553 0.179825L3.24608 18.5889C2.79353 18.7974 2.43427 19.1661 2.23767 19.6239L45.0001 38.8635L87.7502 19.6239Z" fill="url(#paint3_linear_605_4552)" fill-opacity="0.2"/>
<path d="M2.24996 19.6241C2.12331 19.8831 2.05356 20.1663 2.04541 20.4545V69.5455C2.04544 69.9396 2.15936 70.3254 2.37346 70.6563C2.58756 70.9873 2.89272 71.2493 3.25223 71.4109L44.1614 89.82C44.4251 89.9386 44.7109 90 45.0001 90L45.0001 38.8635L2.24996 19.6241Z" fill="#1D1D1D" fill-opacity="0.05"/>
<path d="M2.24996 19.6241C2.12331 19.8831 2.05356 20.1663 2.04541 20.4545V69.5455C2.04544 69.9396 2.15936 70.3254 2.37346 70.6563C2.58756 70.9873 2.89272 71.2493 3.25223 71.4109L44.1614 89.82C44.4251 89.9386 44.7109 90 45.0001 90L45.0001 38.8635L2.24996 19.6241Z" fill="url(#paint4_linear_605_4552)" fill-opacity="0.2"/>
<path d="M87.7502 19.6239L45.0001 38.8635L45.0001 90C45.2892 90 45.575 89.9386 45.8387 89.82L86.7479 71.4109C87.1074 71.2493 87.4126 70.9873 87.6267 70.6563C87.8408 70.3254 87.9547 69.9396 87.9547 69.5455V20.4545C87.9466 20.1663 87.8768 19.883 87.7502 19.6239Z" fill="#1D1D1D" fill-opacity="0.05"/>
<path d="M87.7502 19.6239L45.0001 38.8635L45.0001 90C45.2892 90 45.575 89.9386 45.8387 89.82L86.7479 71.4109C87.1074 71.2493 87.4126 70.9873 87.6267 70.6563C87.8408 70.3254 87.9547 69.9396 87.9547 69.5455V20.4545C87.9466 20.1663 87.8768 19.883 87.7502 19.6239Z" fill="url(#paint5_linear_605_4552)" fill-opacity="0.2"/>
<path d="M44.4376 39.2272L44.4376 89.3266C44.4224 89.3203 44.4073 89.3138 44.3923 89.3071C44.3922 89.3071 44.3922 89.307 44.3922 89.307L3.48306 70.898L3.48286 70.8979C3.22221 70.7807 3.00097 70.5907 2.84575 70.3508C2.69053 70.1109 2.60793 69.8312 2.60791 69.5455V20.4631C2.60852 20.4449 2.60946 20.4267 2.61075 20.4086L44.4376 39.2272ZM45.0001 38.2466L3.07547 19.3788C3.19239 19.2648 3.32864 19.1705 3.47928 19.1008C3.47999 19.1005 3.4807 19.1002 3.48141 19.0998L44.3859 0.692874C44.386 0.692843 44.3861 0.692813 44.3861 0.692781C44.5772 0.606903 44.7844 0.5625 44.9939 0.5625C45.2035 0.5625 45.4106 0.606904 45.6017 0.692781C45.6018 0.692812 45.6019 0.692842 45.6019 0.692873L86.5064 19.0998C86.5071 19.1001 86.5077 19.1004 86.5083 19.1007C86.6607 19.1711 86.7983 19.2668 86.9161 19.3824L45.0001 38.2466ZM45.5626 89.3266L45.5626 39.2272L87.389 20.4033C87.3905 20.4232 87.3916 20.4432 87.3922 20.4633V69.5454C87.3922 69.8312 87.3096 70.1109 87.1544 70.3508C86.9992 70.5907 86.7779 70.7807 86.5173 70.8979L86.5171 70.898L45.608 89.307C45.608 89.307 45.6079 89.3071 45.6079 89.3071C45.5929 89.3138 45.5778 89.3203 45.5626 89.3266Z" stroke="white" stroke-opacity="0.1" stroke-width="1.125"/>
</g>
<g filter="url(#filter1_i_605_4552)">
<path d="M15.3409 43.9773C17.6003 43.9773 19.4318 41.6878 19.4318 38.8636C19.4318 36.0395 17.6003 33.75 15.3409 33.75C13.0816 33.75 11.25 36.0395 11.25 38.8636C11.25 41.6878 13.0816 43.9773 15.3409 43.9773Z" fill="white" fill-opacity="0.1"/>
</g>
<g filter="url(#filter2_i_605_4552)">
<path d="M33.7503 74.6594C36.0097 74.6594 37.8413 72.37 37.8413 69.5458C37.8413 66.7216 36.0097 64.4321 33.7503 64.4321C31.491 64.4321 29.6594 66.7216 29.6594 69.5458C29.6594 72.37 31.491 74.6594 33.7503 74.6594Z" fill="white" fill-opacity="0.1"/>
</g>
<g filter="url(#filter3_i_605_4552)">
<path d="M24.5458 59.3188C26.8051 59.3188 28.6367 57.0294 28.6367 54.2052C28.6367 51.381 26.8051 49.0916 24.5458 49.0916C22.2864 49.0916 20.4548 51.381 20.4548 54.2052C20.4548 57.0294 22.2864 59.3188 24.5458 59.3188Z" fill="white" fill-opacity="0.1"/>
</g>
<g filter="url(#filter4_i_605_4552)">
<path d="M65.4552 59.3188C67.7145 59.3188 69.5461 57.0294 69.5461 54.2052C69.5461 51.381 67.7145 49.0916 65.4552 49.0916C63.1958 49.0916 61.3643 51.381 61.3643 54.2052C61.3643 57.0294 63.1958 59.3188 65.4552 59.3188Z" fill="white" fill-opacity="0.1"/>
</g>
<g filter="url(#filter5_i_605_4552)">
<path d="M33.7504 23.5231C36.5746 23.5231 38.864 22.1494 38.864 20.4549C38.864 18.7604 36.5746 17.3867 33.7504 17.3867C30.9262 17.3867 28.6367 18.7604 28.6367 20.4549C28.6367 22.1494 30.9262 23.5231 33.7504 23.5231Z" fill="white" fill-opacity="0.1"/>
</g>
<g filter="url(#filter6_i_605_4552)">
<path d="M56.2504 23.5231C59.0746 23.5231 61.364 22.1494 61.364 20.4549C61.364 18.7604 59.0746 17.3867 56.2504 17.3867C53.4262 17.3867 51.1367 18.7604 51.1367 20.4549C51.1367 22.1494 53.4262 23.5231 56.2504 23.5231Z" fill="white" fill-opacity="0.1"/>
</g>
<defs>
<filter id="filter0_bi_605_4552" x="-3.95459" y="-6" width="97.9094" height="102" filterUnits="userSpaceOnUse" color-interpolation-filters="sRGB">
<feFlood flood-opacity="0" result="BackgroundImageFix"/>
<feGaussianBlur in="BackgroundImageFix" stdDeviation="3"/>
<feComposite in2="SourceAlpha" operator="in" result="effect1_backgroundBlur_605_4552"/>
<feBlend mode="normal" in="SourceGraphic" in2="effect1_backgroundBlur_605_4552" result="shape"/>
<feColorMatrix in="SourceAlpha" type="matrix" values="0 0 0 0 0 0 0 0 0 0 0 0 0 0 0 0 0 0 127 0" result="hardAlpha"/>
<feOffset dy="2"/>
<feGaussianBlur stdDeviation="1.5"/>
<feComposite in2="hardAlpha" operator="arithmetic" k2="-1" k3="1"/>
<feColorMatrix type="matrix" values="0 0 0 0 1 0 0 0 0 1 0 0 0 0 1 0 0 0 0.15 0"/>
<feBlend mode="normal" in2="shape" result="effect2_innerShadow_605_4552"/>
</filter>
<filter id="filter1_i_605_4552" x="11.25" y="33.75" width="8.18188" height="12.2273" filterUnits="userSpaceOnUse" color-interpolation-filters="sRGB">
<feFlood flood-opacity="0" result="BackgroundImageFix"/>
<feBlend mode="normal" in="SourceGraphic" in2="BackgroundImageFix" result="shape"/>
<feColorMatrix in="SourceAlpha" type="matrix" values="0 0 0 0 0 0 0 0 0 0 0 0 0 0 0 0 0 0 127 0" result="hardAlpha"/>
<feOffset dy="2"/>
<feGaussianBlur stdDeviation="1"/>
<feComposite in2="hardAlpha" operator="arithmetic" k2="-1" k3="1"/>
<feColorMatrix type="matrix" values="0 0 0 0 1 0 0 0 0 1 0 0 0 0 1 0 0 0 0.4 0"/>
<feBlend mode="normal" in2="shape" result="effect1_innerShadow_605_4552"/>
</filter>
<filter id="filter2_i_605_4552" x="29.6594" y="64.4321" width="8.18188" height="12.2273" filterUnits="userSpaceOnUse" color-interpolation-filters="sRGB">
<feFlood flood-opacity="0" result="BackgroundImageFix"/>
<feBlend mode="normal" in="SourceGraphic" in2="BackgroundImageFix" result="shape"/>
<feColorMatrix in="SourceAlpha" type="matrix" values="0 0 0 0 0 0 0 0 0 0 0 0 0 0 0 0 0 0 127 0" result="hardAlpha"/>
<feOffset dy="2"/>
<feGaussianBlur stdDeviation="1"/>
<feComposite in2="hardAlpha" operator="arithmetic" k2="-1" k3="1"/>
<feColorMatrix type="matrix" values="0 0 0 0 1 0 0 0 0 1 0 0 0 0 1 0 0 0 0.4 0"/>
<feBlend mode="normal" in2="shape" result="effect1_innerShadow_605_4552"/>
</filter>
<filter id="filter3_i_605_4552" x="20.4548" y="49.0916" width="8.18188" height="12.2273" filterUnits="userSpaceOnUse" color-interpolation-filters="sRGB">
<feFlood flood-opacity="0" result="BackgroundImageFix"/>
<feBlend mode="normal" in="SourceGraphic" in2="BackgroundImageFix" result="shape"/>
<feColorMatrix in="SourceAlpha" type="matrix" values="0 0 0 0 0 0 0 0 0 0 0 0 0 0 0 0 0 0 127 0" result="hardAlpha"/>
<feOffset dy="2"/>
<feGaussianBlur stdDeviation="1"/>
<feComposite in2="hardAlpha" operator="arithmetic" k2="-1" k3="1"/>
<feColorMatrix type="matrix" values="0 0 0 0 1 0 0 0 0 1 0 0 0 0 1 0 0 0 0.4 0"/>
<feBlend mode="normal" in2="shape" result="effect1_innerShadow_605_4552"/>
</filter>
<filter id="filter4_i_605_4552" x="61.3643" y="49.0916" width="8.18188" height="12.2273" filterUnits="userSpaceOnUse" color-interpolation-filters="sRGB">
<feFlood flood-opacity="0" result="BackgroundImageFix"/>
<feBlend mode="normal" in="SourceGraphic" in2="BackgroundImageFix" result="shape"/>
<feColorMatrix in="SourceAlpha" type="matrix" values="0 0 0 0 0 0 0 0 0 0 0 0 0 0 0 0 0 0 127 0" result="hardAlpha"/>
<feOffset dy="2"/>
<feGaussianBlur stdDeviation="1"/>
<feComposite in2="hardAlpha" operator="arithmetic" k2="-1" k3="1"/>
<feColorMatrix type="matrix" values="0 0 0 0 1 0 0 0 0 1 0 0 0 0 1 0 0 0 0.4 0"/>
<feBlend mode="normal" in2="shape" result="effect1_innerShadow_605_4552"/>
</filter>
<filter id="filter5_i_605_4552" x="28.6367" y="17.3867" width="10.2273" height="8.13647" filterUnits="userSpaceOnUse" color-interpolation-filters="sRGB">
<feFlood flood-opacity="0" result="BackgroundImageFix"/>
<feBlend mode="normal" in="SourceGraphic" in2="BackgroundImageFix" result="shape"/>
<feColorMatrix in="SourceAlpha" type="matrix" values="0 0 0 0 0 0 0 0 0 0 0 0 0 0 0 0 0 0 127 0" result="hardAlpha"/>
<feOffset dy="2"/>
<feGaussianBlur stdDeviation="1"/>
<feComposite in2="hardAlpha" operator="arithmetic" k2="-1" k3="1"/>
<feColorMatrix type="matrix" values="0 0 0 0 1 0 0 0 0 1 0 0 0 0 1 0 0 0 0.4 0"/>
<feBlend mode="normal" in2="shape" result="effect1_innerShadow_605_4552"/>
</filter>
<filter id="filter6_i_605_4552" x="51.1367" y="17.3867" width="10.2273" height="8.13647" filterUnits="userSpaceOnUse" color-interpolation-filters="sRGB">
<feFlood flood-opacity="0" result="BackgroundImageFix"/>
<feBlend mode="normal" in="SourceGraphic" in2="BackgroundImageFix" result="shape"/>
<feColorMatrix in="SourceAlpha" type="matrix" values="0 0 0 0 0 0 0 0 0 0 0 0 0 0 0 0 0 0 127 0" result="hardAlpha"/>
<feOffset dy="2"/>
<feGaussianBlur stdDeviation="1"/>
<feComposite in2="hardAlpha" operator="arithmetic" k2="-1" k3="1"/>
<feColorMatrix type="matrix" values="0 0 0 0 1 0 0 0 0 1 0 0 0 0 1 0 0 0 0.4 0"/>
<feBlend mode="normal" in2="shape" result="effect1_innerShadow_605_4552"/>
</filter>
<linearGradient id="paint0_linear_605_4552" x1="16.3633" y1="15" x2="84.1939" y2="31.4406" gradientUnits="userSpaceOnUse">
<stop stop-color="#FFA39E"/>
<stop offset="1" stop-color="#F01E33"/>
</linearGradient>
<linearGradient id="paint1_linear_605_4552" x1="16.3633" y1="15" x2="84.1939" y2="31.4406" gradientUnits="userSpaceOnUse">
<stop stop-color="#FFA39E"/>
<stop offset="1" stop-color="#F01E33"/>
</linearGradient>
<linearGradient id="paint2_linear_605_4552" x1="16.3633" y1="15" x2="84.1939" y2="31.4406" gradientUnits="userSpaceOnUse">
<stop stop-color="#FFA39E"/>
<stop offset="1" stop-color="#F01E33"/>
</linearGradient>
<linearGradient id="paint3_linear_605_4552" x1="2.04541" y1="0" x2="103.791" y2="24.6609" gradientUnits="userSpaceOnUse">
<stop stop-color="#FFD580"/>
<stop offset="1" stop-color="#FF384C"/>
</linearGradient>
<linearGradient id="paint4_linear_605_4552" x1="2.04541" y1="0" x2="103.791" y2="24.6609" gradientUnits="userSpaceOnUse">
<stop stop-color="#FFD580"/>
<stop offset="1" stop-color="#FF384C"/>
</linearGradient>
<linearGradient id="paint5_linear_605_4552" x1="2.04541" y1="0" x2="103.791" y2="24.6609" gradientUnits="userSpaceOnUse">
<stop stop-color="#FFD580"/>
<stop offset="1" stop-color="#FF384C"/>
</linearGradient>
</defs>
</svg>
