<svg width="90" height="90" viewBox="0 0 90 90" fill="none" xmlns="http://www.w3.org/2000/svg">
<path d="M45.0002 84.1308C47.1613 84.1308 48.9132 82.3788 48.9132 80.2177C48.9132 78.0566 47.1613 76.3047 45.0002 76.3047C42.8391 76.3047 41.0872 78.0566 41.0872 80.2177C41.0872 82.3788 42.8391 84.1308 45.0002 84.1308Z" fill="url(#paint0_linear_605_4550)"/>
<path d="M69.7059 69.6194H20.2941C19.4413 69.6194 18.75 68.7545 18.75 67.6876V7.8012C18.75 6.73426 19.4413 5.86938 20.2941 5.86938H69.7059C70.5587 5.86938 71.25 6.73426 71.25 7.8012V67.6876C71.25 68.7545 70.5587 69.6194 69.7059 69.6194Z" fill="url(#paint1_linear_605_4550)"/>
<path d="M64.5657 19.5654H25.4353C24.3539 19.5654 23.4788 18.6893 23.4788 17.6089C23.4788 16.5285 24.3539 15.6523 25.4353 15.6523H64.5657C65.6471 15.6523 66.5223 16.5285 66.5223 17.6089C66.5223 18.6893 65.6471 19.5654 64.5657 19.5654Z" fill="url(#paint2_linear_605_4550)"/>
<path d="M64.5657 48.9132H25.4353C24.3539 48.9132 23.4788 48.0371 23.4788 46.9567C23.4788 45.8763 24.3539 45.0002 25.4353 45.0002H64.5657C65.6471 45.0002 66.5223 45.8763 66.5223 46.9567C66.5223 48.0371 65.6471 48.9132 64.5657 48.9132Z" fill="url(#paint3_linear_605_4550)"/>
<path d="M64.5657 29.348H25.4353C24.3539 29.348 23.4788 28.4719 23.4788 27.3915C23.4788 26.3111 24.3539 25.435 25.4353 25.435H64.5657C65.6471 25.435 66.5223 26.3111 66.5223 27.3915C66.5223 28.4719 65.6471 29.348 64.5657 29.348Z" fill="url(#paint4_linear_605_4550)"/>
<path d="M54.7831 39.1306H25.4353C24.3539 39.1306 23.4788 38.2545 23.4788 37.1741C23.4788 36.0937 24.3539 35.2176 25.4353 35.2176H54.7831C55.8645 35.2176 56.7396 36.0937 56.7396 37.1741C56.7396 38.2545 55.8645 39.1306 54.7831 39.1306Z" fill="url(#paint5_linear_605_4550)"/>
<path d="M39.1309 58.6958H25.4353C24.3539 58.6958 23.4788 57.8197 23.4788 56.7393C23.4788 55.6589 24.3539 54.7828 25.4353 54.7828H39.1309C40.2123 54.7828 41.0875 55.6589 41.0875 56.7393C41.0875 57.8197 40.2123 58.6958 39.1309 58.6958Z" fill="url(#paint6_linear_605_4550)"/>
<g filter="url(#filter0_bi_605_4550)">
<path d="M78.2607 0H11.739C8.49719 0 5.86938 2.62781 5.86938 5.86957V84.1305C5.86938 87.3722 8.49719 90 11.739 90H78.2607C81.5025 90 84.1303 87.3722 84.1303 84.1305V5.86957C84.1303 2.62781 81.5025 0 78.2607 0Z" fill="#1D1D1D" fill-opacity="0.05"/>
<path d="M78.2607 0H11.739C8.49719 0 5.86938 2.62781 5.86938 5.86957V84.1305C5.86938 87.3722 8.49719 90 11.739 90H78.2607C81.5025 90 84.1303 87.3722 84.1303 84.1305V5.86957C84.1303 2.62781 81.5025 0 78.2607 0Z" fill="url(#paint7_linear_605_4550)" fill-opacity="0.2"/>
<path d="M11.739 0.5625H78.2607C81.1918 0.5625 83.5678 2.93847 83.5678 5.86957V84.1305C83.5678 87.0616 81.1918 89.4375 78.2607 89.4375H11.739C8.80785 89.4375 6.43188 87.0616 6.43188 84.1305V5.86957C6.43188 2.93847 8.80785 0.5625 11.739 0.5625Z" stroke="url(#paint8_linear_605_4550)" stroke-opacity="0.1" stroke-width="1.125"/>
</g>
<g filter="url(#filter1_i_605_4550)">
<path d="M45.0002 84.1298C47.1613 84.1298 48.9132 82.3779 48.9132 80.2168C48.9132 78.0556 47.1613 76.3037 45.0002 76.3037C42.8391 76.3037 41.0872 78.0556 41.0872 80.2168C41.0872 82.3779 42.8391 84.1298 45.0002 84.1298Z" fill="url(#paint9_linear_605_4550)"/>
</g>
<g filter="url(#filter2_i_605_4550)">
<path d="M64.5648 19.5654H25.4343C24.3529 19.5654 23.4778 18.6893 23.4778 17.6089C23.4778 16.5285 24.3529 15.6523 25.4343 15.6523H64.5648C65.6461 15.6523 66.5213 16.5285 66.5213 17.6089C66.5213 18.6893 65.6461 19.5654 64.5648 19.5654Z" fill="white" fill-opacity="0.1"/>
<path d="M64.5648 48.9132H25.4343C24.3529 48.9132 23.4778 48.0371 23.4778 46.9567C23.4778 45.8763 24.3529 45.0002 25.4343 45.0002H64.5648C65.6461 45.0002 66.5213 45.8763 66.5213 46.9567C66.5213 48.0371 65.6461 48.9132 64.5648 48.9132Z" fill="white" fill-opacity="0.1"/>
<path d="M64.5648 29.348H25.4343C24.3529 29.348 23.4778 28.4719 23.4778 27.3915C23.4778 26.3111 24.3529 25.435 25.4343 25.435H64.5648C65.6461 25.435 66.5213 26.3111 66.5213 27.3915C66.5213 28.4719 65.6461 29.348 64.5648 29.348Z" fill="white" fill-opacity="0.1"/>
<path d="M54.7821 39.1306H25.4343C24.3529 39.1306 23.4778 38.2545 23.4778 37.1741C23.4778 36.0937 24.3529 35.2176 25.4343 35.2176H54.7821C55.8635 35.2176 56.7387 36.0937 56.7387 37.1741C56.7387 38.2545 55.8635 39.1306 54.7821 39.1306Z" fill="white" fill-opacity="0.1"/>
<path d="M39.13 58.6958H25.4343C24.3529 58.6958 23.4778 57.8197 23.4778 56.7393C23.4778 55.6589 24.3529 54.7828 25.4343 54.7828H39.13C40.2113 54.7828 41.0865 55.6589 41.0865 56.7393C41.0865 57.8197 40.2113 58.6958 39.13 58.6958Z" fill="white" fill-opacity="0.1"/>
</g>
<defs>
<filter id="filter0_bi_605_4550" x="-0.130615" y="-6" width="90.261" height="102" filterUnits="userSpaceOnUse" color-interpolation-filters="sRGB">
<feFlood flood-opacity="0" result="BackgroundImageFix"/>
<feGaussianBlur in="BackgroundImageFix" stdDeviation="3"/>
<feComposite in2="SourceAlpha" operator="in" result="effect1_backgroundBlur_605_4550"/>
<feBlend mode="normal" in="SourceGraphic" in2="effect1_backgroundBlur_605_4550" result="shape"/>
<feColorMatrix in="SourceAlpha" type="matrix" values="0 0 0 0 0 0 0 0 0 0 0 0 0 0 0 0 0 0 127 0" result="hardAlpha"/>
<feOffset dy="2"/>
<feGaussianBlur stdDeviation="1.5"/>
<feComposite in2="hardAlpha" operator="arithmetic" k2="-1" k3="1"/>
<feColorMatrix type="matrix" values="0 0 0 0 1 0 0 0 0 1 0 0 0 0 1 0 0 0 0.15 0"/>
<feBlend mode="normal" in2="shape" result="effect2_innerShadow_605_4550"/>
</filter>
<filter id="filter1_i_605_4550" x="41.0872" y="76.3037" width="7.82617" height="9.82617" filterUnits="userSpaceOnUse" color-interpolation-filters="sRGB">
<feFlood flood-opacity="0" result="BackgroundImageFix"/>
<feBlend mode="normal" in="SourceGraphic" in2="BackgroundImageFix" result="shape"/>
<feColorMatrix in="SourceAlpha" type="matrix" values="0 0 0 0 0 0 0 0 0 0 0 0 0 0 0 0 0 0 127 0" result="hardAlpha"/>
<feOffset dy="2"/>
<feGaussianBlur stdDeviation="1"/>
<feComposite in2="hardAlpha" operator="arithmetic" k2="-1" k3="1"/>
<feColorMatrix type="matrix" values="0 0 0 0 1 0 0 0 0 1 0 0 0 0 1 0 0 0 0.1 0"/>
<feBlend mode="normal" in2="shape" result="effect1_innerShadow_605_4550"/>
</filter>
<filter id="filter2_i_605_4550" x="23.4778" y="15.6523" width="43.0435" height="45.0435" filterUnits="userSpaceOnUse" color-interpolation-filters="sRGB">
<feFlood flood-opacity="0" result="BackgroundImageFix"/>
<feBlend mode="normal" in="SourceGraphic" in2="BackgroundImageFix" result="shape"/>
<feColorMatrix in="SourceAlpha" type="matrix" values="0 0 0 0 0 0 0 0 0 0 0 0 0 0 0 0 0 0 127 0" result="hardAlpha"/>
<feOffset dy="2"/>
<feGaussianBlur stdDeviation="1"/>
<feComposite in2="hardAlpha" operator="arithmetic" k2="-1" k3="1"/>
<feColorMatrix type="matrix" values="0 0 0 0 1 0 0 0 0 1 0 0 0 0 1 0 0 0 0.1 0"/>
<feBlend mode="normal" in2="shape" result="effect1_innerShadow_605_4550"/>
</filter>
<linearGradient id="paint0_linear_605_4550" x1="41.0872" y1="76.3047" x2="50.3061" y2="78.6455" gradientUnits="userSpaceOnUse">
<stop stop-color="#FFA39E"/>
<stop offset="1" stop-color="#F01E33"/>
</linearGradient>
<linearGradient id="paint1_linear_605_4550" x1="18.75" y1="5.86938" x2="81.8228" y2="19.0585" gradientUnits="userSpaceOnUse">
<stop stop-color="#FFA39E"/>
<stop offset="1" stop-color="#F01E33"/>
</linearGradient>
<linearGradient id="paint2_linear_605_4550" x1="23.4788" y1="15.6523" x2="74.1827" y2="28.527" gradientUnits="userSpaceOnUse">
<stop stop-color="#FFA39E"/>
<stop offset="1" stop-color="#F01E33"/>
</linearGradient>
<linearGradient id="paint3_linear_605_4550" x1="23.4788" y1="15.6523" x2="74.1827" y2="28.527" gradientUnits="userSpaceOnUse">
<stop stop-color="#FFA39E"/>
<stop offset="1" stop-color="#F01E33"/>
</linearGradient>
<linearGradient id="paint4_linear_605_4550" x1="23.4788" y1="15.6523" x2="74.1827" y2="28.527" gradientUnits="userSpaceOnUse">
<stop stop-color="#FFA39E"/>
<stop offset="1" stop-color="#F01E33"/>
</linearGradient>
<linearGradient id="paint5_linear_605_4550" x1="23.4788" y1="15.6523" x2="74.1827" y2="28.527" gradientUnits="userSpaceOnUse">
<stop stop-color="#FFA39E"/>
<stop offset="1" stop-color="#F01E33"/>
</linearGradient>
<linearGradient id="paint6_linear_605_4550" x1="23.4788" y1="15.6523" x2="74.1827" y2="28.527" gradientUnits="userSpaceOnUse">
<stop stop-color="#FFA39E"/>
<stop offset="1" stop-color="#F01E33"/>
</linearGradient>
<linearGradient id="paint7_linear_605_4550" x1="5.86938" y1="0" x2="99.4404" y2="20.6604" gradientUnits="userSpaceOnUse">
<stop stop-color="#FFD580"/>
<stop offset="1" stop-color="#FF384C"/>
</linearGradient>
<linearGradient id="paint8_linear_605_4550" x1="8.31504" y1="4.09091" x2="84.1303" y2="4.09091" gradientUnits="userSpaceOnUse">
<stop stop-color="#FFD580"/>
<stop offset="1" stop-color="#E65A53"/>
</linearGradient>
<linearGradient id="paint9_linear_605_4550" x1="41.0872" y1="76.3037" x2="50.3061" y2="78.6446" gradientUnits="userSpaceOnUse">
<stop stop-color="#FFA39E"/>
<stop offset="1" stop-color="#F01E33"/>
</linearGradient>
</defs>
</svg>
