<svg width="256" height="256" viewBox="0 0 256 256" fill="none" xmlns="http://www.w3.org/2000/svg">
<g clip-path="url(#clip0_1_266)">
<g filter="url(#filter0_b_1_266)">
<path d="M21 64C21 41.9086 38.9086 24 61 24H191.58C213.672 24 231.58 41.9086 231.58 64V191C231.58 213.091 213.672 231 191.58 231H61C38.9086 231 21 213.091 21 191V64Z" fill="#313036" fill-opacity="0.3"/>
<path d="M21 64C21 41.9086 38.9086 24 61 24H191.58C213.672 24 231.58 41.9086 231.58 64V191C231.58 213.091 213.672 231 191.58 231H61C38.9086 231 21 213.091 21 191V64Z" fill="url(#paint0_linear_1_266)"/>
<path d="M22 64C22 42.4609 39.4609 25 61 25H191.58C213.119 25 230.58 42.4609 230.58 64V191C230.58 212.539 213.119 230 191.58 230H61C39.4609 230 22 212.539 22 191V64Z" stroke="url(#paint1_linear_1_266)" stroke-width="2"/>
</g>
<path d="M103.167 203C117.059 203 128.333 191.726 128.333 177.834V152.667H103.167C89.2747 152.667 78 163.942 78 177.834C78 191.726 89.2747 203 103.167 203Z" fill="#5FCB89"/>
<path d="M127.833 177.834C127.833 191.45 116.783 202.5 103.167 202.5C89.5508 202.5 78.5 191.45 78.5 177.834C78.5 164.218 89.5508 153.167 103.167 153.167H127.833V177.834Z" stroke="white" stroke-opacity="0.2"/>
<path d="M78 127.5C78 113.608 89.2747 102.333 103.167 102.333H128.333V152.667H103.167C89.2747 152.667 78 141.392 78 127.5Z" fill="#9763F6"/>
<path d="M78.5 127.5C78.5 113.884 89.5508 102.833 103.167 102.833H127.833V152.167H103.167C89.5508 152.167 78.5 141.116 78.5 127.5Z" stroke="white" stroke-opacity="0.2"/>
<path d="M78 77.1667C78 63.2747 89.2747 52 103.167 52H128.333V102.333H103.167C89.2747 102.333 78 91.0587 78 77.1667Z" fill="#E15933"/>
<path d="M78.5 77.1667C78.5 63.5508 89.5508 52.5 103.167 52.5H127.833V101.833H103.167C89.5508 101.833 78.5 90.7825 78.5 77.1667Z" stroke="white" stroke-opacity="0.2"/>
<path d="M128.334 52H153.501C167.393 52 178.667 63.2747 178.667 77.1667C178.667 91.0587 167.393 102.333 153.501 102.333H128.334V52Z" fill="#EF7A69"/>
<path d="M128.834 52.5H153.501C167.117 52.5 178.167 63.5508 178.167 77.1667C178.167 90.7825 167.117 101.833 153.501 101.833H128.834V52.5Z" stroke="white" stroke-opacity="0.2"/>
<path d="M178.667 127.5C178.667 141.392 167.393 152.667 153.501 152.667C139.609 152.667 128.334 141.392 128.334 127.5C128.334 113.608 139.609 102.333 153.501 102.333C167.393 102.333 178.667 113.608 178.667 127.5Z" fill="#55BBF8"/>
<path d="M178.167 127.5C178.167 141.116 167.117 152.167 153.501 152.167C139.885 152.167 128.834 141.116 128.834 127.5C128.834 113.884 139.885 102.833 153.501 102.833C167.117 102.833 178.167 113.884 178.167 127.5Z" stroke="white" stroke-opacity="0.2"/>
</g>
<defs>
<filter id="filter0_b_1_266" x="17" y="20" width="218.58" height="215" filterUnits="userSpaceOnUse" color-interpolation-filters="sRGB">
<feFlood flood-opacity="0" result="BackgroundImageFix"/>
<feGaussianBlur in="BackgroundImageFix" stdDeviation="2"/>
<feComposite in2="SourceAlpha" operator="in" result="effect1_backgroundBlur_1_266"/>
<feBlend mode="normal" in="SourceGraphic" in2="effect1_backgroundBlur_1_266" result="shape"/>
</filter>
<linearGradient id="paint0_linear_1_266" x1="31.3661" y1="35.4893" x2="123.667" y2="232.231" gradientUnits="userSpaceOnUse">
<stop stop-color="#797583" stop-opacity="0.2"/>
<stop offset="1" stop-color="#363567" stop-opacity="0.2"/>
</linearGradient>
<linearGradient id="paint1_linear_1_266" x1="-23.3622" y1="9.08682" x2="39.124" y2="253.156" gradientUnits="userSpaceOnUse">
<stop stop-opacity="0.2"/>
<stop offset="1" stop-color="white" stop-opacity="0"/>
</linearGradient>
<clipPath id="clip0_1_266">
<rect width="256" height="256" fill="white"/>
</clipPath>
</defs>
</svg>
