<svg width="240" height="240" viewBox="0 0 240 240" fill="none" xmlns="http://www.w3.org/2000/svg">
<g filter="url(#filter0_d_1_112)">
<path d="M188.612 147.244L63.1982 180.848C52.5289 183.707 41.5621 177.376 38.7033 166.706L20.8612 100.119C18.0024 89.4494 24.334 78.4826 35.0033 75.6238L160.417 42.0192C171.087 39.1604 182.053 45.492 184.912 56.1614L202.754 122.749C205.613 133.418 199.281 144.385 188.612 147.244Z" fill="url(#paint0_linear_1_112)"/>
</g>
<mask id="mask0_1_112" style="mask-type:alpha" maskUnits="userSpaceOnUse" x="20" y="41" width="184" height="141">
<path d="M188.612 147.244L63.1982 180.848C52.5289 183.707 41.5621 177.376 38.7033 166.706L20.8612 100.119C18.0024 89.4494 24.334 78.4826 35.0033 75.6238L160.417 42.0192C171.087 39.1604 182.053 45.492 184.912 56.1614L202.754 122.749C205.613 133.418 199.281 144.385 188.612 147.244Z" fill="url(#paint1_linear_1_112)"/>
</mask>
<g mask="url(#mask0_1_112)">
<g filter="url(#filter1_bdii_1_112)">
<path d="M200 195H40.0001C28.9544 195 20.0001 186.046 20.0001 175V165V135V105V95C20.0001 83.9543 28.9544 75 40.0001 75H200C211.046 75 220 83.9543 220 95V101.754C220 103.904 219.654 106.04 218.974 108.079L212.108 128.675C210.74 132.781 210.74 137.219 212.108 141.325L218.974 161.921C219.654 163.96 220 166.096 220 168.246V175C220 186.046 211.046 195 200 195Z" fill="url(#paint2_linear_1_112)"/>
</g>
</g>
<g filter="url(#filter2_bii_1_112)">
<path d="M200 195H40C28.9543 195 20 186.046 20 175V165V135V105V95C20 83.9543 28.9543 75 40 75H200C211.046 75 220 83.9543 220 95V101.754C220 103.904 219.653 106.04 218.974 108.079L212.108 128.675C210.74 132.781 210.74 137.219 212.108 141.325L218.974 161.921C219.653 163.96 220 166.096 220 168.246V175C220 186.046 211.046 195 200 195Z" fill="url(#paint3_linear_1_112)" fill-opacity="0.1"/>
</g>
<g opacity="0.5" filter="url(#filter3_b_1_112)">
<rect x="44" y="170" width="70" height="20" rx="10" transform="rotate(-90 44 170)" fill="white"/>
</g>
<defs>
<filter id="filter0_d_1_112" x="10.1748" y="19.3328" width="215.266" height="172.202" filterUnits="userSpaceOnUse" color-interpolation-filters="sRGB">
<feFlood flood-opacity="0" result="BackgroundImageFix"/>
<feColorMatrix in="SourceAlpha" type="matrix" values="0 0 0 0 0 0 0 0 0 0 0 0 0 0 0 0 0 0 127 0" result="hardAlpha"/>
<feOffset dx="6" dy="-6"/>
<feGaussianBlur stdDeviation="8"/>
<feColorMatrix type="matrix" values="0 0 0 0 0.643137 0 0 0 0 0.701961 0 0 0 0 1 0 0 0 0.2 0"/>
<feBlend mode="normal" in2="BackgroundImageFix" result="effect1_dropShadow_1_112"/>
<feBlend mode="normal" in="SourceGraphic" in2="effect1_dropShadow_1_112" result="shape"/>
</filter>
<filter id="filter1_bdii_1_112" x="0.00012207" y="55" width="240" height="160" filterUnits="userSpaceOnUse" color-interpolation-filters="sRGB">
<feFlood flood-opacity="0" result="BackgroundImageFix"/>
<feGaussianBlur in="BackgroundImageFix" stdDeviation="10"/>
<feComposite in2="SourceAlpha" operator="in" result="effect1_backgroundBlur_1_112"/>
<feColorMatrix in="SourceAlpha" type="matrix" values="0 0 0 0 0 0 0 0 0 0 0 0 0 0 0 0 0 0 127 0" result="hardAlpha"/>
<feOffset dx="6" dy="-6"/>
<feGaussianBlur stdDeviation="6"/>
<feColorMatrix type="matrix" values="0 0 0 0 0.643137 0 0 0 0 0.701961 0 0 0 0 1 0 0 0 0.5 0"/>
<feBlend mode="normal" in2="effect1_backgroundBlur_1_112" result="effect2_dropShadow_1_112"/>
<feBlend mode="normal" in="SourceGraphic" in2="effect2_dropShadow_1_112" result="shape"/>
<feColorMatrix in="SourceAlpha" type="matrix" values="0 0 0 0 0 0 0 0 0 0 0 0 0 0 0 0 0 0 127 0" result="hardAlpha"/>
<feOffset dy="10"/>
<feGaussianBlur stdDeviation="5"/>
<feComposite in2="hardAlpha" operator="arithmetic" k2="-1" k3="1"/>
<feColorMatrix type="matrix" values="0 0 0 0 1 0 0 0 0 1 0 0 0 0 1 0 0 0 0.15 0"/>
<feBlend mode="normal" in2="shape" result="effect3_innerShadow_1_112"/>
<feColorMatrix in="SourceAlpha" type="matrix" values="0 0 0 0 0 0 0 0 0 0 0 0 0 0 0 0 0 0 127 0" result="hardAlpha"/>
<feOffset dy="-10"/>
<feGaussianBlur stdDeviation="5"/>
<feComposite in2="hardAlpha" operator="arithmetic" k2="-1" k3="1"/>
<feColorMatrix type="matrix" values="0 0 0 0 0.643137 0 0 0 0 0.701961 0 0 0 0 1 0 0 0 0.15 0"/>
<feBlend mode="normal" in2="effect3_innerShadow_1_112" result="effect4_innerShadow_1_112"/>
</filter>
<filter id="filter2_bii_1_112" x="0" y="55" width="240" height="160" filterUnits="userSpaceOnUse" color-interpolation-filters="sRGB">
<feFlood flood-opacity="0" result="BackgroundImageFix"/>
<feGaussianBlur in="BackgroundImageFix" stdDeviation="10"/>
<feComposite in2="SourceAlpha" operator="in" result="effect1_backgroundBlur_1_112"/>
<feBlend mode="normal" in="SourceGraphic" in2="effect1_backgroundBlur_1_112" result="shape"/>
<feColorMatrix in="SourceAlpha" type="matrix" values="0 0 0 0 0 0 0 0 0 0 0 0 0 0 0 0 0 0 127 0" result="hardAlpha"/>
<feOffset dy="10"/>
<feGaussianBlur stdDeviation="5"/>
<feComposite in2="hardAlpha" operator="arithmetic" k2="-1" k3="1"/>
<feColorMatrix type="matrix" values="0 0 0 0 1 0 0 0 0 1 0 0 0 0 1 0 0 0 0.15 0"/>
<feBlend mode="normal" in2="shape" result="effect2_innerShadow_1_112"/>
<feColorMatrix in="SourceAlpha" type="matrix" values="0 0 0 0 0 0 0 0 0 0 0 0 0 0 0 0 0 0 127 0" result="hardAlpha"/>
<feOffset dy="-10"/>
<feGaussianBlur stdDeviation="5"/>
<feComposite in2="hardAlpha" operator="arithmetic" k2="-1" k3="1"/>
<feColorMatrix type="matrix" values="0 0 0 0 0.643137 0 0 0 0 0.701961 0 0 0 0 1 0 0 0 0.15 0"/>
<feBlend mode="normal" in2="effect2_innerShadow_1_112" result="effect3_innerShadow_1_112"/>
</filter>
<filter id="filter3_b_1_112" x="24" y="80" width="60" height="110" filterUnits="userSpaceOnUse" color-interpolation-filters="sRGB">
<feFlood flood-opacity="0" result="BackgroundImageFix"/>
<feGaussianBlur in="BackgroundImageFix" stdDeviation="10"/>
<feComposite in2="SourceAlpha" operator="in" result="effect1_backgroundBlur_1_112"/>
<feBlend mode="normal" in="SourceGraphic" in2="effect1_backgroundBlur_1_112" result="shape"/>
</filter>
<linearGradient id="paint0_linear_1_112" x1="195.126" y1="85.784" x2="32.702" y2="136.507" gradientUnits="userSpaceOnUse">
<stop stop-color="#FFABBC"/>
<stop offset="1" stop-color="#A4B3FF"/>
<stop offset="1" stop-color="#A4B3FF"/>
</linearGradient>
<linearGradient id="paint1_linear_1_112" x1="195.126" y1="85.784" x2="32.702" y2="136.507" gradientUnits="userSpaceOnUse">
<stop stop-color="#FFABBC"/>
<stop offset="1" stop-color="#A4B3FF"/>
</linearGradient>
<linearGradient id="paint2_linear_1_112" x1="222.589" y1="131.462" x2="22.426" y2="140.217" gradientUnits="userSpaceOnUse">
<stop stop-color="#FFABBC"/>
<stop offset="1" stop-color="#A4B3FF"/>
<stop offset="1" stop-color="#A4B3FF"/>
</linearGradient>
<linearGradient id="paint3_linear_1_112" x1="222.589" y1="131.462" x2="22.4259" y2="140.217" gradientUnits="userSpaceOnUse">
<stop stop-color="#FFABBC"/>
<stop offset="1" stop-color="#A4B3FF"/>
</linearGradient>
</defs>
</svg>
