<svg width="168" height="169" viewBox="0 0 168 169" fill="none" xmlns="http://www.w3.org/2000/svg">
<g filter="url(#filter0_f_1_285)">
<rect x="23.1299" y="129.978" width="121.119" height="26.3955" rx="12" fill="#0082F7"/>
</g>
<g filter="url(#filter1_f_1_285)">
<rect x="26.1182" y="129.676" width="115.143" height="22.998" rx="11.499" fill="#BBF7FE"/>
</g>
<g filter="url(#filter2_bii_1_285)">
<rect x="23.1299" y="74.1201" width="51.3838" height="70.7202" rx="12" fill="#0082F7"/>
</g>
<g filter="url(#filter3_f_1_285)">
<rect x="25.3652" y="77.1963" width="42.0283" height="64.5679" rx="12" fill="#5EC5FF"/>
</g>
<g filter="url(#filter4_bii_1_285)">
<rect x="41.4814" y="19.0635" width="102.768" height="125.777" rx="17" fill="#0082F7"/>
</g>
<g filter="url(#filter5_f_1_285)">
<rect x="44.4707" y="22.7215" width="96.7899" height="118.461" rx="16" fill="#5EC5FF"/>
</g>
<mask id="mask0_1_285" style="mask-type:alpha" maskUnits="userSpaceOnUse" x="47" y="27" width="91" height="112">
<rect x="47.6709" y="27.9813" width="89.7832" height="110.508" rx="12" fill="#5EC5FF"/>
</mask>
<g mask="url(#mask0_1_285)">
<g filter="url(#filter6_f_1_285)">
<rect x="23.1299" y="74.1201" width="45.7998" height="70.7202" rx="12" fill="#0082F7"/>
</g>
</g>
<g filter="url(#filter7_d_1_285)">
<path d="M68.6117 57.3823C63.756 62.3105 63.5744 70.301 68.4289 75.228L78.5183 85.468C79.6085 86.5745 81.3761 86.5744 82.4663 85.468C83.5565 84.3615 83.5565 82.5675 82.4663 81.461L72.377 71.2211C69.8019 68.6076 69.784 64.2064 72.5597 61.3892C75.3355 58.572 79.672 58.5903 82.247 61.2037L94.0179 73.1503L94.0358 73.1683C96.593 75.784 96.6044 80.1713 93.8351 82.9819C92.7449 84.0884 92.7449 85.8823 93.8351 86.9888C94.9253 88.0953 96.6929 88.0953 97.7831 86.9888C102.639 82.0606 102.82 74.0701 97.9659 69.1431L97.9444 69.1216L86.195 57.1968C81.3404 52.2698 73.4675 52.4541 68.6117 57.3823Z" fill="url(#paint0_linear_1_285)"/>
<path d="M117.173 106.622C112.317 111.55 104.444 111.734 99.5893 106.807L87.8183 94.8605C87.7886 94.8303 87.7597 94.7996 87.7316 94.7684C87.699 94.7383 87.6671 94.7074 87.6356 94.6755C82.7811 89.7484 82.9627 81.758 87.8184 76.8298C88.9086 75.7233 90.6762 75.7233 91.7664 76.8298C92.8566 77.9362 92.8566 79.7302 91.7664 80.8367C88.9907 83.6539 89.0086 88.0551 91.5836 90.6685C91.6134 90.6987 91.6423 90.7294 91.6704 90.7606C91.703 90.7907 91.7349 90.8216 91.7664 90.8535L103.537 102.8C106.112 105.414 110.449 105.432 113.225 102.615C116 99.7974 115.982 95.3963 113.407 92.7828L103.318 82.5428C102.228 81.4364 102.228 79.6424 103.318 78.5359C104.408 77.4294 106.176 77.4294 107.266 78.5359L117.355 88.7759C122.21 93.7029 122.028 101.693 117.173 106.622Z" fill="url(#paint1_linear_1_285)"/>
<path d="M94.3934 72.8188L94.3904 72.8158L94.3741 72.7994L94.3725 72.7978L82.6032 60.8528C79.8244 58.0325 75.1672 58.0305 72.2036 61.0383C69.2437 64.0424 69.2464 68.7562 72.0208 71.572L82.1102 81.812C83.0086 82.7238 83.0086 84.2052 82.1102 85.117C81.2158 86.0248 79.7688 86.0248 78.8745 85.117L68.7851 74.8771C64.1315 70.154 64.2946 62.4763 68.9679 57.7332C73.6375 52.9939 81.1897 52.8292 85.8388 57.5477L97.5883 69.4725L97.5901 69.4744L97.6097 69.494C97.61 69.4943 97.6103 69.4946 97.6106 69.4949C102.263 74.218 102.1 81.8952 97.4269 86.6379C96.5326 87.5456 95.0856 87.5456 94.1912 86.6379C93.2928 85.7261 93.2928 84.2447 94.1912 83.3328C97.1443 80.3357 97.1484 75.6369 94.3933 72.8188L94.3934 72.8188ZM88.1029 94.4335C88.0927 94.4223 88.0821 94.4115 88.0709 94.4012C88.0442 94.3765 88.0178 94.3509 87.9918 94.3246C83.3382 89.6015 83.5013 81.9237 88.1746 77.1807C89.0689 76.273 90.5159 76.273 91.4103 77.1807C92.3087 78.0925 92.3087 79.5739 91.4103 80.4858C88.4504 83.4898 88.4531 88.2037 91.2275 91.0195L91.5836 90.6685L91.2275 91.0195C91.2521 91.0444 91.2759 91.0697 91.2991 91.0955C91.3093 91.1067 91.3199 91.1175 91.3311 91.1278C91.3579 91.1526 91.3842 91.1781 91.4102 91.2045L103.181 103.151C105.96 105.971 110.617 105.973 113.581 102.966C116.541 99.9615 116.538 95.2477 113.763 92.4319L103.674 82.1919C102.776 81.2801 102.776 79.7987 103.674 78.8868C104.568 77.9791 106.015 77.9791 106.91 78.8868L116.999 89.1268C121.653 93.8498 121.49 101.528 116.816 106.271C112.147 111.01 104.595 111.175 99.9454 106.456L88.1745 94.5095C88.1499 94.4846 88.126 94.4592 88.1029 94.4335Z" stroke="#F4F9FF" stroke-miterlimit="10" stroke-linecap="round" stroke-linejoin="round"/>
</g>
<defs>
<filter id="filter0_f_1_285" x="15.1299" y="121.978" width="137.119" height="42.3955" filterUnits="userSpaceOnUse" color-interpolation-filters="sRGB">
<feFlood flood-opacity="0" result="BackgroundImageFix"/>
<feBlend mode="normal" in="SourceGraphic" in2="BackgroundImageFix" result="shape"/>
<feGaussianBlur stdDeviation="4" result="effect1_foregroundBlur_1_285"/>
</filter>
<filter id="filter1_f_1_285" x="18.1182" y="121.676" width="131.143" height="38.998" filterUnits="userSpaceOnUse" color-interpolation-filters="sRGB">
<feFlood flood-opacity="0" result="BackgroundImageFix"/>
<feBlend mode="normal" in="SourceGraphic" in2="BackgroundImageFix" result="shape"/>
<feGaussianBlur stdDeviation="4" result="effect1_foregroundBlur_1_285"/>
</filter>
<filter id="filter2_bii_1_285" x="17.1299" y="68.1201" width="63.3838" height="82.7202" filterUnits="userSpaceOnUse" color-interpolation-filters="sRGB">
<feFlood flood-opacity="0" result="BackgroundImageFix"/>
<feGaussianBlur in="BackgroundImageFix" stdDeviation="3"/>
<feComposite in2="SourceAlpha" operator="in" result="effect1_backgroundBlur_1_285"/>
<feBlend mode="normal" in="SourceGraphic" in2="effect1_backgroundBlur_1_285" result="shape"/>
<feColorMatrix in="SourceAlpha" type="matrix" values="0 0 0 0 0 0 0 0 0 0 0 0 0 0 0 0 0 0 127 0" result="hardAlpha"/>
<feOffset dy="2"/>
<feGaussianBlur stdDeviation="1.5"/>
<feComposite in2="hardAlpha" operator="arithmetic" k2="-1" k3="1"/>
<feColorMatrix type="matrix" values="0 0 0 0 0.368627 0 0 0 0 0.772549 0 0 0 0 1 0 0 0 1 0"/>
<feBlend mode="normal" in2="shape" result="effect2_innerShadow_1_285"/>
<feColorMatrix in="SourceAlpha" type="matrix" values="0 0 0 0 0 0 0 0 0 0 0 0 0 0 0 0 0 0 127 0" result="hardAlpha"/>
<feOffset/>
<feGaussianBlur stdDeviation="1"/>
<feComposite in2="hardAlpha" operator="arithmetic" k2="-1" k3="1"/>
<feColorMatrix type="matrix" values="0 0 0 0 0.368627 0 0 0 0 0.772549 0 0 0 0 1 0 0 0 1 0"/>
<feBlend mode="normal" in2="effect2_innerShadow_1_285" result="effect3_innerShadow_1_285"/>
</filter>
<filter id="filter3_f_1_285" x="21.3652" y="73.1963" width="50.0283" height="72.5679" filterUnits="userSpaceOnUse" color-interpolation-filters="sRGB">
<feFlood flood-opacity="0" result="BackgroundImageFix"/>
<feBlend mode="normal" in="SourceGraphic" in2="BackgroundImageFix" result="shape"/>
<feGaussianBlur stdDeviation="2" result="effect1_foregroundBlur_1_285"/>
</filter>
<filter id="filter4_bii_1_285" x="35.4814" y="13.0635" width="114.768" height="137.777" filterUnits="userSpaceOnUse" color-interpolation-filters="sRGB">
<feFlood flood-opacity="0" result="BackgroundImageFix"/>
<feGaussianBlur in="BackgroundImageFix" stdDeviation="3"/>
<feComposite in2="SourceAlpha" operator="in" result="effect1_backgroundBlur_1_285"/>
<feBlend mode="normal" in="SourceGraphic" in2="effect1_backgroundBlur_1_285" result="shape"/>
<feColorMatrix in="SourceAlpha" type="matrix" values="0 0 0 0 0 0 0 0 0 0 0 0 0 0 0 0 0 0 127 0" result="hardAlpha"/>
<feOffset dy="2"/>
<feGaussianBlur stdDeviation="1.5"/>
<feComposite in2="hardAlpha" operator="arithmetic" k2="-1" k3="1"/>
<feColorMatrix type="matrix" values="0 0 0 0 0.368627 0 0 0 0 0.772549 0 0 0 0 1 0 0 0 1 0"/>
<feBlend mode="normal" in2="shape" result="effect2_innerShadow_1_285"/>
<feColorMatrix in="SourceAlpha" type="matrix" values="0 0 0 0 0 0 0 0 0 0 0 0 0 0 0 0 0 0 127 0" result="hardAlpha"/>
<feOffset/>
<feGaussianBlur stdDeviation="1"/>
<feComposite in2="hardAlpha" operator="arithmetic" k2="-1" k3="1"/>
<feColorMatrix type="matrix" values="0 0 0 0 0.368627 0 0 0 0 0.772549 0 0 0 0 1 0 0 0 1 0"/>
<feBlend mode="normal" in2="effect2_innerShadow_1_285" result="effect3_innerShadow_1_285"/>
</filter>
<filter id="filter5_f_1_285" x="39.4707" y="17.7215" width="106.79" height="128.461" filterUnits="userSpaceOnUse" color-interpolation-filters="sRGB">
<feFlood flood-opacity="0" result="BackgroundImageFix"/>
<feBlend mode="normal" in="SourceGraphic" in2="BackgroundImageFix" result="shape"/>
<feGaussianBlur stdDeviation="2.5" result="effect1_foregroundBlur_1_285"/>
</filter>
<filter id="filter6_f_1_285" x="18.1299" y="69.1201" width="55.7998" height="80.7202" filterUnits="userSpaceOnUse" color-interpolation-filters="sRGB">
<feFlood flood-opacity="0" result="BackgroundImageFix"/>
<feBlend mode="normal" in="SourceGraphic" in2="BackgroundImageFix" result="shape"/>
<feGaussianBlur stdDeviation="2.5" result="effect1_foregroundBlur_1_285"/>
</filter>
<filter id="filter7_d_1_285" x="56.8777" y="47.5925" width="72.0289" height="72.8188" filterUnits="userSpaceOnUse" color-interpolation-filters="sRGB">
<feFlood flood-opacity="0" result="BackgroundImageFix"/>
<feColorMatrix in="SourceAlpha" type="matrix" values="0 0 0 0 0 0 0 0 0 0 0 0 0 0 0 0 0 0 127 0" result="hardAlpha"/>
<feOffset dy="2"/>
<feGaussianBlur stdDeviation="4"/>
<feComposite in2="hardAlpha" operator="out"/>
<feColorMatrix type="matrix" values="0 0 0 0 0.246458 0 0 0 0 0.673189 0 0 0 0 0.938889 0 0 0 1 0"/>
<feBlend mode="normal" in2="BackgroundImageFix" result="effect1_dropShadow_1_285"/>
<feBlend mode="normal" in="SourceGraphic" in2="effect1_dropShadow_1_285" result="shape"/>
</filter>
<linearGradient id="paint0_linear_1_285" x1="92.8921" y1="53.5925" x2="92.8921" y2="110.411" gradientUnits="userSpaceOnUse">
<stop stop-color="#DFE6F1"/>
<stop offset="1" stop-color="#EAF2FF"/>
</linearGradient>
<linearGradient id="paint1_linear_1_285" x1="92.8921" y1="53.5925" x2="92.8921" y2="110.411" gradientUnits="userSpaceOnUse">
<stop stop-color="#DFE6F1"/>
<stop offset="1" stop-color="#EAF2FF"/>
</linearGradient>
</defs>
</svg>
