<svg width="168" height="169" viewBox="0 0 168 169" fill="none" xmlns="http://www.w3.org/2000/svg">
<g filter="url(#filter0_f_1_402)">
<rect x="23.1299" y="129.978" width="121.119" height="26.3955" rx="12" fill="#F74E00"/>
</g>
<g filter="url(#filter1_f_1_402)">
<rect x="26.1182" y="129.676" width="115.143" height="22.998" rx="11.499" fill="#FEFEBB"/>
</g>
<g filter="url(#filter2_bii_1_402)">
<rect x="23.1299" y="74.1201" width="51.3838" height="70.7202" rx="12" fill="#F74E00"/>
</g>
<g filter="url(#filter3_f_1_402)">
<rect x="25.3652" y="77.1963" width="42.0283" height="64.5679" rx="12" fill="#FFA77E"/>
</g>
<g filter="url(#filter4_bii_1_402)">
<rect x="41.4814" y="19.0635" width="102.768" height="125.777" rx="17" fill="#F74E00"/>
</g>
<g filter="url(#filter5_f_1_402)">
<rect x="44.4707" y="22.7215" width="96.7899" height="118.461" rx="16" fill="#FFA77E"/>
</g>
<mask id="mask0_1_402" style="mask-type:alpha" maskUnits="userSpaceOnUse" x="47" y="27" width="91" height="112">
<rect x="47.6709" y="27.9813" width="89.7832" height="110.508" rx="12" fill="#5EC5FF"/>
</mask>
<g mask="url(#mask0_1_402)">
<g filter="url(#filter6_f_1_402)">
<rect x="23.1299" y="74.1201" width="45.7998" height="70.7202" rx="12" fill="#F74E00"/>
</g>
</g>
<g filter="url(#filter7_d_1_402)">
<path fill-rule="evenodd" clip-rule="evenodd" d="M90.0736 56.6078C77.5112 58.0172 67.7403 68.8266 67.7403 81.9521C67.7403 96.0354 78.9891 107.452 92.8653 107.452C105.798 107.452 116.448 97.5353 117.837 84.7855H92.8653C91.3235 84.7855 90.0736 83.5169 90.0736 81.9521V56.6078ZM62.1569 81.9521C62.1569 64.7393 75.9055 50.7855 92.8653 50.7855C94.4071 50.7855 95.6569 52.054 95.6569 53.6188V79.1188H120.782C122.324 79.1188 123.574 80.3873 123.574 81.9521C123.574 99.165 109.825 113.119 92.8653 113.119C75.9055 113.119 62.1569 99.165 62.1569 81.9521ZM99.5883 52.6318C100.305 52.098 101.229 51.9424 102.077 52.2127C111.63 55.258 119.167 62.9071 122.167 72.6032C122.434 73.4638 122.28 74.4016 121.754 75.1288C121.228 75.8559 120.393 76.2855 119.504 76.2855H101.24C99.6985 76.2855 98.4486 75.0169 98.4486 73.4521V54.9158C98.4486 54.0138 98.8718 53.1656 99.5883 52.6318ZM104.032 59.102V70.6188H115.379C112.94 65.6371 108.94 61.5782 104.032 59.102Z" fill="url(#paint0_linear_1_402)"/>
<path d="M90.5736 56.6078C90.5736 56.4655 90.5129 56.3299 90.4069 56.235C90.3008 56.1402 90.1593 56.095 90.0178 56.1109C77.1995 57.549 67.2403 68.575 67.2403 81.9521C67.2403 96.3045 78.706 107.952 92.8653 107.952C106.062 107.952 116.919 97.8345 118.334 84.8396C118.349 84.6984 118.304 84.5573 118.209 84.4516C118.114 84.3459 117.979 84.2855 117.837 84.2855H92.8653C91.6066 84.2855 90.5736 83.2478 90.5736 81.9521V56.6078ZM95.1569 79.1188C95.1569 79.395 95.3808 79.6188 95.6569 79.6188H120.782C122.041 79.6188 123.074 80.6565 123.074 81.9521C123.074 98.8959 109.542 112.619 92.8653 112.619C76.1886 112.619 62.6569 98.8959 62.6569 81.9521C62.6569 65.0084 76.1886 51.2855 92.8653 51.2855C94.124 51.2855 95.1569 52.3231 95.1569 53.6188V79.1188ZM104.257 58.6556C104.102 58.5774 103.918 58.5852 103.77 58.6762C103.622 58.7672 103.532 58.9284 103.532 59.102V70.6188C103.532 70.895 103.756 71.1188 104.032 71.1188H115.379C115.552 71.1188 115.712 71.0298 115.804 70.8834C115.895 70.737 115.904 70.5539 115.828 70.3989C113.341 65.3203 109.264 61.1813 104.257 58.6556ZM99.887 53.0328C100.475 52.5948 101.231 52.4679 101.925 52.6891C111.32 55.684 118.737 63.2089 121.69 72.751C121.91 73.4621 121.783 74.2366 121.349 74.8358C120.916 75.4344 120.23 75.7855 119.504 75.7855H101.24C99.9816 75.7855 98.9486 74.7478 98.9486 73.4521V54.9158C98.9486 54.1699 99.2986 53.4711 99.887 53.0328Z" stroke="#FFF8F4" stroke-miterlimit="10" stroke-linecap="round" stroke-linejoin="round"/>
</g>
<defs>
<filter id="filter0_f_1_402" x="15.1299" y="121.978" width="137.119" height="42.3955" filterUnits="userSpaceOnUse" color-interpolation-filters="sRGB">
<feFlood flood-opacity="0" result="BackgroundImageFix"/>
<feBlend mode="normal" in="SourceGraphic" in2="BackgroundImageFix" result="shape"/>
<feGaussianBlur stdDeviation="4" result="effect1_foregroundBlur_1_402"/>
</filter>
<filter id="filter1_f_1_402" x="18.1182" y="121.676" width="131.143" height="38.998" filterUnits="userSpaceOnUse" color-interpolation-filters="sRGB">
<feFlood flood-opacity="0" result="BackgroundImageFix"/>
<feBlend mode="normal" in="SourceGraphic" in2="BackgroundImageFix" result="shape"/>
<feGaussianBlur stdDeviation="4" result="effect1_foregroundBlur_1_402"/>
</filter>
<filter id="filter2_bii_1_402" x="17.1299" y="68.1201" width="63.3838" height="82.7202" filterUnits="userSpaceOnUse" color-interpolation-filters="sRGB">
<feFlood flood-opacity="0" result="BackgroundImageFix"/>
<feGaussianBlur in="BackgroundImageFix" stdDeviation="3"/>
<feComposite in2="SourceAlpha" operator="in" result="effect1_backgroundBlur_1_402"/>
<feBlend mode="normal" in="SourceGraphic" in2="effect1_backgroundBlur_1_402" result="shape"/>
<feColorMatrix in="SourceAlpha" type="matrix" values="0 0 0 0 0 0 0 0 0 0 0 0 0 0 0 0 0 0 127 0" result="hardAlpha"/>
<feOffset dy="2"/>
<feGaussianBlur stdDeviation="1.5"/>
<feComposite in2="hardAlpha" operator="arithmetic" k2="-1" k3="1"/>
<feColorMatrix type="matrix" values="0 0 0 0 1 0 0 0 0 0.780392 0 0 0 0 0.678431 0 0 0 1 0"/>
<feBlend mode="normal" in2="shape" result="effect2_innerShadow_1_402"/>
<feColorMatrix in="SourceAlpha" type="matrix" values="0 0 0 0 0 0 0 0 0 0 0 0 0 0 0 0 0 0 127 0" result="hardAlpha"/>
<feOffset/>
<feGaussianBlur stdDeviation="1"/>
<feComposite in2="hardAlpha" operator="arithmetic" k2="-1" k3="1"/>
<feColorMatrix type="matrix" values="0 0 0 0 1 0 0 0 0 0.780392 0 0 0 0 0.678431 0 0 0 1 0"/>
<feBlend mode="normal" in2="effect2_innerShadow_1_402" result="effect3_innerShadow_1_402"/>
</filter>
<filter id="filter3_f_1_402" x="21.3652" y="73.1963" width="50.0283" height="72.5679" filterUnits="userSpaceOnUse" color-interpolation-filters="sRGB">
<feFlood flood-opacity="0" result="BackgroundImageFix"/>
<feBlend mode="normal" in="SourceGraphic" in2="BackgroundImageFix" result="shape"/>
<feGaussianBlur stdDeviation="2" result="effect1_foregroundBlur_1_402"/>
</filter>
<filter id="filter4_bii_1_402" x="35.4814" y="13.0635" width="114.768" height="137.777" filterUnits="userSpaceOnUse" color-interpolation-filters="sRGB">
<feFlood flood-opacity="0" result="BackgroundImageFix"/>
<feGaussianBlur in="BackgroundImageFix" stdDeviation="3"/>
<feComposite in2="SourceAlpha" operator="in" result="effect1_backgroundBlur_1_402"/>
<feBlend mode="normal" in="SourceGraphic" in2="effect1_backgroundBlur_1_402" result="shape"/>
<feColorMatrix in="SourceAlpha" type="matrix" values="0 0 0 0 0 0 0 0 0 0 0 0 0 0 0 0 0 0 127 0" result="hardAlpha"/>
<feOffset dy="2"/>
<feGaussianBlur stdDeviation="1.5"/>
<feComposite in2="hardAlpha" operator="arithmetic" k2="-1" k3="1"/>
<feColorMatrix type="matrix" values="0 0 0 0 1 0 0 0 0 0.780392 0 0 0 0 0.678431 0 0 0 1 0"/>
<feBlend mode="normal" in2="shape" result="effect2_innerShadow_1_402"/>
<feColorMatrix in="SourceAlpha" type="matrix" values="0 0 0 0 0 0 0 0 0 0 0 0 0 0 0 0 0 0 127 0" result="hardAlpha"/>
<feOffset/>
<feGaussianBlur stdDeviation="1"/>
<feComposite in2="hardAlpha" operator="arithmetic" k2="-1" k3="1"/>
<feColorMatrix type="matrix" values="0 0 0 0 1 0 0 0 0 0.780392 0 0 0 0 0.678431 0 0 0 1 0"/>
<feBlend mode="normal" in2="effect2_innerShadow_1_402" result="effect3_innerShadow_1_402"/>
</filter>
<filter id="filter5_f_1_402" x="39.4707" y="17.7215" width="106.79" height="128.461" filterUnits="userSpaceOnUse" color-interpolation-filters="sRGB">
<feFlood flood-opacity="0" result="BackgroundImageFix"/>
<feBlend mode="normal" in="SourceGraphic" in2="BackgroundImageFix" result="shape"/>
<feGaussianBlur stdDeviation="2.5" result="effect1_foregroundBlur_1_402"/>
</filter>
<filter id="filter6_f_1_402" x="18.1299" y="69.1201" width="55.7998" height="80.7202" filterUnits="userSpaceOnUse" color-interpolation-filters="sRGB">
<feFlood flood-opacity="0" result="BackgroundImageFix"/>
<feBlend mode="normal" in="SourceGraphic" in2="BackgroundImageFix" result="shape"/>
<feGaussianBlur stdDeviation="2.5" result="effect1_foregroundBlur_1_402"/>
</filter>
<filter id="filter7_d_1_402" x="54.1569" y="44.7855" width="77.4167" height="78.3333" filterUnits="userSpaceOnUse" color-interpolation-filters="sRGB">
<feFlood flood-opacity="0" result="BackgroundImageFix"/>
<feColorMatrix in="SourceAlpha" type="matrix" values="0 0 0 0 0 0 0 0 0 0 0 0 0 0 0 0 0 0 127 0" result="hardAlpha"/>
<feOffset dy="2"/>
<feGaussianBlur stdDeviation="4"/>
<feComposite in2="hardAlpha" operator="out"/>
<feColorMatrix type="matrix" values="0 0 0 0 0.938889 0 0 0 0 0.465728 0 0 0 0 0.246458 0 0 0 1 0"/>
<feBlend mode="normal" in2="BackgroundImageFix" result="effect1_dropShadow_1_402"/>
<feBlend mode="normal" in="SourceGraphic" in2="effect1_dropShadow_1_402" result="shape"/>
</filter>
<linearGradient id="paint0_linear_1_402" x1="92.8653" y1="50.7855" x2="92.8653" y2="113.119" gradientUnits="userSpaceOnUse">
<stop stop-color="#F1E5DF"/>
<stop offset="1" stop-color="#FFF0EA"/>
</linearGradient>
</defs>
</svg>
