<svg width="168" height="169" viewBox="0 0 168 169" fill="none" xmlns="http://www.w3.org/2000/svg">
<g filter="url(#filter0_f_1_363)">
<rect x="16" y="128.5" width="136" height="26" rx="12" fill="#9400F7"/>
</g>
<g filter="url(#filter1_f_1_363)">
<rect x="18" y="132.5" width="132" height="20" rx="10" fill="#F2DDFF"/>
</g>
<g filter="url(#filter2_bii_1_363)">
<rect x="13" y="113.5" width="142" height="30" rx="12" fill="#9400F7"/>
</g>
<g filter="url(#filter3_f_1_363)">
<rect x="15" y="117.5" width="138" height="25" rx="12" fill="#D79AFF"/>
</g>
<g filter="url(#filter4_bii_1_363)">
<rect x="28" y="13.5" width="115" height="115" rx="42" fill="#9400F7"/>
</g>
<g filter="url(#filter5_f_1_363)">
<rect x="31" y="16.5" width="109" height="110" rx="42" fill="#D79AFF"/>
</g>
<mask id="mask0_1_363" style="mask-type:alpha" maskUnits="userSpaceOnUse" x="35" y="20" width="101" height="107">
<rect x="35" y="20.5" width="101" height="106" rx="42" fill="#BF5EFF"/>
</mask>
<g mask="url(#mask0_1_363)">
<g filter="url(#filter6_f_1_363)">
<rect x="31" y="112.5" width="109" height="14" fill="#9400F7"/>
</g>
</g>
<g filter="url(#filter7_d_1_363)">
<path fill-rule="evenodd" clip-rule="evenodd" d="M78.9315 49.4801C77.1915 50.8147 75.7598 53.0739 75.7598 57.1248C75.7598 61.1682 77.1439 63.5606 78.5557 65.3241C78.9272 65.7882 79.3076 66.2164 79.697 66.6448C79.772 66.7273 79.8497 66.8123 79.9289 66.899C80.2372 67.2364 80.5688 67.5994 80.8573 67.9398C81.4821 68.677 82.6016 70.0567 82.6016 71.8955C82.6016 71.9859 82.6017 72.0777 82.6019 72.1708C82.6036 73.2954 82.6057 74.5982 82.3579 75.5858C82.2021 76.2071 81.8665 77.0846 81.0546 77.7677C80.2127 78.476 79.2577 78.6437 78.5305 78.6437H65.9637L65.9596 85.6667H105.042V78.6437H92.5249C92.2173 78.6438 91.3462 78.644 90.5011 78.1442C89.4577 77.5271 89.0484 76.5507 88.8798 75.8866C88.7284 75.2901 88.6913 74.6377 88.6738 74.0916C88.6553 73.5125 88.6553 72.7873 88.6553 71.9415V71.8955C88.6553 70.0163 89.5848 68.615 90.3477 67.6664C90.7299 67.1911 91.1606 66.723 91.5408 66.3098L91.5601 66.2889C91.9652 65.8486 92.3449 65.4358 92.7197 64.9867C94.1065 63.3248 95.4613 61.1426 95.4613 57.1248C95.4613 52.9711 94.1224 50.7127 92.5515 49.4213C90.8756 48.0437 88.5069 47.4167 85.9464 47.4167C83.3796 47.4167 80.7995 48.0472 78.9315 49.4801ZM75.5651 44.9592C78.7136 42.5443 82.6227 41.75 85.9464 41.75C89.2765 41.75 93.061 42.5478 96.0657 45.0179C99.1755 47.5743 101.045 51.5867 101.045 57.1248C101.045 62.7988 98.9964 66.233 96.9802 68.649C96.5161 69.2052 96.0567 69.7045 95.6702 70.1244L95.6407 70.1565C95.2281 70.605 94.9225 70.9394 94.6731 71.2495C94.3407 71.6629 94.2566 71.8581 94.2386 71.9143C94.2386 72.3199 94.2387 72.6707 94.2403 72.977H106.438C108.75 72.977 110.625 74.8799 110.625 77.227V88.5C110.625 90.0648 109.375 91.3333 107.833 91.3333H63.1664C62.4257 91.3333 61.7154 91.0346 61.1918 90.5029C60.6682 89.9712 60.3743 89.2501 60.3747 88.4984L60.3811 77.2224C60.3849 74.8786 62.257 72.9796 64.5664 72.977L64.5694 72.977L77.0148 72.977C77.0175 72.7331 77.0181 72.46 77.0182 72.1488C76.9596 72.0588 76.8428 71.8928 76.6245 71.6352C76.4104 71.3826 76.1735 71.1231 75.8781 70.7996C75.7888 70.7019 75.6942 70.5982 75.5932 70.4871C75.1809 70.0335 74.706 69.5017 74.2224 68.8975C72.2132 66.3878 70.1764 62.7733 70.1764 57.1248C70.1764 51.4839 72.2886 47.4724 75.5651 44.9592ZM60.375 97C60.375 95.4352 61.6249 94.1667 63.1667 94.1667H107.833C109.375 94.1667 110.625 95.4352 110.625 97C110.625 98.5648 109.375 99.8333 107.833 99.8333H63.1667C61.6249 99.8333 60.375 98.5648 60.375 97Z" fill="url(#paint0_linear_1_363)"/>
<path d="M79.327 66.9811L79.697 66.6448L79.327 66.9811C79.4025 67.0641 79.4806 67.1496 79.5598 67.2363C79.8694 67.5752 80.1945 67.9311 80.4759 68.2631C81.1011 69.0008 82.1016 70.2557 82.1016 71.8955L82.1019 72.1716C82.1037 73.316 82.1024 74.5496 81.8729 75.4642C81.7301 76.0335 81.4321 76.7967 80.7328 77.3851C80.0101 77.9931 79.1845 78.1437 78.5305 78.1437H65.9637H65.4639L65.4637 78.6434L65.4596 85.6664L65.4594 86.1667H65.9596H105.042H105.542V85.6667V78.6437V78.1437H105.042H92.5249H92.5247C92.2288 78.1438 91.4766 78.1402 90.7556 77.7138C89.8726 77.1916 89.5163 76.3616 89.3644 75.7636C89.2274 75.2238 89.1909 74.6185 89.1735 74.0756C89.1554 73.5063 89.1553 72.7903 89.1553 71.9415V71.8955C89.1553 70.1893 89.997 68.9003 90.7373 67.9797C91.1073 67.5196 91.5266 67.0637 91.9087 66.6484L91.9088 66.6484L91.928 66.6274L91.9284 66.627C92.3322 66.1882 92.7199 65.7668 93.1035 65.3071C94.5464 63.578 95.9613 61.2862 95.9613 57.1248C95.9613 52.8509 94.5763 50.4386 92.869 49.0351C91.0742 47.5596 88.5777 46.9167 85.9464 46.9167C83.3101 46.9167 80.61 47.5624 78.6272 49.0833C76.7505 50.5228 75.2598 52.936 75.2598 57.1248C75.2598 61.3074 76.7004 63.8067 78.1653 65.6366C78.5468 66.1131 78.9356 66.5505 79.327 66.9811ZM95.2728 69.8179L95.6407 70.1565L95.2728 69.8179C94.8628 70.2635 94.5453 70.6106 94.2835 70.9361C93.9362 71.368 93.8079 71.6197 93.7624 71.7621L93.7386 71.8364V71.9143C93.7386 72.3197 93.7387 72.6717 93.7403 72.9795L93.7427 73.477H94.2403H106.438C108.467 73.477 110.125 75.1491 110.125 77.227V88.5C110.125 89.7957 109.092 90.8333 107.833 90.8333H63.1664C62.5608 90.8333 61.9784 90.5891 61.548 90.1521C61.1174 89.7147 60.8743 89.1201 60.8747 88.4986L60.8811 77.2232C60.8811 77.2231 60.8811 77.223 60.8811 77.2229C60.8846 75.1479 62.5402 73.4793 64.567 73.477H64.5673L64.5694 73.477H64.5704L77.0148 73.477H77.5092L77.5147 72.9826C77.5175 72.7358 77.5181 72.4603 77.5182 72.149L77.5183 72.0005L77.4372 71.876C77.3657 71.7661 77.236 71.5833 77.0059 71.3119C76.7858 71.0522 76.5436 70.7869 76.2519 70.4674L76.2474 70.4625L76.2464 70.4614C76.1573 70.3639 76.0634 70.261 75.9632 70.1508C75.5529 69.6994 75.0864 69.1768 74.6127 68.585C72.6564 66.1413 70.6764 62.6337 70.6764 57.1248C70.6764 51.621 72.7301 47.7639 75.8694 45.3559C78.9028 43.0293 82.6917 42.25 85.9464 42.25C89.2063 42.25 92.8628 43.0322 95.7482 45.4042C98.7208 47.8478 100.545 51.7058 100.545 57.1248C100.545 62.6548 98.5568 65.9794 96.5963 68.3287C96.141 68.8743 95.6894 69.3652 95.3023 69.7859L95.2728 69.8179ZM60.875 97C60.875 95.7043 61.908 94.6667 63.1667 94.6667H107.833C109.092 94.6667 110.125 95.7043 110.125 97C110.125 98.2957 109.092 99.3333 107.833 99.3333H63.1667C61.908 99.3333 60.875 98.2957 60.875 97Z" stroke="#FBF4FF" stroke-miterlimit="10" stroke-linecap="round"/>
</g>
<defs>
<filter id="filter0_f_1_363" x="8" y="120.5" width="152" height="42" filterUnits="userSpaceOnUse" color-interpolation-filters="sRGB">
<feFlood flood-opacity="0" result="BackgroundImageFix"/>
<feBlend mode="normal" in="SourceGraphic" in2="BackgroundImageFix" result="shape"/>
<feGaussianBlur stdDeviation="4" result="effect1_foregroundBlur_1_363"/>
</filter>
<filter id="filter1_f_1_363" x="10" y="124.5" width="148" height="36" filterUnits="userSpaceOnUse" color-interpolation-filters="sRGB">
<feFlood flood-opacity="0" result="BackgroundImageFix"/>
<feBlend mode="normal" in="SourceGraphic" in2="BackgroundImageFix" result="shape"/>
<feGaussianBlur stdDeviation="4" result="effect1_foregroundBlur_1_363"/>
</filter>
<filter id="filter2_bii_1_363" x="7" y="107.5" width="154" height="42" filterUnits="userSpaceOnUse" color-interpolation-filters="sRGB">
<feFlood flood-opacity="0" result="BackgroundImageFix"/>
<feGaussianBlur in="BackgroundImageFix" stdDeviation="3"/>
<feComposite in2="SourceAlpha" operator="in" result="effect1_backgroundBlur_1_363"/>
<feBlend mode="normal" in="SourceGraphic" in2="effect1_backgroundBlur_1_363" result="shape"/>
<feColorMatrix in="SourceAlpha" type="matrix" values="0 0 0 0 0 0 0 0 0 0 0 0 0 0 0 0 0 0 127 0" result="hardAlpha"/>
<feOffset dy="2"/>
<feGaussianBlur stdDeviation="1.5"/>
<feComposite in2="hardAlpha" operator="arithmetic" k2="-1" k3="1"/>
<feColorMatrix type="matrix" values="0 0 0 0 0.913725 0 0 0 0 0.784314 0 0 0 0 1 0 0 0 1 0"/>
<feBlend mode="normal" in2="shape" result="effect2_innerShadow_1_363"/>
<feColorMatrix in="SourceAlpha" type="matrix" values="0 0 0 0 0 0 0 0 0 0 0 0 0 0 0 0 0 0 127 0" result="hardAlpha"/>
<feOffset/>
<feGaussianBlur stdDeviation="1"/>
<feComposite in2="hardAlpha" operator="arithmetic" k2="-1" k3="1"/>
<feColorMatrix type="matrix" values="0 0 0 0 0.913333 0 0 0 0 0.783333 0 0 0 0 1 0 0 0 1 0"/>
<feBlend mode="normal" in2="effect2_innerShadow_1_363" result="effect3_innerShadow_1_363"/>
</filter>
<filter id="filter3_f_1_363" x="11" y="113.5" width="146" height="33" filterUnits="userSpaceOnUse" color-interpolation-filters="sRGB">
<feFlood flood-opacity="0" result="BackgroundImageFix"/>
<feBlend mode="normal" in="SourceGraphic" in2="BackgroundImageFix" result="shape"/>
<feGaussianBlur stdDeviation="2" result="effect1_foregroundBlur_1_363"/>
</filter>
<filter id="filter4_bii_1_363" x="22" y="7.5" width="127" height="127" filterUnits="userSpaceOnUse" color-interpolation-filters="sRGB">
<feFlood flood-opacity="0" result="BackgroundImageFix"/>
<feGaussianBlur in="BackgroundImageFix" stdDeviation="3"/>
<feComposite in2="SourceAlpha" operator="in" result="effect1_backgroundBlur_1_363"/>
<feBlend mode="normal" in="SourceGraphic" in2="effect1_backgroundBlur_1_363" result="shape"/>
<feColorMatrix in="SourceAlpha" type="matrix" values="0 0 0 0 0 0 0 0 0 0 0 0 0 0 0 0 0 0 127 0" result="hardAlpha"/>
<feOffset dy="2"/>
<feGaussianBlur stdDeviation="1.5"/>
<feComposite in2="hardAlpha" operator="arithmetic" k2="-1" k3="1"/>
<feColorMatrix type="matrix" values="0 0 0 0 0.913725 0 0 0 0 0.784314 0 0 0 0 1 0 0 0 1 0"/>
<feBlend mode="normal" in2="shape" result="effect2_innerShadow_1_363"/>
<feColorMatrix in="SourceAlpha" type="matrix" values="0 0 0 0 0 0 0 0 0 0 0 0 0 0 0 0 0 0 127 0" result="hardAlpha"/>
<feOffset/>
<feGaussianBlur stdDeviation="1"/>
<feComposite in2="hardAlpha" operator="arithmetic" k2="-1" k3="1"/>
<feColorMatrix type="matrix" values="0 0 0 0 0.913333 0 0 0 0 0.783333 0 0 0 0 1 0 0 0 1 0"/>
<feBlend mode="normal" in2="effect2_innerShadow_1_363" result="effect3_innerShadow_1_363"/>
</filter>
<filter id="filter5_f_1_363" x="28" y="13.5" width="115" height="116" filterUnits="userSpaceOnUse" color-interpolation-filters="sRGB">
<feFlood flood-opacity="0" result="BackgroundImageFix"/>
<feBlend mode="normal" in="SourceGraphic" in2="BackgroundImageFix" result="shape"/>
<feGaussianBlur stdDeviation="1.5" result="effect1_foregroundBlur_1_363"/>
</filter>
<filter id="filter6_f_1_363" x="26" y="107.5" width="119" height="24" filterUnits="userSpaceOnUse" color-interpolation-filters="sRGB">
<feFlood flood-opacity="0" result="BackgroundImageFix"/>
<feBlend mode="normal" in="SourceGraphic" in2="BackgroundImageFix" result="shape"/>
<feGaussianBlur stdDeviation="2.5" result="effect1_foregroundBlur_1_363"/>
</filter>
<filter id="filter7_d_1_363" x="52.3747" y="35.75" width="66.2505" height="74.0834" filterUnits="userSpaceOnUse" color-interpolation-filters="sRGB">
<feFlood flood-opacity="0" result="BackgroundImageFix"/>
<feColorMatrix in="SourceAlpha" type="matrix" values="0 0 0 0 0 0 0 0 0 0 0 0 0 0 0 0 0 0 127 0" result="hardAlpha"/>
<feOffset dy="2"/>
<feGaussianBlur stdDeviation="4"/>
<feComposite in2="hardAlpha" operator="out"/>
<feColorMatrix type="matrix" values="0 0 0 0 0.661917 0 0 0 0 0.246458 0 0 0 0 0.938889 0 0 0 1 0"/>
<feBlend mode="normal" in2="BackgroundImageFix" result="effect1_dropShadow_1_363"/>
<feBlend mode="normal" in="SourceGraphic" in2="effect1_dropShadow_1_363" result="shape"/>
</filter>
<linearGradient id="paint0_linear_1_363" x1="85.4999" y1="41.75" x2="85.4999" y2="99.8333" gradientUnits="userSpaceOnUse">
<stop stop-color="#EADFF1"/>
<stop offset="1" stop-color="#F7EAFF"/>
</linearGradient>
</defs>
</svg>
