<svg width="168" height="169" viewBox="0 0 168 169" fill="none" xmlns="http://www.w3.org/2000/svg">
<g filter="url(#filter0_f_1_675)">
<rect x="16" y="128.5" width="136" height="26" rx="12" fill="#9400F7"/>
</g>
<g filter="url(#filter1_f_1_675)">
<rect x="18" y="132.5" width="132" height="20" rx="10" fill="#F2DDFF"/>
</g>
<g filter="url(#filter2_bii_1_675)">
<rect x="13" y="113.5" width="142" height="30" rx="12" fill="#9400F7"/>
</g>
<g filter="url(#filter3_f_1_675)">
<rect x="15" y="117.5" width="138" height="25" rx="12" fill="#D79AFF"/>
</g>
<g filter="url(#filter4_bii_1_675)">
<rect x="28" y="13.5" width="115" height="115" rx="42" fill="#9400F7"/>
</g>
<g filter="url(#filter5_f_1_675)">
<rect x="31" y="16.5" width="109" height="110" rx="42" fill="#D79AFF"/>
</g>
<mask id="mask0_1_675" style="mask-type:alpha" maskUnits="userSpaceOnUse" x="35" y="20" width="101" height="107">
<rect x="35" y="20.5" width="101" height="106" rx="42" fill="#BF5EFF"/>
</mask>
<g mask="url(#mask0_1_675)">
<g filter="url(#filter6_f_1_675)">
<rect x="31" y="112.5" width="109" height="14" fill="#9400F7"/>
</g>
</g>
<g filter="url(#filter7_d_1_675)">
<path d="M106.715 41.1065C105.594 40.0322 103.827 40.0838 102.769 41.2217C101.711 42.3595 101.761 44.1528 102.883 45.227C107.653 49.7982 110.625 56.2684 110.625 63.4474C110.625 77.2836 99.5735 88.5 85.9408 88.5C78.8673 88.5 72.4924 85.4841 67.9883 80.642C66.9299 79.5041 65.163 79.4526 64.0419 80.5268C62.9208 81.601 62.87 83.3942 63.9284 84.5321C68.749 89.7144 75.3343 93.1983 82.7083 93.9935V97H77.125C75.5832 97 74.3333 98.2686 74.3333 99.8334C74.3333 101.398 75.5832 102.667 77.125 102.667H93.875C95.4168 102.667 96.6667 101.398 96.6667 99.8334C96.6667 98.2686 95.4168 97 93.875 97H88.2917V94.0754C103.909 92.8578 116.208 79.6104 116.208 63.4474C116.208 54.6451 112.557 46.7036 106.715 41.1065Z" fill="url(#paint0_linear_1_675)"/>
<path fill-rule="evenodd" clip-rule="evenodd" d="M85.5 40.3334C73.1656 40.3334 63.1667 50.4816 63.1667 63C63.1667 75.5185 73.1656 85.6667 85.5 85.6667C97.8344 85.6667 107.833 75.5185 107.833 63C107.833 50.4816 97.8344 40.3334 85.5 40.3334ZM68.75 63C68.75 53.6112 76.2492 46 85.5 46C94.7508 46 102.25 53.6112 102.25 63C102.25 72.3889 94.7508 80 85.5 80C76.2492 80 68.75 72.3889 68.75 63Z" fill="url(#paint1_linear_1_675)"/>
<path d="M83.2083 93.9935V93.5445L82.7619 93.4963C75.5127 92.7147 69.0368 89.2897 64.2945 84.1915C63.4219 83.2535 63.4643 81.7727 64.3878 80.8878C65.3072 80.0069 66.7535 80.0487 67.6222 80.9825C72.2161 85.9212 78.7215 89 85.9408 89C99.8566 89 111.125 77.5528 111.125 63.4474C111.125 56.1277 108.095 49.5285 103.228 44.8659C102.305 43.9811 102.263 42.5003 103.135 41.5622C104.004 40.6284 105.45 40.5866 106.369 41.4675C112.116 46.9734 115.708 54.7858 115.708 63.4474C115.708 79.3535 103.606 92.3799 88.2528 93.5769L87.7917 93.6129V94.0754V97V97.5H88.2917H93.875C95.1337 97.5 96.1667 98.5377 96.1667 99.8334C96.1667 101.129 95.1337 102.167 93.875 102.167H77.125C75.8663 102.167 74.8333 101.129 74.8333 99.8334C74.8333 98.5377 75.8663 97.5 77.125 97.5H82.7083H83.2083V97V93.9935ZM63.6667 63C63.6667 50.7507 73.4487 40.8334 85.5 40.8334C97.5513 40.8334 107.333 50.7507 107.333 63C107.333 75.2494 97.5513 85.1667 85.5 85.1667C73.4487 85.1667 63.6667 75.2494 63.6667 63ZM85.5 45.5C75.9661 45.5 68.25 53.3421 68.25 63C68.25 72.658 75.9661 80.5 85.5 80.5C95.0339 80.5 102.75 72.658 102.75 63C102.75 53.3421 95.0339 45.5 85.5 45.5Z" stroke="#FBF4FF" stroke-miterlimit="10" stroke-linecap="round"/>
</g>
<defs>
<filter id="filter0_f_1_675" x="8" y="120.5" width="152" height="42" filterUnits="userSpaceOnUse" color-interpolation-filters="sRGB">
<feFlood flood-opacity="0" result="BackgroundImageFix"/>
<feBlend mode="normal" in="SourceGraphic" in2="BackgroundImageFix" result="shape"/>
<feGaussianBlur stdDeviation="4" result="effect1_foregroundBlur_1_675"/>
</filter>
<filter id="filter1_f_1_675" x="10" y="124.5" width="148" height="36" filterUnits="userSpaceOnUse" color-interpolation-filters="sRGB">
<feFlood flood-opacity="0" result="BackgroundImageFix"/>
<feBlend mode="normal" in="SourceGraphic" in2="BackgroundImageFix" result="shape"/>
<feGaussianBlur stdDeviation="4" result="effect1_foregroundBlur_1_675"/>
</filter>
<filter id="filter2_bii_1_675" x="7" y="107.5" width="154" height="42" filterUnits="userSpaceOnUse" color-interpolation-filters="sRGB">
<feFlood flood-opacity="0" result="BackgroundImageFix"/>
<feGaussianBlur in="BackgroundImageFix" stdDeviation="3"/>
<feComposite in2="SourceAlpha" operator="in" result="effect1_backgroundBlur_1_675"/>
<feBlend mode="normal" in="SourceGraphic" in2="effect1_backgroundBlur_1_675" result="shape"/>
<feColorMatrix in="SourceAlpha" type="matrix" values="0 0 0 0 0 0 0 0 0 0 0 0 0 0 0 0 0 0 127 0" result="hardAlpha"/>
<feOffset dy="2"/>
<feGaussianBlur stdDeviation="1.5"/>
<feComposite in2="hardAlpha" operator="arithmetic" k2="-1" k3="1"/>
<feColorMatrix type="matrix" values="0 0 0 0 0.913725 0 0 0 0 0.784314 0 0 0 0 1 0 0 0 1 0"/>
<feBlend mode="normal" in2="shape" result="effect2_innerShadow_1_675"/>
<feColorMatrix in="SourceAlpha" type="matrix" values="0 0 0 0 0 0 0 0 0 0 0 0 0 0 0 0 0 0 127 0" result="hardAlpha"/>
<feOffset/>
<feGaussianBlur stdDeviation="1"/>
<feComposite in2="hardAlpha" operator="arithmetic" k2="-1" k3="1"/>
<feColorMatrix type="matrix" values="0 0 0 0 0.913333 0 0 0 0 0.783333 0 0 0 0 1 0 0 0 1 0"/>
<feBlend mode="normal" in2="effect2_innerShadow_1_675" result="effect3_innerShadow_1_675"/>
</filter>
<filter id="filter3_f_1_675" x="11" y="113.5" width="146" height="33" filterUnits="userSpaceOnUse" color-interpolation-filters="sRGB">
<feFlood flood-opacity="0" result="BackgroundImageFix"/>
<feBlend mode="normal" in="SourceGraphic" in2="BackgroundImageFix" result="shape"/>
<feGaussianBlur stdDeviation="2" result="effect1_foregroundBlur_1_675"/>
</filter>
<filter id="filter4_bii_1_675" x="22" y="7.5" width="127" height="127" filterUnits="userSpaceOnUse" color-interpolation-filters="sRGB">
<feFlood flood-opacity="0" result="BackgroundImageFix"/>
<feGaussianBlur in="BackgroundImageFix" stdDeviation="3"/>
<feComposite in2="SourceAlpha" operator="in" result="effect1_backgroundBlur_1_675"/>
<feBlend mode="normal" in="SourceGraphic" in2="effect1_backgroundBlur_1_675" result="shape"/>
<feColorMatrix in="SourceAlpha" type="matrix" values="0 0 0 0 0 0 0 0 0 0 0 0 0 0 0 0 0 0 127 0" result="hardAlpha"/>
<feOffset dy="2"/>
<feGaussianBlur stdDeviation="1.5"/>
<feComposite in2="hardAlpha" operator="arithmetic" k2="-1" k3="1"/>
<feColorMatrix type="matrix" values="0 0 0 0 0.913725 0 0 0 0 0.784314 0 0 0 0 1 0 0 0 1 0"/>
<feBlend mode="normal" in2="shape" result="effect2_innerShadow_1_675"/>
<feColorMatrix in="SourceAlpha" type="matrix" values="0 0 0 0 0 0 0 0 0 0 0 0 0 0 0 0 0 0 127 0" result="hardAlpha"/>
<feOffset/>
<feGaussianBlur stdDeviation="1"/>
<feComposite in2="hardAlpha" operator="arithmetic" k2="-1" k3="1"/>
<feColorMatrix type="matrix" values="0 0 0 0 0.913333 0 0 0 0 0.783333 0 0 0 0 1 0 0 0 1 0"/>
<feBlend mode="normal" in2="effect2_innerShadow_1_675" result="effect3_innerShadow_1_675"/>
</filter>
<filter id="filter5_f_1_675" x="28" y="13.5" width="115" height="116" filterUnits="userSpaceOnUse" color-interpolation-filters="sRGB">
<feFlood flood-opacity="0" result="BackgroundImageFix"/>
<feBlend mode="normal" in="SourceGraphic" in2="BackgroundImageFix" result="shape"/>
<feGaussianBlur stdDeviation="1.5" result="effect1_foregroundBlur_1_675"/>
</filter>
<filter id="filter6_f_1_675" x="26" y="107.5" width="119" height="24" filterUnits="userSpaceOnUse" color-interpolation-filters="sRGB">
<feFlood flood-opacity="0" result="BackgroundImageFix"/>
<feBlend mode="normal" in="SourceGraphic" in2="BackgroundImageFix" result="shape"/>
<feGaussianBlur stdDeviation="2.5" result="effect1_foregroundBlur_1_675"/>
</filter>
<filter id="filter7_d_1_675" x="55.1667" y="34.3334" width="69.0417" height="78.3334" filterUnits="userSpaceOnUse" color-interpolation-filters="sRGB">
<feFlood flood-opacity="0" result="BackgroundImageFix"/>
<feColorMatrix in="SourceAlpha" type="matrix" values="0 0 0 0 0 0 0 0 0 0 0 0 0 0 0 0 0 0 127 0" result="hardAlpha"/>
<feOffset dy="2"/>
<feGaussianBlur stdDeviation="4"/>
<feComposite in2="hardAlpha" operator="out"/>
<feColorMatrix type="matrix" values="0 0 0 0 0.661917 0 0 0 0 0.246458 0 0 0 0 0.938889 0 0 0 1 0"/>
<feBlend mode="normal" in2="BackgroundImageFix" result="effect1_dropShadow_1_675"/>
<feBlend mode="normal" in="SourceGraphic" in2="effect1_dropShadow_1_675" result="shape"/>
</filter>
<linearGradient id="paint0_linear_1_675" x1="89.6875" y1="40.3334" x2="89.6875" y2="102.667" gradientUnits="userSpaceOnUse">
<stop stop-color="#EADFF1"/>
<stop offset="1" stop-color="#F7EAFF"/>
</linearGradient>
<linearGradient id="paint1_linear_1_675" x1="89.6875" y1="40.3334" x2="89.6875" y2="102.667" gradientUnits="userSpaceOnUse">
<stop stop-color="#EADFF1"/>
<stop offset="1" stop-color="#F7EAFF"/>
</linearGradient>
</defs>
</svg>
