<svg width="168" height="169" viewBox="0 0 168 169" fill="none" xmlns="http://www.w3.org/2000/svg">
<g filter="url(#filter0_f_1_896)">
<rect x="16" y="128.5" width="136" height="26" rx="12" fill="#F49300"/>
</g>
<g filter="url(#filter1_f_1_896)">
<rect x="18" y="132.5" width="132" height="20" rx="10" fill="#FFFDCE"/>
</g>
<g filter="url(#filter2_bii_1_896)">
<rect x="13" y="113.5" width="142" height="30" rx="12" fill="#F49300"/>
</g>
<g filter="url(#filter3_f_1_896)">
<rect x="15" y="117.5" width="138" height="25" rx="12" fill="#FFC75E"/>
</g>
<g filter="url(#filter4_bii_1_896)">
<rect x="28" y="13.5" width="115" height="115" rx="42" fill="#F49300"/>
</g>
<g filter="url(#filter5_f_1_896)">
<rect x="31" y="16.5" width="109" height="110" rx="42" fill="#FFC75E"/>
</g>
<mask id="mask0_1_896" style="mask-type:alpha" maskUnits="userSpaceOnUse" x="35" y="20" width="101" height="107">
<rect x="35" y="20.5" width="101" height="106" rx="42" fill="#FFC75E"/>
</mask>
<g mask="url(#mask0_1_896)">
<g filter="url(#filter6_f_1_896)">
<rect x="31" y="112.5" width="109" height="14" fill="#F49300"/>
</g>
</g>
<g filter="url(#filter7_d_1_896)">
<path fill-rule="evenodd" clip-rule="evenodd" d="M73.4884 40.3676C72.7732 40.1731 72.0112 40.2749 71.37 40.6507C70.7288 41.0264 70.2609 41.6452 70.0693 42.3711L64.8166 62.267C64.592 63.1179 64.7701 64.0263 65.2984 64.7252C65.8267 65.424 66.6453 65.8337 67.5132 65.8337H107.975C109.239 65.8337 110.345 64.9723 110.672 63.7336L113.214 54.1041C113.613 52.5926 112.729 51.039 111.24 50.634L73.4884 40.3676ZM71.1513 60.167L74.7398 46.5745L107.098 55.3743L105.833 60.167H71.1513Z" fill="url(#paint0_linear_1_896)"/>
<path d="M65.7215 80.7337C66.1206 79.2222 65.2368 77.6685 63.7475 77.2635C62.2583 76.8585 60.7275 77.7555 60.3284 79.267L57.7862 88.8965C57.5945 89.6224 57.6949 90.3957 58.0651 91.0465C58.4353 91.6973 59.045 92.1721 59.7602 92.3666L97.5118 102.633C98.227 102.828 98.989 102.726 99.6302 102.35C100.271 101.974 100.739 101.355 100.931 100.63L106.184 80.7337C106.583 79.2222 105.699 77.6685 104.21 77.2635C102.72 76.8585 101.19 77.7555 100.79 79.267L96.2603 96.4262L63.9018 87.6264L65.7215 80.7337Z" fill="url(#paint1_linear_1_896)"/>
<path d="M57.5834 68.6667C56.0416 68.6667 54.7917 69.9352 54.7917 71.5C54.7917 73.0648 56.0416 74.3333 57.5834 74.3333H58.9792C60.521 74.3333 61.7709 73.0648 61.7709 71.5C61.7709 69.9352 60.521 68.6667 58.9792 68.6667H57.5834Z" fill="url(#paint2_linear_1_896)"/>
<path d="M67.3542 68.6667C65.8124 68.6667 64.5625 69.9352 64.5625 71.5C64.5625 73.0648 65.8124 74.3333 67.3542 74.3333H70.1459C71.6876 74.3333 72.9375 73.0648 72.9375 71.5C72.9375 69.9352 71.6876 68.6667 70.1459 68.6667H67.3542Z" fill="url(#paint3_linear_1_896)"/>
<path d="M78.5209 68.6667C76.9791 68.6667 75.7292 69.9352 75.7292 71.5C75.7292 73.0648 76.9791 74.3333 78.5209 74.3333H81.3125C82.8543 74.3333 84.1042 73.0648 84.1042 71.5C84.1042 69.9352 82.8543 68.6667 81.3125 68.6667H78.5209Z" fill="url(#paint4_linear_1_896)"/>
<path d="M89.6875 68.6667C88.1457 68.6667 86.8959 69.9352 86.8959 71.5C86.8959 73.0648 88.1457 74.3333 89.6875 74.3333H92.4792C94.021 74.3333 95.2709 73.0648 95.2709 71.5C95.2709 69.9352 94.021 68.6667 92.4792 68.6667H89.6875Z" fill="url(#paint5_linear_1_896)"/>
<path d="M100.854 68.6667C99.3124 68.6667 98.0625 69.9352 98.0625 71.5C98.0625 73.0648 99.3124 74.3333 100.854 74.3333H103.646C105.188 74.3333 106.438 73.0648 106.438 71.5C106.438 69.9352 105.188 68.6667 103.646 68.6667H100.854Z" fill="url(#paint6_linear_1_896)"/>
<path d="M112.021 68.6667C110.479 68.6667 109.229 69.9352 109.229 71.5C109.229 73.0648 110.479 74.3333 112.021 74.3333H113.417C114.958 74.3333 116.208 73.0648 116.208 71.5C116.208 69.9352 114.958 68.6667 113.417 68.6667H112.021Z" fill="url(#paint7_linear_1_896)"/>
<path d="M70.6679 60.0394C70.6283 60.1894 70.6606 60.3492 70.7552 60.4721C70.8499 60.595 70.9962 60.667 71.1513 60.667H105.833C106.06 60.667 106.259 60.5141 106.316 60.2946L107.582 55.5019C107.652 55.2363 107.495 54.9639 107.23 54.8918L74.8711 46.092C74.7425 46.0571 74.6053 46.0749 74.4899 46.1415C74.3745 46.2081 74.2904 46.318 74.2564 46.4469L70.6679 60.0394ZM96.1291 96.9087C96.2577 96.9436 96.3949 96.9258 96.5103 96.8592C96.6257 96.7926 96.7098 96.6826 96.7438 96.5538L101.274 79.3947C101.604 78.1456 102.863 77.4155 104.078 77.746C105.297 78.0774 106.031 79.3543 105.7 80.606L100.447 100.502C100.289 101.102 99.9033 101.61 99.3774 101.919C98.8518 102.227 98.2281 102.31 97.643 102.151L59.8914 91.8841C59.3061 91.725 58.8048 91.3357 58.4997 90.7993L58.0651 91.0465L58.4997 90.7993C58.1944 90.2626 58.1113 89.6238 58.2696 89.0242L60.8119 79.3946C61.1416 78.1456 62.4008 77.4155 63.6163 77.746C64.8347 78.0774 65.5685 79.3543 65.2381 80.606L63.4184 87.4987C63.3482 87.7643 63.5055 88.0368 63.7706 88.1088L96.1291 96.9087ZM71.6228 41.0821C72.1484 40.7741 72.7721 40.691 73.3572 40.8501L111.109 51.1165C112.327 51.4479 113.061 52.7248 112.731 53.9765L110.188 63.606C109.918 64.6296 109.007 65.3337 107.975 65.3337H67.5132C66.8037 65.3337 66.1321 64.9988 65.6972 64.4236C65.262 63.8479 65.1144 63.0978 65.3001 62.3946L70.5527 42.4987C70.711 41.8992 71.0969 41.3902 71.6228 41.0821ZM55.2917 71.5C55.2917 70.2043 56.3247 69.1667 57.5834 69.1667H58.9792C60.2379 69.1667 61.2709 70.2043 61.2709 71.5C61.2709 72.7957 60.2379 73.8333 58.9792 73.8333H57.5834C56.3247 73.8333 55.2917 72.7957 55.2917 71.5ZM65.0625 71.5C65.0625 70.2043 66.0955 69.1667 67.3542 69.1667H70.1459C71.4045 69.1667 72.4375 70.2043 72.4375 71.5C72.4375 72.7957 71.4045 73.8333 70.1459 73.8333H67.3542C66.0955 73.8333 65.0625 72.7957 65.0625 71.5ZM76.2292 71.5C76.2292 70.2043 77.2622 69.1667 78.5209 69.1667H81.3125C82.5712 69.1667 83.6042 70.2043 83.6042 71.5C83.6042 72.7957 82.5712 73.8333 81.3125 73.8333H78.5209C77.2622 73.8333 76.2292 72.7957 76.2292 71.5ZM87.3959 71.5C87.3959 70.2043 88.4288 69.1667 89.6875 69.1667H92.4792C93.7379 69.1667 94.7709 70.2043 94.7709 71.5C94.7709 72.7957 93.7379 73.8333 92.4792 73.8333H89.6875C88.4288 73.8333 87.3959 72.7957 87.3959 71.5ZM98.5625 71.5C98.5625 70.2043 99.5955 69.1667 100.854 69.1667H103.646C104.905 69.1667 105.938 70.2043 105.938 71.5C105.938 72.7957 104.905 73.8333 103.646 73.8333H100.854C99.5955 73.8333 98.5625 72.7957 98.5625 71.5ZM109.729 71.5C109.729 70.2043 110.762 69.1667 112.021 69.1667H113.417C114.675 69.1667 115.708 70.2043 115.708 71.5C115.708 72.7957 114.675 73.8333 113.417 73.8333H112.021C110.762 73.8333 109.729 72.7957 109.729 71.5Z" stroke="#FFFBF4" stroke-miterlimit="10" stroke-linejoin="round"/>
</g>
<defs>
<filter id="filter0_f_1_896" x="8" y="120.5" width="152" height="42" filterUnits="userSpaceOnUse" color-interpolation-filters="sRGB">
<feFlood flood-opacity="0" result="BackgroundImageFix"/>
<feBlend mode="normal" in="SourceGraphic" in2="BackgroundImageFix" result="shape"/>
<feGaussianBlur stdDeviation="4" result="effect1_foregroundBlur_1_896"/>
</filter>
<filter id="filter1_f_1_896" x="10" y="124.5" width="148" height="36" filterUnits="userSpaceOnUse" color-interpolation-filters="sRGB">
<feFlood flood-opacity="0" result="BackgroundImageFix"/>
<feBlend mode="normal" in="SourceGraphic" in2="BackgroundImageFix" result="shape"/>
<feGaussianBlur stdDeviation="4" result="effect1_foregroundBlur_1_896"/>
</filter>
<filter id="filter2_bii_1_896" x="7" y="107.5" width="154" height="42" filterUnits="userSpaceOnUse" color-interpolation-filters="sRGB">
<feFlood flood-opacity="0" result="BackgroundImageFix"/>
<feGaussianBlur in="BackgroundImageFix" stdDeviation="3"/>
<feComposite in2="SourceAlpha" operator="in" result="effect1_backgroundBlur_1_896"/>
<feBlend mode="normal" in="SourceGraphic" in2="effect1_backgroundBlur_1_896" result="shape"/>
<feColorMatrix in="SourceAlpha" type="matrix" values="0 0 0 0 0 0 0 0 0 0 0 0 0 0 0 0 0 0 127 0" result="hardAlpha"/>
<feOffset dy="2"/>
<feGaussianBlur stdDeviation="1.5"/>
<feComposite in2="hardAlpha" operator="arithmetic" k2="-1" k3="1"/>
<feColorMatrix type="matrix" values="0 0 0 0 1 0 0 0 0 0.843137 0 0 0 0 0.54902 0 0 0 1 0"/>
<feBlend mode="normal" in2="shape" result="effect2_innerShadow_1_896"/>
<feColorMatrix in="SourceAlpha" type="matrix" values="0 0 0 0 0 0 0 0 0 0 0 0 0 0 0 0 0 0 127 0" result="hardAlpha"/>
<feOffset/>
<feGaussianBlur stdDeviation="1"/>
<feComposite in2="hardAlpha" operator="arithmetic" k2="-1" k3="1"/>
<feColorMatrix type="matrix" values="0 0 0 0 1 0 0 0 0 0.843137 0 0 0 0 0.54902 0 0 0 1 0"/>
<feBlend mode="normal" in2="effect2_innerShadow_1_896" result="effect3_innerShadow_1_896"/>
</filter>
<filter id="filter3_f_1_896" x="11" y="113.5" width="146" height="33" filterUnits="userSpaceOnUse" color-interpolation-filters="sRGB">
<feFlood flood-opacity="0" result="BackgroundImageFix"/>
<feBlend mode="normal" in="SourceGraphic" in2="BackgroundImageFix" result="shape"/>
<feGaussianBlur stdDeviation="2" result="effect1_foregroundBlur_1_896"/>
</filter>
<filter id="filter4_bii_1_896" x="22" y="7.5" width="127" height="127" filterUnits="userSpaceOnUse" color-interpolation-filters="sRGB">
<feFlood flood-opacity="0" result="BackgroundImageFix"/>
<feGaussianBlur in="BackgroundImageFix" stdDeviation="3"/>
<feComposite in2="SourceAlpha" operator="in" result="effect1_backgroundBlur_1_896"/>
<feBlend mode="normal" in="SourceGraphic" in2="effect1_backgroundBlur_1_896" result="shape"/>
<feColorMatrix in="SourceAlpha" type="matrix" values="0 0 0 0 0 0 0 0 0 0 0 0 0 0 0 0 0 0 127 0" result="hardAlpha"/>
<feOffset dy="2"/>
<feGaussianBlur stdDeviation="1.5"/>
<feComposite in2="hardAlpha" operator="arithmetic" k2="-1" k3="1"/>
<feColorMatrix type="matrix" values="0 0 0 0 1 0 0 0 0 0.843137 0 0 0 0 0.54902 0 0 0 1 0"/>
<feBlend mode="normal" in2="shape" result="effect2_innerShadow_1_896"/>
<feColorMatrix in="SourceAlpha" type="matrix" values="0 0 0 0 0 0 0 0 0 0 0 0 0 0 0 0 0 0 127 0" result="hardAlpha"/>
<feOffset/>
<feGaussianBlur stdDeviation="1"/>
<feComposite in2="hardAlpha" operator="arithmetic" k2="-1" k3="1"/>
<feColorMatrix type="matrix" values="0 0 0 0 1 0 0 0 0 0.843137 0 0 0 0 0.54902 0 0 0 1 0"/>
<feBlend mode="normal" in2="effect2_innerShadow_1_896" result="effect3_innerShadow_1_896"/>
</filter>
<filter id="filter5_f_1_896" x="28" y="13.5" width="115" height="116" filterUnits="userSpaceOnUse" color-interpolation-filters="sRGB">
<feFlood flood-opacity="0" result="BackgroundImageFix"/>
<feBlend mode="normal" in="SourceGraphic" in2="BackgroundImageFix" result="shape"/>
<feGaussianBlur stdDeviation="1.5" result="effect1_foregroundBlur_1_896"/>
</filter>
<filter id="filter6_f_1_896" x="26" y="107.5" width="119" height="24" filterUnits="userSpaceOnUse" color-interpolation-filters="sRGB">
<feFlood flood-opacity="0" result="BackgroundImageFix"/>
<feBlend mode="normal" in="SourceGraphic" in2="BackgroundImageFix" result="shape"/>
<feGaussianBlur stdDeviation="2.5" result="effect1_foregroundBlur_1_896"/>
</filter>
<filter id="filter7_d_1_896" x="46.7917" y="34.2711" width="77.4167" height="78.4586" filterUnits="userSpaceOnUse" color-interpolation-filters="sRGB">
<feFlood flood-opacity="0" result="BackgroundImageFix"/>
<feColorMatrix in="SourceAlpha" type="matrix" values="0 0 0 0 0 0 0 0 0 0 0 0 0 0 0 0 0 0 127 0" result="hardAlpha"/>
<feOffset dy="2"/>
<feGaussianBlur stdDeviation="4"/>
<feComposite in2="hardAlpha" operator="out"/>
<feColorMatrix type="matrix" values="0 0 0 0 0.938889 0 0 0 0 0.696538 0 0 0 0 0.246458 0 0 0 1 0"/>
<feBlend mode="normal" in2="BackgroundImageFix" result="effect1_dropShadow_1_896"/>
<feBlend mode="normal" in="SourceGraphic" in2="effect1_dropShadow_1_896" result="shape"/>
</filter>
<linearGradient id="paint0_linear_1_896" x1="85.5" y1="40.2711" x2="85.5" y2="102.73" gradientUnits="userSpaceOnUse">
<stop stop-color="#F1EBDF"/>
<stop offset="1" stop-color="#FFF8EA"/>
</linearGradient>
<linearGradient id="paint1_linear_1_896" x1="85.5" y1="40.2711" x2="85.5" y2="102.73" gradientUnits="userSpaceOnUse">
<stop stop-color="#F1EBDF"/>
<stop offset="1" stop-color="#FFF8EA"/>
</linearGradient>
<linearGradient id="paint2_linear_1_896" x1="85.5" y1="40.2711" x2="85.5" y2="102.73" gradientUnits="userSpaceOnUse">
<stop stop-color="#F1EBDF"/>
<stop offset="1" stop-color="#FFF8EA"/>
</linearGradient>
<linearGradient id="paint3_linear_1_896" x1="85.5" y1="40.2711" x2="85.5" y2="102.73" gradientUnits="userSpaceOnUse">
<stop stop-color="#F1EBDF"/>
<stop offset="1" stop-color="#FFF8EA"/>
</linearGradient>
<linearGradient id="paint4_linear_1_896" x1="85.5" y1="40.2711" x2="85.5" y2="102.73" gradientUnits="userSpaceOnUse">
<stop stop-color="#F1EBDF"/>
<stop offset="1" stop-color="#FFF8EA"/>
</linearGradient>
<linearGradient id="paint5_linear_1_896" x1="85.5" y1="40.2711" x2="85.5" y2="102.73" gradientUnits="userSpaceOnUse">
<stop stop-color="#F1EBDF"/>
<stop offset="1" stop-color="#FFF8EA"/>
</linearGradient>
<linearGradient id="paint6_linear_1_896" x1="85.5" y1="40.2711" x2="85.5" y2="102.73" gradientUnits="userSpaceOnUse">
<stop stop-color="#F1EBDF"/>
<stop offset="1" stop-color="#FFF8EA"/>
</linearGradient>
<linearGradient id="paint7_linear_1_896" x1="85.5" y1="40.2711" x2="85.5" y2="102.73" gradientUnits="userSpaceOnUse">
<stop stop-color="#F1EBDF"/>
<stop offset="1" stop-color="#FFF8EA"/>
</linearGradient>
</defs>
</svg>
