<svg width="168" height="169" viewBox="0 0 168 169" fill="none" xmlns="http://www.w3.org/2000/svg">
<g filter="url(#filter0_f_1_805)">
<rect x="23.1299" y="129.978" width="121.119" height="26.3955" rx="12" fill="#01B37D"/>
</g>
<g filter="url(#filter1_f_1_805)">
<rect x="26.1182" y="129.676" width="115.143" height="22.998" rx="11.499" fill="#BBFED2"/>
</g>
<g filter="url(#filter2_bii_1_805)">
<rect x="23.1299" y="74.1201" width="51.3838" height="70.7202" rx="12" fill="#01B37D"/>
</g>
<g filter="url(#filter3_f_1_805)">
<rect x="25.3652" y="77.1963" width="42.0283" height="64.5679" rx="12" fill="#72E2B9"/>
</g>
<g filter="url(#filter4_bii_1_805)">
<rect x="41.4814" y="19.0635" width="102.768" height="125.777" rx="17" fill="#01B37D"/>
</g>
<g filter="url(#filter5_f_1_805)">
<rect x="44.4707" y="22.7215" width="96.7899" height="118.461" rx="16" fill="#72E2B9"/>
</g>
<mask id="mask0_1_805" style="mask-type:alpha" maskUnits="userSpaceOnUse" x="47" y="27" width="91" height="112">
<rect x="47.6709" y="27.9813" width="89.7832" height="110.508" rx="12" fill="#5EC5FF"/>
</mask>
<g mask="url(#mask0_1_805)">
<g filter="url(#filter6_f_1_805)">
<rect x="23.1299" y="74.1201" width="45.7998" height="70.7202" rx="12" fill="#01B37D"/>
</g>
</g>
<g filter="url(#filter7_d_1_805)">
<path fill-rule="evenodd" clip-rule="evenodd" d="M62.1569 62.1188C62.1569 58.9892 64.6567 56.4521 67.7403 56.4521H117.99C121.074 56.4521 123.574 58.9892 123.574 62.1188V101.785C123.574 104.915 121.074 107.452 117.99 107.452H67.7403C64.6567 107.452 62.1569 104.915 62.1569 101.785V62.1188ZM117.99 62.1188H67.7403V101.785H117.99V62.1188ZM92.8653 69.2021C94.4071 69.2021 95.6569 70.4707 95.6569 72.0355V91.8688C95.6569 93.4336 94.4071 94.7021 92.8653 94.7021C91.3235 94.7021 90.0736 93.4336 90.0736 91.8688V72.0355C90.0736 70.4707 91.3235 69.2021 92.8653 69.2021ZM81.6986 76.2855C83.2404 76.2855 84.4903 77.554 84.4903 79.1188V91.8688C84.4903 93.4336 83.2404 94.7021 81.6986 94.7021C80.1568 94.7021 78.9069 93.4336 78.9069 91.8688V79.1188C78.9069 77.554 80.1568 76.2855 81.6986 76.2855ZM104.032 79.1188C105.574 79.1188 106.824 80.3873 106.824 81.9521V91.8688C106.824 93.4336 105.574 94.7021 104.032 94.7021C102.49 94.7021 101.24 93.4336 101.24 91.8688V81.9521C101.24 80.3873 102.49 79.1188 104.032 79.1188Z" fill="url(#paint0_linear_1_805)"/>
<path d="M118.49 62.1188V61.6188H117.99H67.7403H67.2403V62.1188V101.785V102.285H67.7403H117.99H118.49V101.785V62.1188ZM62.6569 62.1188C62.6569 59.2583 64.9398 56.9521 67.7403 56.9521H117.99C120.791 56.9521 123.074 59.2584 123.074 62.1188V101.785C123.074 104.646 120.791 106.952 117.99 106.952H67.7403C64.9398 106.952 62.6569 104.646 62.6569 101.785V62.1188ZM92.8653 69.7021C94.124 69.7021 95.1569 70.7398 95.1569 72.0355V91.8688C95.1569 93.1645 94.124 94.2021 92.8653 94.2021C91.6066 94.2021 90.5736 93.1645 90.5736 91.8688V72.0355C90.5736 70.7398 91.6066 69.7021 92.8653 69.7021ZM81.6986 76.7855C82.9573 76.7855 83.9903 77.8231 83.9903 79.1188V91.8688C83.9903 93.1645 82.9573 94.2021 81.6986 94.2021C80.4399 94.2021 79.4069 93.1645 79.4069 91.8688V79.1188C79.4069 77.8231 80.4399 76.7855 81.6986 76.7855ZM104.032 79.6188C105.291 79.6188 106.324 80.6565 106.324 81.9521V91.8688C106.324 93.1645 105.291 94.2021 104.032 94.2021C102.773 94.2021 101.74 93.1645 101.74 91.8688V81.9521C101.74 80.6565 102.773 79.6188 104.032 79.6188Z" stroke="#F4F9FF" stroke-miterlimit="10" stroke-linecap="round"/>
</g>
<defs>
<filter id="filter0_f_1_805" x="15.1299" y="121.978" width="137.119" height="42.3955" filterUnits="userSpaceOnUse" color-interpolation-filters="sRGB">
<feFlood flood-opacity="0" result="BackgroundImageFix"/>
<feBlend mode="normal" in="SourceGraphic" in2="BackgroundImageFix" result="shape"/>
<feGaussianBlur stdDeviation="4" result="effect1_foregroundBlur_1_805"/>
</filter>
<filter id="filter1_f_1_805" x="18.1182" y="121.676" width="131.143" height="38.998" filterUnits="userSpaceOnUse" color-interpolation-filters="sRGB">
<feFlood flood-opacity="0" result="BackgroundImageFix"/>
<feBlend mode="normal" in="SourceGraphic" in2="BackgroundImageFix" result="shape"/>
<feGaussianBlur stdDeviation="4" result="effect1_foregroundBlur_1_805"/>
</filter>
<filter id="filter2_bii_1_805" x="17.1299" y="68.1201" width="63.3838" height="82.7202" filterUnits="userSpaceOnUse" color-interpolation-filters="sRGB">
<feFlood flood-opacity="0" result="BackgroundImageFix"/>
<feGaussianBlur in="BackgroundImageFix" stdDeviation="3"/>
<feComposite in2="SourceAlpha" operator="in" result="effect1_backgroundBlur_1_805"/>
<feBlend mode="normal" in="SourceGraphic" in2="effect1_backgroundBlur_1_805" result="shape"/>
<feColorMatrix in="SourceAlpha" type="matrix" values="0 0 0 0 0 0 0 0 0 0 0 0 0 0 0 0 0 0 127 0" result="hardAlpha"/>
<feOffset dy="2"/>
<feGaussianBlur stdDeviation="1.5"/>
<feComposite in2="hardAlpha" operator="arithmetic" k2="-1" k3="1"/>
<feColorMatrix type="matrix" values="0 0 0 0 0.368627 0 0 0 0 1 0 0 0 0 0.584314 0 0 0 1 0"/>
<feBlend mode="normal" in2="shape" result="effect2_innerShadow_1_805"/>
<feColorMatrix in="SourceAlpha" type="matrix" values="0 0 0 0 0 0 0 0 0 0 0 0 0 0 0 0 0 0 127 0" result="hardAlpha"/>
<feOffset/>
<feGaussianBlur stdDeviation="1"/>
<feComposite in2="hardAlpha" operator="arithmetic" k2="-1" k3="1"/>
<feColorMatrix type="matrix" values="0 0 0 0 0.368627 0 0 0 0 1 0 0 0 0 0.583294 0 0 0 1 0"/>
<feBlend mode="normal" in2="effect2_innerShadow_1_805" result="effect3_innerShadow_1_805"/>
</filter>
<filter id="filter3_f_1_805" x="21.3652" y="73.1963" width="50.0283" height="72.5679" filterUnits="userSpaceOnUse" color-interpolation-filters="sRGB">
<feFlood flood-opacity="0" result="BackgroundImageFix"/>
<feBlend mode="normal" in="SourceGraphic" in2="BackgroundImageFix" result="shape"/>
<feGaussianBlur stdDeviation="2" result="effect1_foregroundBlur_1_805"/>
</filter>
<filter id="filter4_bii_1_805" x="35.4814" y="13.0635" width="114.768" height="137.777" filterUnits="userSpaceOnUse" color-interpolation-filters="sRGB">
<feFlood flood-opacity="0" result="BackgroundImageFix"/>
<feGaussianBlur in="BackgroundImageFix" stdDeviation="3"/>
<feComposite in2="SourceAlpha" operator="in" result="effect1_backgroundBlur_1_805"/>
<feBlend mode="normal" in="SourceGraphic" in2="effect1_backgroundBlur_1_805" result="shape"/>
<feColorMatrix in="SourceAlpha" type="matrix" values="0 0 0 0 0 0 0 0 0 0 0 0 0 0 0 0 0 0 127 0" result="hardAlpha"/>
<feOffset dy="2"/>
<feGaussianBlur stdDeviation="1.5"/>
<feComposite in2="hardAlpha" operator="arithmetic" k2="-1" k3="1"/>
<feColorMatrix type="matrix" values="0 0 0 0 0.368627 0 0 0 0 1 0 0 0 0 0.584314 0 0 0 1 0"/>
<feBlend mode="normal" in2="shape" result="effect2_innerShadow_1_805"/>
<feColorMatrix in="SourceAlpha" type="matrix" values="0 0 0 0 0 0 0 0 0 0 0 0 0 0 0 0 0 0 127 0" result="hardAlpha"/>
<feOffset/>
<feGaussianBlur stdDeviation="1"/>
<feComposite in2="hardAlpha" operator="arithmetic" k2="-1" k3="1"/>
<feColorMatrix type="matrix" values="0 0 0 0 0.368627 0 0 0 0 1 0 0 0 0 0.583294 0 0 0 1 0"/>
<feBlend mode="normal" in2="effect2_innerShadow_1_805" result="effect3_innerShadow_1_805"/>
</filter>
<filter id="filter5_f_1_805" x="39.4707" y="17.7215" width="106.79" height="128.461" filterUnits="userSpaceOnUse" color-interpolation-filters="sRGB">
<feFlood flood-opacity="0" result="BackgroundImageFix"/>
<feBlend mode="normal" in="SourceGraphic" in2="BackgroundImageFix" result="shape"/>
<feGaussianBlur stdDeviation="2.5" result="effect1_foregroundBlur_1_805"/>
</filter>
<filter id="filter6_f_1_805" x="18.1299" y="69.1201" width="55.7998" height="80.7202" filterUnits="userSpaceOnUse" color-interpolation-filters="sRGB">
<feFlood flood-opacity="0" result="BackgroundImageFix"/>
<feBlend mode="normal" in="SourceGraphic" in2="BackgroundImageFix" result="shape"/>
<feGaussianBlur stdDeviation="2.5" result="effect1_foregroundBlur_1_805"/>
</filter>
<filter id="filter7_d_1_805" x="54.1569" y="50.4521" width="77.4167" height="67" filterUnits="userSpaceOnUse" color-interpolation-filters="sRGB">
<feFlood flood-opacity="0" result="BackgroundImageFix"/>
<feColorMatrix in="SourceAlpha" type="matrix" values="0 0 0 0 0 0 0 0 0 0 0 0 0 0 0 0 0 0 127 0" result="hardAlpha"/>
<feOffset dy="2"/>
<feGaussianBlur stdDeviation="4"/>
<feComposite in2="hardAlpha" operator="out"/>
<feColorMatrix type="matrix" values="0 0 0 0 0.128872 0 0 0 0 0.793056 0 0 0 0 0.514098 0 0 0 1 0"/>
<feBlend mode="normal" in2="BackgroundImageFix" result="effect1_dropShadow_1_805"/>
<feBlend mode="normal" in="SourceGraphic" in2="effect1_dropShadow_1_805" result="shape"/>
</filter>
<linearGradient id="paint0_linear_1_805" x1="92.8653" y1="56.4521" x2="92.8653" y2="107.452" gradientUnits="userSpaceOnUse">
<stop stop-color="#DFE6F1"/>
<stop offset="1" stop-color="#EAF2FF"/>
</linearGradient>
</defs>
</svg>
