<svg width="168" height="169" viewBox="0 0 168 169" fill="none" xmlns="http://www.w3.org/2000/svg">
<g filter="url(#filter0_f_1_272)">
<rect x="16" y="128.5" width="136" height="26" rx="12" fill="#F49300"/>
</g>
<g filter="url(#filter1_f_1_272)">
<rect x="18" y="132.5" width="132" height="20" rx="10" fill="#FFFDCE"/>
</g>
<g filter="url(#filter2_bii_1_272)">
<rect x="13" y="113.5" width="142" height="30" rx="12" fill="#F49300"/>
</g>
<g filter="url(#filter3_f_1_272)">
<rect x="15" y="117.5" width="138" height="25" rx="12" fill="#FFC75E"/>
</g>
<g filter="url(#filter4_bii_1_272)">
<rect x="28" y="13.5" width="115" height="115" rx="42" fill="#F49300"/>
</g>
<g filter="url(#filter5_f_1_272)">
<rect x="31" y="16.5" width="109" height="110" rx="42" fill="#FFC75E"/>
</g>
<mask id="mask0_1_272" style="mask-type:alpha" maskUnits="userSpaceOnUse" x="35" y="20" width="101" height="107">
<rect x="35" y="20.5" width="101" height="106" rx="42" fill="#FFC75E"/>
</mask>
<g mask="url(#mask0_1_272)">
<g filter="url(#filter6_f_1_272)">
<rect x="31" y="112.5" width="109" height="14" fill="#F49300"/>
</g>
</g>
<g filter="url(#filter7_d_1_272)">
<path fill-rule="evenodd" clip-rule="evenodd" d="M54.7917 48.8333C54.7917 47.2685 56.0416 46 57.5834 46H113.417C114.958 46 116.208 47.2685 116.208 48.8333V94.1667C116.208 95.7315 114.958 97 113.417 97H57.5834C56.0416 97 54.7917 95.7315 54.7917 94.1667V48.8333ZM60.375 51.6667V60.1667H110.625V51.6667H60.375ZM110.625 65.8333H60.375V91.3333H110.625V65.8333ZM65.9584 78.5833C65.9584 77.0185 67.2082 75.75 68.75 75.75H71.5417C73.0835 75.75 74.3334 77.0185 74.3334 78.5833C74.3334 80.1481 73.0835 81.4167 71.5417 81.4167H68.75C67.2082 81.4167 65.9584 80.1481 65.9584 78.5833ZM77.125 78.5833C77.125 77.0185 78.3749 75.75 79.9167 75.75H82.7084C84.2502 75.75 85.5 77.0185 85.5 78.5833C85.5 80.1481 84.2502 81.4167 82.7084 81.4167H79.9167C78.3749 81.4167 77.125 80.1481 77.125 78.5833ZM88.2917 78.5833C88.2917 77.0185 89.5416 75.75 91.0834 75.75H93.875C95.4168 75.75 96.6667 77.0185 96.6667 78.5833C96.6667 80.1481 95.4168 81.4167 93.875 81.4167H91.0834C89.5416 81.4167 88.2917 80.1481 88.2917 78.5833Z" fill="url(#paint0_linear_1_272)"/>
<path d="M60.375 51.1667C60.0989 51.1667 59.875 51.3905 59.875 51.6667V60.1667C59.875 60.4428 60.0989 60.6667 60.375 60.6667H110.625C110.901 60.6667 111.125 60.4428 111.125 60.1667V51.6667C111.125 51.3905 110.901 51.1667 110.625 51.1667H60.375ZM111.125 65.8333C111.125 65.5572 110.901 65.3333 110.625 65.3333H60.375C60.0989 65.3333 59.875 65.5572 59.875 65.8333V91.3333C59.875 91.6095 60.0989 91.8333 60.375 91.8333H110.625C110.901 91.8333 111.125 91.6095 111.125 91.3333V65.8333ZM55.2917 48.8333C55.2917 47.5377 56.3247 46.5 57.5834 46.5H113.417C114.675 46.5 115.708 47.5377 115.708 48.8333V94.1667C115.708 95.4623 114.675 96.5 113.417 96.5H57.5834C56.3247 96.5 55.2917 95.4623 55.2917 94.1667V48.8333ZM66.4584 78.5833C66.4584 77.2877 67.4913 76.25 68.75 76.25H71.5417C72.8004 76.25 73.8334 77.2877 73.8334 78.5833C73.8334 79.879 72.8004 80.9167 71.5417 80.9167H68.75C67.4913 80.9167 66.4584 79.879 66.4584 78.5833ZM77.625 78.5833C77.625 77.2877 78.658 76.25 79.9167 76.25H82.7084C83.9671 76.25 85 77.2877 85 78.5833C85 79.879 83.9671 80.9167 82.7084 80.9167H79.9167C78.658 80.9167 77.625 79.879 77.625 78.5833ZM88.7917 78.5833C88.7917 77.2877 89.8247 76.25 91.0834 76.25H93.875C95.1337 76.25 96.1667 77.2877 96.1667 78.5833C96.1667 79.879 95.1337 80.9167 93.875 80.9167H91.0834C89.8247 80.9167 88.7917 79.879 88.7917 78.5833Z" stroke="#FFFBF4" stroke-miterlimit="10" stroke-linecap="round" stroke-linejoin="round"/>
</g>
<defs>
<filter id="filter0_f_1_272" x="8" y="120.5" width="152" height="42" filterUnits="userSpaceOnUse" color-interpolation-filters="sRGB">
<feFlood flood-opacity="0" result="BackgroundImageFix"/>
<feBlend mode="normal" in="SourceGraphic" in2="BackgroundImageFix" result="shape"/>
<feGaussianBlur stdDeviation="4" result="effect1_foregroundBlur_1_272"/>
</filter>
<filter id="filter1_f_1_272" x="10" y="124.5" width="148" height="36" filterUnits="userSpaceOnUse" color-interpolation-filters="sRGB">
<feFlood flood-opacity="0" result="BackgroundImageFix"/>
<feBlend mode="normal" in="SourceGraphic" in2="BackgroundImageFix" result="shape"/>
<feGaussianBlur stdDeviation="4" result="effect1_foregroundBlur_1_272"/>
</filter>
<filter id="filter2_bii_1_272" x="7" y="107.5" width="154" height="42" filterUnits="userSpaceOnUse" color-interpolation-filters="sRGB">
<feFlood flood-opacity="0" result="BackgroundImageFix"/>
<feGaussianBlur in="BackgroundImageFix" stdDeviation="3"/>
<feComposite in2="SourceAlpha" operator="in" result="effect1_backgroundBlur_1_272"/>
<feBlend mode="normal" in="SourceGraphic" in2="effect1_backgroundBlur_1_272" result="shape"/>
<feColorMatrix in="SourceAlpha" type="matrix" values="0 0 0 0 0 0 0 0 0 0 0 0 0 0 0 0 0 0 127 0" result="hardAlpha"/>
<feOffset dy="2"/>
<feGaussianBlur stdDeviation="1.5"/>
<feComposite in2="hardAlpha" operator="arithmetic" k2="-1" k3="1"/>
<feColorMatrix type="matrix" values="0 0 0 0 1 0 0 0 0 0.843137 0 0 0 0 0.54902 0 0 0 1 0"/>
<feBlend mode="normal" in2="shape" result="effect2_innerShadow_1_272"/>
<feColorMatrix in="SourceAlpha" type="matrix" values="0 0 0 0 0 0 0 0 0 0 0 0 0 0 0 0 0 0 127 0" result="hardAlpha"/>
<feOffset/>
<feGaussianBlur stdDeviation="1"/>
<feComposite in2="hardAlpha" operator="arithmetic" k2="-1" k3="1"/>
<feColorMatrix type="matrix" values="0 0 0 0 1 0 0 0 0 0.843137 0 0 0 0 0.54902 0 0 0 1 0"/>
<feBlend mode="normal" in2="effect2_innerShadow_1_272" result="effect3_innerShadow_1_272"/>
</filter>
<filter id="filter3_f_1_272" x="11" y="113.5" width="146" height="33" filterUnits="userSpaceOnUse" color-interpolation-filters="sRGB">
<feFlood flood-opacity="0" result="BackgroundImageFix"/>
<feBlend mode="normal" in="SourceGraphic" in2="BackgroundImageFix" result="shape"/>
<feGaussianBlur stdDeviation="2" result="effect1_foregroundBlur_1_272"/>
</filter>
<filter id="filter4_bii_1_272" x="22" y="7.5" width="127" height="127" filterUnits="userSpaceOnUse" color-interpolation-filters="sRGB">
<feFlood flood-opacity="0" result="BackgroundImageFix"/>
<feGaussianBlur in="BackgroundImageFix" stdDeviation="3"/>
<feComposite in2="SourceAlpha" operator="in" result="effect1_backgroundBlur_1_272"/>
<feBlend mode="normal" in="SourceGraphic" in2="effect1_backgroundBlur_1_272" result="shape"/>
<feColorMatrix in="SourceAlpha" type="matrix" values="0 0 0 0 0 0 0 0 0 0 0 0 0 0 0 0 0 0 127 0" result="hardAlpha"/>
<feOffset dy="2"/>
<feGaussianBlur stdDeviation="1.5"/>
<feComposite in2="hardAlpha" operator="arithmetic" k2="-1" k3="1"/>
<feColorMatrix type="matrix" values="0 0 0 0 1 0 0 0 0 0.843137 0 0 0 0 0.54902 0 0 0 1 0"/>
<feBlend mode="normal" in2="shape" result="effect2_innerShadow_1_272"/>
<feColorMatrix in="SourceAlpha" type="matrix" values="0 0 0 0 0 0 0 0 0 0 0 0 0 0 0 0 0 0 127 0" result="hardAlpha"/>
<feOffset/>
<feGaussianBlur stdDeviation="1"/>
<feComposite in2="hardAlpha" operator="arithmetic" k2="-1" k3="1"/>
<feColorMatrix type="matrix" values="0 0 0 0 1 0 0 0 0 0.843137 0 0 0 0 0.54902 0 0 0 1 0"/>
<feBlend mode="normal" in2="effect2_innerShadow_1_272" result="effect3_innerShadow_1_272"/>
</filter>
<filter id="filter5_f_1_272" x="28" y="13.5" width="115" height="116" filterUnits="userSpaceOnUse" color-interpolation-filters="sRGB">
<feFlood flood-opacity="0" result="BackgroundImageFix"/>
<feBlend mode="normal" in="SourceGraphic" in2="BackgroundImageFix" result="shape"/>
<feGaussianBlur stdDeviation="1.5" result="effect1_foregroundBlur_1_272"/>
</filter>
<filter id="filter6_f_1_272" x="26" y="107.5" width="119" height="24" filterUnits="userSpaceOnUse" color-interpolation-filters="sRGB">
<feFlood flood-opacity="0" result="BackgroundImageFix"/>
<feBlend mode="normal" in="SourceGraphic" in2="BackgroundImageFix" result="shape"/>
<feGaussianBlur stdDeviation="2.5" result="effect1_foregroundBlur_1_272"/>
</filter>
<filter id="filter7_d_1_272" x="46.7917" y="40" width="77.4167" height="67" filterUnits="userSpaceOnUse" color-interpolation-filters="sRGB">
<feFlood flood-opacity="0" result="BackgroundImageFix"/>
<feColorMatrix in="SourceAlpha" type="matrix" values="0 0 0 0 0 0 0 0 0 0 0 0 0 0 0 0 0 0 127 0" result="hardAlpha"/>
<feOffset dy="2"/>
<feGaussianBlur stdDeviation="4"/>
<feComposite in2="hardAlpha" operator="out"/>
<feColorMatrix type="matrix" values="0 0 0 0 0.938889 0 0 0 0 0.696538 0 0 0 0 0.246458 0 0 0 1 0"/>
<feBlend mode="normal" in2="BackgroundImageFix" result="effect1_dropShadow_1_272"/>
<feBlend mode="normal" in="SourceGraphic" in2="effect1_dropShadow_1_272" result="shape"/>
</filter>
<linearGradient id="paint0_linear_1_272" x1="85.5" y1="46" x2="85.5" y2="97" gradientUnits="userSpaceOnUse">
<stop stop-color="#F1EBDF"/>
<stop offset="1" stop-color="#FFF8EA"/>
</linearGradient>
</defs>
</svg>
