<svg width="168" height="169" viewBox="0 0 168 169" fill="none" xmlns="http://www.w3.org/2000/svg">
<g filter="url(#filter0_f_1_467)">
<rect x="16" y="128.5" width="136" height="26" rx="12" fill="#01B37D"/>
</g>
<g filter="url(#filter1_f_1_467)">
<rect x="18" y="132.5" width="132" height="20" rx="10" fill="#BBFED2"/>
</g>
<g filter="url(#filter2_bii_1_467)">
<rect x="13" y="113.5" width="142" height="30" rx="12" fill="#01B37D"/>
</g>
<g filter="url(#filter3_f_1_467)">
<rect x="15" y="117.5" width="138" height="25" rx="12" fill="#72E2B9"/>
</g>
<g filter="url(#filter4_bii_1_467)">
<rect x="28" y="13.5" width="115" height="115" rx="42" fill="#01B37D"/>
</g>
<g filter="url(#filter5_f_1_467)">
<rect x="31" y="16.5" width="109" height="110" rx="42" fill="#72E2B9"/>
</g>
<mask id="mask0_1_467" style="mask-type:alpha" maskUnits="userSpaceOnUse" x="35" y="20" width="101" height="107">
<rect x="35" y="20.5" width="101" height="106" rx="42" fill="#5EC5FF"/>
</mask>
<g mask="url(#mask0_1_467)">
<g filter="url(#filter6_f_1_467)">
<rect x="31" y="112.5" width="109" height="14" fill="#01B37D"/>
</g>
</g>
<g filter="url(#filter7_d_1_467)">
<path fill-rule="evenodd" clip-rule="evenodd" d="M72.1198 42.5799C71.0296 41.4734 69.262 41.4734 68.1718 42.5799L55.6093 55.3299C54.5191 56.4363 54.5191 58.2303 55.6093 59.3368L68.1718 72.0868C69.262 73.1933 71.0296 73.1933 72.1198 72.0868L84.6823 59.3368C85.7725 58.2303 85.7725 56.4363 84.6823 55.3299L72.1198 42.5799ZM70.1458 66.0764L61.5313 57.3333L70.1458 48.5903L78.7603 57.3333L70.1458 66.0764Z" fill="url(#paint0_linear_1_467)"/>
<path fill-rule="evenodd" clip-rule="evenodd" d="M88.2917 57.3333C88.2917 49.5093 94.541 43.1667 102.25 43.1667C109.959 43.1667 116.208 49.5093 116.208 57.3333C116.208 65.1574 109.959 71.5 102.25 71.5C94.541 71.5 88.2917 65.1574 88.2917 57.3333ZM102.25 48.8333C97.6246 48.8333 93.875 52.6389 93.875 57.3333C93.875 62.0278 97.6246 65.8333 102.25 65.8333C106.875 65.8333 110.625 62.0278 110.625 57.3333C110.625 52.6389 106.875 48.8333 102.25 48.8333Z" fill="url(#paint1_linear_1_467)"/>
<path fill-rule="evenodd" clip-rule="evenodd" d="M54.7917 88.5C54.7917 82.2408 59.7911 77.1667 65.9583 77.1667H105.042C111.209 77.1667 116.208 82.2408 116.208 88.5C116.208 94.7592 111.209 99.8333 105.042 99.8333H65.9583C59.7911 99.8333 54.7917 94.7592 54.7917 88.5ZM65.9583 82.8333C62.8747 82.8333 60.375 85.3704 60.375 88.5C60.375 91.6296 62.8747 94.1667 65.9583 94.1667H105.042C108.125 94.1667 110.625 91.6296 110.625 88.5C110.625 85.3704 108.125 82.8333 105.042 82.8333H65.9583Z" fill="url(#paint2_linear_1_467)"/>
<path d="M69.7897 66.4273C69.8836 66.5227 70.0119 66.5764 70.1458 66.5764C70.2797 66.5764 70.408 66.5227 70.502 66.4273L79.1165 57.6843C79.3083 57.4896 79.3083 57.1771 79.1165 56.9824L70.502 48.2393C70.408 48.144 70.2797 48.0903 70.1458 48.0903C70.0119 48.0903 69.8836 48.144 69.7897 48.2393L61.1752 56.9824C60.9834 57.1771 60.9834 57.4896 61.1752 57.6843L69.7897 66.4273ZM68.528 42.9308C69.4223 42.0231 70.8693 42.0231 71.7637 42.9308L84.3262 55.6808C85.2246 56.5926 85.2246 58.074 84.3262 58.9859L71.7637 71.7359C70.8693 72.6436 69.4223 72.6436 68.528 71.7359L55.9655 58.9859C55.067 58.074 55.067 56.5926 55.9655 55.6808L68.528 42.9308ZM88.7917 57.3333C88.7917 49.7784 94.8241 43.6667 102.25 43.6667C109.676 43.6667 115.708 49.7784 115.708 57.3333C115.708 64.8882 109.676 71 102.25 71C94.8241 71 88.7917 64.8882 88.7917 57.3333ZM102.25 48.3333C97.3415 48.3333 93.375 52.3698 93.375 57.3333C93.375 62.2969 97.3415 66.3333 102.25 66.3333C107.158 66.3333 111.125 62.2969 111.125 57.3333C111.125 52.3698 107.158 48.3333 102.25 48.3333ZM55.2917 88.5C55.2917 82.5099 60.0742 77.6667 65.9583 77.6667H105.042C110.926 77.6667 115.708 82.5099 115.708 88.5C115.708 94.4901 110.926 99.3333 105.042 99.3333H65.9583C60.0742 99.3333 55.2917 94.4901 55.2917 88.5ZM65.9583 82.3333C62.5916 82.3333 59.875 85.1012 59.875 88.5C59.875 91.8987 62.5916 94.6667 65.9583 94.6667H105.042C108.408 94.6667 111.125 91.8987 111.125 88.5C111.125 85.1012 108.408 82.3333 105.042 82.3333H65.9583Z" stroke="#F4F9FF" stroke-miterlimit="10" stroke-linecap="round" stroke-linejoin="round"/>
</g>
<defs>
<filter id="filter0_f_1_467" x="8" y="120.5" width="152" height="42" filterUnits="userSpaceOnUse" color-interpolation-filters="sRGB">
<feFlood flood-opacity="0" result="BackgroundImageFix"/>
<feBlend mode="normal" in="SourceGraphic" in2="BackgroundImageFix" result="shape"/>
<feGaussianBlur stdDeviation="4" result="effect1_foregroundBlur_1_467"/>
</filter>
<filter id="filter1_f_1_467" x="10" y="124.5" width="148" height="36" filterUnits="userSpaceOnUse" color-interpolation-filters="sRGB">
<feFlood flood-opacity="0" result="BackgroundImageFix"/>
<feBlend mode="normal" in="SourceGraphic" in2="BackgroundImageFix" result="shape"/>
<feGaussianBlur stdDeviation="4" result="effect1_foregroundBlur_1_467"/>
</filter>
<filter id="filter2_bii_1_467" x="7" y="107.5" width="154" height="42" filterUnits="userSpaceOnUse" color-interpolation-filters="sRGB">
<feFlood flood-opacity="0" result="BackgroundImageFix"/>
<feGaussianBlur in="BackgroundImageFix" stdDeviation="3"/>
<feComposite in2="SourceAlpha" operator="in" result="effect1_backgroundBlur_1_467"/>
<feBlend mode="normal" in="SourceGraphic" in2="effect1_backgroundBlur_1_467" result="shape"/>
<feColorMatrix in="SourceAlpha" type="matrix" values="0 0 0 0 0 0 0 0 0 0 0 0 0 0 0 0 0 0 127 0" result="hardAlpha"/>
<feOffset dy="2"/>
<feGaussianBlur stdDeviation="1.5"/>
<feComposite in2="hardAlpha" operator="arithmetic" k2="-1" k3="1"/>
<feColorMatrix type="matrix" values="0 0 0 0 0.368627 0 0 0 0 1 0 0 0 0 0.584314 0 0 0 1 0"/>
<feBlend mode="normal" in2="shape" result="effect2_innerShadow_1_467"/>
<feColorMatrix in="SourceAlpha" type="matrix" values="0 0 0 0 0 0 0 0 0 0 0 0 0 0 0 0 0 0 127 0" result="hardAlpha"/>
<feOffset/>
<feGaussianBlur stdDeviation="1"/>
<feComposite in2="hardAlpha" operator="arithmetic" k2="-1" k3="1"/>
<feColorMatrix type="matrix" values="0 0 0 0 0.368627 0 0 0 0 1 0 0 0 0 0.583294 0 0 0 1 0"/>
<feBlend mode="normal" in2="effect2_innerShadow_1_467" result="effect3_innerShadow_1_467"/>
</filter>
<filter id="filter3_f_1_467" x="11" y="113.5" width="146" height="33" filterUnits="userSpaceOnUse" color-interpolation-filters="sRGB">
<feFlood flood-opacity="0" result="BackgroundImageFix"/>
<feBlend mode="normal" in="SourceGraphic" in2="BackgroundImageFix" result="shape"/>
<feGaussianBlur stdDeviation="2" result="effect1_foregroundBlur_1_467"/>
</filter>
<filter id="filter4_bii_1_467" x="22" y="7.5" width="127" height="127" filterUnits="userSpaceOnUse" color-interpolation-filters="sRGB">
<feFlood flood-opacity="0" result="BackgroundImageFix"/>
<feGaussianBlur in="BackgroundImageFix" stdDeviation="3"/>
<feComposite in2="SourceAlpha" operator="in" result="effect1_backgroundBlur_1_467"/>
<feBlend mode="normal" in="SourceGraphic" in2="effect1_backgroundBlur_1_467" result="shape"/>
<feColorMatrix in="SourceAlpha" type="matrix" values="0 0 0 0 0 0 0 0 0 0 0 0 0 0 0 0 0 0 127 0" result="hardAlpha"/>
<feOffset dy="2"/>
<feGaussianBlur stdDeviation="1.5"/>
<feComposite in2="hardAlpha" operator="arithmetic" k2="-1" k3="1"/>
<feColorMatrix type="matrix" values="0 0 0 0 0.368627 0 0 0 0 1 0 0 0 0 0.584314 0 0 0 1 0"/>
<feBlend mode="normal" in2="shape" result="effect2_innerShadow_1_467"/>
<feColorMatrix in="SourceAlpha" type="matrix" values="0 0 0 0 0 0 0 0 0 0 0 0 0 0 0 0 0 0 127 0" result="hardAlpha"/>
<feOffset/>
<feGaussianBlur stdDeviation="1"/>
<feComposite in2="hardAlpha" operator="arithmetic" k2="-1" k3="1"/>
<feColorMatrix type="matrix" values="0 0 0 0 0.368627 0 0 0 0 1 0 0 0 0 0.583294 0 0 0 1 0"/>
<feBlend mode="normal" in2="effect2_innerShadow_1_467" result="effect3_innerShadow_1_467"/>
</filter>
<filter id="filter5_f_1_467" x="28" y="13.5" width="115" height="116" filterUnits="userSpaceOnUse" color-interpolation-filters="sRGB">
<feFlood flood-opacity="0" result="BackgroundImageFix"/>
<feBlend mode="normal" in="SourceGraphic" in2="BackgroundImageFix" result="shape"/>
<feGaussianBlur stdDeviation="1.5" result="effect1_foregroundBlur_1_467"/>
</filter>
<filter id="filter6_f_1_467" x="26" y="107.5" width="119" height="24" filterUnits="userSpaceOnUse" color-interpolation-filters="sRGB">
<feFlood flood-opacity="0" result="BackgroundImageFix"/>
<feBlend mode="normal" in="SourceGraphic" in2="BackgroundImageFix" result="shape"/>
<feGaussianBlur stdDeviation="2.5" result="effect1_foregroundBlur_1_467"/>
</filter>
<filter id="filter7_d_1_467" x="46.7917" y="35.75" width="77.4167" height="74.0834" filterUnits="userSpaceOnUse" color-interpolation-filters="sRGB">
<feFlood flood-opacity="0" result="BackgroundImageFix"/>
<feColorMatrix in="SourceAlpha" type="matrix" values="0 0 0 0 0 0 0 0 0 0 0 0 0 0 0 0 0 0 127 0" result="hardAlpha"/>
<feOffset dy="2"/>
<feGaussianBlur stdDeviation="4"/>
<feComposite in2="hardAlpha" operator="out"/>
<feColorMatrix type="matrix" values="0 0 0 0 0.128872 0 0 0 0 0.793056 0 0 0 0 0.514098 0 0 0 1 0"/>
<feBlend mode="normal" in2="BackgroundImageFix" result="effect1_dropShadow_1_467"/>
<feBlend mode="normal" in="SourceGraphic" in2="effect1_dropShadow_1_467" result="shape"/>
</filter>
<linearGradient id="paint0_linear_1_467" x1="85.5" y1="41.75" x2="85.5" y2="99.8333" gradientUnits="userSpaceOnUse">
<stop stop-color="#DFE6F1"/>
<stop offset="1" stop-color="#EAF2FF"/>
</linearGradient>
<linearGradient id="paint1_linear_1_467" x1="85.5" y1="41.75" x2="85.5" y2="99.8333" gradientUnits="userSpaceOnUse">
<stop stop-color="#DFE6F1"/>
<stop offset="1" stop-color="#EAF2FF"/>
</linearGradient>
<linearGradient id="paint2_linear_1_467" x1="85.5" y1="41.75" x2="85.5" y2="99.8333" gradientUnits="userSpaceOnUse">
<stop stop-color="#DFE6F1"/>
<stop offset="1" stop-color="#EAF2FF"/>
</linearGradient>
</defs>
</svg>
