<svg width="168" height="169" viewBox="0 0 168 169" fill="none" xmlns="http://www.w3.org/2000/svg">
<g filter="url(#filter0_f_1_584)">
<rect x="16" y="128.5" width="136" height="26" rx="12" fill="#F49300"/>
</g>
<g filter="url(#filter1_f_1_584)">
<rect x="18" y="132.5" width="132" height="20" rx="10" fill="#FFFDCE"/>
</g>
<g filter="url(#filter2_bii_1_584)">
<rect x="13" y="113.5" width="142" height="30" rx="12" fill="#F49300"/>
</g>
<g filter="url(#filter3_f_1_584)">
<rect x="15" y="117.5" width="138" height="25" rx="12" fill="#FFC75E"/>
</g>
<g filter="url(#filter4_bii_1_584)">
<rect x="28" y="13.5" width="115" height="115" rx="42" fill="#F49300"/>
</g>
<g filter="url(#filter5_f_1_584)">
<rect x="31" y="16.5" width="109" height="110" rx="42" fill="#FFC75E"/>
</g>
<mask id="mask0_1_584" style="mask-type:alpha" maskUnits="userSpaceOnUse" x="35" y="20" width="101" height="107">
<rect x="35" y="20.5" width="101" height="106" rx="42" fill="#FFC75E"/>
</mask>
<g mask="url(#mask0_1_584)">
<g filter="url(#filter6_f_1_584)">
<rect x="31" y="112.5" width="109" height="14" fill="#F49300"/>
</g>
</g>
<g filter="url(#filter7_d_1_584)">
<path fill-rule="evenodd" clip-rule="evenodd" d="M54.7917 67.25C54.7917 52.3844 66.6655 40.3333 81.3125 40.3333C95.9595 40.3333 107.833 52.3844 107.833 67.25C107.833 73.6622 105.624 79.5508 101.936 84.1743L112.19 94.5816C113.28 95.6881 113.28 97.482 112.19 98.5885C111.1 99.695 109.332 99.695 108.242 98.5885L97.988 88.1813C93.4324 91.9244 87.6304 94.1666 81.3125 94.1666C66.6655 94.1666 54.7917 82.1156 54.7917 67.25ZM81.3125 46C69.7491 46 60.375 55.514 60.375 67.25C60.375 78.986 69.7491 88.5 81.3125 88.5C92.8759 88.5 102.25 78.986 102.25 67.25C102.25 55.514 92.8759 46 81.3125 46ZM71.4425 55.8158C73.9655 53.2554 77.4588 51.6666 81.3125 51.6666C85.1661 51.6666 88.6596 53.2553 91.1825 55.8159C92.2727 56.9224 92.2727 58.7164 91.1825 59.8228C90.0922 60.9293 88.3247 60.9293 87.2344 59.8228C85.7158 58.2816 83.6259 57.3333 81.3125 57.3333C78.9991 57.3333 76.9091 58.2816 75.3903 59.8229C74.3001 60.9294 72.5325 60.9293 71.4423 59.8228C70.3522 58.7162 70.3522 56.9223 71.4425 55.8158Z" fill="url(#paint0_linear_1_584)"/>
<path d="M101.545 83.8626C101.387 84.0604 101.402 84.345 101.58 84.5253L111.834 94.9325C112.732 95.8443 112.732 97.3257 111.834 98.2376C110.94 99.1453 109.493 99.1453 108.598 98.2376L98.3441 87.8304C98.1626 87.6461 97.8704 87.6307 97.6706 87.795C93.2006 91.4678 87.5098 93.6666 81.3125 93.6666C66.9486 93.6666 55.2917 81.8465 55.2917 67.25C55.2917 52.6535 66.9486 40.8333 81.3125 40.8333C95.6764 40.8333 107.333 52.6535 107.333 67.25C107.333 73.5456 105.165 79.3249 101.545 83.8626ZM81.3125 45.5C69.466 45.5 59.875 55.2449 59.875 67.25C59.875 79.2551 69.466 89 81.3125 89C93.159 89 102.75 79.2551 102.75 67.25C102.75 55.2449 93.159 45.5 81.3125 45.5ZM71.7986 56.1668C74.2324 53.6969 77.5993 52.1666 81.3125 52.1666C85.0257 52.1666 88.3927 53.6969 90.8263 56.1668C91.7247 57.0787 91.7247 58.5601 90.8263 59.4719C89.9319 60.3796 88.485 60.3796 87.5906 59.4719C85.9826 57.8399 83.7662 56.8333 81.3125 56.8333C78.8588 56.8333 76.6424 57.8399 75.0342 59.472C74.1398 60.3797 72.6928 60.3796 71.7985 59.4719C70.9001 58.56 70.9002 57.0786 71.7986 56.1668Z" stroke="#FFFBF4" stroke-miterlimit="10" stroke-linecap="round" stroke-linejoin="round"/>
</g>
<defs>
<filter id="filter0_f_1_584" x="8" y="120.5" width="152" height="42" filterUnits="userSpaceOnUse" color-interpolation-filters="sRGB">
<feFlood flood-opacity="0" result="BackgroundImageFix"/>
<feBlend mode="normal" in="SourceGraphic" in2="BackgroundImageFix" result="shape"/>
<feGaussianBlur stdDeviation="4" result="effect1_foregroundBlur_1_584"/>
</filter>
<filter id="filter1_f_1_584" x="10" y="124.5" width="148" height="36" filterUnits="userSpaceOnUse" color-interpolation-filters="sRGB">
<feFlood flood-opacity="0" result="BackgroundImageFix"/>
<feBlend mode="normal" in="SourceGraphic" in2="BackgroundImageFix" result="shape"/>
<feGaussianBlur stdDeviation="4" result="effect1_foregroundBlur_1_584"/>
</filter>
<filter id="filter2_bii_1_584" x="7" y="107.5" width="154" height="42" filterUnits="userSpaceOnUse" color-interpolation-filters="sRGB">
<feFlood flood-opacity="0" result="BackgroundImageFix"/>
<feGaussianBlur in="BackgroundImageFix" stdDeviation="3"/>
<feComposite in2="SourceAlpha" operator="in" result="effect1_backgroundBlur_1_584"/>
<feBlend mode="normal" in="SourceGraphic" in2="effect1_backgroundBlur_1_584" result="shape"/>
<feColorMatrix in="SourceAlpha" type="matrix" values="0 0 0 0 0 0 0 0 0 0 0 0 0 0 0 0 0 0 127 0" result="hardAlpha"/>
<feOffset dy="2"/>
<feGaussianBlur stdDeviation="1.5"/>
<feComposite in2="hardAlpha" operator="arithmetic" k2="-1" k3="1"/>
<feColorMatrix type="matrix" values="0 0 0 0 1 0 0 0 0 0.843137 0 0 0 0 0.54902 0 0 0 1 0"/>
<feBlend mode="normal" in2="shape" result="effect2_innerShadow_1_584"/>
<feColorMatrix in="SourceAlpha" type="matrix" values="0 0 0 0 0 0 0 0 0 0 0 0 0 0 0 0 0 0 127 0" result="hardAlpha"/>
<feOffset/>
<feGaussianBlur stdDeviation="1"/>
<feComposite in2="hardAlpha" operator="arithmetic" k2="-1" k3="1"/>
<feColorMatrix type="matrix" values="0 0 0 0 1 0 0 0 0 0.843137 0 0 0 0 0.54902 0 0 0 1 0"/>
<feBlend mode="normal" in2="effect2_innerShadow_1_584" result="effect3_innerShadow_1_584"/>
</filter>
<filter id="filter3_f_1_584" x="11" y="113.5" width="146" height="33" filterUnits="userSpaceOnUse" color-interpolation-filters="sRGB">
<feFlood flood-opacity="0" result="BackgroundImageFix"/>
<feBlend mode="normal" in="SourceGraphic" in2="BackgroundImageFix" result="shape"/>
<feGaussianBlur stdDeviation="2" result="effect1_foregroundBlur_1_584"/>
</filter>
<filter id="filter4_bii_1_584" x="22" y="7.5" width="127" height="127" filterUnits="userSpaceOnUse" color-interpolation-filters="sRGB">
<feFlood flood-opacity="0" result="BackgroundImageFix"/>
<feGaussianBlur in="BackgroundImageFix" stdDeviation="3"/>
<feComposite in2="SourceAlpha" operator="in" result="effect1_backgroundBlur_1_584"/>
<feBlend mode="normal" in="SourceGraphic" in2="effect1_backgroundBlur_1_584" result="shape"/>
<feColorMatrix in="SourceAlpha" type="matrix" values="0 0 0 0 0 0 0 0 0 0 0 0 0 0 0 0 0 0 127 0" result="hardAlpha"/>
<feOffset dy="2"/>
<feGaussianBlur stdDeviation="1.5"/>
<feComposite in2="hardAlpha" operator="arithmetic" k2="-1" k3="1"/>
<feColorMatrix type="matrix" values="0 0 0 0 1 0 0 0 0 0.843137 0 0 0 0 0.54902 0 0 0 1 0"/>
<feBlend mode="normal" in2="shape" result="effect2_innerShadow_1_584"/>
<feColorMatrix in="SourceAlpha" type="matrix" values="0 0 0 0 0 0 0 0 0 0 0 0 0 0 0 0 0 0 127 0" result="hardAlpha"/>
<feOffset/>
<feGaussianBlur stdDeviation="1"/>
<feComposite in2="hardAlpha" operator="arithmetic" k2="-1" k3="1"/>
<feColorMatrix type="matrix" values="0 0 0 0 1 0 0 0 0 0.843137 0 0 0 0 0.54902 0 0 0 1 0"/>
<feBlend mode="normal" in2="effect2_innerShadow_1_584" result="effect3_innerShadow_1_584"/>
</filter>
<filter id="filter5_f_1_584" x="28" y="13.5" width="115" height="116" filterUnits="userSpaceOnUse" color-interpolation-filters="sRGB">
<feFlood flood-opacity="0" result="BackgroundImageFix"/>
<feBlend mode="normal" in="SourceGraphic" in2="BackgroundImageFix" result="shape"/>
<feGaussianBlur stdDeviation="1.5" result="effect1_foregroundBlur_1_584"/>
</filter>
<filter id="filter6_f_1_584" x="26" y="107.5" width="119" height="24" filterUnits="userSpaceOnUse" color-interpolation-filters="sRGB">
<feFlood flood-opacity="0" result="BackgroundImageFix"/>
<feBlend mode="normal" in="SourceGraphic" in2="BackgroundImageFix" result="shape"/>
<feGaussianBlur stdDeviation="2.5" result="effect1_foregroundBlur_1_584"/>
</filter>
<filter id="filter7_d_1_584" x="46.7917" y="34.3333" width="74.2162" height="75.0851" filterUnits="userSpaceOnUse" color-interpolation-filters="sRGB">
<feFlood flood-opacity="0" result="BackgroundImageFix"/>
<feColorMatrix in="SourceAlpha" type="matrix" values="0 0 0 0 0 0 0 0 0 0 0 0 0 0 0 0 0 0 127 0" result="hardAlpha"/>
<feOffset dy="2"/>
<feGaussianBlur stdDeviation="4"/>
<feComposite in2="hardAlpha" operator="out"/>
<feColorMatrix type="matrix" values="0 0 0 0 0.938889 0 0 0 0 0.696538 0 0 0 0 0.246458 0 0 0 1 0"/>
<feBlend mode="normal" in2="BackgroundImageFix" result="effect1_dropShadow_1_584"/>
<feBlend mode="normal" in="SourceGraphic" in2="effect1_dropShadow_1_584" result="shape"/>
</filter>
<linearGradient id="paint0_linear_1_584" x1="83.8997" y1="40.3333" x2="83.8997" y2="99.4184" gradientUnits="userSpaceOnUse">
<stop stop-color="#F1EBDF"/>
<stop offset="1" stop-color="#FFF8EA"/>
</linearGradient>
</defs>
</svg>
