<svg width="45" height="38" viewBox="0 0 45 38" fill="none" xmlns="http://www.w3.org/2000/svg">
<g filter="url(#filter0_f_1_209)">
<ellipse cx="27.4472" cy="24" rx="13.5" ry="10" fill="#D7E2F1"/>
</g>
<path d="M0.00322804 5.17759C-0.0293113 4.83236 0.187088 4.5124 0.519617 4.41407L14.313 0.335387C15.0533 0.116476 15.8411 0.116476 16.5815 0.335388L30.3748 4.41407C30.7073 4.5124 30.9237 4.83236 30.8912 5.17759L29.8891 15.8094C29.1654 23.4876 24.0218 30.0347 16.7331 32.5553Lnan nanL16.7331 32.5553C15.9 32.8434 14.9944 32.8434 14.1613 32.5553Lnan nanL14.1613 32.5553C6.8726 30.0347 1.72901 23.4876 1.00531 15.8094L0.00322804 5.17759Z" fill="url(#paint0_linear_1_209)"/>
<path fill-rule="evenodd" clip-rule="evenodd" d="M29.3913 15.7625L30.3934 5.13067C30.4035 5.02345 30.3363 4.92408 30.233 4.89354L16.4397 0.814865C15.7919 0.623317 15.1025 0.623317 14.4548 0.814865L0.661398 4.89354C0.558124 4.92408 0.490916 5.02346 0.501022 5.13067L1.50311 15.7625C2.20841 23.2455 7.22127 29.6263 14.3247 32.0828C15.0519 32.3342 15.8425 32.3342 16.5697 32.0828C23.6732 29.6263 28.686 23.2455 29.3913 15.7625ZM0.519617 4.41407C0.187088 4.5124 -0.0293113 4.83236 0.00322805 5.17759L1.00531 15.8094C1.72901 23.4876 6.8726 30.0347 14.1613 32.5553C14.9944 32.8434 15.9 32.8434 16.7331 32.5553C24.0218 30.0347 29.1654 23.4876 29.8891 15.8094L30.8912 5.17759C30.9237 4.83236 30.7073 4.5124 30.3748 4.41407L16.5815 0.335388C15.8411 0.116476 15.0533 0.116476 14.313 0.335387L0.519617 4.41407Z" fill="url(#paint1_linear_1_209)"/>
<g filter="url(#filter1_bdi_1_209)">
<path d="M41.9472 20C41.9472 26.6274 36.5746 32 29.9472 32C23.3198 32 17.9472 26.6274 17.9472 20C17.9472 13.3726 23.3198 7.99999 29.9472 7.99999C36.5746 7.99999 41.9472 13.3726 41.9472 20Z" fill="url(#paint2_linear_1_209)" fill-opacity="0.8" shape-rendering="crispEdges"/>
</g>
<g filter="url(#filter2_d_1_209)">
<path fill-rule="evenodd" clip-rule="evenodd" d="M36.1873 15.4735C36.6981 15.9379 36.7358 16.7285 36.2714 17.2393L30.2714 23.8393C29.8165 24.3396 29.0463 24.3875 28.533 23.9475L24.333 20.3475C23.8088 19.8982 23.7481 19.1091 24.1974 18.5849C24.6467 18.0608 25.4358 18.0001 25.9599 18.4494L29.2382 21.2593L34.4215 15.5576C34.8859 15.0468 35.6765 15.0091 36.1873 15.4735Z" fill="url(#paint3_linear_1_209)"/>
</g>
<defs>
<filter id="filter0_f_1_209" x="9.94722" y="9.99999" width="35" height="28" filterUnits="userSpaceOnUse" color-interpolation-filters="sRGB">
<feFlood flood-opacity="0" result="BackgroundImageFix"/>
<feBlend mode="normal" in="SourceGraphic" in2="BackgroundImageFix" result="shape"/>
<feGaussianBlur stdDeviation="2" result="effect1_foregroundBlur_1_209"/>
</filter>
<filter id="filter1_bdi_1_209" x="13.9472" y="3.99999" width="32" height="32" filterUnits="userSpaceOnUse" color-interpolation-filters="sRGB">
<feFlood flood-opacity="0" result="BackgroundImageFix"/>
<feGaussianBlur in="BackgroundImageFix" stdDeviation="2"/>
<feComposite in2="SourceAlpha" operator="in" result="effect1_backgroundBlur_1_209"/>
<feColorMatrix in="SourceAlpha" type="matrix" values="0 0 0 0 0 0 0 0 0 0 0 0 0 0 0 0 0 0 127 0" result="hardAlpha"/>
<feOffset dx="0.5" dy="0.5"/>
<feComposite in2="hardAlpha" operator="out"/>
<feColorMatrix type="matrix" values="0 0 0 0 0.804869 0 0 0 0 0.980809 0 0 0 0 0.987207 0 0 0 1 0"/>
<feBlend mode="normal" in2="effect1_backgroundBlur_1_209" result="effect2_dropShadow_1_209"/>
<feBlend mode="normal" in="SourceGraphic" in2="effect2_dropShadow_1_209" result="shape"/>
<feColorMatrix in="SourceAlpha" type="matrix" values="0 0 0 0 0 0 0 0 0 0 0 0 0 0 0 0 0 0 127 0" result="hardAlpha"/>
<feOffset dx="0.8" dy="0.5"/>
<feComposite in2="hardAlpha" operator="arithmetic" k2="-1" k3="1"/>
<feColorMatrix type="matrix" values="0 0 0 0 0.80891 0 0 0 0 0.980756 0 0 0 0 0.994287 0 0 0 1 0"/>
<feBlend mode="normal" in2="shape" result="effect3_innerShadow_1_209"/>
</filter>
<filter id="filter2_d_1_209" x="19.8964" y="12.1484" width="20.7" height="17.1" filterUnits="userSpaceOnUse" color-interpolation-filters="sRGB">
<feFlood flood-opacity="0" result="BackgroundImageFix"/>
<feColorMatrix in="SourceAlpha" type="matrix" values="0 0 0 0 0 0 0 0 0 0 0 0 0 0 0 0 0 0 127 0" result="hardAlpha"/>
<feOffset dy="1"/>
<feGaussianBlur stdDeviation="2"/>
<feComposite in2="hardAlpha" operator="out"/>
<feColorMatrix type="matrix" values="0 0 0 0 0.360576 0 0 0 0 0.750252 0 0 0 0 0.941113 0 0 0 1 0"/>
<feBlend mode="normal" in2="BackgroundImageFix" result="effect1_dropShadow_1_209"/>
<feBlend mode="normal" in="SourceGraphic" in2="effect1_dropShadow_1_209" result="shape"/>
</filter>
<linearGradient id="paint0_linear_1_209" x1="3.99069" y1="3.66666" x2="24.6823" y2="27.7806" gradientUnits="userSpaceOnUse">
<stop stop-color="#59EEFD"/>
<stop offset="0.364248" stop-color="#65DCFE"/>
<stop offset="1" stop-color="#6DBDF9"/>
</linearGradient>
<linearGradient id="paint1_linear_1_209" x1="15.4472" y1="-7.84021e-06" x2="15.4472" y2="33" gradientUnits="userSpaceOnUse">
<stop stop-color="#4EE3FB"/>
<stop offset="1" stop-color="#60B8EF"/>
</linearGradient>
<linearGradient id="paint2_linear_1_209" x1="25.7472" y1="7.99999" x2="23.2189" y2="31.2689" gradientUnits="userSpaceOnUse">
<stop stop-color="#46FDC6"/>
<stop offset="1" stop-color="#93E2F3" stop-opacity="0.5"/>
</linearGradient>
<linearGradient id="paint3_linear_1_209" x1="30.5464" y1="19.9984" x2="32.3464" y2="21.7984" gradientUnits="userSpaceOnUse">
<stop stop-color="white"/>
<stop offset="0.415237" stop-color="#E8FDF6"/>
<stop offset="0.555018" stop-color="#D1EFE6"/>
<stop offset="1" stop-color="#B4E5D6"/>
</linearGradient>
</defs>
</svg>
