<svg width="44" height="41" viewBox="0 0 44 41" fill="none" xmlns="http://www.w3.org/2000/svg">
<g filter="url(#filter0_f_0_111)">
<ellipse cx="26.4472" cy="27" rx="13.5" ry="10" fill="#D7E2F1"/>
</g>
<path d="M26.8945 34.964C29.5255 36.1051 31.8276 34.4059 31.5663 31.5283L30.8225 23.2856L37.1125 16.0083C38.4864 14.4179 37.804 12.2834 35.7648 11.8139L26.455 9.67161L21.5681 1.36361C20.497 -0.453761 18.2794 -0.455315 17.2083 1.36361L12.3198 9.67161L3.01007 11.8139C0.981534 12.2818 0.286914 14.4164 1.66232 16.0083L7.95232 23.2856L7.08712 32.9197C6.89809 35.0247 8.6915 36.3461 10.6125 35.5113L19.3874 31.7024L26.8945 34.9625V34.964Z" fill="url(#paint0_linear_0_111)"/>
<g filter="url(#filter1_bdi_0_111)">
<circle cx="29.4472" cy="28.5" r="9.5" fill="url(#paint1_linear_0_111)" fill-opacity="0.7" shape-rendering="crispEdges"/>
</g>
<g filter="url(#filter2_di_0_111)">
<path fill-rule="evenodd" clip-rule="evenodd" d="M24.565 27.5462C24.9278 27.1835 25.516 27.1835 25.8788 27.5462L28.6377 30.3051L34.2868 24.656C34.6496 24.2932 35.2378 24.2932 35.6006 24.656C35.9634 25.0188 35.9634 25.607 35.6006 25.9697L29.2945 32.2758C28.9318 32.6386 28.3436 32.6386 27.9808 32.2758L24.565 28.86C24.2022 28.4972 24.2022 27.909 24.565 27.5462Z" fill="white"/>
</g>
<defs>
<filter id="filter0_f_0_111" x="8.9472" y="13" width="35" height="28" filterUnits="userSpaceOnUse" color-interpolation-filters="sRGB">
<feFlood flood-opacity="0" result="BackgroundImageFix"/>
<feBlend mode="normal" in="SourceGraphic" in2="BackgroundImageFix" result="shape"/>
<feGaussianBlur stdDeviation="2" result="effect1_foregroundBlur_0_111"/>
</filter>
<filter id="filter1_bdi_0_111" x="15.9472" y="15" width="27" height="27" filterUnits="userSpaceOnUse" color-interpolation-filters="sRGB">
<feFlood flood-opacity="0" result="BackgroundImageFix"/>
<feGaussianBlur in="BackgroundImageFix" stdDeviation="2"/>
<feComposite in2="SourceAlpha" operator="in" result="effect1_backgroundBlur_0_111"/>
<feColorMatrix in="SourceAlpha" type="matrix" values="0 0 0 0 0 0 0 0 0 0 0 0 0 0 0 0 0 0 127 0" result="hardAlpha"/>
<feOffset dx="0.5" dy="0.5"/>
<feComposite in2="hardAlpha" operator="out"/>
<feColorMatrix type="matrix" values="0 0 0 0 0.804869 0 0 0 0 0.980809 0 0 0 0 0.987207 0 0 0 1 0"/>
<feBlend mode="normal" in2="effect1_backgroundBlur_0_111" result="effect2_dropShadow_0_111"/>
<feBlend mode="normal" in="SourceGraphic" in2="effect2_dropShadow_0_111" result="shape"/>
<feColorMatrix in="SourceAlpha" type="matrix" values="0 0 0 0 0 0 0 0 0 0 0 0 0 0 0 0 0 0 127 0" result="hardAlpha"/>
<feOffset dx="0.8" dy="0.5"/>
<feComposite in2="hardAlpha" operator="arithmetic" k2="-1" k3="1"/>
<feColorMatrix type="matrix" values="0 0 0 0 0.80891 0 0 0 0 0.980756 0 0 0 0 0.994287 0 0 0 1 0"/>
<feBlend mode="normal" in2="shape" result="effect3_innerShadow_0_111"/>
</filter>
<filter id="filter2_di_0_111" x="22.2929" y="23.3839" width="15.5797" height="12.164" filterUnits="userSpaceOnUse" color-interpolation-filters="sRGB">
<feFlood flood-opacity="0" result="BackgroundImageFix"/>
<feColorMatrix in="SourceAlpha" type="matrix" values="0 0 0 0 0 0 0 0 0 0 0 0 0 0 0 0 0 0 127 0" result="hardAlpha"/>
<feOffset dy="1"/>
<feGaussianBlur stdDeviation="1"/>
<feComposite in2="hardAlpha" operator="out"/>
<feColorMatrix type="matrix" values="0 0 0 0 0.360576 0 0 0 0 0.750252 0 0 0 0 0.941113 0 0 0 0.5 0"/>
<feBlend mode="normal" in2="BackgroundImageFix" result="effect1_dropShadow_0_111"/>
<feBlend mode="normal" in="SourceGraphic" in2="effect1_dropShadow_0_111" result="shape"/>
<feColorMatrix in="SourceAlpha" type="matrix" values="0 0 0 0 0 0 0 0 0 0 0 0 0 0 0 0 0 0 127 0" result="hardAlpha"/>
<feOffset dy="-0.4"/>
<feGaussianBlur stdDeviation="0.3"/>
<feComposite in2="hardAlpha" operator="arithmetic" k2="-1" k3="1"/>
<feColorMatrix type="matrix" values="0 0 0 0 0.333333 0 0 0 0 0.784314 0 0 0 0 0.67451 0 0 0 0.4 0"/>
<feBlend mode="normal" in2="shape" result="effect2_innerShadow_0_111"/>
</filter>
<linearGradient id="paint0_linear_0_111" x1="19.3884" y1="0" x2="19.3884" y2="35.7647" gradientUnits="userSpaceOnUse">
<stop stop-color="#64F3D7"/>
<stop offset="1" stop-color="#39DEBF"/>
</linearGradient>
<linearGradient id="paint1_linear_0_111" x1="21.6237" y1="13.4118" x2="26.4893" y2="37.1715" gradientUnits="userSpaceOnUse">
<stop stop-color="#46FDC6"/>
<stop offset="1" stop-color="#93E2F3" stop-opacity="0.5"/>
</linearGradient>
</defs>
</svg>
