<svg width="43" height="39" viewBox="0 0 43 39" fill="none" xmlns="http://www.w3.org/2000/svg">
<g filter="url(#filter0_f_1_211)">
<ellipse cx="25.456" cy="24.0023" rx="13.5" ry="10" transform="rotate(9.75556 25.456 24.0023)" fill="#D7E2F1"/>
</g>
<path d="M0.94722 6.62069C0.94722 2.96418 3.9114 0 7.56791 0H26.3265C29.983 0 32.9472 2.96418 32.9472 6.62069V25.3793C32.9472 29.0358 29.983 32 26.3265 32H7.56791C3.9114 32 0.94722 29.0358 0.94722 25.3793V6.62069Z" fill="url(#paint0_linear_1_211)"/>
<path fill-rule="evenodd" clip-rule="evenodd" d="M26.3265 0.331034H7.56791C4.09423 0.331034 1.27825 3.14701 1.27825 6.62069V25.3793C1.27825 28.853 4.09423 31.669 7.56791 31.669H26.3265C29.8002 31.669 32.6162 28.853 32.6162 25.3793V6.62069C32.6162 3.14701 29.8002 0.331034 26.3265 0.331034ZM7.56791 0C3.9114 0 0.94722 2.96418 0.94722 6.62069V25.3793C0.94722 29.0358 3.9114 32 7.56791 32H26.3265C29.983 32 32.9472 29.0358 32.9472 25.3793V6.62069C32.9472 2.96418 29.983 0 26.3265 0H7.56791Z" fill="url(#paint1_linear_1_211)"/>
<g filter="url(#filter1_bdi_1_211)">
<circle cx="26.9472" cy="21" r="12" fill="url(#paint2_linear_1_211)" fill-opacity="0.8" shape-rendering="crispEdges"/>
</g>
<g filter="url(#filter2_di_1_211)">
<path fill-rule="evenodd" clip-rule="evenodd" d="M23.2466 19.7287C23.5651 19.3968 23.9785 19.2219 24.4152 19.2219C24.8519 19.2219 25.2652 19.3968 25.5837 19.7287L26.8364 21.0337L25.827 22.0847C25.7383 22.1254 25.6555 22.1832 25.5837 22.2579C25.2652 22.5898 24.8519 22.7647 24.4152 22.7647C23.9785 22.7647 23.5651 22.5898 23.2466 22.2579C22.5808 21.5643 22.5808 20.4223 23.2466 19.7287ZM26.5403 23.5558C25.9521 24.0759 25.2056 24.3647 24.4152 24.3647C23.5332 24.3647 22.7059 24.0051 22.0923 23.3659C20.8322 22.0532 20.8322 19.9334 22.0923 18.6207C22.7059 17.9815 23.5332 17.6219 24.4152 17.6219C25.2971 17.6219 26.1244 17.9815 26.738 18.6207L27.9457 19.8788L29.1542 18.6205C29.7681 17.9814 30.5957 17.6219 31.4779 17.6219C32.36 17.6219 33.1877 17.9814 33.8015 18.6205C35.0624 19.9333 35.0624 22.0533 33.8015 23.3661C33.1877 24.0052 32.36 24.3647 31.4779 24.3647C30.6906 24.3647 29.9468 24.0784 29.3595 23.5625C29.2587 23.5215 29.1646 23.4591 29.0844 23.3755L27.9454 22.1889L26.8099 23.3711C26.7311 23.4532 26.639 23.5148 26.5403 23.5558ZM29.0546 21.034L30.0617 22.0831C30.1516 22.1239 30.2355 22.1821 30.3081 22.2577C30.6269 22.5896 31.0407 22.7647 31.4779 22.7647C31.9151 22.7647 32.3288 22.5896 32.6476 22.2577C33.3138 21.5642 33.3138 20.4224 32.6476 19.7289C32.3288 19.397 31.9151 19.2219 31.4779 19.2219C31.0407 19.2219 30.6269 19.397 30.3081 19.7289L29.0546 21.034Z" fill="white"/>
</g>
<defs>
<filter id="filter0_f_1_211" x="8.04228" y="9.88264" width="34.8274" height="28.2393" filterUnits="userSpaceOnUse" color-interpolation-filters="sRGB">
<feFlood flood-opacity="0" result="BackgroundImageFix"/>
<feBlend mode="normal" in="SourceGraphic" in2="BackgroundImageFix" result="shape"/>
<feGaussianBlur stdDeviation="2" result="effect1_foregroundBlur_1_211"/>
</filter>
<filter id="filter1_bdi_1_211" x="10.9472" y="5" width="32" height="32" filterUnits="userSpaceOnUse" color-interpolation-filters="sRGB">
<feFlood flood-opacity="0" result="BackgroundImageFix"/>
<feGaussianBlur in="BackgroundImageFix" stdDeviation="2"/>
<feComposite in2="SourceAlpha" operator="in" result="effect1_backgroundBlur_1_211"/>
<feColorMatrix in="SourceAlpha" type="matrix" values="0 0 0 0 0 0 0 0 0 0 0 0 0 0 0 0 0 0 127 0" result="hardAlpha"/>
<feOffset dx="0.5" dy="0.5"/>
<feComposite in2="hardAlpha" operator="out"/>
<feColorMatrix type="matrix" values="0 0 0 0 0.804869 0 0 0 0 0.980809 0 0 0 0 0.987207 0 0 0 1 0"/>
<feBlend mode="normal" in2="effect1_backgroundBlur_1_211" result="effect2_dropShadow_1_211"/>
<feBlend mode="normal" in="SourceGraphic" in2="effect2_dropShadow_1_211" result="shape"/>
<feColorMatrix in="SourceAlpha" type="matrix" values="0 0 0 0 0 0 0 0 0 0 0 0 0 0 0 0 0 0 127 0" result="hardAlpha"/>
<feOffset dx="0.8" dy="0.5"/>
<feComposite in2="hardAlpha" operator="arithmetic" k2="-1" k3="1"/>
<feColorMatrix type="matrix" values="0 0 0 0 0.80891 0 0 0 0 0.980756 0 0 0 0 0.994287 0 0 0 1 0"/>
<feBlend mode="normal" in2="shape" result="effect3_innerShadow_1_211"/>
</filter>
<filter id="filter2_di_1_211" x="19.1472" y="16.6219" width="17.6" height="10.7429" filterUnits="userSpaceOnUse" color-interpolation-filters="sRGB">
<feFlood flood-opacity="0" result="BackgroundImageFix"/>
<feColorMatrix in="SourceAlpha" type="matrix" values="0 0 0 0 0 0 0 0 0 0 0 0 0 0 0 0 0 0 127 0" result="hardAlpha"/>
<feOffset dy="1"/>
<feGaussianBlur stdDeviation="1"/>
<feComposite in2="hardAlpha" operator="out"/>
<feColorMatrix type="matrix" values="0 0 0 0 0.360576 0 0 0 0 0.750252 0 0 0 0 0.941113 0 0 0 0.5 0"/>
<feBlend mode="normal" in2="BackgroundImageFix" result="effect1_dropShadow_1_211"/>
<feBlend mode="normal" in="SourceGraphic" in2="effect1_dropShadow_1_211" result="shape"/>
<feColorMatrix in="SourceAlpha" type="matrix" values="0 0 0 0 0 0 0 0 0 0 0 0 0 0 0 0 0 0 127 0" result="hardAlpha"/>
<feOffset dy="-0.4"/>
<feGaussianBlur stdDeviation="0.3"/>
<feComposite in2="hardAlpha" operator="arithmetic" k2="-1" k3="1"/>
<feColorMatrix type="matrix" values="0 0 0 0 0.333333 0 0 0 0 0.784314 0 0 0 0 0.67451 0 0 0 0.4 0"/>
<feBlend mode="normal" in2="shape" result="effect2_innerShadow_1_211"/>
</filter>
<linearGradient id="paint0_linear_1_211" x1="16.9472" y1="0" x2="16.9472" y2="32" gradientUnits="userSpaceOnUse">
<stop stop-color="#64F3D7"/>
<stop offset="1" stop-color="#39DEBF"/>
</linearGradient>
<linearGradient id="paint1_linear_1_211" x1="16.9472" y1="0" x2="16.9472" y2="32" gradientUnits="userSpaceOnUse">
<stop stop-color="#70D7C2"/>
<stop offset="1" stop-color="#25D1B2"/>
</linearGradient>
<linearGradient id="paint2_linear_1_211" x1="22.7472" y1="9" x2="20.2189" y2="32.2689" gradientUnits="userSpaceOnUse">
<stop stop-color="#46FDC6"/>
<stop offset="1" stop-color="#93E2F3" stop-opacity="0.5"/>
</linearGradient>
</defs>
</svg>
