<svg width="141" height="116" viewBox="0 0 141 116" fill="none" xmlns="http://www.w3.org/2000/svg">
<path d="M96.1413 25.8156C96.1413 40.0733 84.5832 51.6314 70.3255 51.6314C56.0679 51.6314 44.5098 40.0733 44.5098 25.8156C44.5098 11.558 56.0679 -0.00012207 70.3255 -0.00012207C84.5832 -0.00012207 96.1413 11.558 96.1413 25.8156Z" fill="#00CBA9"/>
<g filter="url(#filter0_biiii_24_35)">
<path d="M141 44.6843C131.742 35.4261 120.751 28.0821 108.655 23.0716C96.5581 18.0611 83.5933 15.4822 70.5002 15.4822C57.4071 15.4822 44.4422 18.0611 32.3457 23.0716C20.2493 28.0821 9.25821 35.4261 0 44.6843L70.5002 115.184L141 44.6843Z" fill="url(#paint0_linear_24_35)"/>
</g>
<path d="M57.8633 25.8158C57.8633 32.6988 63.4431 38.2786 70.3261 38.2786C77.2091 38.2786 82.7889 32.6988 82.7889 25.8158C82.7889 18.9328 77.2091 13.353 70.3261 13.353C63.4431 13.353 57.8633 18.9328 57.8633 25.8158Z" fill="url(#paint1_linear_24_35)"/>
<defs>
<filter id="filter0_biiii_24_35" x="-21" y="-5.51782" width="183" height="141.702" filterUnits="userSpaceOnUse" color-interpolation-filters="sRGB">
<feFlood flood-opacity="0" result="BackgroundImageFix"/>
<feGaussianBlur in="BackgroundImageFix" stdDeviation="10.5"/>
<feComposite in2="SourceAlpha" operator="in" result="effect1_backgroundBlur_24_35"/>
<feBlend mode="normal" in="SourceGraphic" in2="effect1_backgroundBlur_24_35" result="shape"/>
<feColorMatrix in="SourceAlpha" type="matrix" values="0 0 0 0 0 0 0 0 0 0 0 0 0 0 0 0 0 0 127 0" result="hardAlpha"/>
<feOffset dx="10" dy="10"/>
<feGaussianBlur stdDeviation="11.5"/>
<feComposite in2="hardAlpha" operator="arithmetic" k2="-1" k3="1"/>
<feColorMatrix type="matrix" values="0 0 0 0 0 0 0 0 0 0.796078 0 0 0 0 0.662745 0 0 0 0.18 0"/>
<feBlend mode="normal" in2="shape" result="effect2_innerShadow_24_35"/>
<feColorMatrix in="SourceAlpha" type="matrix" values="0 0 0 0 0 0 0 0 0 0 0 0 0 0 0 0 0 0 127 0" result="hardAlpha"/>
<feOffset dy="2"/>
<feGaussianBlur stdDeviation="3"/>
<feComposite in2="hardAlpha" operator="arithmetic" k2="-1" k3="1"/>
<feColorMatrix type="matrix" values="0 0 0 0 1 0 0 0 0 1 0 0 0 0 1 0 0 0 0.05 0"/>
<feBlend mode="normal" in2="effect2_innerShadow_24_35" result="effect3_innerShadow_24_35"/>
<feColorMatrix in="SourceAlpha" type="matrix" values="0 0 0 0 0 0 0 0 0 0 0 0 0 0 0 0 0 0 127 0" result="hardAlpha"/>
<feOffset dy="1"/>
<feComposite in2="hardAlpha" operator="arithmetic" k2="-1" k3="1"/>
<feColorMatrix type="matrix" values="0 0 0 0 1 0 0 0 0 1 0 0 0 0 1 0 0 0 0.05 0"/>
<feBlend mode="normal" in2="effect3_innerShadow_24_35" result="effect4_innerShadow_24_35"/>
<feColorMatrix in="SourceAlpha" type="matrix" values="0 0 0 0 0 0 0 0 0 0 0 0 0 0 0 0 0 0 127 0" result="hardAlpha"/>
<feOffset dy="-10"/>
<feGaussianBlur stdDeviation="5"/>
<feComposite in2="hardAlpha" operator="arithmetic" k2="-1" k3="1"/>
<feColorMatrix type="matrix" values="0 0 0 0 0 0 0 0 0 0.796078 0 0 0 0 0.662745 0 0 0 0.4 0"/>
<feBlend mode="overlay" in2="effect4_innerShadow_24_35" result="effect5_innerShadow_24_35"/>
</filter>
<linearGradient id="paint0_linear_24_35" x1="70.5002" y1="212.838" x2="20.9663" y2="27.1575" gradientUnits="userSpaceOnUse">
<stop stop-color="#00CBA9" stop-opacity="0.01"/>
<stop offset="1" stop-color="#00CBA9" stop-opacity="0.12"/>
</linearGradient>
<linearGradient id="paint1_linear_24_35" x1="70.3261" y1="3.11574" x2="70.3261" y2="38.2786" gradientUnits="userSpaceOnUse">
<stop stop-color="white"/>
<stop offset="1" stop-color="white" stop-opacity="0"/>
</linearGradient>
</defs>
</svg>
