<svg width="78" height="120" viewBox="0 0 78 120" fill="none" xmlns="http://www.w3.org/2000/svg">
<path d="M43.5399 27.2339C52.5686 27.2339 61.2274 30.8205 67.6116 37.2047C73.9959 43.5889 77.5825 52.2478 77.5825 61.2764C77.5825 70.3051 73.9959 78.9639 67.6116 85.3482C61.2274 91.7324 52.5686 95.319 43.5399 95.319L43.5399 27.2339Z" fill="#00CBA9"/>
<g filter="url(#filter0_biiii_24_15)">
<path d="M60.5613 0C44.5354 -1.91106e-07 29.166 6.32141 17.834 17.5736C6.50199 28.8258 0.135744 44.087 0.135742 60C0.135741 75.913 6.50198 91.1742 17.834 102.426C29.166 113.679 44.5354 120 60.5613 120L60.5613 0Z" fill="url(#paint0_linear_24_15)"/>
</g>
<path d="M45.2424 40.8511C50.6596 40.8511 55.8549 43.003 59.6855 46.8336C63.516 50.6641 65.668 55.8594 65.668 61.2766C65.668 66.6938 63.516 71.8891 59.6855 75.7197C55.8549 79.5502 50.6596 81.7022 45.2424 81.7022L45.2424 40.8511Z" fill="url(#paint1_linear_24_15)"/>
<defs>
<filter id="filter0_biiii_24_15" x="-20.8643" y="-21" width="102.426" height="162" filterUnits="userSpaceOnUse" color-interpolation-filters="sRGB">
<feFlood flood-opacity="0" result="BackgroundImageFix"/>
<feGaussianBlur in="BackgroundImageFix" stdDeviation="10.5"/>
<feComposite in2="SourceAlpha" operator="in" result="effect1_backgroundBlur_24_15"/>
<feBlend mode="normal" in="SourceGraphic" in2="effect1_backgroundBlur_24_15" result="shape"/>
<feColorMatrix in="SourceAlpha" type="matrix" values="0 0 0 0 0 0 0 0 0 0 0 0 0 0 0 0 0 0 127 0" result="hardAlpha"/>
<feOffset dx="10" dy="10"/>
<feGaussianBlur stdDeviation="11.5"/>
<feComposite in2="hardAlpha" operator="arithmetic" k2="-1" k3="1"/>
<feColorMatrix type="matrix" values="0 0 0 0 0 0 0 0 0 0.796078 0 0 0 0 0.662745 0 0 0 0.18 0"/>
<feBlend mode="normal" in2="shape" result="effect2_innerShadow_24_15"/>
<feColorMatrix in="SourceAlpha" type="matrix" values="0 0 0 0 0 0 0 0 0 0 0 0 0 0 0 0 0 0 127 0" result="hardAlpha"/>
<feOffset dy="2"/>
<feGaussianBlur stdDeviation="3"/>
<feComposite in2="hardAlpha" operator="arithmetic" k2="-1" k3="1"/>
<feColorMatrix type="matrix" values="0 0 0 0 1 0 0 0 0 1 0 0 0 0 1 0 0 0 0.05 0"/>
<feBlend mode="normal" in2="effect2_innerShadow_24_15" result="effect3_innerShadow_24_15"/>
<feColorMatrix in="SourceAlpha" type="matrix" values="0 0 0 0 0 0 0 0 0 0 0 0 0 0 0 0 0 0 127 0" result="hardAlpha"/>
<feOffset dy="1"/>
<feComposite in2="hardAlpha" operator="arithmetic" k2="-1" k3="1"/>
<feColorMatrix type="matrix" values="0 0 0 0 1 0 0 0 0 1 0 0 0 0 1 0 0 0 0.05 0"/>
<feBlend mode="normal" in2="effect3_innerShadow_24_15" result="effect4_innerShadow_24_15"/>
<feColorMatrix in="SourceAlpha" type="matrix" values="0 0 0 0 0 0 0 0 0 0 0 0 0 0 0 0 0 0 127 0" result="hardAlpha"/>
<feOffset dy="-10"/>
<feGaussianBlur stdDeviation="5"/>
<feComposite in2="hardAlpha" operator="arithmetic" k2="-1" k3="1"/>
<feColorMatrix type="matrix" values="0 0 0 0 0 0 0 0 0 0.796078 0 0 0 0 0.662745 0 0 0 0.4 0"/>
<feBlend mode="overlay" in2="effect4_innerShadow_24_15" result="effect5_innerShadow_24_15"/>
</filter>
<linearGradient id="paint0_linear_24_15" x1="30.3485" y1="237.534" x2="-84.5235" y2="84.2128" gradientUnits="userSpaceOnUse">
<stop stop-color="#00CBA9" stop-opacity="0.01"/>
<stop offset="1" stop-color="#00CBA9" stop-opacity="0.12"/>
</linearGradient>
<linearGradient id="paint1_linear_24_15" x1="74.057" y1="61.2766" x2="45.2424" y2="61.2766" gradientUnits="userSpaceOnUse">
<stop stop-color="white"/>
<stop offset="1" stop-color="white" stop-opacity="0"/>
</linearGradient>
</defs>
</svg>
