<svg width="123" height="123" viewBox="0 0 123 123" fill="none" xmlns="http://www.w3.org/2000/svg">
<path d="M123 41.7321C123 59.3214 108.741 73.5803 91.1519 73.5803C73.5626 73.5803 59.3037 59.3214 59.3037 41.7321C59.3037 24.1428 73.5626 9.88391 91.1519 9.88391C108.741 9.88391 123 24.1428 123 41.7321Z" fill="#00CBA9"/>
<g filter="url(#filter0_biiii_24_55)">
<path d="M123 123C123 106.847 119.819 90.853 113.637 75.9299C107.456 61.0069 98.3958 47.4475 86.9741 36.0259C75.5525 24.6043 61.9931 15.5441 47.0701 9.36282C32.147 3.18149 16.1526 -7.06052e-07 0 0L5.3765e-06 123H123Z" fill="url(#paint0_linear_24_55)"/>
</g>
<path d="M75.7772 41.7321C75.7772 50.2235 82.6608 57.1071 91.1522 57.1071C99.6436 57.1071 106.527 50.2235 106.527 41.7321C106.527 33.2408 99.6436 26.3571 91.1522 26.3571C82.6608 26.3571 75.7772 33.2408 75.7772 41.7321Z" fill="url(#paint1_linear_24_55)"/>
<defs>
<filter id="filter0_biiii_24_55" x="-21" y="-21" width="165" height="165" filterUnits="userSpaceOnUse" color-interpolation-filters="sRGB">
<feFlood flood-opacity="0" result="BackgroundImageFix"/>
<feGaussianBlur in="BackgroundImageFix" stdDeviation="10.5"/>
<feComposite in2="SourceAlpha" operator="in" result="effect1_backgroundBlur_24_55"/>
<feBlend mode="normal" in="SourceGraphic" in2="effect1_backgroundBlur_24_55" result="shape"/>
<feColorMatrix in="SourceAlpha" type="matrix" values="0 0 0 0 0 0 0 0 0 0 0 0 0 0 0 0 0 0 127 0" result="hardAlpha"/>
<feOffset dx="10" dy="10"/>
<feGaussianBlur stdDeviation="11.5"/>
<feComposite in2="hardAlpha" operator="arithmetic" k2="-1" k3="1"/>
<feColorMatrix type="matrix" values="0 0 0 0 0 0 0 0 0 0.796078 0 0 0 0 0.662745 0 0 0 0.18 0"/>
<feBlend mode="normal" in2="shape" result="effect2_innerShadow_24_55"/>
<feColorMatrix in="SourceAlpha" type="matrix" values="0 0 0 0 0 0 0 0 0 0 0 0 0 0 0 0 0 0 127 0" result="hardAlpha"/>
<feOffset dy="2"/>
<feGaussianBlur stdDeviation="3"/>
<feComposite in2="hardAlpha" operator="arithmetic" k2="-1" k3="1"/>
<feColorMatrix type="matrix" values="0 0 0 0 1 0 0 0 0 1 0 0 0 0 1 0 0 0 0.05 0"/>
<feBlend mode="normal" in2="effect2_innerShadow_24_55" result="effect3_innerShadow_24_55"/>
<feColorMatrix in="SourceAlpha" type="matrix" values="0 0 0 0 0 0 0 0 0 0 0 0 0 0 0 0 0 0 127 0" result="hardAlpha"/>
<feOffset dy="1"/>
<feComposite in2="hardAlpha" operator="arithmetic" k2="-1" k3="1"/>
<feColorMatrix type="matrix" values="0 0 0 0 1 0 0 0 0 1 0 0 0 0 1 0 0 0 0.05 0"/>
<feBlend mode="normal" in2="effect3_innerShadow_24_55" result="effect4_innerShadow_24_55"/>
<feColorMatrix in="SourceAlpha" type="matrix" values="0 0 0 0 0 0 0 0 0 0 0 0 0 0 0 0 0 0 127 0" result="hardAlpha"/>
<feOffset dy="-10"/>
<feGaussianBlur stdDeviation="5"/>
<feComposite in2="hardAlpha" operator="arithmetic" k2="-1" k3="1"/>
<feColorMatrix type="matrix" values="0 0 0 0 0 0 0 0 0 0.796078 0 0 0 0 0.662745 0 0 0 0.4 0"/>
<feBlend mode="overlay" in2="effect4_innerShadow_24_55" result="effect5_innerShadow_24_55"/>
</filter>
<linearGradient id="paint0_linear_24_55" x1="61.5" y1="243.473" x2="-19.5367" y2="28.6743" gradientUnits="userSpaceOnUse">
<stop stop-color="#00CBA9" stop-opacity="0.01"/>
<stop offset="1" stop-color="#00CBA9" stop-opacity="0.12"/>
</linearGradient>
<linearGradient id="paint1_linear_24_55" x1="91.1522" y1="13.7277" x2="91.1522" y2="57.1071" gradientUnits="userSpaceOnUse">
<stop stop-color="white"/>
<stop offset="1" stop-color="white" stop-opacity="0"/>
</linearGradient>
</defs>
</svg>
