<svg width="125" height="123" viewBox="0 0 125 123" fill="none" xmlns="http://www.w3.org/2000/svg">
<path d="M100.845 65.8379L119.262 84.2545L119.179 84.3372C126.8 93.6377 126.269 107.384 117.588 116.065C108.906 124.747 95.1604 125.277 85.8599 117.657L85.7772 117.739L67.3606 99.3227C58.114 90.0761 58.114 75.0844 67.3606 65.8379C76.6072 56.5913 91.5988 56.5913 100.845 65.8379Z" fill="#995ED4"/>
<g filter="url(#filter0_biiii_24_23)">
<path d="M117.471 58.4969C117.471 90.8038 91.2814 116.994 58.9744 116.994C26.6675 116.994 0.477539 90.8038 0.477539 58.4969C0.477539 26.19 26.6675 0 58.9744 0C91.2814 0 117.471 26.19 117.471 58.4969Z" fill="url(#paint0_linear_24_23)"/>
</g>
<path d="M99.8371 78.1186L109.925 88.2069C109.951 88.2318 109.976 88.2569 110.001 88.282C110.026 88.3071 110.051 88.3323 110.076 88.3576L111.026 89.3075L110.976 89.3579C115.644 95.0545 115.319 103.474 110.001 108.792C104.683 114.11 96.2637 114.434 90.5671 109.767L90.5162 109.817L56.5037 75.8049L77.0136 55.295L99.6549 77.9364C99.6855 77.9664 99.716 77.9967 99.7464 78.0271C99.7768 78.0575 99.807 78.088 99.8371 78.1186Z" fill="url(#paint1_linear_24_23)"/>
<defs>
<filter id="filter0_biiii_24_23" x="-20.5225" y="-21" width="158.994" height="158.994" filterUnits="userSpaceOnUse" color-interpolation-filters="sRGB">
<feFlood flood-opacity="0" result="BackgroundImageFix"/>
<feGaussianBlur in="BackgroundImageFix" stdDeviation="10.5"/>
<feComposite in2="SourceAlpha" operator="in" result="effect1_backgroundBlur_24_23"/>
<feBlend mode="normal" in="SourceGraphic" in2="effect1_backgroundBlur_24_23" result="shape"/>
<feColorMatrix in="SourceAlpha" type="matrix" values="0 0 0 0 0 0 0 0 0 0 0 0 0 0 0 0 0 0 127 0" result="hardAlpha"/>
<feOffset dx="10" dy="10"/>
<feGaussianBlur stdDeviation="11.5"/>
<feComposite in2="hardAlpha" operator="arithmetic" k2="-1" k3="1"/>
<feColorMatrix type="matrix" values="0 0 0 0 0.6 0 0 0 0 0.368627 0 0 0 0 0.831373 0 0 0 0.18 0"/>
<feBlend mode="normal" in2="shape" result="effect2_innerShadow_24_23"/>
<feColorMatrix in="SourceAlpha" type="matrix" values="0 0 0 0 0 0 0 0 0 0 0 0 0 0 0 0 0 0 127 0" result="hardAlpha"/>
<feMorphology radius="2" operator="erode" in="SourceAlpha" result="effect3_innerShadow_24_23"/>
<feOffset dy="2"/>
<feGaussianBlur stdDeviation="3"/>
<feComposite in2="hardAlpha" operator="arithmetic" k2="-1" k3="1"/>
<feColorMatrix type="matrix" values="0 0 0 0 1 0 0 0 0 1 0 0 0 0 1 0 0 0 0.05 0"/>
<feBlend mode="normal" in2="effect2_innerShadow_24_23" result="effect3_innerShadow_24_23"/>
<feColorMatrix in="SourceAlpha" type="matrix" values="0 0 0 0 0 0 0 0 0 0 0 0 0 0 0 0 0 0 127 0" result="hardAlpha"/>
<feOffset dy="1"/>
<feComposite in2="hardAlpha" operator="arithmetic" k2="-1" k3="1"/>
<feColorMatrix type="matrix" values="0 0 0 0 1 0 0 0 0 1 0 0 0 0 1 0 0 0 0.05 0"/>
<feBlend mode="normal" in2="effect3_innerShadow_24_23" result="effect4_innerShadow_24_23"/>
<feColorMatrix in="SourceAlpha" type="matrix" values="0 0 0 0 0 0 0 0 0 0 0 0 0 0 0 0 0 0 127 0" result="hardAlpha"/>
<feOffset dy="-10"/>
<feGaussianBlur stdDeviation="5"/>
<feComposite in2="hardAlpha" operator="arithmetic" k2="-1" k3="1"/>
<feColorMatrix type="matrix" values="0 0 0 0 0.6 0 0 0 0 0.368627 0 0 0 0 0.831373 0 0 0 0.4 0"/>
<feBlend mode="overlay" in2="effect4_innerShadow_24_23" result="effect5_innerShadow_24_23"/>
</filter>
<linearGradient id="paint0_linear_24_23" x1="58.9744" y1="231.584" x2="-18.1052" y2="27.2741" gradientUnits="userSpaceOnUse">
<stop stop-color="#995ED4" stop-opacity="0.01"/>
<stop offset="1" stop-color="#995ED4" stop-opacity="0.12"/>
</linearGradient>
<linearGradient id="paint1_linear_24_23" x1="128.233" y1="129.178" x2="68.1139" y2="67.0442" gradientUnits="userSpaceOnUse">
<stop stop-color="white"/>
<stop offset="1" stop-color="white" stop-opacity="0"/>
</linearGradient>
</defs>
</svg>
