<svg width="141" height="121" viewBox="0 0 141 121" fill="none" xmlns="http://www.w3.org/2000/svg">
<path d="M65.0002 0.000196222C77.9958 0.00019679 90.4591 5.16267 99.6484 14.3519C108.838 23.5412 114 36.0045 114 49.0001C114 61.9957 108.838 74.459 99.6484 83.6482C90.4591 92.8375 77.9958 98 65.0002 98L65.0002 0.000196222Z" fill="#995ED4"/>
<g filter="url(#filter0_biiii_24_63)">
<path d="M9.05178e-06 50C1.0698e-05 68.8304 7.42766 86.8895 20.6489 100.205C33.8702 113.52 51.8021 121 70.4998 121C89.1976 121 107.129 113.52 120.351 100.205C133.572 86.8895 141 68.8304 141 50L9.05178e-06 50Z" fill="url(#paint0_linear_24_63)"/>
</g>
<path d="M64.9998 17.3659C73.3897 17.3659 81.436 20.6988 87.3686 26.6313C93.3011 32.5639 96.634 40.6102 96.634 49.0001C96.634 57.39 93.3011 65.4363 87.3686 71.3688C81.436 77.3014 73.3897 80.6342 64.9998 80.6342L64.9998 17.3659Z" fill="url(#paint1_linear_24_63)"/>
<defs>
<filter id="filter0_biiii_24_63" x="-21" y="29" width="183" height="113" filterUnits="userSpaceOnUse" color-interpolation-filters="sRGB">
<feFlood flood-opacity="0" result="BackgroundImageFix"/>
<feGaussianBlur in="BackgroundImageFix" stdDeviation="10.5"/>
<feComposite in2="SourceAlpha" operator="in" result="effect1_backgroundBlur_24_63"/>
<feBlend mode="normal" in="SourceGraphic" in2="effect1_backgroundBlur_24_63" result="shape"/>
<feColorMatrix in="SourceAlpha" type="matrix" values="0 0 0 0 0 0 0 0 0 0 0 0 0 0 0 0 0 0 127 0" result="hardAlpha"/>
<feOffset dx="10" dy="10"/>
<feGaussianBlur stdDeviation="11.5"/>
<feComposite in2="hardAlpha" operator="arithmetic" k2="-1" k3="1"/>
<feColorMatrix type="matrix" values="0 0 0 0 0.6 0 0 0 0 0.368627 0 0 0 0 0.831373 0 0 0 0.18 0"/>
<feBlend mode="normal" in2="shape" result="effect2_innerShadow_24_63"/>
<feColorMatrix in="SourceAlpha" type="matrix" values="0 0 0 0 0 0 0 0 0 0 0 0 0 0 0 0 0 0 127 0" result="hardAlpha"/>
<feMorphology radius="2" operator="erode" in="SourceAlpha" result="effect3_innerShadow_24_63"/>
<feOffset dy="2"/>
<feGaussianBlur stdDeviation="3"/>
<feComposite in2="hardAlpha" operator="arithmetic" k2="-1" k3="1"/>
<feColorMatrix type="matrix" values="0 0 0 0 1 0 0 0 0 1 0 0 0 0 1 0 0 0 0.05 0"/>
<feBlend mode="normal" in2="effect2_innerShadow_24_63" result="effect3_innerShadow_24_63"/>
<feColorMatrix in="SourceAlpha" type="matrix" values="0 0 0 0 0 0 0 0 0 0 0 0 0 0 0 0 0 0 127 0" result="hardAlpha"/>
<feOffset dy="1"/>
<feComposite in2="hardAlpha" operator="arithmetic" k2="-1" k3="1"/>
<feColorMatrix type="matrix" values="0 0 0 0 1 0 0 0 0 1 0 0 0 0 1 0 0 0 0.05 0"/>
<feBlend mode="normal" in2="effect3_innerShadow_24_63" result="effect4_innerShadow_24_63"/>
<feColorMatrix in="SourceAlpha" type="matrix" values="0 0 0 0 0 0 0 0 0 0 0 0 0 0 0 0 0 0 127 0" result="hardAlpha"/>
<feOffset dy="-10"/>
<feGaussianBlur stdDeviation="5"/>
<feComposite in2="hardAlpha" operator="arithmetic" k2="-1" k3="1"/>
<feColorMatrix type="matrix" values="0 0 0 0 0.6 0 0 0 0 0.368627 0 0 0 0 0.831373 0 0 0 0.4 0"/>
<feBlend mode="overlay" in2="effect4_innerShadow_24_63" result="effect5_innerShadow_24_63"/>
</filter>
<linearGradient id="paint0_linear_24_63" x1="70.4998" y1="-19.5409" x2="96.4696" y2="117.162" gradientUnits="userSpaceOnUse">
<stop stop-color="#995ED4" stop-opacity="0.01"/>
<stop offset="1" stop-color="#995ED4" stop-opacity="0.12"/>
</linearGradient>
<linearGradient id="paint1_linear_24_63" x1="109.627" y1="49.0001" x2="64.9998" y2="49.0001" gradientUnits="userSpaceOnUse">
<stop stop-color="white"/>
<stop offset="1" stop-color="white" stop-opacity="0"/>
</linearGradient>
</defs>
</svg>
