<svg width="90" height="90" viewBox="0 0 90 90" fill="none" xmlns="http://www.w3.org/2000/svg">
<path d="M41.0842 64.5538V85.1094C41.0842 86.4064 41.5995 87.6503 42.5166 88.5675C43.4337 89.4846 44.6777 89.9998 45.9747 89.9998C47.2717 89.9998 48.5156 89.4846 49.4328 88.5675C50.3499 87.6503 50.8651 86.4064 50.8651 85.1094V64.5538H41.0842Z" fill="url(#paint0_linear_605_4553)"/>
<path d="M14.6755 80.2031C13.7082 80.2033 12.7625 79.9166 11.9581 79.3792C11.1537 78.8419 10.5267 78.078 10.1565 77.1843C9.78628 76.2906 9.68943 75.3071 9.8782 74.3583C10.067 73.4095 10.5329 72.5381 11.217 71.8541L28.8227 54.2485C29.2768 53.7943 29.816 53.434 30.4094 53.1882C31.0029 52.9424 31.6389 52.8159 32.2812 52.8159C32.9235 52.8159 33.5595 52.9424 34.1529 53.1882C34.7463 53.434 35.2855 53.7943 35.7397 54.2485C36.1939 54.7027 36.5542 55.2419 36.8 55.8353C37.0458 56.4287 37.1723 57.0647 37.1723 57.707C37.1723 58.3493 37.0458 58.9853 36.8 59.5788C36.5542 60.1722 36.1939 60.7114 35.7397 61.1656L18.1341 78.7712C17.6803 79.2258 17.1411 79.5863 16.5476 79.832C15.9541 80.0778 15.3179 80.2039 14.6755 80.2031Z" fill="url(#paint1_linear_605_4553)"/>
<path d="M44.9967 19.5618C50.3986 19.5618 54.7776 15.1828 54.7776 9.78091C54.7776 4.37906 50.3986 0 44.9967 0C39.5949 0 35.2158 4.37906 35.2158 9.78091C35.2158 15.1828 39.5949 19.5618 44.9967 19.5618Z" fill="url(#paint2_linear_605_4553)"/>
<path d="M75.8739 21.7804C75.7454 21.3762 75.5417 21.0024 75.2745 20.6804C75.0073 20.3585 74.6818 20.0947 74.3167 19.9042C73.9516 19.7136 73.5541 19.6001 73.1469 19.5702C72.7397 19.5402 72.3308 19.5943 71.9437 19.7295L53.8041 26.0425H17.0687C16.2457 26.0425 15.4564 26.3836 14.8745 26.9907C14.2925 27.5979 13.9656 28.4213 13.9656 29.28C13.9656 30.1386 14.2925 28.8841 14.8745 29.4912C15.4564 30.0983 16.2457 30.4394 17.0687 30.4394H35.6878V37.0353C35.6928 38.1416 35.3336 39.2161 34.6701 40.0792C34.0067 40.9422 33.0793 41.5414 32.0431 41.7766L22.9384 43.8809C22.5928 43.9611 22.2839 44.1621 22.0629 44.4506C21.8419 44.7392 21.7222 45.0979 21.7235 45.4673C21.7237 49.6291 22.9069 53.6974 25.1233 57.1577C27.3397 60.6181 30.4898 63.3151 34.1753 64.9077C37.8609 66.5003 41.9163 66.9171 45.8289 66.1052C49.7415 65.2933 53.3354 63.2893 56.1563 60.3466C56.3402 60.1552 56.475 59.9187 56.5485 59.6588C56.6219 59.3989 56.6317 59.1239 56.5768 58.859L52.8096 40.7033L54.5001 32.286L72.9066 25.8806C73.2941 25.7466 73.6524 25.5341 73.961 25.2553C74.2696 24.9765 74.5224 24.637 74.7051 24.2561C74.8877 23.8752 74.9965 23.4605 75.0252 23.0357C75.0539 22.6108 76.0034 22.1843 75.8739 21.7804Z" fill="url(#paint3_linear_605_4553)"/>
<g filter="url(#filter0_bi_605_4553)">
<path d="M83.9247 18.3234C83.7627 17.8349 83.5059 17.3832 83.169 16.9941C82.8321 16.605 82.4218 16.2863 81.9615 16.056C81.5012 15.8258 81 15.6886 80.4866 15.6524C79.9733 15.6162 79.4578 15.6816 78.9697 15.8449L56.1 23.474H9.78541C8.74779 23.474 7.75266 23.8862 7.01895 24.6199C6.28524 25.3537 5.87305 26.3488 5.87305 27.3864C5.87305 28.424 6.28524 29.4192 7.01895 30.1529C7.75266 30.8866 8.74779 31.2988 9.78541 31.2988H33.2596V36.7585C33.2659 38.0954 32.813 39.3939 31.9766 40.4369C31.1401 41.4799 29.9709 42.204 28.6645 42.4881L17.1856 45.0312C16.7499 45.128 16.3605 45.371 16.0818 45.7197C15.8032 46.0684 15.6522 46.5019 15.654 46.9482C15.6543 51.9777 17.1459 56.8941 19.9402 61.0758C22.7346 65.2575 26.7061 68.5167 31.3528 70.4414C35.9994 72.366 41.1123 72.8696 46.0451 71.8885C50.9779 70.9074 55.5091 68.4856 59.0656 64.9295C59.2973 64.6981 59.4673 64.4123 59.5599 64.0982C59.6526 63.7841 59.6648 63.4518 59.5957 63.1317L54.8461 41.1912L58.24 31.019L81.4462 23.2784C81.9347 23.1164 82.3864 22.8596 82.7755 22.5227C83.1646 22.1858 83.4834 21.7755 83.7136 21.3152C83.9439 20.8549 84.081 20.3537 84.1172 19.8403C84.1535 19.327 84.088 18.8115 83.9247 18.3234Z" fill="#1D1D1D" fill-opacity="0.05"/>
<path d="M83.9247 18.3234C83.7627 17.8349 83.5059 17.3832 83.169 16.9941C82.8321 16.605 82.4218 16.2863 81.9615 16.056C81.5012 15.8258 81 15.6886 80.4866 15.6524C79.9733 15.6162 79.4578 15.6816 78.9697 15.8449L56.1 23.474H9.78541C8.74779 23.474 7.75266 23.8862 7.01895 24.6199C6.28524 25.3537 5.87305 26.3488 5.87305 27.3864C5.87305 28.424 6.28524 29.4192 7.01895 30.1529C7.75266 30.8866 8.74779 31.2988 9.78541 31.2988H33.2596V36.7585C33.2659 38.0954 32.813 39.3939 31.9766 40.4369C31.1401 41.4799 29.9709 42.204 28.6645 42.4881L17.1856 45.0312C16.7499 45.128 16.3605 45.371 16.0818 45.7197C15.8032 46.0684 15.6522 46.5019 15.654 46.9482C15.6543 51.9777 17.1459 56.8941 19.9402 61.0758C22.7346 65.2575 26.7061 68.5167 31.3528 70.4414C35.9994 72.366 41.1123 72.8696 46.0451 71.8885C50.9779 70.9074 55.5091 68.4856 59.0656 64.9295C59.2973 64.6981 59.4673 64.4123 59.5599 64.0982C59.6526 63.7841 59.6648 63.4518 59.5957 63.1317L54.8461 41.1912L58.24 31.019L81.4462 23.2784C81.9347 23.1164 82.3864 22.8596 82.7755 22.5227C83.1646 22.1858 83.4834 21.7755 83.7136 21.3152C83.9439 20.8549 84.081 20.3537 84.1172 19.8403C84.1535 19.327 84.088 18.8115 83.9247 18.3234Z" fill="url(#paint4_linear_605_4553)" fill-opacity="0.2"/>
<path d="M83.3913 18.5019L83.3908 18.5005C83.2521 18.0822 83.0322 17.6955 82.7438 17.3623C82.4553 17.0292 82.104 16.7562 81.7098 16.5591C81.3157 16.362 80.8866 16.2445 80.447 16.2135C80.0075 16.1825 79.5661 16.2385 79.1482 16.3784L79.1477 16.3785L56.278 24.0076L56.1913 24.0365H56.1H9.78541C8.89697 24.0365 8.04492 24.3895 7.4167 25.0177C6.78848 25.6459 6.43555 26.498 6.43555 27.3864C6.43555 28.2748 6.78848 29.1269 7.4167 29.7551C8.04492 30.3833 8.89697 30.7363 9.78541 30.7363H33.2596H33.8221V31.2988V36.757C33.8288 38.2224 33.3322 39.6457 32.4154 40.7888C31.4986 41.932 30.2171 42.7258 28.7852 43.0375C28.7848 43.0376 28.7844 43.0377 28.7841 43.0378L17.3077 45.5803L83.3913 18.5019ZM83.3913 18.5019C83.5311 18.9198 83.5872 19.3612 83.5561 19.8007C83.5251 20.2403 83.4077 20.6694 83.2105 21.0636C83.0134 21.4577 82.7405 21.809 82.4073 22.0975L82.7755 22.5227L82.4073 22.0975C82.0742 22.3859 81.6874 22.6058 81.2691 22.7445L81.2682 22.7448L58.0621 30.4854L57.7954 30.5744L57.7065 30.841L54.3125 41.0131L54.2637 41.1595L54.2963 41.3102L59.0459 63.2505C59.0459 63.2506 59.0459 63.2507 59.0459 63.2507C59.0951 63.4787 59.0864 63.7154 59.0204 63.9391C58.9544 64.1629 58.8333 64.3665 58.6682 64.5313L58.6678 64.5317C55.19 68.0092 50.7591 70.3774 45.9354 71.3368C41.1117 72.2962 36.1118 71.8038 31.568 69.9217C27.0242 68.0396 23.1405 64.8525 20.4079 60.7633C17.6754 56.674 16.2168 51.8664 16.2165 46.9482L16.2165 46.9461M83.3913 18.5019L16.2165 46.9461M16.2165 46.9461C16.2152 46.6281 16.3228 46.3192 16.5213 46.0708C16.7197 45.8225 16.997 45.6494 17.3073 45.5804L16.2165 46.9461Z" stroke="url(#paint5_linear_605_4553)" stroke-opacity="0.1" stroke-width="1.125"/>
</g>
<defs>
<filter id="filter0_bi_605_4553" x="-0.126953" y="9.6427" width="90.2539" height="68.7344" filterUnits="userSpaceOnUse" color-interpolation-filters="sRGB">
<feFlood flood-opacity="0" result="BackgroundImageFix"/>
<feGaussianBlur in="BackgroundImageFix" stdDeviation="3"/>
<feComposite in2="SourceAlpha" operator="in" result="effect1_backgroundBlur_605_4553"/>
<feBlend mode="normal" in="SourceGraphic" in2="effect1_backgroundBlur_605_4553" result="shape"/>
<feColorMatrix in="SourceAlpha" type="matrix" values="0 0 0 0 0 0 0 0 0 0 0 0 0 0 0 0 0 0 127 0" result="hardAlpha"/>
<feOffset dy="2"/>
<feGaussianBlur stdDeviation="1.5"/>
<feComposite in2="hardAlpha" operator="arithmetic" k2="-1" k3="1"/>
<feColorMatrix type="matrix" values="0 0 0 0 1 0 0 0 0 1 0 0 0 0 1 0 0 0 0.15 0"/>
<feBlend mode="normal" in2="shape" result="effect2_innerShadow_605_4553"/>
</filter>
<linearGradient id="paint0_linear_605_4553" x1="41.0842" y1="64.5538" x2="53.233" y2="65.7396" gradientUnits="userSpaceOnUse">
<stop stop-color="#FFA39E"/>
<stop offset="1" stop-color="#F01E33"/>
</linearGradient>
<linearGradient id="paint1_linear_605_4553" x1="9.78418" y1="52.8159" x2="42.0464" y2="61.0082" gradientUnits="userSpaceOnUse">
<stop stop-color="#FFA39E"/>
<stop offset="1" stop-color="#F01E33"/>
</linearGradient>
<linearGradient id="paint2_linear_605_4553" x1="35.2158" y1="0" x2="58.259" y2="5.8511" gradientUnits="userSpaceOnUse">
<stop stop-color="#FFA39E"/>
<stop offset="1" stop-color="#F01E33"/>
</linearGradient>
<linearGradient id="paint3_linear_605_4553" x1="13.9656" y1="19.5621" x2="83.7786" y2="42.9426" gradientUnits="userSpaceOnUse">
<stop stop-color="#FFA39E"/>
<stop offset="1" stop-color="#F01E33"/>
</linearGradient>
<linearGradient id="paint4_linear_605_4553" x1="5.87305" y1="15.6427" x2="93.2761" y2="46.2539" gradientUnits="userSpaceOnUse">
<stop stop-color="#FFD580"/>
<stop offset="1" stop-color="#FF384C"/>
</linearGradient>
<linearGradient id="paint5_linear_605_4553" x1="8.31848" y1="18.2215" x2="84.1269" y2="18.2215" gradientUnits="userSpaceOnUse">
<stop stop-color="#FFD580"/>
<stop offset="1" stop-color="#E65A53"/>
</linearGradient>
</defs>
</svg>
