<svg width="90" height="90" viewBox="0 0 90 90" fill="none" xmlns="http://www.w3.org/2000/svg">
<g clip-path="url(#clip0_605_4556)">
<path d="M12.4914 30.9471L40.3037 35.8512C39.9731 38.854 39.568 41.8857 39.0638 44.8471C38.5109 48.5678 36.6033 51.9532 33.7071 54.3535C31.1637 56.3952 27.9996 57.5077 24.7381 57.5071C24.4219 57.5071 24.1078 57.4844 23.7916 57.4616L22.1197 57.348L20.6028 56.9037C16.9649 55.8355 13.8932 53.3792 12.0512 50.0653C10.3838 46.9115 9.86508 43.2761 10.5839 39.7819C11.082 37.0519 11.7288 34.0739 12.4914 30.9471Z" fill="url(#paint0_linear_605_4556)"/>
<g filter="url(#filter0_bi_605_4556)">
<path d="M45.7905 6.47863C45.7796 6.00102 45.6035 5.54193 45.2923 5.17947C44.9811 4.81701 44.5539 4.57357 44.0834 4.49056L19.6624 0.183767C19.1903 0.0985906 18.7033 0.181324 18.2858 0.417619C17.8684 0.653915 17.5467 1.02887 17.3768 1.47746C12.7523 13.665 9.12451 26.2077 6.52917 38.9821C5.6213 43.4483 6.30182 48.0914 8.45318 52.1092C10.8228 56.3716 14.7803 59.5254 19.464 60.884L16.2112 79.3181C16.0207 80.3975 15.4092 81.3571 14.5112 81.9857C13.6133 82.6143 12.5024 82.8605 11.4229 82.6701L5.31194 81.5913C4.77898 81.5114 4.23589 81.6429 3.79846 81.9577C3.36103 82.2725 3.06387 82.7457 2.97034 83.2764C2.8768 83.8072 2.99429 84.3534 3.29776 84.7988C3.60123 85.2442 4.06666 85.5534 4.59483 85.6605L16.8146 87.8159L29.0076 89.9673C29.1269 89.9894 29.2479 90.0005 29.3692 90.0003C29.8864 90.0006 30.3849 89.8069 30.7663 89.4575C31.1476 89.1081 31.3841 88.6284 31.429 88.1132C31.4739 87.5979 31.3239 87.0846 31.0088 86.6745C30.6937 86.2644 30.2362 85.9874 29.7268 85.8981L23.6303 84.8235C23.0956 84.7294 22.5847 84.5309 22.1268 84.2393C21.6688 83.9477 21.2728 83.5688 20.9613 83.1242C20.6499 82.6795 20.429 82.1778 20.3115 81.6478C20.1939 81.1178 20.1819 80.5698 20.2762 80.0352L23.5311 61.5908C23.932 61.6176 24.3329 61.6445 24.7339 61.6445C28.9375 61.6414 33.0148 60.207 36.2944 57.5774C39.9804 54.53 42.4172 50.2338 43.1411 45.5064C45.0821 32.5906 45.9682 19.5382 45.7905 6.47863Z" fill="#1D1D1D" fill-opacity="0.05"/>
<path d="M45.7905 6.47863C45.7796 6.00102 45.6035 5.54193 45.2923 5.17947C44.9811 4.81701 44.5539 4.57357 44.0834 4.49056L19.6624 0.183767C19.1903 0.0985906 18.7033 0.181324 18.2858 0.417619C17.8684 0.653915 17.5467 1.02887 17.3768 1.47746C12.7523 13.665 9.12451 26.2077 6.52917 38.9821C5.6213 43.4483 6.30182 48.0914 8.45318 52.1092C10.8228 56.3716 14.7803 59.5254 19.464 60.884L16.2112 79.3181C16.0207 80.3975 15.4092 81.3571 14.5112 81.9857C13.6133 82.6143 12.5024 82.8605 11.4229 82.6701L5.31194 81.5913C4.77898 81.5114 4.23589 81.6429 3.79846 81.9577C3.36103 82.2725 3.06387 82.7457 2.97034 83.2764C2.8768 83.8072 2.99429 84.3534 3.29776 84.7988C3.60123 85.2442 4.06666 85.5534 4.59483 85.6605L16.8146 87.8159L29.0076 89.9673C29.1269 89.9894 29.2479 90.0005 29.3692 90.0003C29.8864 90.0006 30.3849 89.8069 30.7663 89.4575C31.1476 89.1081 31.3841 88.6284 31.429 88.1132C31.4739 87.5979 31.3239 87.0846 31.0088 86.6745C30.6937 86.2644 30.2362 85.9874 29.7268 85.8981L23.6303 84.8235C23.0956 84.7294 22.5847 84.5309 22.1268 84.2393C21.6688 83.9477 21.2728 83.5688 20.9613 83.1242C20.6499 82.6795 20.429 82.1778 20.3115 81.6478C20.1939 81.1178 20.1819 80.5698 20.2762 80.0352L23.5311 61.5908C23.932 61.6176 24.3329 61.6445 24.7339 61.6445C28.9375 61.6414 33.0148 60.207 36.2944 57.5774C39.9804 54.53 42.4172 50.2338 43.1411 45.5064C45.0821 32.5906 45.9682 19.5382 45.7905 6.47863Z" fill="url(#paint1_linear_605_4556)" fill-opacity="0.2"/>
<path d="M29.0076 89.9673C29.1269 89.9894 29.2479 90.0005 29.3692 90.0003C29.8864 90.0006 30.3849 89.8069 30.7663 89.4575M29.0076 89.9673L29.7268 85.8981C30.2362 85.9874 30.6937 86.2644 31.0088 86.6745C31.3239 87.0846 31.4739 87.5979 31.429 88.1132C31.3841 88.6284 31.1476 89.1081 30.7663 89.4575M29.0076 89.9673L16.8146 87.8159L4.59483 85.6605L29.0076 89.9673ZM30.7663 89.4575L30.3863 89.0427C30.1087 89.297 29.7459 89.438 29.3695 89.4378H29.3684C29.2819 89.438 29.1955 89.4301 29.1104 89.4142L29.1053 89.4133L16.9124 87.262L4.70015 85.1079C4.31842 85.0287 3.98223 84.8044 3.7626 84.4821C3.54174 84.1579 3.45622 83.7603 3.5243 83.374C3.59237 82.9878 3.80865 82.6434 4.12701 82.4143C4.44357 82.1865 4.83616 82.0906 5.22193 82.1466L11.3251 83.224L11.3252 83.224C12.5515 83.4404 13.8136 83.1607 14.8338 82.4465C15.854 81.7324 16.5487 80.6422 16.7651 79.4158L16.2112 79.3181L16.7651 79.4158L20.018 60.9817L20.1057 60.4844L19.6207 60.3437C15.0809 59.0269 11.2448 55.9706 8.947 51.8398C6.85915 47.9384 6.19893 43.4305 7.0804 39.0942L7.08041 39.0941C9.66969 26.3495 13.289 13.8361 17.9027 1.67701L17.9028 1.67677C18.0262 1.35102 18.2597 1.07874 18.5629 0.907146C18.8661 0.735555 19.2197 0.675477 19.5625 0.737334L19.5647 0.737719L43.9857 5.04451C43.9857 5.04451 43.9857 5.04451 43.9858 5.04452C44.3282 5.10493 44.6391 5.28211 44.8656 5.5459C45.0916 5.80916 45.2197 6.14246 45.2281 6.4893C45.4052 19.5173 44.5212 32.5381 42.5849 45.4226C41.8818 50.0116 39.5167 54.1822 35.9393 57.1412C32.7599 59.6892 28.8079 61.079 24.7335 61.082C24.3546 61.082 23.9727 61.0566 23.5687 61.0295L23.0649 60.9958L22.9772 61.493L19.7223 79.9374L19.7222 79.9375C19.6152 80.5449 19.6288 81.1675 19.7623 81.7696C19.8959 82.3718 20.1468 82.9417 20.5006 83.4469C20.8545 83.952 21.3044 84.3826 21.8247 84.7138C22.3449 85.045 22.9253 85.2706 23.5326 85.3775C23.5327 85.3775 23.5328 85.3775 23.5328 85.3775L29.6291 86.4521L29.6297 86.4522C30.0005 86.5171 30.3334 86.7188 30.5628 87.0172C30.7922 87.3157 30.9013 87.6893 30.8686 88.0643C30.8359 88.4393 30.6638 88.7884 30.3863 89.0427L30.7663 89.4575Z" stroke="url(#paint2_linear_605_4556)" stroke-opacity="0.1" stroke-width="1.125"/>
</g>
<g filter="url(#filter1_i_605_4556)">
<path d="M32.4415 54.7954C32.013 54.7953 31.5951 54.662 31.2457 54.4139C30.8963 54.1659 30.6327 53.8153 30.4913 53.4108C30.3499 53.0063 30.3377 52.5679 30.4564 52.1562C30.5751 51.7444 30.8189 51.3798 31.154 51.1127C33.2465 49.3314 34.6133 46.8447 34.9958 44.1235C35.4567 41.3997 35.87 38.4217 36.2151 35.2722C36.2751 34.7274 36.5491 34.2288 36.9768 33.886C37.1886 33.7162 37.4317 33.5899 37.6923 33.5141C37.9529 33.4383 38.2259 33.4146 38.4956 33.4443C38.7654 33.474 39.0267 33.5566 39.2645 33.6873C39.5024 33.818 39.7121 33.9942 39.8819 34.206C40.0516 34.4177 40.178 34.6609 40.2538 34.9215C40.3295 35.1821 40.3532 35.455 40.3235 35.7248C39.9681 38.9528 39.5465 42.0135 39.067 44.8179C38.5186 48.543 36.6167 51.9355 33.7249 54.347C33.3605 54.6379 32.9078 54.7961 32.4415 54.7954Z" fill="white" fill-opacity="0.1"/>
</g>
<path d="M77.3976 30.7887L49.5823 35.6933C49.913 38.6964 50.3181 41.7284 50.8224 44.6902C51.3753 48.4112 53.2831 51.797 56.1796 54.1975C58.7233 56.2395 61.8877 57.3521 65.1496 57.3515C65.4658 57.3515 65.7696 57.3288 66.0962 57.306L67.7683 57.1924L69.2853 56.748C72.9236 55.6797 75.9956 53.2232 77.8378 49.9089C79.5054 46.7548 80.0242 43.119 79.3053 39.6244C78.8072 36.8941 78.1706 33.9158 77.3976 30.7887Z" fill="url(#paint3_linear_605_4556)"/>
<g filter="url(#filter2_bi_605_4556)">
<path d="M84.5779 81.4393L78.4808 82.5141C77.4012 82.7045 76.2902 82.4583 75.3921 81.8296C74.494 81.2009 73.8825 80.2412 73.6919 79.1617L70.4408 60.7194C75.1181 59.355 79.0685 56.2009 81.4343 51.9416C83.5774 47.9475 84.2601 43.3309 83.3647 38.8875C82.7963 35.7728 82.1018 32.623 81.3454 29.5393C78.9416 19.971 75.9923 10.5481 72.5118 1.31681C72.3399 0.870095 72.0175 0.497396 71.6002 0.263064C71.1828 0.0287314 70.6967 -0.0525275 70.2259 0.0333165L45.8022 4.33024C45.3317 4.41325 44.9045 4.65672 44.5932 5.01922C44.282 5.38172 44.1059 5.84086 44.095 6.31853C43.9162 19.3899 44.803 32.4542 46.7468 45.3815C47.4747 50.1094 49.92 54.4031 53.6148 57.4414C56.8908 60.0575 60.9574 61.485 65.1498 61.4903C65.5631 61.4903 65.9765 61.4634 66.3775 61.4366L69.6286 79.8789C69.819 80.9584 69.5728 82.0695 68.9441 82.9675C68.3154 83.8656 67.3558 84.4772 66.2762 84.6677L60.1563 85.7466C59.6468 85.8358 59.1893 86.1129 58.8741 86.523C58.559 86.9331 58.409 87.4465 58.4539 87.9618C58.4988 88.4771 58.7353 88.9569 59.1167 89.3063C59.4981 89.6557 59.9966 89.8494 60.5139 89.8492C60.6352 89.8494 60.7563 89.8383 60.8756 89.8161L85.3013 85.5089C85.5741 85.468 85.836 85.3729 86.0715 85.2292C86.307 85.0855 86.5113 84.8961 86.6725 84.6721C86.8336 84.4482 86.9483 84.1943 87.0098 83.9253C87.0712 83.6564 87.0782 83.3779 87.0303 83.1062C86.9825 82.8345 86.8807 82.5751 86.731 82.3434C86.5813 82.1117 86.3867 81.9122 86.1587 81.7569C85.9307 81.6015 85.674 81.4934 85.4035 81.4389C85.1331 81.3843 84.8545 81.3845 84.5841 81.4393H84.5779Z" fill="#1D1D1D" fill-opacity="0.05"/>
<path d="M84.5779 81.4393L78.4808 82.5141C77.4012 82.7045 76.2902 82.4583 75.3921 81.8296C74.494 81.2009 73.8825 80.2412 73.6919 79.1617L70.4408 60.7194C75.1181 59.355 79.0685 56.2009 81.4343 51.9416C83.5774 47.9475 84.2601 43.3309 83.3647 38.8875C82.7963 35.7728 82.1018 32.623 81.3454 29.5393C78.9416 19.971 75.9923 10.5481 72.5118 1.31681C72.3399 0.870095 72.0175 0.497396 71.6002 0.263064C71.1828 0.0287314 70.6967 -0.0525275 70.2259 0.0333165L45.8022 4.33024C45.3317 4.41325 44.9045 4.65672 44.5932 5.01922C44.282 5.38172 44.1059 5.84086 44.095 6.31853C43.9162 19.3899 44.803 32.4542 46.7468 45.3815C47.4747 50.1094 49.92 54.4031 53.6148 57.4414C56.8908 60.0575 60.9574 61.485 65.1498 61.4903C65.5631 61.4903 65.9765 61.4634 66.3775 61.4366L69.6286 79.8789C69.819 80.9584 69.5728 82.0695 68.9441 82.9675C68.3154 83.8656 67.3558 84.4772 66.2762 84.6677L60.1563 85.7466C59.6468 85.8358 59.1893 86.1129 58.8741 86.523C58.559 86.9331 58.409 87.4465 58.4539 87.9618C58.4988 88.4771 58.7353 88.9569 59.1167 89.3063C59.4981 89.6557 59.9966 89.8494 60.5139 89.8492C60.6352 89.8494 60.7563 89.8383 60.8756 89.8161L85.3013 85.5089C85.5741 85.468 85.836 85.3729 86.0715 85.2292C86.307 85.0855 86.5113 84.8961 86.6725 84.6721C86.8336 84.4482 86.9483 84.1943 87.0098 83.9253C87.0712 83.6564 87.0782 83.3779 87.0303 83.1062C86.9825 82.8345 86.8807 82.5751 86.731 82.3434C86.5813 82.1117 86.3867 81.9122 86.1587 81.7569C85.9307 81.6015 85.674 81.4934 85.4035 81.4389C85.1331 81.3843 84.8545 81.3845 84.5841 81.4393H84.5779Z" fill="url(#paint4_linear_605_4556)" fill-opacity="0.2"/>
<path d="M73.138 79.2593L73.138 79.2594C73.3545 80.4859 74.0492 81.5762 75.0695 82.2904C76.0898 83.0046 77.352 83.2844 78.5784 83.068C78.5785 83.068 78.5785 83.068 78.5785 83.068L84.6271 82.0018H84.6406L84.6959 81.9906C84.8927 81.9507 85.0955 81.9506 85.2923 81.9903C85.4892 82.03 85.6761 82.1087 85.842 82.2217C86.0079 82.3348 86.1495 82.4799 86.2585 82.6486C86.3675 82.8173 86.4415 83.0061 86.4764 83.2038C86.5112 83.4016 86.5061 83.6043 86.4614 83.8C86.4167 83.9958 86.3332 84.1806 86.2159 84.3436C86.0986 84.5066 85.9499 84.6444 85.7785 84.749L86.0715 85.2292L85.7785 84.749C85.6071 84.8536 85.4165 84.9228 85.2179 84.9526L85.2107 84.9537L85.2036 84.9549L60.7779 89.2622L60.7728 89.2631C60.6876 89.2789 60.6012 89.2868 60.5147 89.2867H60.5136C60.1372 89.2869 59.7743 89.1459 59.4967 88.8915C59.2191 88.6372 59.047 88.2881 59.0143 87.913C58.9816 87.5379 59.0908 87.1643 59.3202 86.8657C59.5495 86.5672 59.8825 86.3656 60.2534 86.3006L60.254 86.3005L66.3738 85.2216L66.3739 85.2216C67.6004 85.0052 68.6907 84.3104 69.4049 83.2901C70.1192 82.2699 70.3989 81.0077 70.1825 79.7812C70.1825 79.7812 70.1825 79.7812 70.1825 79.7811L66.9314 61.3389L66.8437 60.8416L66.3398 60.8753C65.9372 60.9023 65.5421 60.9278 65.1505 60.9278C61.0867 60.9226 57.1449 59.5394 53.9689 57.0043C50.383 54.0543 48.0098 49.8864 47.3029 45.297C45.3639 32.4011 44.4792 19.3686 44.6574 6.32899C44.6659 5.98217 44.794 5.6489 45.02 5.38566C45.2465 5.12181 45.5575 4.94461 45.9 4.88419L70.3233 0.587319L70.3268 0.586696C70.6687 0.524356 71.0217 0.583366 71.3248 0.753538C71.6273 0.923412 71.8612 1.19341 71.9861 1.51706C75.4586 10.7272 78.4011 20.1284 80.7994 29.6747C81.5537 32.7496 82.2455 35.8877 82.8113 38.9885L82.8112 38.9885L82.8133 38.9986C83.6825 43.3123 83.0202 47.794 80.9407 51.6718C78.6466 55.7999 74.8172 58.8569 70.2833 60.1794L69.7993 60.3206L69.8869 60.817L73.138 79.2593Z" stroke="url(#paint5_linear_605_4556)" stroke-opacity="0.1" stroke-width="1.125"/>
</g>
<g filter="url(#filter3_i_605_4556)">
<path d="M76.0337 50.9698C75.6731 50.9696 75.3187 50.875 75.006 50.6954C74.6932 50.5158 74.4329 50.2574 74.2509 49.9461C74.0689 49.6347 73.9715 49.2811 73.9685 48.9205C73.9654 48.5598 74.0568 48.2047 74.2335 47.8903C75.4275 45.5754 75.7832 42.9186 75.2401 40.3712C74.7399 37.6409 74.095 34.6564 73.3221 31.5086C73.1913 30.9758 73.2776 30.4129 73.5619 29.9437C73.8462 29.4745 74.3053 29.1375 74.8381 29.0067C75.3709 28.876 75.9338 28.9623 76.403 29.2466C76.8722 29.5309 77.2092 29.99 77.34 30.5228C78.1295 33.7532 78.7867 36.8162 79.3055 39.6292C80.0235 43.1245 79.5048 46.7607 77.8381 49.9158C77.6581 50.2359 77.3961 50.5024 77.0789 50.6876C76.7618 50.8729 76.401 50.9703 76.0337 50.9698Z" fill="white" fill-opacity="0.1"/>
</g>
</g>
<defs>
<filter id="filter0_bi_605_4556" x="-3.06104" y="-5.84888" width="54.8738" height="101.849" filterUnits="userSpaceOnUse" color-interpolation-filters="sRGB">
<feFlood flood-opacity="0" result="BackgroundImageFix"/>
<feGaussianBlur in="BackgroundImageFix" stdDeviation="3"/>
<feComposite in2="SourceAlpha" operator="in" result="effect1_backgroundBlur_605_4556"/>
<feBlend mode="normal" in="SourceGraphic" in2="effect1_backgroundBlur_605_4556" result="shape"/>
<feColorMatrix in="SourceAlpha" type="matrix" values="0 0 0 0 0 0 0 0 0 0 0 0 0 0 0 0 0 0 127 0" result="hardAlpha"/>
<feOffset dy="2"/>
<feGaussianBlur stdDeviation="1.5"/>
<feComposite in2="hardAlpha" operator="arithmetic" k2="-1" k3="1"/>
<feColorMatrix type="matrix" values="0 0 0 0 1 0 0 0 0 1 0 0 0 0 1 0 0 0 0.15 0"/>
<feBlend mode="normal" in2="shape" result="effect2_innerShadow_605_4556"/>
</filter>
<filter id="filter1_i_605_4556" x="30.3755" y="33.4319" width="9.96045" height="23.3635" filterUnits="userSpaceOnUse" color-interpolation-filters="sRGB">
<feFlood flood-opacity="0" result="BackgroundImageFix"/>
<feBlend mode="normal" in="SourceGraphic" in2="BackgroundImageFix" result="shape"/>
<feColorMatrix in="SourceAlpha" type="matrix" values="0 0 0 0 0 0 0 0 0 0 0 0 0 0 0 0 0 0 127 0" result="hardAlpha"/>
<feOffset dy="2"/>
<feGaussianBlur stdDeviation="1"/>
<feComposite in2="hardAlpha" operator="arithmetic" k2="-1" k3="1"/>
<feColorMatrix type="matrix" values="0 0 0 0 1 0 0 0 0 1 0 0 0 0 1 0 0 0 0.1 0"/>
<feBlend mode="normal" in2="shape" result="effect1_innerShadow_605_4556"/>
</filter>
<filter id="filter2_bi_605_4556" x="38.0725" y="-6" width="54.9893" height="101.849" filterUnits="userSpaceOnUse" color-interpolation-filters="sRGB">
<feFlood flood-opacity="0" result="BackgroundImageFix"/>
<feGaussianBlur in="BackgroundImageFix" stdDeviation="3"/>
<feComposite in2="SourceAlpha" operator="in" result="effect1_backgroundBlur_605_4556"/>
<feBlend mode="normal" in="SourceGraphic" in2="effect1_backgroundBlur_605_4556" result="shape"/>
<feColorMatrix in="SourceAlpha" type="matrix" values="0 0 0 0 0 0 0 0 0 0 0 0 0 0 0 0 0 0 127 0" result="hardAlpha"/>
<feOffset dy="2"/>
<feGaussianBlur stdDeviation="1.5"/>
<feComposite in2="hardAlpha" operator="arithmetic" k2="-1" k3="1"/>
<feColorMatrix type="matrix" values="0 0 0 0 1 0 0 0 0 1 0 0 0 0 1 0 0 0 0.15 0"/>
<feBlend mode="normal" in2="shape" result="effect2_innerShadow_605_4556"/>
</filter>
<filter id="filter3_i_605_4556" x="73.2625" y="28.9471" width="6.35791" height="24.0227" filterUnits="userSpaceOnUse" color-interpolation-filters="sRGB">
<feFlood flood-opacity="0" result="BackgroundImageFix"/>
<feBlend mode="normal" in="SourceGraphic" in2="BackgroundImageFix" result="shape"/>
<feColorMatrix in="SourceAlpha" type="matrix" values="0 0 0 0 0 0 0 0 0 0 0 0 0 0 0 0 0 0 127 0" result="hardAlpha"/>
<feOffset dy="2"/>
<feGaussianBlur stdDeviation="1"/>
<feComposite in2="hardAlpha" operator="arithmetic" k2="-1" k3="1"/>
<feColorMatrix type="matrix" values="0 0 0 0 1 0 0 0 0 1 0 0 0 0 1 0 0 0 0.1 0"/>
<feBlend mode="normal" in2="shape" result="effect1_innerShadow_605_4556"/>
</filter>
<linearGradient id="paint0_linear_605_4556" x1="10.2686" y1="30.9471" x2="45.0615" y2="40.9377" gradientUnits="userSpaceOnUse">
<stop stop-color="#FFA39E"/>
<stop offset="1" stop-color="#F01E33"/>
</linearGradient>
<linearGradient id="paint1_linear_605_4556" x1="2.93896" y1="0.151123" x2="55.9214" y2="6.57065" gradientUnits="userSpaceOnUse">
<stop stop-color="#FFD580"/>
<stop offset="1" stop-color="#FF384C"/>
</linearGradient>
<linearGradient id="paint2_linear_605_4556" x1="4.27877" y1="4.23518" x2="45.8127" y2="4.23518" gradientUnits="userSpaceOnUse">
<stop stop-color="#FFD580"/>
<stop offset="1" stop-color="#E65A53"/>
</linearGradient>
<linearGradient id="paint3_linear_605_4556" x1="49.5823" y1="30.7887" x2="84.379" y2="40.7803" gradientUnits="userSpaceOnUse">
<stop stop-color="#FFA39E"/>
<stop offset="1" stop-color="#F01E33"/>
</linearGradient>
<linearGradient id="paint4_linear_605_4556" x1="44.0725" y1="0" x2="97.1934" y2="6.45364" gradientUnits="userSpaceOnUse">
<stop stop-color="#FFD580"/>
<stop offset="1" stop-color="#FF384C"/>
</linearGradient>
<linearGradient id="paint5_linear_605_4556" x1="45.4159" y1="4.08406" x2="87.0617" y2="4.08406" gradientUnits="userSpaceOnUse">
<stop stop-color="#FFD580"/>
<stop offset="1" stop-color="#E65A53"/>
</linearGradient>
<clipPath id="clip0_605_4556">
<rect width="90" height="90" fill="white"/>
</clipPath>
</defs>
</svg>
