<svg width="56" height="56" viewBox="0 0 56 56" fill="none" xmlns="http://www.w3.org/2000/svg">
<path d="M3.5982 5.62622H37.1814C38.5062 5.62622 39.5802 6.7002 39.5802 8.02502V12.8226H3.5982C1.61097 12.8226 0 11.2117 0 9.22442C0 7.23718 1.61096 5.62622 3.5982 5.62622Z" fill="url(#paint0_linear_101_7882)"/>
<path d="M44.3791 4.42627H5.99631V48.4041H44.3791V4.42627Z" fill="url(#paint1_linear_101_7882)"/>
<g filter="url(#filter0_bi_101_7882)">
<path d="M43.1777 0.827637H7.19571C6.5333 0.827637 5.99631 1.36463 5.99631 2.02704V48.4038H44.3771V2.02704C44.3771 1.36463 43.8401 0.827637 43.1777 0.827637Z" fill="white" fill-opacity="0.16"/>
<path d="M7.19571 1.17246H43.1777C43.6497 1.17246 44.0323 1.55508 44.0323 2.02704V48.059H6.34113V2.02704C6.34113 1.55508 6.72375 1.17246 7.19571 1.17246Z" stroke="url(#paint2_linear_101_7882)" stroke-opacity="0.1" stroke-width="0.689655"/>
</g>
<g filter="url(#filter1_bi_101_7882)">
<path d="M0 9.22388V47.6046C0 52.2415 3.75894 56.0004 8.39581 56.0004H47.976C49.3008 56.0004 50.3748 54.9264 50.3748 53.6016V15.2208C50.3748 13.8959 49.3008 12.822 47.976 12.822H3.5982C1.61098 12.822 0 11.2111 0 9.22388Z" fill="#1D1D1D" fill-opacity="0.05"/>
<path d="M0 9.22388V47.6046C0 52.2415 3.75894 56.0004 8.39581 56.0004H47.976C49.3008 56.0004 50.3748 54.9264 50.3748 53.6016V15.2208C50.3748 13.8959 49.3008 12.822 47.976 12.822H3.5982C1.61098 12.822 0 11.2111 0 9.22388Z" fill="url(#paint3_linear_101_7882)" fill-opacity="0.2"/>
<path d="M0.344828 47.6046V11.4523C1.05543 12.4877 2.24751 13.1668 3.5982 13.1668H47.976C49.1104 13.1668 50.03 14.0864 50.03 15.2208V53.6016C50.03 54.736 49.1104 55.6556 47.976 55.6556H8.39581C3.94938 55.6556 0.344828 52.051 0.344828 47.6046Z" stroke="url(#paint4_linear_101_7882)" stroke-opacity="0.1" stroke-width="0.689655"/>
</g>
<g filter="url(#filter2_i_101_7882)">
<path d="M53.9734 28.4138H41.9794C38.6728 28.4138 35.9824 31.1043 35.9824 34.4108C35.9824 37.7174 38.6728 40.4078 41.9794 40.4078H53.9734C54.6358 40.4078 55.1728 39.8708 55.1728 39.2084V29.6132C55.1728 28.9508 54.6358 28.4138 53.9734 28.4138Z" fill="url(#paint5_linear_101_7882)"/>
</g>
<g filter="url(#filter3_i_101_7882)">
<path d="M41.9799 36.8101C43.3047 36.8101 44.3787 35.7361 44.3787 34.4113C44.3787 33.0864 43.3047 32.0125 41.9799 32.0125C40.6551 32.0125 39.5811 33.0864 39.5811 34.4113C39.5811 35.7361 40.6551 36.8101 41.9799 36.8101Z" fill="white" fill-opacity="0.1"/>
</g>
<defs>
<filter id="filter0_bi_101_7882" x="-7.7968" y="-12.9655" width="65.967" height="75.1624" filterUnits="userSpaceOnUse" color-interpolation-filters="sRGB">
<feFlood flood-opacity="0" result="BackgroundImageFix"/>
<feGaussianBlur in="BackgroundImageFix" stdDeviation="6.89655"/>
<feComposite in2="SourceAlpha" operator="in" result="effect1_backgroundBlur_101_7882"/>
<feBlend mode="normal" in="SourceGraphic" in2="effect1_backgroundBlur_101_7882" result="shape"/>
<feColorMatrix in="SourceAlpha" type="matrix" values="0 0 0 0 0 0 0 0 0 0 0 0 0 0 0 0 0 0 127 0" result="hardAlpha"/>
<feOffset dy="4.5977"/>
<feGaussianBlur stdDeviation="3.44828"/>
<feComposite in2="hardAlpha" operator="arithmetic" k2="-1" k3="1"/>
<feColorMatrix type="matrix" values="0 0 0 0 1 0 0 0 0 1 0 0 0 0 1 0 0 0 0.4 0"/>
<feBlend mode="normal" in2="shape" result="effect2_innerShadow_101_7882"/>
</filter>
<filter id="filter1_bi_101_7882" x="-13.7931" y="-4.56923" width="77.961" height="74.3628" filterUnits="userSpaceOnUse" color-interpolation-filters="sRGB">
<feFlood flood-opacity="0" result="BackgroundImageFix"/>
<feGaussianBlur in="BackgroundImageFix" stdDeviation="6.89655"/>
<feComposite in2="SourceAlpha" operator="in" result="effect1_backgroundBlur_101_7882"/>
<feBlend mode="normal" in="SourceGraphic" in2="effect1_backgroundBlur_101_7882" result="shape"/>
<feColorMatrix in="SourceAlpha" type="matrix" values="0 0 0 0 0 0 0 0 0 0 0 0 0 0 0 0 0 0 127 0" result="hardAlpha"/>
<feOffset dy="4.5977"/>
<feGaussianBlur stdDeviation="3.44828"/>
<feComposite in2="hardAlpha" operator="arithmetic" k2="-1" k3="1"/>
<feColorMatrix type="matrix" values="0 0 0 0 1 0 0 0 0 1 0 0 0 0 1 0 0 0 0.15 0"/>
<feBlend mode="normal" in2="shape" result="effect2_innerShadow_101_7882"/>
</filter>
<filter id="filter2_i_101_7882" x="35.9824" y="28.4138" width="19.1904" height="16.5916" filterUnits="userSpaceOnUse" color-interpolation-filters="sRGB">
<feFlood flood-opacity="0" result="BackgroundImageFix"/>
<feBlend mode="normal" in="SourceGraphic" in2="BackgroundImageFix" result="shape"/>
<feColorMatrix in="SourceAlpha" type="matrix" values="0 0 0 0 0 0 0 0 0 0 0 0 0 0 0 0 0 0 127 0" result="hardAlpha"/>
<feOffset dy="4.5977"/>
<feGaussianBlur stdDeviation="2.29885"/>
<feComposite in2="hardAlpha" operator="arithmetic" k2="-1" k3="1"/>
<feColorMatrix type="matrix" values="0 0 0 0 1 0 0 0 0 1 0 0 0 0 1 0 0 0 0.4 0"/>
<feBlend mode="normal" in2="shape" result="effect1_innerShadow_101_7882"/>
</filter>
<filter id="filter3_i_101_7882" x="39.5811" y="32.0125" width="4.79761" height="9.39531" filterUnits="userSpaceOnUse" color-interpolation-filters="sRGB">
<feFlood flood-opacity="0" result="BackgroundImageFix"/>
<feBlend mode="normal" in="SourceGraphic" in2="BackgroundImageFix" result="shape"/>
<feColorMatrix in="SourceAlpha" type="matrix" values="0 0 0 0 0 0 0 0 0 0 0 0 0 0 0 0 0 0 127 0" result="hardAlpha"/>
<feOffset dy="4.5977"/>
<feGaussianBlur stdDeviation="2.29885"/>
<feComposite in2="hardAlpha" operator="arithmetic" k2="-1" k3="1"/>
<feColorMatrix type="matrix" values="0 0 0 0 1 0 0 0 0 1 0 0 0 0 1 0 0 0 0.1 0"/>
<feBlend mode="normal" in2="shape" result="effect1_innerShadow_101_7882"/>
</filter>
<linearGradient id="paint0_linear_101_7882" x1="0" y1="5.62622" x2="16.8218" y2="29.1188" gradientUnits="userSpaceOnUse">
<stop stop-color="#B1F0C6"/>
<stop offset="1" stop-color="#008C99"/>
</linearGradient>
<linearGradient id="paint1_linear_101_7882" x1="5.99631" y1="4.42627" x2="51.8721" y2="14.593" gradientUnits="userSpaceOnUse">
<stop stop-color="#B1F0C6"/>
<stop offset="1" stop-color="#008C99"/>
</linearGradient>
<linearGradient id="paint2_linear_101_7882" x1="7.19571" y1="2.99019" x2="44.3771" y2="2.99019" gradientUnits="userSpaceOnUse">
<stop stop-color="#8AE6A8"/>
<stop offset="1" stop-color="#48A3AB"/>
</linearGradient>
<linearGradient id="paint3_linear_101_7882" x1="0" y1="9.22388" x2="58.7712" y2="25.295" gradientUnits="userSpaceOnUse">
<stop stop-color="#B3FFCC"/>
<stop offset="1" stop-color="#008C99"/>
</linearGradient>
<linearGradient id="paint4_linear_101_7882" x1="1.57421" y1="11.3501" x2="50.3748" y2="11.3501" gradientUnits="userSpaceOnUse">
<stop stop-color="#8AE6A8"/>
<stop offset="1" stop-color="#48A3AB"/>
</linearGradient>
<linearGradient id="paint5_linear_101_7882" x1="35.9824" y1="28.4138" x2="56.6365" y2="36.805" gradientUnits="userSpaceOnUse">
<stop stop-color="#B1F0C6"/>
<stop offset="1" stop-color="#008C99"/>
</linearGradient>
</defs>
</svg>
