<svg width="56" height="56" viewBox="0 0 56 56" fill="none" xmlns="http://www.w3.org/2000/svg">
<path d="M4.11544 5.62622H37.6987C39.0235 5.62622 40.0975 6.7002 40.0975 8.02502V12.8226H4.11544C2.12822 12.8226 0.517242 11.2117 0.517242 9.22442C0.517242 7.23718 2.1282 5.62622 4.11544 5.62622Z" fill="url(#paint0_linear_101_7889)"/>
<path d="M44.8963 4.42627H6.51357V48.4041H44.8963V4.42627Z" fill="url(#paint1_linear_101_7889)"/>
<g filter="url(#filter0_bi_101_7889)">
<path d="M43.695 0.827637H7.71297C7.05056 0.827637 6.51357 1.36463 6.51357 2.02704V48.4038H44.8944V2.02704C44.8944 1.36463 44.3574 0.827637 43.695 0.827637Z" fill="white" fill-opacity="0.16"/>
<path d="M7.71297 1.17246H43.695C44.1669 1.17246 44.5495 1.55508 44.5495 2.02704V48.059H6.85839V2.02704C6.85839 1.55508 7.241 1.17246 7.71297 1.17246Z" stroke="url(#paint2_linear_101_7889)" stroke-opacity="0.1" stroke-width="0.689655"/>
</g>
<g filter="url(#filter1_bi_101_7889)">
<path d="M0.517242 9.22388V47.6046C0.517242 52.2415 4.27618 56.0004 8.91305 56.0004H48.4933C49.8181 56.0004 50.892 54.9264 50.892 53.6016V15.2208C50.892 13.8959 49.8181 12.822 48.4933 12.822H4.11544C2.12822 12.822 0.517242 11.2111 0.517242 9.22388Z" fill="#1D1D1D" fill-opacity="0.05"/>
<path d="M0.517242 9.22388V47.6046C0.517242 52.2415 4.27618 56.0004 8.91305 56.0004H48.4933C49.8181 56.0004 50.892 54.9264 50.892 53.6016V15.2208C50.892 13.8959 49.8181 12.822 48.4933 12.822H4.11544C2.12822 12.822 0.517242 11.2111 0.517242 9.22388Z" fill="url(#paint3_linear_101_7889)" fill-opacity="0.2"/>
<path d="M0.86207 47.6046V11.4523C1.57267 12.4877 2.76475 13.1668 4.11544 13.1668H48.4933C49.6276 13.1668 50.5472 14.0864 50.5472 15.2208V53.6016C50.5472 54.736 49.6276 55.6556 48.4933 55.6556H8.91305C4.46663 55.6556 0.86207 52.051 0.86207 47.6046Z" stroke="url(#paint4_linear_101_7889)" stroke-opacity="0.1" stroke-width="0.689655"/>
</g>
<g filter="url(#filter2_i_101_7889)">
<path d="M54.4906 28.4138H42.4966C39.1901 28.4138 36.4996 31.1043 36.4996 34.4108C36.4996 37.7174 39.1901 40.4078 42.4966 40.4078H54.4906C55.153 40.4078 55.69 39.8708 55.69 39.2084V29.6132C55.69 28.9508 55.153 28.4138 54.4906 28.4138Z" fill="url(#paint5_linear_101_7889)"/>
</g>
<g filter="url(#filter3_i_101_7889)">
<path d="M42.4971 36.8101C43.8219 36.8101 44.8959 35.7361 44.8959 34.4113C44.8959 33.0864 43.8219 32.0125 42.4971 32.0125C41.1723 32.0125 40.0983 33.0864 40.0983 34.4113C40.0983 35.7361 41.1723 36.8101 42.4971 36.8101Z" fill="white" fill-opacity="0.1"/>
</g>
<defs>
<filter id="filter0_bi_101_7889" x="-7.27954" y="-12.9655" width="65.967" height="75.1624" filterUnits="userSpaceOnUse" color-interpolation-filters="sRGB">
<feFlood flood-opacity="0" result="BackgroundImageFix"/>
<feGaussianBlur in="BackgroundImageFix" stdDeviation="6.89655"/>
<feComposite in2="SourceAlpha" operator="in" result="effect1_backgroundBlur_101_7889"/>
<feBlend mode="normal" in="SourceGraphic" in2="effect1_backgroundBlur_101_7889" result="shape"/>
<feColorMatrix in="SourceAlpha" type="matrix" values="0 0 0 0 0 0 0 0 0 0 0 0 0 0 0 0 0 0 127 0" result="hardAlpha"/>
<feOffset dy="4.5977"/>
<feGaussianBlur stdDeviation="3.44828"/>
<feComposite in2="hardAlpha" operator="arithmetic" k2="-1" k3="1"/>
<feColorMatrix type="matrix" values="0 0 0 0 1 0 0 0 0 1 0 0 0 0 1 0 0 0 0.4 0"/>
<feBlend mode="normal" in2="shape" result="effect2_innerShadow_101_7889"/>
</filter>
<filter id="filter1_bi_101_7889" x="-13.2759" y="-4.56923" width="77.961" height="74.3628" filterUnits="userSpaceOnUse" color-interpolation-filters="sRGB">
<feFlood flood-opacity="0" result="BackgroundImageFix"/>
<feGaussianBlur in="BackgroundImageFix" stdDeviation="6.89655"/>
<feComposite in2="SourceAlpha" operator="in" result="effect1_backgroundBlur_101_7889"/>
<feBlend mode="normal" in="SourceGraphic" in2="effect1_backgroundBlur_101_7889" result="shape"/>
<feColorMatrix in="SourceAlpha" type="matrix" values="0 0 0 0 0 0 0 0 0 0 0 0 0 0 0 0 0 0 127 0" result="hardAlpha"/>
<feOffset dy="4.5977"/>
<feGaussianBlur stdDeviation="3.44828"/>
<feComposite in2="hardAlpha" operator="arithmetic" k2="-1" k3="1"/>
<feColorMatrix type="matrix" values="0 0 0 0 1 0 0 0 0 1 0 0 0 0 1 0 0 0 0.15 0"/>
<feBlend mode="normal" in2="shape" result="effect2_innerShadow_101_7889"/>
</filter>
<filter id="filter2_i_101_7889" x="36.4996" y="28.4138" width="19.1904" height="16.5916" filterUnits="userSpaceOnUse" color-interpolation-filters="sRGB">
<feFlood flood-opacity="0" result="BackgroundImageFix"/>
<feBlend mode="normal" in="SourceGraphic" in2="BackgroundImageFix" result="shape"/>
<feColorMatrix in="SourceAlpha" type="matrix" values="0 0 0 0 0 0 0 0 0 0 0 0 0 0 0 0 0 0 127 0" result="hardAlpha"/>
<feOffset dy="4.5977"/>
<feGaussianBlur stdDeviation="2.29885"/>
<feComposite in2="hardAlpha" operator="arithmetic" k2="-1" k3="1"/>
<feColorMatrix type="matrix" values="0 0 0 0 1 0 0 0 0 1 0 0 0 0 1 0 0 0 0.4 0"/>
<feBlend mode="normal" in2="shape" result="effect1_innerShadow_101_7889"/>
</filter>
<filter id="filter3_i_101_7889" x="40.0983" y="32.0125" width="4.79761" height="9.39531" filterUnits="userSpaceOnUse" color-interpolation-filters="sRGB">
<feFlood flood-opacity="0" result="BackgroundImageFix"/>
<feBlend mode="normal" in="SourceGraphic" in2="BackgroundImageFix" result="shape"/>
<feColorMatrix in="SourceAlpha" type="matrix" values="0 0 0 0 0 0 0 0 0 0 0 0 0 0 0 0 0 0 127 0" result="hardAlpha"/>
<feOffset dy="4.5977"/>
<feGaussianBlur stdDeviation="2.29885"/>
<feComposite in2="hardAlpha" operator="arithmetic" k2="-1" k3="1"/>
<feColorMatrix type="matrix" values="0 0 0 0 1 0 0 0 0 1 0 0 0 0 1 0 0 0 0.1 0"/>
<feBlend mode="normal" in2="shape" result="effect1_innerShadow_101_7889"/>
</filter>
<linearGradient id="paint0_linear_101_7889" x1="0.517242" y1="5.62622" x2="17.3391" y2="29.1188" gradientUnits="userSpaceOnUse">
<stop stop-color="#CFCFCF"/>
<stop offset="1" stop-color="#999999" stop-opacity="0.7"/>
</linearGradient>
<linearGradient id="paint1_linear_101_7889" x1="6.51357" y1="4.42627" x2="52.3893" y2="14.593" gradientUnits="userSpaceOnUse">
<stop stop-color="#CFCFCF"/>
<stop offset="1" stop-color="#999999" stop-opacity="0.7"/>
</linearGradient>
<linearGradient id="paint2_linear_101_7889" x1="7.71297" y1="2.99019" x2="44.8944" y2="2.99019" gradientUnits="userSpaceOnUse">
<stop stop-color="#CCCCCC"/>
<stop offset="1" stop-color="#808080"/>
</linearGradient>
<linearGradient id="paint3_linear_101_7889" x1="0.517242" y1="9.22388" x2="59.2885" y2="25.295" gradientUnits="userSpaceOnUse">
<stop stop-color="#BFBFBF"/>
<stop offset="1" stop-color="#9C9C9C"/>
</linearGradient>
<linearGradient id="paint4_linear_101_7889" x1="2.09146" y1="11.3501" x2="50.892" y2="11.3501" gradientUnits="userSpaceOnUse">
<stop stop-color="#CCCCCC"/>
<stop offset="1" stop-color="#808080"/>
</linearGradient>
<linearGradient id="paint5_linear_101_7889" x1="36.4996" y1="28.4138" x2="57.1538" y2="36.805" gradientUnits="userSpaceOnUse">
<stop stop-color="#CFCFCF"/>
<stop offset="1" stop-color="#999999" stop-opacity="0.7"/>
</linearGradient>
</defs>
</svg>
