<svg width="187" height="180" viewBox="0 0 187 180" fill="none" xmlns="http://www.w3.org/2000/svg">
<g filter="url(#filter0_f_1_156)">
<path d="M134.717 52.885C146.794 64.9623 146.787 84.5704 134.717 96.6407L99.9839 131.374C92.9836 138.374 81.6275 138.374 74.6271 131.374L43.5427 100.289L90.9542 52.8779C103.032 40.8005 122.64 40.8076 134.71 52.8779L134.717 52.885Z" fill="url(#paint0_linear_1_156)"/>
</g>
<path d="M134.717 52.885C146.794 64.9623 146.787 84.5704 134.717 96.6407L99.9839 131.374C92.9836 138.374 81.6275 138.374 74.6271 131.374L43.5427 100.289L90.9542 52.8779C103.032 40.8005 122.64 40.8076 134.71 52.8779L134.717 52.885Z" fill="url(#paint1_linear_1_156)"/>
<g filter="url(#filter1_b_1_156)">
<path d="M39.885 52.8871C51.9623 40.8097 71.5704 40.8168 83.6407 52.8871L131.052 100.299L99.9678 131.383C92.9674 138.383 81.6113 138.383 74.611 131.383L39.8779 96.6499C27.8005 84.5725 27.8076 64.9645 39.8779 52.8941L39.885 52.8871Z" fill="url(#paint2_linear_1_156)"/>
<path d="M40.0617 53.0638C52.0415 41.0841 71.4912 41.0911 83.464 53.0638L130.699 100.299L99.791 131.206C92.8883 138.109 81.6905 138.109 74.7877 131.206L40.0547 96.4731C28.0749 84.4934 28.0819 65.0436 40.0547 53.0709L40.0617 53.0638Z" stroke="url(#paint3_linear_1_156)" stroke-width="0.5"/>
</g>
<defs>
<filter id="filter0_f_1_156" x="0.542676" y="0.82251" width="186.23" height="178.802" filterUnits="userSpaceOnUse" color-interpolation-filters="sRGB">
<feFlood flood-opacity="0" result="BackgroundImageFix"/>
<feBlend mode="normal" in="SourceGraphic" in2="BackgroundImageFix" result="shape"/>
<feGaussianBlur stdDeviation="21.5" result="effect1_foregroundBlur_1_156"/>
</filter>
<filter id="filter1_b_1_156" x="12.8225" y="25.8317" width="136.23" height="128.802" filterUnits="userSpaceOnUse" color-interpolation-filters="sRGB">
<feFlood flood-opacity="0" result="BackgroundImageFix"/>
<feGaussianBlur in="BackgroundImageFix" stdDeviation="9"/>
<feComposite in2="SourceAlpha" operator="in" result="effect1_backgroundBlur_1_156"/>
<feBlend mode="normal" in="SourceGraphic" in2="effect1_backgroundBlur_1_156" result="shape"/>
</filter>
<linearGradient id="paint0_linear_1_156" x1="138.899" y1="52.1409" x2="63.839" y2="121.231" gradientUnits="userSpaceOnUse">
<stop stop-color="#F26DFF"/>
<stop offset="1" stop-color="#FF027A"/>
</linearGradient>
<linearGradient id="paint1_linear_1_156" x1="138.899" y1="52.1409" x2="63.839" y2="121.231" gradientUnits="userSpaceOnUse">
<stop stop-color="#F26DFF"/>
<stop offset="1" stop-color="#FF027A"/>
</linearGradient>
<linearGradient id="paint2_linear_1_156" x1="85.8483" y1="137.679" x2="106.296" y2="47.1215" gradientUnits="userSpaceOnUse">
<stop stop-color="white" stop-opacity="0.2"/>
<stop offset="1" stop-color="white" stop-opacity="0.49"/>
</linearGradient>
<linearGradient id="paint3_linear_1_156" x1="26.5386" y1="77.1323" x2="116.749" y2="59.6495" gradientUnits="userSpaceOnUse">
<stop stop-color="white"/>
<stop offset="1" stop-color="white" stop-opacity="0"/>
</linearGradient>
</defs>
</svg>
