<svg width="198" height="174" viewBox="0 0 198 174" fill="none" xmlns="http://www.w3.org/2000/svg">
<g filter="url(#filter0_i_1_3)">
<path d="M113.762 170.292L190.668 130.839C194.349 128.999 196.191 125.454 196.196 121.908V116.908H0.917358V121.908C0.921907 125.454 2.76453 128.999 6.44522 130.839L83.3514 170.292C92.9233 175.078 104.19 175.078 113.762 170.292Z" fill="url(#paint0_linear_1_3)"/>
</g>
<g filter="url(#filter1_i_1_3)">
<path d="M83.3514 69.5105C92.9233 64.7246 104.19 64.7246 113.762 69.5105L190.668 107.964C198.039 111.649 198.039 122.167 190.668 125.852L113.762 164.305C104.19 169.091 92.9233 169.091 83.3514 164.305L6.44523 125.852C-0.925257 122.167 -0.925269 111.649 6.44522 107.964L83.3514 69.5105Z" fill="url(#paint1_radial_1_3)"/>
</g>
<g filter="url(#filter2_f_1_3)">
<path d="M113.762 164.305L190.668 125.852C194.023 124.175 195.851 121.081 196.152 117.861C193.948 122.905 193.034 123.209 190.248 124.867L113.524 162.827C111.339 163.806 105.401 166.349 98.174 166.349C90.9466 166.349 85.4237 163.806 83.4942 162.827C58.848 150.48 8.81926 126.057 6.44527 124.792C4.07127 123.527 1.97754 120.676 1.22742 119.408C1.89347 122.045 3.63276 124.446 6.44527 125.852L83.3514 164.305C92.9234 169.091 104.19 169.091 113.762 164.305Z" fill="url(#paint2_linear_1_3)"/>
</g>
<g filter="url(#filter3_bi_1_3)">
<path d="M83.3514 36.55C92.9233 31.7641 104.19 31.764 113.762 36.55L190.668 75.0031C198.039 78.6883 198.039 89.2064 190.668 92.8917L113.762 131.345C104.19 136.131 92.9233 136.131 83.3514 131.345L6.44523 92.8917C-0.925257 89.2064 -0.925269 78.6884 6.44522 75.0031L83.3514 36.55Z" fill="#E4E8F3" fill-opacity="0.4"/>
</g>
<g filter="url(#filter4_bi_1_3)">
<path d="M0.917358 83.9474V88.9474C0.921907 92.4938 2.76453 96.0382 6.44522 97.8785L83.3514 137.332C92.9233 142.118 104.19 142.118 113.762 137.332L190.668 97.8785C194.349 96.0382 196.191 92.4938 196.196 88.9474V83.9691C196.188 87.5127 194.346 91.0528 190.668 92.8917L113.762 131.345C104.19 136.131 92.9233 136.131 83.3514 131.345L6.44523 92.8917C2.75999 91.049 0.917363 87.4982 0.917358 83.9474Z" fill="#E4E8F3" fill-opacity="0.4"/>
</g>
<g filter="url(#filter5_f_1_3)">
<path d="M113.762 131.345L190.668 92.8917C194.023 91.2142 195.851 88.121 196.152 84.9009C193.948 89.9443 193.034 90.2489 190.248 91.9065L113.524 129.866C111.339 130.845 105.401 133.389 98.174 133.389C90.9466 133.389 85.4237 130.845 83.4942 129.866C58.848 117.52 8.81926 93.096 6.44527 91.8312C4.07127 90.5664 1.97754 87.715 1.22742 86.4474C1.89347 89.0842 3.63276 91.4854 6.44527 92.8917L83.3514 131.345C92.9234 136.131 104.19 136.131 113.762 131.345Z" fill="url(#paint3_linear_1_3)"/>
</g>
<g filter="url(#filter6_bi_1_3)">
<path d="M83.3514 3.58948C92.9233 -1.19649 104.19 -1.1965 113.762 3.58947L190.668 42.0426C198.039 45.7278 198.039 56.2459 190.668 59.9311L113.762 98.3842C104.19 103.17 92.9233 103.17 83.3514 98.3842L6.44523 59.9311C-0.925257 56.2459 -0.925269 45.7278 6.44522 42.0426L83.3514 3.58948Z" fill="#E4E8F3" fill-opacity="0.4"/>
</g>
<g filter="url(#filter7_bi_1_3)">
<path d="M0.917358 50.9868V55.9868C0.921907 59.5333 2.76453 63.0776 6.44522 64.918L83.3514 104.371C92.9233 109.157 104.19 109.157 113.762 104.371L190.668 64.918C194.349 63.0776 196.191 59.5333 196.196 55.9868V51.0085C196.188 54.5521 194.346 58.0922 190.668 59.9311L113.762 98.3842C104.19 103.17 92.9233 103.17 83.3514 98.3842L6.44523 59.9311C2.75999 58.0885 0.917363 54.5377 0.917358 50.9868Z" fill="#E4E8F3" fill-opacity="0.4"/>
</g>
<g filter="url(#filter8_f_1_3)">
<path d="M113.762 98.3842L190.668 59.9311C194.023 58.2536 195.851 55.1604 196.152 51.9403C193.948 56.9838 193.034 57.2884 190.248 58.9459L113.524 96.9058C111.339 97.8845 105.401 100.428 98.174 100.428C90.9466 100.428 85.4237 97.8845 83.4942 96.9058C58.848 84.559 8.81926 60.1355 6.44527 58.8707C4.07127 57.6059 1.97754 54.7545 1.22742 53.4869C1.89347 56.1237 3.63276 58.5249 6.44527 59.9311L83.3514 98.3842C92.9234 103.17 104.19 103.17 113.762 98.3842Z" fill="url(#paint4_linear_1_3)"/>
</g>
<defs>
<filter id="filter0_i_1_3" x="0.917358" y="116.408" width="195.279" height="57.4737" filterUnits="userSpaceOnUse" color-interpolation-filters="sRGB">
<feFlood flood-opacity="0" result="BackgroundImageFix"/>
<feBlend mode="normal" in="SourceGraphic" in2="BackgroundImageFix" result="shape"/>
<feColorMatrix in="SourceAlpha" type="matrix" values="0 0 0 0 0 0 0 0 0 0 0 0 0 0 0 0 0 0 127 0" result="hardAlpha"/>
<feOffset dy="-0.5"/>
<feGaussianBlur stdDeviation="0.5"/>
<feComposite in2="hardAlpha" operator="arithmetic" k2="-1" k3="1"/>
<feColorMatrix type="matrix" values="0 0 0 0 0 0 0 0 0 0 0 0 0 0 0 0 0 0 0.15 0"/>
<feBlend mode="darken" in2="shape" result="effect1_innerShadow_1_3"/>
</filter>
<filter id="filter1_i_1_3" x="0.917358" y="65.9211" width="195.279" height="102.474" filterUnits="userSpaceOnUse" color-interpolation-filters="sRGB">
<feFlood flood-opacity="0" result="BackgroundImageFix"/>
<feBlend mode="normal" in="SourceGraphic" in2="BackgroundImageFix" result="shape"/>
<feColorMatrix in="SourceAlpha" type="matrix" values="0 0 0 0 0 0 0 0 0 0 0 0 0 0 0 0 0 0 127 0" result="hardAlpha"/>
<feOffset dy="0.5"/>
<feGaussianBlur stdDeviation="0.5"/>
<feComposite in2="hardAlpha" operator="arithmetic" k2="-1" k3="1"/>
<feColorMatrix type="matrix" values="0 0 0 0 0 0 0 0 0 0 0 0 0 0 0 0 0 0 0.1 0"/>
<feBlend mode="darken" in2="shape" result="effect1_innerShadow_1_3"/>
</filter>
<filter id="filter2_f_1_3" x="0.227417" y="116.861" width="196.924" height="52.0333" filterUnits="userSpaceOnUse" color-interpolation-filters="sRGB">
<feFlood flood-opacity="0" result="BackgroundImageFix"/>
<feBlend mode="normal" in="SourceGraphic" in2="BackgroundImageFix" result="shape"/>
<feGaussianBlur stdDeviation="0.5" result="effect1_foregroundBlur_1_3"/>
</filter>
<filter id="filter3_bi_1_3" x="-19.0826" y="12.9605" width="235.279" height="141.974" filterUnits="userSpaceOnUse" color-interpolation-filters="sRGB">
<feFlood flood-opacity="0" result="BackgroundImageFix"/>
<feGaussianBlur in="BackgroundImageFix" stdDeviation="10"/>
<feComposite in2="SourceAlpha" operator="in" result="effect1_backgroundBlur_1_3"/>
<feBlend mode="normal" in="SourceGraphic" in2="effect1_backgroundBlur_1_3" result="shape"/>
<feColorMatrix in="SourceAlpha" type="matrix" values="0 0 0 0 0 0 0 0 0 0 0 0 0 0 0 0 0 0 127 0" result="hardAlpha"/>
<feOffset dy="0.5"/>
<feGaussianBlur stdDeviation="0.5"/>
<feComposite in2="hardAlpha" operator="arithmetic" k2="-1" k3="1"/>
<feColorMatrix type="matrix" values="0 0 0 0 0.342674 0 0 0 0 0.352133 0 0 0 0 0.579167 0 0 0 0.1 0"/>
<feBlend mode="darken" in2="shape" result="effect2_innerShadow_1_3"/>
</filter>
<filter id="filter4_bi_1_3" x="-19.0826" y="63.9474" width="235.279" height="96.9737" filterUnits="userSpaceOnUse" color-interpolation-filters="sRGB">
<feFlood flood-opacity="0" result="BackgroundImageFix"/>
<feGaussianBlur in="BackgroundImageFix" stdDeviation="10"/>
<feComposite in2="SourceAlpha" operator="in" result="effect1_backgroundBlur_1_3"/>
<feBlend mode="normal" in="SourceGraphic" in2="effect1_backgroundBlur_1_3" result="shape"/>
<feColorMatrix in="SourceAlpha" type="matrix" values="0 0 0 0 0 0 0 0 0 0 0 0 0 0 0 0 0 0 127 0" result="hardAlpha"/>
<feOffset dy="-0.5"/>
<feGaussianBlur stdDeviation="0.5"/>
<feComposite in2="hardAlpha" operator="arithmetic" k2="-1" k3="1"/>
<feColorMatrix type="matrix" values="0 0 0 0 0.341176 0 0 0 0 0.352941 0 0 0 0 0.580392 0 0 0 0.25 0"/>
<feBlend mode="darken" in2="shape" result="effect2_innerShadow_1_3"/>
</filter>
<filter id="filter5_f_1_3" x="0.227417" y="83.9009" width="196.924" height="52.0333" filterUnits="userSpaceOnUse" color-interpolation-filters="sRGB">
<feFlood flood-opacity="0" result="BackgroundImageFix"/>
<feBlend mode="normal" in="SourceGraphic" in2="BackgroundImageFix" result="shape"/>
<feGaussianBlur stdDeviation="0.5" result="effect1_foregroundBlur_1_3"/>
</filter>
<filter id="filter6_bi_1_3" x="-19.0826" y="-20" width="235.279" height="141.974" filterUnits="userSpaceOnUse" color-interpolation-filters="sRGB">
<feFlood flood-opacity="0" result="BackgroundImageFix"/>
<feGaussianBlur in="BackgroundImageFix" stdDeviation="10"/>
<feComposite in2="SourceAlpha" operator="in" result="effect1_backgroundBlur_1_3"/>
<feBlend mode="normal" in="SourceGraphic" in2="effect1_backgroundBlur_1_3" result="shape"/>
<feColorMatrix in="SourceAlpha" type="matrix" values="0 0 0 0 0 0 0 0 0 0 0 0 0 0 0 0 0 0 127 0" result="hardAlpha"/>
<feOffset dy="0.5"/>
<feGaussianBlur stdDeviation="0.5"/>
<feComposite in2="hardAlpha" operator="arithmetic" k2="-1" k3="1"/>
<feColorMatrix type="matrix" values="0 0 0 0 0.342674 0 0 0 0 0.352133 0 0 0 0 0.579167 0 0 0 0.1 0"/>
<feBlend mode="darken" in2="shape" result="effect2_innerShadow_1_3"/>
</filter>
<filter id="filter7_bi_1_3" x="-19.0826" y="30.9868" width="235.279" height="96.9737" filterUnits="userSpaceOnUse" color-interpolation-filters="sRGB">
<feFlood flood-opacity="0" result="BackgroundImageFix"/>
<feGaussianBlur in="BackgroundImageFix" stdDeviation="10"/>
<feComposite in2="SourceAlpha" operator="in" result="effect1_backgroundBlur_1_3"/>
<feBlend mode="normal" in="SourceGraphic" in2="effect1_backgroundBlur_1_3" result="shape"/>
<feColorMatrix in="SourceAlpha" type="matrix" values="0 0 0 0 0 0 0 0 0 0 0 0 0 0 0 0 0 0 127 0" result="hardAlpha"/>
<feOffset dy="-0.5"/>
<feGaussianBlur stdDeviation="0.5"/>
<feComposite in2="hardAlpha" operator="arithmetic" k2="-1" k3="1"/>
<feColorMatrix type="matrix" values="0 0 0 0 0.341176 0 0 0 0 0.352941 0 0 0 0 0.580392 0 0 0 0.25 0"/>
<feBlend mode="darken" in2="shape" result="effect2_innerShadow_1_3"/>
</filter>
<filter id="filter8_f_1_3" x="0.227417" y="50.9403" width="196.924" height="52.0333" filterUnits="userSpaceOnUse" color-interpolation-filters="sRGB">
<feFlood flood-opacity="0" result="BackgroundImageFix"/>
<feBlend mode="normal" in="SourceGraphic" in2="BackgroundImageFix" result="shape"/>
<feGaussianBlur stdDeviation="0.5" result="effect1_foregroundBlur_1_3"/>
</filter>
<linearGradient id="paint0_linear_1_3" x1="0.917358" y1="145.395" x2="196.196" y2="145.395" gradientUnits="userSpaceOnUse">
<stop stop-color="#D478F4"/>
<stop offset="0.681928" stop-color="#DAC46E"/>
<stop offset="1" stop-color="#F6E979"/>
</linearGradient>
<radialGradient id="paint1_radial_1_3" cx="0" cy="0" r="1" gradientUnits="userSpaceOnUse" gradientTransform="translate(31.0568 116.908) scale(126 126)">
<stop stop-color="#D478F4"/>
<stop offset="1" stop-color="#F6E979"/>
</radialGradient>
<linearGradient id="paint2_linear_1_3" x1="1.22742" y1="117.861" x2="196.152" y2="117.861" gradientUnits="userSpaceOnUse">
<stop stop-color="white" stop-opacity="0.24"/>
<stop offset="0.130208" stop-color="white" stop-opacity="0.865636"/>
<stop offset="0.489583" stop-color="white" stop-opacity="0.494792"/>
<stop offset="1" stop-color="white" stop-opacity="0"/>
</linearGradient>
<linearGradient id="paint3_linear_1_3" x1="1.22742" y1="84.9009" x2="196.152" y2="84.9009" gradientUnits="userSpaceOnUse">
<stop stop-color="white" stop-opacity="0.24"/>
<stop offset="0.130208" stop-color="white" stop-opacity="0.865636"/>
<stop offset="0.489583" stop-color="white" stop-opacity="0.494792"/>
<stop offset="1" stop-color="white" stop-opacity="0"/>
</linearGradient>
<linearGradient id="paint4_linear_1_3" x1="1.22742" y1="51.9403" x2="196.152" y2="51.9403" gradientUnits="userSpaceOnUse">
<stop stop-color="white" stop-opacity="0.24"/>
<stop offset="0.130208" stop-color="white" stop-opacity="0.865636"/>
<stop offset="0.489583" stop-color="white" stop-opacity="0.494792"/>
<stop offset="1" stop-color="white" stop-opacity="0"/>
</linearGradient>
</defs>
</svg>
