<svg width="164" height="164" viewBox="0 0 164 164" fill="none" xmlns="http://www.w3.org/2000/svg">
<g filter="url(#filter0_f_1_159)">
<path d="M105.78 43H57.98C49.7068 43 43 49.7068 43 57.98V105.78C43 114.053 49.7068 120.76 57.98 120.76H105.78C114.053 120.76 120.76 114.053 120.76 105.78V57.98C120.76 49.7068 114.053 43 105.78 43Z" fill="url(#paint0_linear_1_159)"/>
</g>
<path d="M105.78 43H57.98C49.7068 43 43 49.7068 43 57.98V105.78C43 114.053 49.7068 120.76 57.98 120.76H105.78C114.053 120.76 120.76 114.053 120.76 105.78V57.98C120.76 49.7068 114.053 43 105.78 43Z" fill="url(#paint1_linear_1_159)"/>
<g filter="url(#filter1_b_1_159)">
<path d="M130.029 65.8757H82.229C73.9557 65.8757 67.249 72.5824 67.249 80.8557V128.656C67.249 136.929 73.9557 143.636 82.229 143.636H130.029C138.302 143.636 145.009 136.929 145.009 128.656V80.8557C145.009 72.5824 138.302 65.8757 130.029 65.8757Z" fill="url(#paint2_linear_1_159)"/>
<path d="M130.029 65.6257H82.229C73.8177 65.6257 66.999 72.4444 66.999 80.8557V128.656C66.999 137.067 73.8177 143.886 82.229 143.886H130.029C138.44 143.886 145.259 137.067 145.259 128.656V80.8557C145.259 72.4444 138.44 65.6257 130.029 65.6257Z" stroke="url(#paint3_linear_1_159)" stroke-width="0.5"/>
</g>
<defs>
<filter id="filter0_f_1_159" x="0" y="0" width="163.76" height="163.76" filterUnits="userSpaceOnUse" color-interpolation-filters="sRGB">
<feFlood flood-opacity="0" result="BackgroundImageFix"/>
<feBlend mode="normal" in="SourceGraphic" in2="BackgroundImageFix" result="shape"/>
<feGaussianBlur stdDeviation="21.5" result="effect1_foregroundBlur_1_159"/>
</filter>
<filter id="filter1_b_1_159" x="48.749" y="47.3757" width="114.76" height="114.76" filterUnits="userSpaceOnUse" color-interpolation-filters="sRGB">
<feFlood flood-opacity="0" result="BackgroundImageFix"/>
<feGaussianBlur in="BackgroundImageFix" stdDeviation="9"/>
<feComposite in2="SourceAlpha" operator="in" result="effect1_backgroundBlur_1_159"/>
<feBlend mode="normal" in="SourceGraphic" in2="effect1_backgroundBlur_1_159" result="shape"/>
</filter>
<linearGradient id="paint0_linear_1_159" x1="115.2" y1="123.85" x2="49.4" y2="40.97" gradientUnits="userSpaceOnUse">
<stop stop-color="#AA83FF"/>
<stop offset="1" stop-color="#FF3FA4"/>
</linearGradient>
<linearGradient id="paint1_linear_1_159" x1="115.2" y1="123.85" x2="49.4" y2="40.97" gradientUnits="userSpaceOnUse">
<stop stop-color="#AA83FF"/>
<stop offset="1" stop-color="#FF3FA4"/>
</linearGradient>
<linearGradient id="paint2_linear_1_159" x1="71.639" y1="139.246" x2="140.619" y2="70.2657" gradientUnits="userSpaceOnUse">
<stop stop-color="white" stop-opacity="0.2"/>
<stop offset="1" stop-color="white" stop-opacity="0.49"/>
</linearGradient>
<linearGradient id="paint3_linear_1_159" x1="72.738" y1="71.9913" x2="137.738" y2="141.491" gradientUnits="userSpaceOnUse">
<stop stop-color="white"/>
<stop offset="1" stop-color="white" stop-opacity="0"/>
</linearGradient>
</defs>
</svg>
