<svg width="176" height="174" viewBox="0 0 176 174" fill="none" xmlns="http://www.w3.org/2000/svg">
<g filter="url(#filter0_i_182_41)">
<path d="M1.3403 122.65C1.11591 122.225 1 121.749 1 121.268V117H174.8V121.268C174.8 121.749 174.684 122.225 174.459 122.65C157.349 155.069 124.995 174 87.8998 174C50.8044 174 18.4504 155.069 1.3403 122.65Z" fill="url(#paint0_linear_182_41)"/>
</g>
<g filter="url(#filter1_i_182_41)">
<path d="M1 117C18.019 86.5714 50.557 66 87.8998 66C125.243 66 157.781 86.5714 174.8 117C157.781 147.429 125.243 168 87.8998 168C50.557 168 18.019 147.429 1 117Z" fill="url(#paint1_radial_182_41)"/>
</g>
<g filter="url(#filter2_f_182_41)">
<path d="M1 117C1 117 25.7996 166.5 87.8998 166.5C150 166.5 174.8 117 174.8 117C157.781 147.429 125.243 168 87.8998 168C50.557 168 18.019 147.429 1 117Z" fill="url(#paint2_linear_182_41)"/>
</g>
<g filter="url(#filter3_bi_182_41)">
<path d="M1 84C18.019 53.5714 50.557 33 87.8998 33C125.243 33 157.781 53.5714 174.8 84C157.781 114.429 125.243 135 87.8998 135C50.557 135 18.019 114.429 1 84Z" fill="#E4E8F3" fill-opacity="0.4"/>
</g>
<g filter="url(#filter4_bi_182_41)">
<path d="M1 84V88.2683C1 88.7491 1.11584 89.2253 1.34033 89.6504C18.4504 122.069 50.8044 141 87.8998 141C124.995 141 157.349 122.069 174.459 89.6504C174.684 89.2253 174.8 88.7491 174.8 88.2683V84C157.781 114.429 125.243 135 87.8998 135C50.557 135 18.019 114.429 1 84Z" fill="#E4E8F3" fill-opacity="0.4"/>
</g>
<g filter="url(#filter5_f_182_41)">
<path d="M1 84C1 84 25.7996 133.5 87.8998 133.5C150 133.5 174.8 84 174.8 84C157.781 114.429 125.243 135 87.8998 135C50.557 135 18.019 114.429 1 84Z" fill="url(#paint3_linear_182_41)"/>
</g>
<g filter="url(#filter6_bi_182_41)">
<path d="M1 51C18.019 20.5714 50.557 0 87.8998 0C125.243 0 157.781 20.5714 174.8 51C157.781 81.4286 125.243 102 87.8998 102C50.557 102 18.019 81.4286 1 51Z" fill="#E4E8F3" fill-opacity="0.4"/>
</g>
<g filter="url(#filter7_bi_182_41)">
<path d="M1 51V55.2683C1 55.7491 1.11584 56.2253 1.34033 56.6504C18.4504 89.0685 50.8044 108 87.8998 108C124.995 108 157.349 89.0685 174.459 56.6504C174.684 56.2253 174.8 55.7491 174.8 55.2683V51C157.781 81.4286 125.243 102 87.8998 102C50.557 102 18.019 81.4286 1 51Z" fill="#E4E8F3" fill-opacity="0.4"/>
</g>
<g filter="url(#filter8_f_182_41)">
<path d="M1 51C1 51 25.7996 100.5 87.8998 100.5C150 100.5 174.8 51 174.8 51C157.781 81.4286 125.243 102 87.8998 102C50.557 102 18.019 81.4286 1 51Z" fill="url(#paint4_linear_182_41)"/>
</g>
<defs>
<filter id="filter0_i_182_41" x="1" y="116.5" width="173.8" height="57.5" filterUnits="userSpaceOnUse" color-interpolation-filters="sRGB">
<feFlood flood-opacity="0" result="BackgroundImageFix"/>
<feBlend mode="normal" in="SourceGraphic" in2="BackgroundImageFix" result="shape"/>
<feColorMatrix in="SourceAlpha" type="matrix" values="0 0 0 0 0 0 0 0 0 0 0 0 0 0 0 0 0 0 127 0" result="hardAlpha"/>
<feOffset dy="-0.5"/>
<feGaussianBlur stdDeviation="0.5"/>
<feComposite in2="hardAlpha" operator="arithmetic" k2="-1" k3="1"/>
<feColorMatrix type="matrix" values="0 0 0 0 0 0 0 0 0 0 0 0 0 0 0 0 0 0 0.15 0"/>
<feBlend mode="darken" in2="shape" result="effect1_innerShadow_182_41"/>
</filter>
<filter id="filter1_i_182_41" x="1" y="66" width="173.8" height="102.5" filterUnits="userSpaceOnUse" color-interpolation-filters="sRGB">
<feFlood flood-opacity="0" result="BackgroundImageFix"/>
<feBlend mode="normal" in="SourceGraphic" in2="BackgroundImageFix" result="shape"/>
<feColorMatrix in="SourceAlpha" type="matrix" values="0 0 0 0 0 0 0 0 0 0 0 0 0 0 0 0 0 0 127 0" result="hardAlpha"/>
<feOffset dy="0.5"/>
<feGaussianBlur stdDeviation="0.5"/>
<feComposite in2="hardAlpha" operator="arithmetic" k2="-1" k3="1"/>
<feColorMatrix type="matrix" values="0 0 0 0 0 0 0 0 0 0 0 0 0 0 0 0 0 0 0.1 0"/>
<feBlend mode="darken" in2="shape" result="effect1_innerShadow_182_41"/>
</filter>
<filter id="filter2_f_182_41" x="0" y="116" width="175.8" height="53" filterUnits="userSpaceOnUse" color-interpolation-filters="sRGB">
<feFlood flood-opacity="0" result="BackgroundImageFix"/>
<feBlend mode="normal" in="SourceGraphic" in2="BackgroundImageFix" result="shape"/>
<feGaussianBlur stdDeviation="0.5" result="effect1_foregroundBlur_182_41"/>
</filter>
<filter id="filter3_bi_182_41" x="-19" y="13" width="213.8" height="142" filterUnits="userSpaceOnUse" color-interpolation-filters="sRGB">
<feFlood flood-opacity="0" result="BackgroundImageFix"/>
<feGaussianBlur in="BackgroundImageFix" stdDeviation="10"/>
<feComposite in2="SourceAlpha" operator="in" result="effect1_backgroundBlur_182_41"/>
<feBlend mode="normal" in="SourceGraphic" in2="effect1_backgroundBlur_182_41" result="shape"/>
<feColorMatrix in="SourceAlpha" type="matrix" values="0 0 0 0 0 0 0 0 0 0 0 0 0 0 0 0 0 0 127 0" result="hardAlpha"/>
<feOffset dy="0.5"/>
<feGaussianBlur stdDeviation="0.5"/>
<feComposite in2="hardAlpha" operator="arithmetic" k2="-1" k3="1"/>
<feColorMatrix type="matrix" values="0 0 0 0 0.342674 0 0 0 0 0.352133 0 0 0 0 0.579167 0 0 0 0.1 0"/>
<feBlend mode="darken" in2="shape" result="effect2_innerShadow_182_41"/>
</filter>
<filter id="filter4_bi_182_41" x="-19" y="64" width="213.8" height="97" filterUnits="userSpaceOnUse" color-interpolation-filters="sRGB">
<feFlood flood-opacity="0" result="BackgroundImageFix"/>
<feGaussianBlur in="BackgroundImageFix" stdDeviation="10"/>
<feComposite in2="SourceAlpha" operator="in" result="effect1_backgroundBlur_182_41"/>
<feBlend mode="normal" in="SourceGraphic" in2="effect1_backgroundBlur_182_41" result="shape"/>
<feColorMatrix in="SourceAlpha" type="matrix" values="0 0 0 0 0 0 0 0 0 0 0 0 0 0 0 0 0 0 127 0" result="hardAlpha"/>
<feOffset dy="-0.5"/>
<feGaussianBlur stdDeviation="0.5"/>
<feComposite in2="hardAlpha" operator="arithmetic" k2="-1" k3="1"/>
<feColorMatrix type="matrix" values="0 0 0 0 0.341176 0 0 0 0 0.352941 0 0 0 0 0.580392 0 0 0 0.25 0"/>
<feBlend mode="darken" in2="shape" result="effect2_innerShadow_182_41"/>
</filter>
<filter id="filter5_f_182_41" x="0" y="83" width="175.8" height="53" filterUnits="userSpaceOnUse" color-interpolation-filters="sRGB">
<feFlood flood-opacity="0" result="BackgroundImageFix"/>
<feBlend mode="normal" in="SourceGraphic" in2="BackgroundImageFix" result="shape"/>
<feGaussianBlur stdDeviation="0.5" result="effect1_foregroundBlur_182_41"/>
</filter>
<filter id="filter6_bi_182_41" x="-19" y="-20" width="213.8" height="142" filterUnits="userSpaceOnUse" color-interpolation-filters="sRGB">
<feFlood flood-opacity="0" result="BackgroundImageFix"/>
<feGaussianBlur in="BackgroundImageFix" stdDeviation="10"/>
<feComposite in2="SourceAlpha" operator="in" result="effect1_backgroundBlur_182_41"/>
<feBlend mode="normal" in="SourceGraphic" in2="effect1_backgroundBlur_182_41" result="shape"/>
<feColorMatrix in="SourceAlpha" type="matrix" values="0 0 0 0 0 0 0 0 0 0 0 0 0 0 0 0 0 0 127 0" result="hardAlpha"/>
<feOffset dy="0.5"/>
<feGaussianBlur stdDeviation="0.5"/>
<feComposite in2="hardAlpha" operator="arithmetic" k2="-1" k3="1"/>
<feColorMatrix type="matrix" values="0 0 0 0 0.342674 0 0 0 0 0.352133 0 0 0 0 0.579167 0 0 0 0.1 0"/>
<feBlend mode="darken" in2="shape" result="effect2_innerShadow_182_41"/>
</filter>
<filter id="filter7_bi_182_41" x="-19" y="31" width="213.8" height="97" filterUnits="userSpaceOnUse" color-interpolation-filters="sRGB">
<feFlood flood-opacity="0" result="BackgroundImageFix"/>
<feGaussianBlur in="BackgroundImageFix" stdDeviation="10"/>
<feComposite in2="SourceAlpha" operator="in" result="effect1_backgroundBlur_182_41"/>
<feBlend mode="normal" in="SourceGraphic" in2="effect1_backgroundBlur_182_41" result="shape"/>
<feColorMatrix in="SourceAlpha" type="matrix" values="0 0 0 0 0 0 0 0 0 0 0 0 0 0 0 0 0 0 127 0" result="hardAlpha"/>
<feOffset dy="-0.5"/>
<feGaussianBlur stdDeviation="0.5"/>
<feComposite in2="hardAlpha" operator="arithmetic" k2="-1" k3="1"/>
<feColorMatrix type="matrix" values="0 0 0 0 0.341176 0 0 0 0 0.352941 0 0 0 0 0.580392 0 0 0 0.25 0"/>
<feBlend mode="darken" in2="shape" result="effect2_innerShadow_182_41"/>
</filter>
<filter id="filter8_f_182_41" x="0" y="50" width="175.8" height="53" filterUnits="userSpaceOnUse" color-interpolation-filters="sRGB">
<feFlood flood-opacity="0" result="BackgroundImageFix"/>
<feBlend mode="normal" in="SourceGraphic" in2="BackgroundImageFix" result="shape"/>
<feGaussianBlur stdDeviation="0.5" result="effect1_foregroundBlur_182_41"/>
</filter>
<linearGradient id="paint0_linear_182_41" x1="1" y1="119" x2="174.8" y2="119" gradientUnits="userSpaceOnUse">
<stop stop-color="#D478F4"/>
<stop offset="0.681928" stop-color="#DAC46E"/>
<stop offset="1" stop-color="#F6E979"/>
</linearGradient>
<radialGradient id="paint1_radial_182_41" cx="0" cy="0" r="1" gradientUnits="userSpaceOnUse" gradientTransform="translate(27.8243 117) scale(112.141 112.141)">
<stop stop-color="#D478F4"/>
<stop offset="1" stop-color="#F6E979"/>
</radialGradient>
<linearGradient id="paint2_linear_182_41" x1="-4.26566" y1="14.8503" x2="180.066" y2="14.8503" gradientUnits="userSpaceOnUse">
<stop stop-color="white" stop-opacity="0.24"/>
<stop offset="0.130208" stop-color="white" stop-opacity="0.865636"/>
<stop offset="0.489583" stop-color="white" stop-opacity="0.494792"/>
<stop offset="1" stop-color="white" stop-opacity="0"/>
</linearGradient>
<linearGradient id="paint3_linear_182_41" x1="-4.26566" y1="-18.1497" x2="180.066" y2="-18.1497" gradientUnits="userSpaceOnUse">
<stop stop-color="white" stop-opacity="0.24"/>
<stop offset="0.130208" stop-color="white" stop-opacity="0.865636"/>
<stop offset="0.489583" stop-color="white" stop-opacity="0.494792"/>
<stop offset="1" stop-color="white" stop-opacity="0"/>
</linearGradient>
<linearGradient id="paint4_linear_182_41" x1="-4.26566" y1="-51.1497" x2="180.066" y2="-51.1497" gradientUnits="userSpaceOnUse">
<stop stop-color="white" stop-opacity="0.24"/>
<stop offset="0.130208" stop-color="white" stop-opacity="0.865636"/>
<stop offset="0.489583" stop-color="white" stop-opacity="0.494792"/>
<stop offset="1" stop-color="white" stop-opacity="0"/>
</linearGradient>
</defs>
</svg>
