<svg width="133" height="132" viewBox="0 0 133 132" fill="none" xmlns="http://www.w3.org/2000/svg">
<path d="M109.287 33.1302H23.329C19.7682 33.1302 16.8821 44.1934 16.8821 57.8432V99.0314H115.734V57.8432C115.734 44.1934 112.848 33.1302 109.287 33.1302Z" fill="url(#paint0_linear_101_1932)"/>
<g filter="url(#filter0_bi_101_1932)">
<path d="M123.971 16.655H8.6445C4.09498 16.655 0.40686 20.3431 0.40686 24.8926V107.269C0.40686 111.819 4.09498 115.507 8.6445 115.507H123.971C128.521 115.507 132.209 111.819 132.209 107.269V24.8926C132.209 20.3431 128.521 16.655 123.971 16.655Z" fill="url(#paint1_linear_101_1932)" fill-opacity="0.2"/>
<path d="M8.6445 17.4787H123.971C128.066 17.4787 131.385 20.798 131.385 24.8926V107.269C131.385 111.364 128.066 114.683 123.971 114.683H8.6445C4.54993 114.683 1.23062 111.364 1.23062 107.269V24.8926C1.23062 20.798 4.54993 17.4787 8.6445 17.4787Z" stroke="url(#paint2_linear_101_1932)" stroke-opacity="0.1" stroke-width="1.64753"/>
</g>
<g filter="url(#filter1_i_101_1932)">
<path d="M52.6698 88.0479C64.8018 88.0479 74.6368 78.2129 74.6368 66.0808C74.6368 53.9488 64.8018 44.1138 52.6698 44.1138C40.5377 44.1138 30.7027 53.9488 30.7027 66.0808C30.7027 78.2129 40.5377 88.0479 52.6698 88.0479Z" fill="white" fill-opacity="0.16"/>
<path d="M79.9476 88.0479C92.0797 88.0479 101.915 78.2129 101.915 66.0808C101.915 53.9488 92.0797 44.1138 79.9476 44.1138C67.8155 44.1138 57.9806 53.9488 57.9806 66.0808C57.9806 78.2129 67.8155 88.0479 79.9476 88.0479Z" fill="white" fill-opacity="0.16"/>
</g>
<defs>
<filter id="filter0_bi_101_1932" x="-32.5437" y="-16.2956" width="197.703" height="164.753" filterUnits="userSpaceOnUse" color-interpolation-filters="sRGB">
<feFlood flood-opacity="0" result="BackgroundImageFix"/>
<feGaussianBlur in="BackgroundImageFix" stdDeviation="16.4753"/>
<feComposite in2="SourceAlpha" operator="in" result="effect1_backgroundBlur_101_1932"/>
<feBlend mode="normal" in="SourceGraphic" in2="effect1_backgroundBlur_101_1932" result="shape"/>
<feColorMatrix in="SourceAlpha" type="matrix" values="0 0 0 0 0 0 0 0 0 0 0 0 0 0 0 0 0 0 127 0" result="hardAlpha"/>
<feOffset dy="10.9835"/>
<feGaussianBlur stdDeviation="8.23764"/>
<feComposite in2="hardAlpha" operator="arithmetic" k2="-1" k3="1"/>
<feColorMatrix type="matrix" values="0 0 0 0 1 0 0 0 0 1 0 0 0 0 1 0 0 0 0.4 0"/>
<feBlend mode="normal" in2="shape" result="effect2_innerShadow_101_1932"/>
</filter>
<filter id="filter1_i_101_1932" x="30.7027" y="44.1138" width="71.2119" height="54.9176" filterUnits="userSpaceOnUse" color-interpolation-filters="sRGB">
<feFlood flood-opacity="0" result="BackgroundImageFix"/>
<feBlend mode="normal" in="SourceGraphic" in2="BackgroundImageFix" result="shape"/>
<feColorMatrix in="SourceAlpha" type="matrix" values="0 0 0 0 0 0 0 0 0 0 0 0 0 0 0 0 0 0 127 0" result="hardAlpha"/>
<feOffset dy="10.9835"/>
<feGaussianBlur stdDeviation="5.49176"/>
<feComposite in2="hardAlpha" operator="arithmetic" k2="-1" k3="1"/>
<feColorMatrix type="matrix" values="0 0 0 0 1 0 0 0 0 1 0 0 0 0 1 0 0 0 0.4 0"/>
<feBlend mode="normal" in2="shape" result="effect1_innerShadow_101_1932"/>
</filter>
<linearGradient id="paint0_linear_101_1932" x1="16.8821" y1="33.1302" x2="125.131" y2="74.3597" gradientUnits="userSpaceOnUse">
<stop stop-color="#B1F0E0"/>
<stop offset="1" stop-color="#FF32CF"/>
</linearGradient>
<linearGradient id="paint1_linear_101_1932" x1="0.40686" y1="16.655" x2="148.681" y2="66.8543" gradientUnits="userSpaceOnUse">
<stop offset="0.0989583" stop-color="#8AE6CF"/>
<stop offset="0.890625" stop-color="#FF31CF"/>
</linearGradient>
<linearGradient id="paint2_linear_101_1932" x1="4.52568" y1="21.1482" x2="132.209" y2="21.1482" gradientUnits="userSpaceOnUse">
<stop stop-color="#FF99E7"/>
<stop offset="1" stop-color="#5DF4CE"/>
</linearGradient>
</defs>
</svg>
