<svg width="132" height="133" viewBox="0 0 132 133" fill="none" xmlns="http://www.w3.org/2000/svg">
<path d="M68.7579 111.168H13.6186C12.2351 111.168 11.1122 109.885 11.1122 108.303V30.9409C11.1122 29.3593 12.2351 28.0756 13.6186 28.0756H68.7579C70.1414 28.0756 71.2642 29.3593 71.2642 30.9409V108.303C71.2642 109.885 70.1414 111.168 68.7579 111.168Z" fill="url(#paint0_linear_101_1835)"/>
<g filter="url(#filter0_bi_101_1835)">
<path d="M77.3622 6.58589H8.5958C3.84805 6.58589 0 10.4339 0 15.1817V124.062C0 128.81 3.84805 132.658 8.5958 132.658H77.3622C82.11 132.658 85.958 128.81 85.958 124.062V15.1817C85.958 10.4339 82.11 6.58589 77.3622 6.58589Z" fill="url(#paint1_linear_101_1835)" fill-opacity="0.2"/>
<path d="M8.5958 7.40966H77.3622C81.655 7.40966 85.1342 10.8889 85.1342 15.1817V124.062C85.1342 128.355 81.655 131.834 77.3622 131.834H8.5958C4.30301 131.834 0.823764 128.355 0.823764 124.062V15.1817C0.823764 10.8889 4.30301 7.40966 8.5958 7.40966Z" stroke="url(#paint2_linear_101_1835)" stroke-opacity="0.1" stroke-width="1.64753"/>
</g>
<g filter="url(#filter1_i_101_1835)">
<path d="M42.9791 124.062C46.144 124.062 48.7096 121.496 48.7096 118.331C48.7096 115.166 46.144 112.601 42.9791 112.601C39.8142 112.601 37.2485 115.166 37.2485 118.331C37.2485 121.496 39.8142 124.062 42.9791 124.062Z" fill="white" fill-opacity="0.16"/>
</g>
<g filter="url(#filter2_i_101_1835)">
<path d="M74.4969 104.005H11.4611C9.87943 104.005 8.59579 102.721 8.59579 101.14V23.7775C8.59579 22.1959 9.87943 20.9122 11.4611 20.9122H74.4969C76.0786 20.9122 77.3622 22.1959 77.3622 23.7775V101.14C77.3622 102.721 76.0786 104.005 74.4969 104.005Z" fill="white" fill-opacity="0.16"/>
</g>
<path d="M117.479 11.1511H63.755C61.5295 11.1511 59.7257 18.0656 59.7257 26.5967V52.3393H121.508V26.5967C121.508 18.0656 119.704 11.1511 117.479 11.1511Z" fill="url(#paint3_linear_101_1835)"/>
<g filter="url(#filter3_bi_101_1835)">
<path d="M126.654 0.855469H54.5744C51.7309 0.855469 49.4258 3.16054 49.4258 6.00399V57.4893C49.4258 60.3327 51.7309 62.6378 54.5744 62.6378H126.654C129.497 62.6378 131.802 60.3327 131.802 57.4893V6.004C131.802 3.16054 129.497 0.855469 126.654 0.855469Z" fill="white" fill-opacity="0.16"/>
<path d="M54.5744 1.67923H126.654C129.042 1.67923 130.979 3.6155 130.979 6.004V57.4893C130.979 59.8778 129.042 61.814 126.654 61.814H54.5744C52.1859 61.814 50.2496 59.8778 50.2496 57.4893V6.00399C50.2496 3.61549 52.1859 1.67923 54.5744 1.67923Z" stroke="url(#paint4_linear_101_1835)" stroke-opacity="0.1" stroke-width="1.64753"/>
</g>
<path d="M131.802 14.616H49.4258V29.3261H131.802V14.616Z" fill="url(#paint5_linear_101_1835)"/>
<g filter="url(#filter4_i_101_1835)">
<path d="M90.6141 38.1507H58.2519V46.9767H90.6141V38.1507Z" fill="white" fill-opacity="0.16"/>
</g>
<defs>
<filter id="filter0_bi_101_1835" x="-32.9506" y="-26.3647" width="151.859" height="191.973" filterUnits="userSpaceOnUse" color-interpolation-filters="sRGB">
<feFlood flood-opacity="0" result="BackgroundImageFix"/>
<feGaussianBlur in="BackgroundImageFix" stdDeviation="16.4753"/>
<feComposite in2="SourceAlpha" operator="in" result="effect1_backgroundBlur_101_1835"/>
<feBlend mode="normal" in="SourceGraphic" in2="effect1_backgroundBlur_101_1835" result="shape"/>
<feColorMatrix in="SourceAlpha" type="matrix" values="0 0 0 0 0 0 0 0 0 0 0 0 0 0 0 0 0 0 127 0" result="hardAlpha"/>
<feOffset dy="10.9835"/>
<feGaussianBlur stdDeviation="8.23764"/>
<feComposite in2="hardAlpha" operator="arithmetic" k2="-1" k3="1"/>
<feColorMatrix type="matrix" values="0 0 0 0 1 0 0 0 0 1 0 0 0 0 1 0 0 0 0.4 0"/>
<feBlend mode="normal" in2="shape" result="effect2_innerShadow_101_1835"/>
</filter>
<filter id="filter1_i_101_1835" x="37.2485" y="112.601" width="11.4611" height="22.4446" filterUnits="userSpaceOnUse" color-interpolation-filters="sRGB">
<feFlood flood-opacity="0" result="BackgroundImageFix"/>
<feBlend mode="normal" in="SourceGraphic" in2="BackgroundImageFix" result="shape"/>
<feColorMatrix in="SourceAlpha" type="matrix" values="0 0 0 0 0 0 0 0 0 0 0 0 0 0 0 0 0 0 127 0" result="hardAlpha"/>
<feOffset dy="10.9835"/>
<feGaussianBlur stdDeviation="5.49176"/>
<feComposite in2="hardAlpha" operator="arithmetic" k2="-1" k3="1"/>
<feColorMatrix type="matrix" values="0 0 0 0 1 0 0 0 0 1 0 0 0 0 1 0 0 0 0.4 0"/>
<feBlend mode="normal" in2="shape" result="effect1_innerShadow_101_1835"/>
</filter>
<filter id="filter2_i_101_1835" x="8.59579" y="20.9122" width="68.7664" height="94.0763" filterUnits="userSpaceOnUse" color-interpolation-filters="sRGB">
<feFlood flood-opacity="0" result="BackgroundImageFix"/>
<feBlend mode="normal" in="SourceGraphic" in2="BackgroundImageFix" result="shape"/>
<feColorMatrix in="SourceAlpha" type="matrix" values="0 0 0 0 0 0 0 0 0 0 0 0 0 0 0 0 0 0 127 0" result="hardAlpha"/>
<feOffset dy="10.9835"/>
<feGaussianBlur stdDeviation="5.49176"/>
<feComposite in2="hardAlpha" operator="arithmetic" k2="-1" k3="1"/>
<feColorMatrix type="matrix" values="0 0 0 0 1 0 0 0 0 1 0 0 0 0 1 0 0 0 0.4 0"/>
<feBlend mode="normal" in2="shape" result="effect1_innerShadow_101_1835"/>
</filter>
<filter id="filter3_bi_101_1835" x="16.4753" y="-32.0951" width="148.278" height="127.683" filterUnits="userSpaceOnUse" color-interpolation-filters="sRGB">
<feFlood flood-opacity="0" result="BackgroundImageFix"/>
<feGaussianBlur in="BackgroundImageFix" stdDeviation="16.4753"/>
<feComposite in2="SourceAlpha" operator="in" result="effect1_backgroundBlur_101_1835"/>
<feBlend mode="normal" in="SourceGraphic" in2="effect1_backgroundBlur_101_1835" result="shape"/>
<feColorMatrix in="SourceAlpha" type="matrix" values="0 0 0 0 0 0 0 0 0 0 0 0 0 0 0 0 0 0 127 0" result="hardAlpha"/>
<feOffset dy="10.9835"/>
<feGaussianBlur stdDeviation="8.23764"/>
<feComposite in2="hardAlpha" operator="arithmetic" k2="-1" k3="1"/>
<feColorMatrix type="matrix" values="0 0 0 0 1 0 0 0 0 1 0 0 0 0 1 0 0 0 0.4 0"/>
<feBlend mode="normal" in2="shape" result="effect2_innerShadow_101_1835"/>
</filter>
<filter id="filter4_i_101_1835" x="58.2519" y="38.1507" width="32.3622" height="19.8096" filterUnits="userSpaceOnUse" color-interpolation-filters="sRGB">
<feFlood flood-opacity="0" result="BackgroundImageFix"/>
<feBlend mode="normal" in="SourceGraphic" in2="BackgroundImageFix" result="shape"/>
<feColorMatrix in="SourceAlpha" type="matrix" values="0 0 0 0 0 0 0 0 0 0 0 0 0 0 0 0 0 0 127 0" result="hardAlpha"/>
<feOffset dy="10.9835"/>
<feGaussianBlur stdDeviation="5.49176"/>
<feComposite in2="hardAlpha" operator="arithmetic" k2="-1" k3="1"/>
<feColorMatrix type="matrix" values="0 0 0 0 1 0 0 0 0 1 0 0 0 0 1 0 0 0 0.4 0"/>
<feBlend mode="normal" in2="shape" result="effect1_innerShadow_101_1835"/>
</filter>
<linearGradient id="paint0_linear_101_1835" x1="11.1122" y1="28.0756" x2="84.0727" y2="41.4869" gradientUnits="userSpaceOnUse">
<stop stop-color="#FFA39E"/>
<stop offset="1" stop-color="#F01E33"/>
</linearGradient>
<linearGradient id="paint1_linear_101_1835" x1="0" y1="6.58589" x2="104.648" y2="24.7032" gradientUnits="userSpaceOnUse">
<stop stop-color="#FFBF80"/>
<stop offset="1" stop-color="#FF384C"/>
</linearGradient>
<linearGradient id="paint2_linear_101_1835" x1="2.68619" y1="12.3164" x2="85.958" y2="12.3164" gradientUnits="userSpaceOnUse">
<stop stop-color="#FFD580"/>
<stop offset="1" stop-color="#E65A53"/>
</linearGradient>
<linearGradient id="paint3_linear_101_1835" x1="59.7257" y1="11.1511" x2="127.381" y2="36.9195" gradientUnits="userSpaceOnUse">
<stop stop-color="#FFA39E"/>
<stop offset="1" stop-color="#F01E33"/>
</linearGradient>
<linearGradient id="paint4_linear_101_1835" x1="52.0001" y1="3.66376" x2="131.802" y2="3.66376" gradientUnits="userSpaceOnUse">
<stop stop-color="#FFD580"/>
<stop offset="1" stop-color="#E65A53"/>
</linearGradient>
<linearGradient id="paint5_linear_101_1835" x1="49.4258" y1="14.616" x2="83.6071" y2="63.2199" gradientUnits="userSpaceOnUse">
<stop stop-color="#FFA39E"/>
<stop offset="1" stop-color="#F01E33"/>
</linearGradient>
</defs>
</svg>
