<svg width="76" height="80" viewBox="0 0 76 80" fill="none" xmlns="http://www.w3.org/2000/svg">
<g filter="url(#filter0_d_15_646)">
<path fill-rule="evenodd" clip-rule="evenodd" d="M33.4816 15.7533C35.2267 15.2012 36.3701 17.336 35.4454 18.9155C31.9017 24.9687 31.2958 32.6057 34.493 39.4394C37.6901 46.273 43.941 50.7019 50.8586 51.8607C52.6637 52.1631 53.5698 54.409 52.0276 55.3948C51.217 55.9129 50.3632 56.3841 49.4682 56.8028C38.4261 61.9689 25.2867 57.2055 20.1206 46.1634C14.9545 35.1213 19.718 21.9819 30.7601 16.8159C31.6553 16.397 32.5642 16.0435 33.4816 15.7533Z" fill="url(#paint0_linear_15_646)"/>
</g>
<g filter="url(#filter1_bi_15_646)">
<path fill-rule="evenodd" clip-rule="evenodd" d="M36.1458 6.78158C37.9418 7.13383 38.0376 9.55149 36.4689 10.4946C27.7338 15.7464 21.8897 25.3161 21.8897 36.2509C21.8897 47.1855 27.7337 56.7552 36.4688 62.0071C38.0375 62.9502 37.9417 65.3678 36.1456 65.7201C34.2651 66.0889 32.3217 66.2821 30.3331 66.2821C13.7472 66.2821 0.301758 52.8367 0.301758 36.2508C0.301758 19.665 13.7472 6.21948 30.3331 6.21948C32.3217 6.21948 34.2652 6.41277 36.1458 6.78158Z" fill="#EFE4FA"/>
</g>
<defs>
<filter id="filter0_d_15_646" x="4.51544" y="0.651136" width="70.7783" height="79.2238" filterUnits="userSpaceOnUse" color-interpolation-filters="sRGB">
<feFlood flood-opacity="0" result="BackgroundImageFix"/>
<feColorMatrix in="SourceAlpha" type="matrix" values="0 0 0 0 0 0 0 0 0 0 0 0 0 0 0 0 0 0 127 0" result="hardAlpha"/>
<feOffset dx="4.48028" dy="2.98686"/>
<feGaussianBlur stdDeviation="9"/>
<feComposite in2="hardAlpha" operator="out"/>
<feColorMatrix type="matrix" values="0 0 0 0 0.784314 0 0 0 0 0.517647 0 0 0 0 0.933333 0 0 0 0.2 0"/>
<feBlend mode="normal" in2="BackgroundImageFix" result="effect1_dropShadow_15_646"/>
<feBlend mode="normal" in="SourceGraphic" in2="effect1_dropShadow_15_646" result="shape"/>
</filter>
<filter id="filter1_bi_15_646" x="-29.6982" y="-23.7805" width="97.2725" height="120.063" filterUnits="userSpaceOnUse" color-interpolation-filters="sRGB">
<feFlood flood-opacity="0" result="BackgroundImageFix"/>
<feGaussianBlur in="BackgroundImageFix" stdDeviation="15"/>
<feComposite in2="SourceAlpha" operator="in" result="effect1_backgroundBlur_15_646"/>
<feBlend mode="normal" in="SourceGraphic" in2="effect1_backgroundBlur_15_646" result="shape"/>
<feColorMatrix in="SourceAlpha" type="matrix" values="0 0 0 0 0 0 0 0 0 0 0 0 0 0 0 0 0 0 127 0" result="hardAlpha"/>
<feOffset dx="2" dy="4"/>
<feGaussianBlur stdDeviation="2.5"/>
<feComposite in2="hardAlpha" operator="arithmetic" k2="-1" k3="1"/>
<feColorMatrix type="matrix" values="0 0 0 0 1 0 0 0 0 1 0 0 0 0 1 0 0 0 0.45 0"/>
<feBlend mode="normal" in2="shape" result="effect2_innerShadow_15_646"/>
</filter>
<linearGradient id="paint0_linear_15_646" x1="24.5243" y1="19.7333" x2="82.5119" y2="54.2529" gradientUnits="userSpaceOnUse">
<stop stop-color="#D192EF"/>
<stop offset="1" stop-color="#9E44E4"/>
</linearGradient>
</defs>
</svg>
