<svg width="133" height="133" viewBox="0 0 133 133" fill="none" xmlns="http://www.w3.org/2000/svg">
<path d="M109.139 33.806H23.1807C19.6199 33.806 16.7338 44.8692 16.7338 58.519V99.7072H115.586V58.519C115.586 44.8692 112.699 33.806 109.139 33.806Z" fill="url(#paint0_linear_101_1880)"/>
<g filter="url(#filter0_bi_101_1880)">
<path d="M123.823 17.3307H8.49619C3.94666 17.3307 0.258545 21.0189 0.258545 25.5684V107.945C0.258545 112.494 3.94666 116.182 8.49619 116.182H123.823C128.373 116.182 132.061 112.494 132.061 107.945V25.5684C132.061 21.0189 128.373 17.3307 123.823 17.3307Z" fill="url(#paint1_linear_101_1880)" fill-opacity="0.2"/>
<path d="M8.49619 18.1545H123.823C127.918 18.1545 131.237 21.4738 131.237 25.5684V107.945C131.237 112.039 127.918 115.359 123.823 115.359H8.49619C4.40162 115.359 1.08231 112.039 1.08231 107.945V25.5684C1.08231 21.4738 4.40162 18.1545 8.49619 18.1545Z" stroke="url(#paint2_linear_101_1880)" stroke-opacity="0.1" stroke-width="1.64753"/>
</g>
<g filter="url(#filter1_i_101_1880)">
<path d="M26.9632 53.0138H18.9405C18.3932 53.0138 17.9262 53.4121 17.8402 53.9536L14.5967 74.5262C14.5337 74.9331 14.846 75.2998 15.2586 75.2998H19.0895C19.6367 75.2998 20.1038 74.9016 20.1897 74.36L21.0665 68.81C21.1525 68.2685 21.6195 67.8702 22.1668 67.8702H24.7054C29.9889 67.8702 33.0404 65.3115 33.837 60.2429C34.1951 58.0251 33.8513 56.2831 32.8141 55.0653C31.668 53.7244 29.648 53.0138 26.9632 53.0138ZM27.8887 60.5294C27.4503 63.409 25.2498 63.409 23.1238 63.409H21.9117L22.7599 58.0309C22.8114 57.7071 23.0922 57.4664 23.4217 57.4664H23.9776C25.4246 57.4664 26.7942 57.4664 27.499 58.2916C27.9202 58.7873 28.0491 59.518 27.8887 60.5294Z" fill="white" fill-opacity="0.16"/>
<path d="M50.9455 60.4377H47.1032C46.7737 60.4377 46.4929 60.6784 46.4413 61.0022L46.2722 62.0766C45.8998 61.5351 45.1577 60.0767 41.4643 60.0767C37.2209 60.0767 33.5934 63.2944 32.8886 67.8043C32.5218 70.0535 33.0433 72.2054 34.3184 73.7068C35.4902 75.0849 37.1636 75.6609 39.1578 75.6609C42.5789 75.6609 44.4757 73.4632 44.4757 73.4632L44.3038 74.5319C44.2408 74.9388 44.5531 75.3056 44.9657 75.3056H48.4269C48.9742 75.3056 49.4412 74.9073 49.5272 74.3658L51.6045 61.2142C51.6675 60.8045 51.3552 60.4377 50.9455 60.4377ZM45.5903 67.916C45.2207 70.1108 43.4757 71.5836 41.2552 71.5836C40.1406 71.5836 39.2495 71.2254 38.6764 70.5464C38.1091 69.873 37.8942 68.916 38.0747 67.8473C38.4214 65.6725 40.1922 64.1511 42.3812 64.1511C43.4729 64.1511 44.3582 64.5121 44.9428 65.1969C45.5273 65.8874 45.7594 66.853 45.5903 67.916Z" fill="white" fill-opacity="0.16"/>
<path d="M71.4064 60.4377H67.544C67.1744 60.4377 66.8305 60.6211 66.6214 60.9277L61.2948 68.7728L59.037 61.2342C58.8966 60.7615 58.4611 60.4377 57.9683 60.4377H54.1718C53.7133 60.4377 53.3896 60.8876 53.5386 61.3231L57.7906 73.8042L53.7907 79.4488C53.4755 79.8929 53.7936 80.5032 54.3351 80.5032H58.1918C58.5585 80.5032 58.8995 80.3227 59.1086 80.0247L71.9508 61.4893C72.2631 61.0423 71.945 60.4377 71.4064 60.4377Z" fill="white" fill-opacity="0.16"/>
<path d="M84.1869 53.0138H76.1642C75.6169 53.0138 75.1499 53.4121 75.0639 53.9536L71.8204 74.5262C71.7574 74.9331 72.0697 75.2998 72.4823 75.2998H76.5997C76.9837 75.2998 77.3103 75.019 77.3705 74.6408L78.2902 68.8071C78.3762 68.2656 78.8432 67.8673 79.3905 67.8673H81.9291C87.2127 67.8673 90.2642 65.3087 91.0607 60.24C91.4189 58.0223 91.075 56.2802 90.0378 55.0625C88.8946 53.7244 86.8717 53.0138 84.1869 53.0138ZM85.1124 60.5294C84.674 63.409 82.4735 63.409 80.3475 63.409H79.1383L79.9865 58.0309C80.038 57.7071 80.3188 57.4664 80.6483 57.4664C82.4105 57.4664 83.9577 57.3948 84.7256 58.2916C85.1468 58.7873 85.2729 59.518 85.1124 60.5294Z" fill="white" fill-opacity="0.16"/>
<path d="M108.169 60.4377H104.327C103.997 60.4377 103.717 60.6784 103.665 61.0022L103.496 62.0766C103.123 61.5351 102.381 60.0767 98.6881 60.0767C94.4446 60.0767 90.8172 63.2944 90.1123 67.8043C89.7456 70.0535 90.267 72.2054 91.5421 73.7068C92.714 75.0849 94.3873 75.6609 96.3815 75.6609C99.8026 75.6609 101.699 73.4632 101.699 73.4632L101.528 74.5319C101.465 74.9388 101.777 75.3056 102.189 75.3056H105.651C106.198 75.3056 106.665 74.9073 106.751 74.3658L108.828 61.2142C108.894 60.8045 108.579 60.4377 108.169 60.4377ZM102.814 67.916C102.442 70.1108 100.699 71.5836 98.4789 71.5836C97.3643 71.5836 96.4732 71.2254 95.9002 70.5464C95.3328 69.873 95.1179 68.916 95.2984 67.8473C95.6451 65.6725 97.4159 64.1511 99.6049 64.1511C100.697 64.1511 101.582 64.5121 102.166 65.1969C102.751 65.8874 102.983 66.853 102.814 67.916Z" fill="white" fill-opacity="0.16"/>
<path d="M112.696 53.5811L109.404 74.5319C109.341 74.9388 109.653 75.3056 110.066 75.3056H113.378C113.926 75.3056 114.393 74.9073 114.479 74.3658L117.725 53.7932C117.788 53.3863 117.476 53.0195 117.063 53.0195H113.355C113.029 53.0138 112.748 53.2545 112.696 53.5811Z" fill="white" fill-opacity="0.16"/>
</g>
<defs>
<filter id="filter0_bi_101_1880" x="-32.692" y="-15.6198" width="197.703" height="164.753" filterUnits="userSpaceOnUse" color-interpolation-filters="sRGB">
<feFlood flood-opacity="0" result="BackgroundImageFix"/>
<feGaussianBlur in="BackgroundImageFix" stdDeviation="16.4753"/>
<feComposite in2="SourceAlpha" operator="in" result="effect1_backgroundBlur_101_1880"/>
<feBlend mode="normal" in="SourceGraphic" in2="effect1_backgroundBlur_101_1880" result="shape"/>
<feColorMatrix in="SourceAlpha" type="matrix" values="0 0 0 0 0 0 0 0 0 0 0 0 0 0 0 0 0 0 127 0" result="hardAlpha"/>
<feOffset dy="10.9835"/>
<feGaussianBlur stdDeviation="8.23764"/>
<feComposite in2="hardAlpha" operator="arithmetic" k2="-1" k3="1"/>
<feColorMatrix type="matrix" values="0 0 0 0 1 0 0 0 0 1 0 0 0 0 1 0 0 0 0.4 0"/>
<feBlend mode="normal" in2="shape" result="effect2_innerShadow_101_1880"/>
</filter>
<filter id="filter1_i_101_1880" x="14.5886" y="53.0138" width="103.144" height="38.4729" filterUnits="userSpaceOnUse" color-interpolation-filters="sRGB">
<feFlood flood-opacity="0" result="BackgroundImageFix"/>
<feBlend mode="normal" in="SourceGraphic" in2="BackgroundImageFix" result="shape"/>
<feColorMatrix in="SourceAlpha" type="matrix" values="0 0 0 0 0 0 0 0 0 0 0 0 0 0 0 0 0 0 127 0" result="hardAlpha"/>
<feOffset dy="10.9835"/>
<feGaussianBlur stdDeviation="5.49176"/>
<feComposite in2="hardAlpha" operator="arithmetic" k2="-1" k3="1"/>
<feColorMatrix type="matrix" values="0 0 0 0 1 0 0 0 0 1 0 0 0 0 1 0 0 0 0.4 0"/>
<feBlend mode="normal" in2="shape" result="effect1_innerShadow_101_1880"/>
</filter>
<linearGradient id="paint0_linear_101_1880" x1="16.7338" y1="33.806" x2="124.982" y2="75.0355" gradientUnits="userSpaceOnUse">
<stop stop-color="#B1F0C6"/>
<stop offset="1" stop-color="#008C99"/>
</linearGradient>
<linearGradient id="paint1_linear_101_1880" x1="0.258545" y1="17.3307" x2="148.532" y2="67.5301" gradientUnits="userSpaceOnUse">
<stop stop-color="#94ECB2"/>
<stop offset="1" stop-color="#00BBCC"/>
</linearGradient>
<linearGradient id="paint2_linear_101_1880" x1="4.37737" y1="21.824" x2="132.061" y2="21.824" gradientUnits="userSpaceOnUse">
<stop stop-color="#3CDEB6"/>
<stop offset="0.65625" stop-color="#364AFF"/>
</linearGradient>
</defs>
</svg>
