<svg width="176" height="164" viewBox="0 0 176 164" fill="none" xmlns="http://www.w3.org/2000/svg">
<g filter="url(#filter0_f_1_157)">
<path d="M132.288 114.367C129.198 98.4275 115.168 86.3974 98.3181 86.3974C81.4681 86.3974 67.4381 98.4275 64.3481 114.367C63.6781 117.807 66.3981 120.997 69.8981 120.997H126.728C130.238 120.997 132.948 117.817 132.278 114.367H132.288Z" fill="url(#paint0_linear_1_157)"/>
<path d="M98.3182 78.2674C107.806 78.2674 115.498 70.5757 115.498 61.0874C115.498 51.5992 107.806 43.9074 98.3182 43.9074C88.8299 43.9074 81.1382 51.5992 81.1382 61.0874C81.1382 70.5757 88.8299 78.2674 98.3182 78.2674Z" fill="url(#paint1_linear_1_157)"/>
</g>
<path d="M132.288 114.367C129.198 98.4275 115.168 86.3974 98.3181 86.3974C81.4681 86.3974 67.4381 98.4275 64.3481 114.367C63.6781 117.807 66.3981 120.997 69.8981 120.997H126.728C130.238 120.997 132.948 117.817 132.278 114.367H132.288Z" fill="url(#paint2_linear_1_157)"/>
<path d="M98.3182 78.2674C107.806 78.2674 115.498 70.5757 115.498 61.0874C115.498 51.5992 107.806 43.9074 98.3182 43.9074C88.8299 43.9074 81.1382 51.5992 81.1382 61.0874C81.1382 70.5757 88.8299 78.2674 98.3182 78.2674Z" fill="url(#paint3_linear_1_157)"/>
<g filter="url(#filter1_b_1_157)">
<path d="M85.3082 112.687C81.4282 92.7075 63.8382 77.6174 42.7182 77.6174C21.5982 77.6174 4.00815 92.7075 0.128154 112.687C-0.711846 117.007 2.68815 120.997 7.08815 120.997H78.3382C82.7382 120.997 86.1381 117.007 85.2981 112.687H85.3082Z" fill="url(#paint4_linear_1_157)"/>
<path d="M42.7182 77.8674C63.6111 77.8674 81.0301 92.7207 85.0038 112.437H84.9949L85.0527 112.735C85.8617 116.895 82.5865 120.747 78.3382 120.747H7.08815C2.83978 120.747 -0.435377 116.895 0.373558 112.735L0.373569 112.735C4.23119 92.8704 21.7201 77.8674 42.7182 77.8674Z" stroke="url(#paint5_linear_1_157)" stroke-width="0.5"/>
</g>
<g filter="url(#filter2_b_1_157)">
<path d="M47.6498 66.8542C59.2225 64.1228 66.3898 52.527 63.6584 40.9543C60.927 29.3816 49.3312 22.2143 37.7585 24.9457C26.1858 27.6771 19.0185 39.2729 21.7499 50.8456C24.4813 62.4183 36.0771 69.5856 47.6498 66.8542Z" fill="url(#paint6_linear_1_157)"/>
<path d="M63.4151 41.0117C66.1148 52.45 59.0307 63.9112 47.5924 66.6109C36.154 69.3106 24.6929 62.2265 21.9932 50.7882C19.2935 39.3498 26.3776 27.8887 37.8159 25.189C49.2543 22.4893 60.7154 29.5734 63.4151 41.0117Z" stroke="url(#paint7_linear_1_157)" stroke-width="0.5"/>
</g>
<defs>
<filter id="filter0_f_1_157" x="21.2462" y="0.90744" width="154.134" height="163.09" filterUnits="userSpaceOnUse" color-interpolation-filters="sRGB">
<feFlood flood-opacity="0" result="BackgroundImageFix"/>
<feBlend mode="normal" in="SourceGraphic" in2="BackgroundImageFix" result="shape"/>
<feGaussianBlur stdDeviation="21.5" result="effect1_foregroundBlur_1_157"/>
</filter>
<filter id="filter1_b_1_157" x="-18" y="59.6174" width="121.426" height="79.38" filterUnits="userSpaceOnUse" color-interpolation-filters="sRGB">
<feFlood flood-opacity="0" result="BackgroundImageFix"/>
<feGaussianBlur in="BackgroundImageFix" stdDeviation="9"/>
<feComposite in2="SourceAlpha" operator="in" result="effect1_backgroundBlur_1_157"/>
<feBlend mode="normal" in="SourceGraphic" in2="effect1_backgroundBlur_1_157" result="shape"/>
</filter>
<filter id="filter2_b_1_157" x="3.16928" y="6.36508" width="79.0697" height="79.0697" filterUnits="userSpaceOnUse" color-interpolation-filters="sRGB">
<feFlood flood-opacity="0" result="BackgroundImageFix"/>
<feGaussianBlur in="BackgroundImageFix" stdDeviation="9"/>
<feComposite in2="SourceAlpha" operator="in" result="effect1_backgroundBlur_1_157"/>
<feBlend mode="normal" in="SourceGraphic" in2="effect1_backgroundBlur_1_157" result="shape"/>
</filter>
<linearGradient id="paint0_linear_1_157" x1="98.3181" y1="140.037" x2="98.3181" y2="36.0074" gradientUnits="userSpaceOnUse">
<stop stop-color="#F6005A"/>
<stop offset="1" stop-color="#F7CBAD"/>
</linearGradient>
<linearGradient id="paint1_linear_1_157" x1="98.3181" y1="-407.342" x2="98.3181" y2="36.0074" gradientUnits="userSpaceOnUse">
<stop stop-color="#F6005A"/>
<stop offset="1" stop-color="#F7CBAD"/>
</linearGradient>
<linearGradient id="paint2_linear_1_157" x1="98.3181" y1="140.037" x2="98.3181" y2="36.0074" gradientUnits="userSpaceOnUse">
<stop stop-color="#F6005A"/>
<stop offset="1" stop-color="#F7CBAD"/>
</linearGradient>
<linearGradient id="paint3_linear_1_157" x1="98.3181" y1="-407.342" x2="98.3181" y2="36.0074" gradientUnits="userSpaceOnUse">
<stop stop-color="#F6005A"/>
<stop offset="1" stop-color="#F7CBAD"/>
</linearGradient>
<linearGradient id="paint4_linear_1_157" x1="4.82281" y1="118.548" x2="35.8935" y2="57.3624" gradientUnits="userSpaceOnUse">
<stop stop-color="white" stop-opacity="0.2"/>
<stop offset="1" stop-color="white" stop-opacity="0.49"/>
</linearGradient>
<linearGradient id="paint5_linear_1_157" x1="6.03014" y1="81.0292" x2="34.1973" y2="140.338" gradientUnits="userSpaceOnUse">
<stop stop-color="white"/>
<stop offset="1" stop-color="white" stop-opacity="0"/>
</linearGradient>
<linearGradient id="paint6_linear_1_157" x1="28.5031" y1="68.8755" x2="56.9052" y2="22.9244" gradientUnits="userSpaceOnUse">
<stop stop-color="white" stop-opacity="0.2"/>
<stop offset="1" stop-color="white" stop-opacity="0.49"/>
</linearGradient>
<linearGradient id="paint7_linear_1_157" x1="20.5404" y1="32.4891" x2="64.4126" y2="61.6778" gradientUnits="userSpaceOnUse">
<stop stop-color="white"/>
<stop offset="1" stop-color="white" stop-opacity="0"/>
</linearGradient>
</defs>
</svg>
