<svg width="196" height="161" viewBox="0 0 196 161" fill="none" xmlns="http://www.w3.org/2000/svg">
<g filter="url(#filter0_f_1_153)">
<path d="M126.509 117.585H69.4388C65.4988 117.585 61.8288 115.595 59.6688 112.295L44.9188 89.725C39.8488 81.965 45.4188 71.675 54.6888 71.675H141.259C150.529 71.675 156.099 81.965 151.029 89.725L136.279 112.295C134.119 115.595 130.449 117.585 126.509 117.585Z" fill="url(#paint0_linear_1_153)"/>
</g>
<path d="M126.509 117.585H69.4388C65.4988 117.585 61.8288 115.595 59.6688 112.295L44.9188 89.725C39.8488 81.965 45.4188 71.675 54.6888 71.675H141.259C150.529 71.675 156.099 81.965 151.029 89.725L136.279 112.295C134.119 115.595 130.449 117.585 126.509 117.585Z" fill="url(#paint1_linear_1_153)"/>
<g filter="url(#filter1_b_1_153)">
<path d="M127.339 12.165C111.119 -4.055 84.8288 -4.055 68.6188 12.165C52.3988 28.385 52.3988 54.675 68.6188 70.885L90.0288 92.295C94.4188 96.685 101.539 96.685 105.929 92.295L127.339 70.885C143.559 54.665 143.559 28.375 127.339 12.165ZM111.579 55.125C104.069 62.635 91.8888 62.635 84.3688 55.125C76.8588 47.615 76.8588 35.435 84.3688 27.915C91.8788 20.405 104.059 20.405 111.579 27.915C119.089 35.425 119.089 47.605 111.579 55.125Z" fill="url(#paint2_linear_1_153)"/>
<path d="M127.162 12.3418L127.162 12.3418C143.284 28.4542 143.284 54.5858 127.162 70.7082L105.752 92.1182C101.46 96.4106 94.4979 96.4106 90.2056 92.1182L68.7956 70.7082L68.7955 70.7082C52.6733 54.5958 52.6732 28.4642 68.7956 12.3418L68.7956 12.3417C84.908 -3.78054 111.04 -3.78062 127.162 12.3418ZM111.756 55.3018L111.756 55.3017C119.363 47.6841 119.363 35.3459 111.756 27.7382L111.755 27.7381C104.138 20.1307 91.7997 20.1305 84.192 27.7382L84.1919 27.7383C76.5845 35.3559 76.5843 47.6941 84.192 55.3018L84.1921 55.3019C91.8097 62.9093 104.148 62.9095 111.756 55.3018Z" stroke="url(#paint3_linear_1_153)" stroke-width="0.5"/>
</g>
<defs>
<filter id="filter0_f_1_153" x="0" y="28.675" width="195.948" height="131.91" filterUnits="userSpaceOnUse" color-interpolation-filters="sRGB">
<feFlood flood-opacity="0" result="BackgroundImageFix"/>
<feBlend mode="normal" in="SourceGraphic" in2="BackgroundImageFix" result="shape"/>
<feGaussianBlur stdDeviation="21.5" result="effect1_foregroundBlur_1_153"/>
</filter>
<filter id="filter1_b_1_153" x="38.4538" y="-18" width="119.05" height="131.587" filterUnits="userSpaceOnUse" color-interpolation-filters="sRGB">
<feFlood flood-opacity="0" result="BackgroundImageFix"/>
<feGaussianBlur in="BackgroundImageFix" stdDeviation="9"/>
<feComposite in2="SourceAlpha" operator="in" result="effect1_backgroundBlur_1_153"/>
<feBlend mode="normal" in="SourceGraphic" in2="effect1_backgroundBlur_1_153" result="shape"/>
</filter>
<linearGradient id="paint0_linear_1_153" x1="43.0088" y1="94.625" x2="152.949" y2="94.625" gradientUnits="userSpaceOnUse">
<stop stop-color="#7C00FF"/>
<stop offset="1" stop-color="#2CF19A"/>
</linearGradient>
<linearGradient id="paint1_linear_1_153" x1="43.0088" y1="94.625" x2="152.949" y2="94.625" gradientUnits="userSpaceOnUse">
<stop stop-color="#7C00FF"/>
<stop offset="1" stop-color="#2CF19A"/>
</linearGradient>
<linearGradient id="paint2_linear_1_153" x1="61.1424" y1="90.191" x2="145.106" y2="17.2406" gradientUnits="userSpaceOnUse">
<stop stop-color="white" stop-opacity="0.2"/>
<stop offset="1" stop-color="white" stop-opacity="0.49"/>
</linearGradient>
<linearGradient id="paint3_linear_1_153" x1="62.3162" y1="7.51778" x2="142.181" y2="81.7109" gradientUnits="userSpaceOnUse">
<stop stop-color="white"/>
<stop offset="1" stop-color="white" stop-opacity="0"/>
</linearGradient>
</defs>
</svg>
