<svg width="56" height="56" viewBox="0 0 56 56" fill="none" xmlns="http://www.w3.org/2000/svg">
<path d="M4.35681 5.62622H37.94C39.2648 5.62622 40.3388 6.7002 40.3388 8.02502V12.8226H4.35681C2.36958 12.8226 0.758606 11.2117 0.758606 9.22442C0.758606 7.23718 2.36957 5.62622 4.35681 5.62622Z" fill="url(#paint0_linear_101_7960)"/>
<path d="M45.1377 4.42627H6.75494V48.4041H45.1377V4.42627Z" fill="url(#paint1_linear_101_7960)"/>
<g filter="url(#filter0_bi_101_7960)">
<path d="M43.9364 0.827637H7.95434C7.29194 0.827637 6.75494 1.36463 6.75494 2.02704V48.4038H45.1358V2.02704C45.1358 1.36463 44.5988 0.827637 43.9364 0.827637Z" fill="white" fill-opacity="0.16"/>
<path d="M7.95434 1.17246H43.9364C44.4083 1.17246 44.7909 1.55508 44.7909 2.02704V48.059H7.09977V2.02704C7.09977 1.55508 7.48238 1.17246 7.95434 1.17246Z" stroke="url(#paint2_linear_101_7960)" stroke-opacity="0.1" stroke-width="0.689655"/>
</g>
<g filter="url(#filter1_bi_101_7960)">
<path d="M0.758606 9.22388V47.6046C0.758606 52.2415 4.51755 56.0004 9.15441 56.0004H48.7346C50.0594 56.0004 51.1334 54.9264 51.1334 53.6016V15.2208C51.1334 13.8959 50.0594 12.822 48.7346 12.822H4.3568C2.36958 12.822 0.758606 11.2111 0.758606 9.22388Z" fill="#1D1D1D" fill-opacity="0.05"/>
<path d="M0.758606 9.22388V47.6046C0.758606 52.2415 4.51755 56.0004 9.15441 56.0004H48.7346C50.0594 56.0004 51.1334 54.9264 51.1334 53.6016V15.2208C51.1334 13.8959 50.0594 12.822 48.7346 12.822H4.3568C2.36958 12.822 0.758606 11.2111 0.758606 9.22388Z" fill="url(#paint3_linear_101_7960)" fill-opacity="0.2"/>
<path d="M1.10343 47.6046V11.4523C1.81404 12.4877 3.00611 13.1668 4.3568 13.1668H48.7346C49.869 13.1668 50.7886 14.0864 50.7886 15.2208V53.6016C50.7886 54.736 49.869 55.6556 48.7346 55.6556H9.15441C4.70799 55.6556 1.10343 52.051 1.10343 47.6046Z" stroke="url(#paint4_linear_101_7960)" stroke-opacity="0.1" stroke-width="0.689655"/>
</g>
<g filter="url(#filter2_i_101_7960)">
<path d="M54.732 28.4138H42.738C39.4315 28.4138 36.741 31.1043 36.741 34.4108C36.741 37.7174 39.4315 40.4078 42.738 40.4078H54.732C55.3944 40.4078 55.9314 39.8708 55.9314 39.2084V29.6132C55.9314 28.9508 55.3944 28.4138 54.732 28.4138Z" fill="url(#paint5_linear_101_7960)"/>
</g>
<g filter="url(#filter3_i_101_7960)">
<path d="M42.7385 36.8101C44.0633 36.8101 45.1373 35.7361 45.1373 34.4113C45.1373 33.0864 44.0633 32.0125 42.7385 32.0125C41.4137 32.0125 40.3397 33.0864 40.3397 34.4113C40.3397 35.7361 41.4137 36.8101 42.7385 36.8101Z" fill="white" fill-opacity="0.1"/>
</g>
<defs>
<filter id="filter0_bi_101_7960" x="-7.03816" y="-12.9655" width="65.967" height="75.1624" filterUnits="userSpaceOnUse" color-interpolation-filters="sRGB">
<feFlood flood-opacity="0" result="BackgroundImageFix"/>
<feGaussianBlur in="BackgroundImageFix" stdDeviation="6.89655"/>
<feComposite in2="SourceAlpha" operator="in" result="effect1_backgroundBlur_101_7960"/>
<feBlend mode="normal" in="SourceGraphic" in2="effect1_backgroundBlur_101_7960" result="shape"/>
<feColorMatrix in="SourceAlpha" type="matrix" values="0 0 0 0 0 0 0 0 0 0 0 0 0 0 0 0 0 0 127 0" result="hardAlpha"/>
<feOffset dy="4.5977"/>
<feGaussianBlur stdDeviation="3.44828"/>
<feComposite in2="hardAlpha" operator="arithmetic" k2="-1" k3="1"/>
<feColorMatrix type="matrix" values="0 0 0 0 1 0 0 0 0 1 0 0 0 0 1 0 0 0 0.4 0"/>
<feBlend mode="normal" in2="shape" result="effect2_innerShadow_101_7960"/>
</filter>
<filter id="filter1_bi_101_7960" x="-13.0345" y="-4.56923" width="77.961" height="74.3628" filterUnits="userSpaceOnUse" color-interpolation-filters="sRGB">
<feFlood flood-opacity="0" result="BackgroundImageFix"/>
<feGaussianBlur in="BackgroundImageFix" stdDeviation="6.89655"/>
<feComposite in2="SourceAlpha" operator="in" result="effect1_backgroundBlur_101_7960"/>
<feBlend mode="normal" in="SourceGraphic" in2="effect1_backgroundBlur_101_7960" result="shape"/>
<feColorMatrix in="SourceAlpha" type="matrix" values="0 0 0 0 0 0 0 0 0 0 0 0 0 0 0 0 0 0 127 0" result="hardAlpha"/>
<feOffset dy="4.5977"/>
<feGaussianBlur stdDeviation="3.44828"/>
<feComposite in2="hardAlpha" operator="arithmetic" k2="-1" k3="1"/>
<feColorMatrix type="matrix" values="0 0 0 0 1 0 0 0 0 1 0 0 0 0 1 0 0 0 0.15 0"/>
<feBlend mode="normal" in2="shape" result="effect2_innerShadow_101_7960"/>
</filter>
<filter id="filter2_i_101_7960" x="36.741" y="28.4138" width="19.1904" height="16.5916" filterUnits="userSpaceOnUse" color-interpolation-filters="sRGB">
<feFlood flood-opacity="0" result="BackgroundImageFix"/>
<feBlend mode="normal" in="SourceGraphic" in2="BackgroundImageFix" result="shape"/>
<feColorMatrix in="SourceAlpha" type="matrix" values="0 0 0 0 0 0 0 0 0 0 0 0 0 0 0 0 0 0 127 0" result="hardAlpha"/>
<feOffset dy="4.5977"/>
<feGaussianBlur stdDeviation="2.29885"/>
<feComposite in2="hardAlpha" operator="arithmetic" k2="-1" k3="1"/>
<feColorMatrix type="matrix" values="0 0 0 0 1 0 0 0 0 1 0 0 0 0 1 0 0 0 0.4 0"/>
<feBlend mode="normal" in2="shape" result="effect1_innerShadow_101_7960"/>
</filter>
<filter id="filter3_i_101_7960" x="40.3397" y="32.0125" width="4.79761" height="9.39531" filterUnits="userSpaceOnUse" color-interpolation-filters="sRGB">
<feFlood flood-opacity="0" result="BackgroundImageFix"/>
<feBlend mode="normal" in="SourceGraphic" in2="BackgroundImageFix" result="shape"/>
<feColorMatrix in="SourceAlpha" type="matrix" values="0 0 0 0 0 0 0 0 0 0 0 0 0 0 0 0 0 0 127 0" result="hardAlpha"/>
<feOffset dy="4.5977"/>
<feGaussianBlur stdDeviation="2.29885"/>
<feComposite in2="hardAlpha" operator="arithmetic" k2="-1" k3="1"/>
<feColorMatrix type="matrix" values="0 0 0 0 1 0 0 0 0 1 0 0 0 0 1 0 0 0 0.1 0"/>
<feBlend mode="normal" in2="shape" result="effect1_innerShadow_101_7960"/>
</filter>
<linearGradient id="paint0_linear_101_7960" x1="0.758606" y1="5.62622" x2="17.5804" y2="29.1188" gradientUnits="userSpaceOnUse">
<stop stop-color="#B1F0E0"/>
<stop offset="1" stop-color="#FF32CF"/>
</linearGradient>
<linearGradient id="paint1_linear_101_7960" x1="6.75494" y1="4.42627" x2="52.6307" y2="14.593" gradientUnits="userSpaceOnUse">
<stop stop-color="#B1F0E0"/>
<stop offset="1" stop-color="#FF32CF"/>
</linearGradient>
<linearGradient id="paint2_linear_101_7960" x1="7.95434" y1="2.99019" x2="45.1358" y2="2.99019" gradientUnits="userSpaceOnUse">
<stop stop-color="#FF99E7"/>
<stop offset="1" stop-color="#5DF4CE"/>
</linearGradient>
<linearGradient id="paint3_linear_101_7960" x1="0.758606" y1="9.22388" x2="59.5298" y2="25.295" gradientUnits="userSpaceOnUse">
<stop stop-color="#7DFFDF"/>
<stop offset="1" stop-color="#FF31CF"/>
</linearGradient>
<linearGradient id="paint4_linear_101_7960" x1="2.33282" y1="11.3501" x2="51.1334" y2="11.3501" gradientUnits="userSpaceOnUse">
<stop stop-color="#FF99E7"/>
<stop offset="1" stop-color="#5DF4CE"/>
</linearGradient>
<linearGradient id="paint5_linear_101_7960" x1="36.741" y1="28.4138" x2="57.3952" y2="36.805" gradientUnits="userSpaceOnUse">
<stop stop-color="#B1F0E0"/>
<stop offset="1" stop-color="#FF32CF"/>
</linearGradient>
</defs>
</svg>
