<svg width="240" height="240" viewBox="0 0 240 240" fill="none" xmlns="http://www.w3.org/2000/svg">
<rect x="50" y="70" width="160" height="100" rx="20" fill="url(#paint0_linear_10_7)"/>
<mask id="mask0_10_7" style="mask-type:alpha" maskUnits="userSpaceOnUse" x="50" y="70" width="160" height="100">
<rect x="50" y="70" width="160" height="100" rx="20" fill="url(#paint1_linear_10_7)"/>
</mask>
<g mask="url(#mask0_10_7)">
<g filter="url(#filter0_d_10_7)">
<path d="M110 90.0001C110 112.092 92.0914 130 70 130C47.9086 130 30 112.092 30 90.0001C30 67.9087 47.9086 50.0001 70 50.0001C92.0914 50.0001 110 67.9087 110 90.0001Z" fill="url(#paint2_linear_10_7)"/>
<path d="M120 165C120 178.807 97.6142 190 70 190C42.3858 190 20 178.807 20 165C20 151.193 42.3858 140 70 140C97.6142 140 120 151.193 120 165Z" fill="url(#paint3_linear_10_7)"/>
<path d="M130 100C130 94.4773 134.477 90.0001 140 90.0001H210C215.523 90.0001 220 94.4773 220 100C220 105.523 215.523 110 210 110H140C134.477 110 130 105.523 130 100Z" fill="url(#paint4_linear_10_7)"/>
<path d="M130 140C130 134.477 134.477 130 140 130H170C175.523 130 180 134.477 180 140C180 145.523 175.523 150 170 150H140C134.477 150 130 145.523 130 140Z" fill="url(#paint5_linear_10_7)"/>
</g>
</g>
<g filter="url(#filter1_bii_10_7)">
<path d="M110 90C110 112.091 92.0914 130 70 130C47.9086 130 30 112.091 30 90C30 67.9086 47.9086 50 70 50C92.0914 50 110 67.9086 110 90Z" fill="url(#paint6_linear_10_7)" fill-opacity="0.1"/>
<path d="M120 165C120 178.807 97.6142 190 70 190C42.3858 190 20 178.807 20 165C20 151.193 42.3858 140 70 140C97.6142 140 120 151.193 120 165Z" fill="url(#paint7_linear_10_7)" fill-opacity="0.1"/>
<path d="M130 100C130 94.4772 134.477 90 140 90H210C215.523 90 220 94.4772 220 100C220 105.523 215.523 110 210 110H140C134.477 110 130 105.523 130 100Z" fill="url(#paint8_linear_10_7)" fill-opacity="0.1"/>
<path d="M130 140C130 134.477 134.477 130 140 130H170C175.523 130 180 134.477 180 140C180 145.523 175.523 150 170 150H140C134.477 150 130 145.523 130 140Z" fill="url(#paint9_linear_10_7)" fill-opacity="0.1"/>
</g>
<defs>
<filter id="filter0_d_10_7" x="13" y="43.0001" width="224" height="164" filterUnits="userSpaceOnUse" color-interpolation-filters="sRGB">
<feFlood flood-opacity="0" result="BackgroundImageFix"/>
<feColorMatrix in="SourceAlpha" type="matrix" values="0 0 0 0 0 0 0 0 0 0 0 0 0 0 0 0 0 0 127 0" result="hardAlpha"/>
<feOffset dx="5" dy="5"/>
<feGaussianBlur stdDeviation="6"/>
<feColorMatrix type="matrix" values="0 0 0 0 0.1925 0 0 0 0 0.26993 0 0 0 0 0.9625 0 0 0 0.5 0"/>
<feBlend mode="normal" in2="BackgroundImageFix" result="effect1_dropShadow_10_7"/>
<feBlend mode="normal" in="SourceGraphic" in2="effect1_dropShadow_10_7" result="shape"/>
</filter>
<filter id="filter1_bii_10_7" x="0" y="30" width="240" height="180" filterUnits="userSpaceOnUse" color-interpolation-filters="sRGB">
<feFlood flood-opacity="0" result="BackgroundImageFix"/>
<feGaussianBlur in="BackgroundImageFix" stdDeviation="10"/>
<feComposite in2="SourceAlpha" operator="in" result="effect1_backgroundBlur_10_7"/>
<feBlend mode="normal" in="SourceGraphic" in2="effect1_backgroundBlur_10_7" result="shape"/>
<feColorMatrix in="SourceAlpha" type="matrix" values="0 0 0 0 0 0 0 0 0 0 0 0 0 0 0 0 0 0 127 0" result="hardAlpha"/>
<feOffset dy="10"/>
<feGaussianBlur stdDeviation="5"/>
<feComposite in2="hardAlpha" operator="arithmetic" k2="-1" k3="1"/>
<feColorMatrix type="matrix" values="0 0 0 0 1 0 0 0 0 1 0 0 0 0 1 0 0 0 0.15 0"/>
<feBlend mode="normal" in2="shape" result="effect2_innerShadow_10_7"/>
<feColorMatrix in="SourceAlpha" type="matrix" values="0 0 0 0 0 0 0 0 0 0 0 0 0 0 0 0 0 0 127 0" result="hardAlpha"/>
<feOffset dy="-10"/>
<feGaussianBlur stdDeviation="5"/>
<feComposite in2="hardAlpha" operator="arithmetic" k2="-1" k3="1"/>
<feColorMatrix type="matrix" values="0 0 0 0 0.803922 0 0 0 0 0.843137 0 0 0 0 0.980392 0 0 0 0.15 0"/>
<feBlend mode="normal" in2="effect2_innerShadow_10_7" result="effect3_innerShadow_10_7"/>
</filter>
<linearGradient id="paint0_linear_10_7" x1="50" y1="70.0001" x2="210" y2="170" gradientUnits="userSpaceOnUse">
<stop stop-color="#CDD7FA"/>
<stop offset="1" stop-color="#3D4FF0"/>
</linearGradient>
<linearGradient id="paint1_linear_10_7" x1="50" y1="70.0001" x2="210" y2="170" gradientUnits="userSpaceOnUse">
<stop stop-color="#CDD7FA"/>
<stop offset="1" stop-color="#3D4FF0"/>
</linearGradient>
<linearGradient id="paint2_linear_10_7" x1="51" y1="73.5001" x2="216.575" y2="152.597" gradientUnits="userSpaceOnUse">
<stop stop-color="#CDD7FA"/>
<stop offset="1" stop-color="#3D4FF0"/>
</linearGradient>
<linearGradient id="paint3_linear_10_7" x1="51" y1="73.5001" x2="216.575" y2="152.597" gradientUnits="userSpaceOnUse">
<stop stop-color="#CDD7FA"/>
<stop offset="1" stop-color="#3D4FF0"/>
</linearGradient>
<linearGradient id="paint4_linear_10_7" x1="51" y1="73.5001" x2="216.575" y2="152.597" gradientUnits="userSpaceOnUse">
<stop stop-color="#CDD7FA"/>
<stop offset="1" stop-color="#3D4FF0"/>
</linearGradient>
<linearGradient id="paint5_linear_10_7" x1="51" y1="73.5001" x2="216.575" y2="152.597" gradientUnits="userSpaceOnUse">
<stop stop-color="#CDD7FA"/>
<stop offset="1" stop-color="#3D4FF0"/>
</linearGradient>
<linearGradient id="paint6_linear_10_7" x1="20" y1="50.0001" x2="232.082" y2="168.349" gradientUnits="userSpaceOnUse">
<stop stop-color="#CDD7FA"/>
<stop offset="1" stop-color="#3D4FF0"/>
</linearGradient>
<linearGradient id="paint7_linear_10_7" x1="20" y1="50.0001" x2="232.082" y2="168.349" gradientUnits="userSpaceOnUse">
<stop stop-color="#CDD7FA"/>
<stop offset="1" stop-color="#3D4FF0"/>
</linearGradient>
<linearGradient id="paint8_linear_10_7" x1="20" y1="50.0001" x2="232.082" y2="168.349" gradientUnits="userSpaceOnUse">
<stop stop-color="#CDD7FA"/>
<stop offset="1" stop-color="#3D4FF0"/>
</linearGradient>
<linearGradient id="paint9_linear_10_7" x1="20" y1="50.0001" x2="232.082" y2="168.349" gradientUnits="userSpaceOnUse">
<stop stop-color="#CDD7FA"/>
<stop offset="1" stop-color="#3D4FF0"/>
</linearGradient>
</defs>
</svg>
