<svg width="96" height="96" viewBox="0 0 96 96" fill="none" xmlns="http://www.w3.org/2000/svg">
<path d="M78.009 34.666H15.9476C13.3767 34.666 11.293 36.3596 11.293 38.4491V78.8022C11.293 80.8918 13.3767 82.5853 15.9476 82.5853H78.009C80.5799 82.5853 82.6637 80.8918 82.6637 78.8022V38.4491C82.6637 36.3596 80.5799 34.666 78.009 34.666Z" fill="url(#paint0_linear_202_2162)"/>
<g filter="url(#filter0_bi_202_2162)">
<path d="M87.8298 14.2969H6.12766C2.74315 14.2969 0 17.04 0 20.4245V85.7862C0 89.1707 2.74315 91.9139 6.12766 91.9139H87.8298C91.2143 91.9139 93.9574 89.1707 93.9574 85.7862V20.4245C93.9574 17.04 91.2143 14.2969 87.8298 14.2969Z" fill="#1D1D1D" fill-opacity="0.05"/>
<path d="M87.8298 14.2969H6.12766C2.74315 14.2969 0 17.04 0 20.4245V85.7862C0 89.1707 2.74315 91.9139 6.12766 91.9139H87.8298C91.2143 91.9139 93.9574 89.1707 93.9574 85.7862V20.4245C93.9574 17.04 91.2143 14.2969 87.8298 14.2969Z" fill="url(#paint1_linear_202_2162)" fill-opacity="0.2"/>
<path d="M6.12766 14.8969H87.8298C90.8829 14.8969 93.3574 17.3714 93.3574 20.4245V85.7862C93.3574 88.8394 90.8829 91.3139 87.8298 91.3139H6.12766C3.07452 91.3139 0.6 88.8394 0.6 85.7862V20.4245C0.6 17.3714 3.07452 14.8969 6.12766 14.8969Z" stroke="url(#paint2_linear_202_2162)" stroke-opacity="0.1" stroke-width="1.2"/>
</g>
<g filter="url(#filter1_i_202_2162)">
<path d="M28.5957 44.9361C33.1079 44.9361 36.7659 41.2781 36.7659 36.7659C36.7659 32.2537 33.1079 28.5957 28.5957 28.5957C24.0835 28.5957 20.4255 32.2537 20.4255 36.7659C20.4255 41.2781 24.0835 44.9361 28.5957 44.9361Z" fill="white" fill-opacity="0.1"/>
<path d="M79.3959 74.5732L61.0129 41.8923C60.6677 41.2775 60.0325 40.8874 59.3299 40.8526C58.6313 40.8098 57.9552 41.1509 57.5549 41.7309L40.5649 66.2722L30.0417 55.749C29.6087 55.318 29.0204 55.1117 28.3954 55.1607C27.7867 55.22 27.2373 55.5509 26.8982 56.0595L14.6429 74.4424C14.2262 75.0695 14.1853 75.8743 14.5408 76.5381C14.8962 77.2019 15.5886 77.6166 16.3423 77.6166H77.6189C78.344 77.6166 79.016 77.2326 79.3816 76.6055C79.7472 75.9784 79.7533 75.2043 79.3959 74.5732Z" fill="white" fill-opacity="0.1"/>
</g>
<g filter="url(#filter2_bi_202_2162)">
<path d="M72 48C85.2548 48 96 37.2548 96 24C96 10.7452 85.2548 0 72 0C58.7452 0 48 10.7452 48 24C48 37.2548 58.7452 48 72 48Z" fill="#1D1D1D" fill-opacity="0.05"/>
<path d="M72 48C85.2548 48 96 37.2548 96 24C96 10.7452 85.2548 0 72 0C58.7452 0 48 10.7452 48 24C48 37.2548 58.7452 48 72 48Z" fill="url(#paint3_linear_202_2162)" fill-opacity="0.2"/>
<path d="M95.4 24C95.4 36.9235 84.9235 47.4 72 47.4C59.0765 47.4 48.6 36.9235 48.6 24C48.6 11.0765 59.0765 0.6 72 0.6C84.9235 0.6 95.4 11.0765 95.4 24Z" stroke="url(#paint4_linear_202_2162)" stroke-opacity="0.1" stroke-width="1.2"/>
</g>
<g filter="url(#filter3_i_202_2162)">
<path d="M71.9994 42.4626C82.1954 42.4626 90.4609 34.1971 90.4609 24.0011C90.4609 13.8051 82.1954 5.53955 71.9994 5.53955C61.8034 5.53955 53.5378 13.8051 53.5378 24.0011C53.5378 34.1971 61.8034 42.4626 71.9994 42.4626Z" fill="white" fill-opacity="0.1"/>
</g>
<g filter="url(#filter4_i_202_2162)">
<path d="M71.999 34.6659C71.5949 34.6658 71.2074 34.5052 70.9217 34.2194L61.7787 25.0764C61.493 24.7906 61.3325 24.4031 61.3325 23.999C61.3325 23.595 61.493 23.2074 61.7787 22.9217L70.9217 13.7787C71.2074 13.493 71.595 13.3325 71.999 13.3325C72.4031 13.3325 72.7906 13.493 73.0764 13.7787L82.2194 22.9217C82.505 23.2074 82.6655 23.595 82.6655 23.999C82.6655 24.4031 82.505 24.7906 82.2194 25.0764L73.0764 34.2194C72.7907 34.5052 72.4031 34.6658 71.999 34.6659Z" fill="url(#paint5_linear_202_2162)"/>
</g>
<defs>
<filter id="filter0_bi_202_2162" x="-24" y="-9.70312" width="141.957" height="125.617" filterUnits="userSpaceOnUse" color-interpolation-filters="sRGB">
<feFlood flood-opacity="0" result="BackgroundImageFix"/>
<feGaussianBlur in="BackgroundImageFix" stdDeviation="12"/>
<feComposite in2="SourceAlpha" operator="in" result="effect1_backgroundBlur_202_2162"/>
<feBlend mode="normal" in="SourceGraphic" in2="effect1_backgroundBlur_202_2162" result="shape"/>
<feColorMatrix in="SourceAlpha" type="matrix" values="0 0 0 0 0 0 0 0 0 0 0 0 0 0 0 0 0 0 127 0" result="hardAlpha"/>
<feOffset dy="8"/>
<feGaussianBlur stdDeviation="6"/>
<feComposite in2="hardAlpha" operator="arithmetic" k2="-1" k3="1"/>
<feColorMatrix type="matrix" values="0 0 0 0 1 0 0 0 0 1 0 0 0 0 1 0 0 0 0.15 0"/>
<feBlend mode="normal" in2="shape" result="effect2_innerShadow_202_2162"/>
</filter>
<filter id="filter1_i_202_2162" x="14.2998" y="28.5957" width="65.3601" height="57.0209" filterUnits="userSpaceOnUse" color-interpolation-filters="sRGB">
<feFlood flood-opacity="0" result="BackgroundImageFix"/>
<feBlend mode="normal" in="SourceGraphic" in2="BackgroundImageFix" result="shape"/>
<feColorMatrix in="SourceAlpha" type="matrix" values="0 0 0 0 0 0 0 0 0 0 0 0 0 0 0 0 0 0 127 0" result="hardAlpha"/>
<feOffset dy="8"/>
<feGaussianBlur stdDeviation="4"/>
<feComposite in2="hardAlpha" operator="arithmetic" k2="-1" k3="1"/>
<feColorMatrix type="matrix" values="0 0 0 0 1 0 0 0 0 1 0 0 0 0 1 0 0 0 0.1 0"/>
<feBlend mode="normal" in2="shape" result="effect1_innerShadow_202_2162"/>
</filter>
<filter id="filter2_bi_202_2162" x="24" y="-24" width="96" height="96" filterUnits="userSpaceOnUse" color-interpolation-filters="sRGB">
<feFlood flood-opacity="0" result="BackgroundImageFix"/>
<feGaussianBlur in="BackgroundImageFix" stdDeviation="12"/>
<feComposite in2="SourceAlpha" operator="in" result="effect1_backgroundBlur_202_2162"/>
<feBlend mode="normal" in="SourceGraphic" in2="effect1_backgroundBlur_202_2162" result="shape"/>
<feColorMatrix in="SourceAlpha" type="matrix" values="0 0 0 0 0 0 0 0 0 0 0 0 0 0 0 0 0 0 127 0" result="hardAlpha"/>
<feOffset dy="8"/>
<feGaussianBlur stdDeviation="6"/>
<feComposite in2="hardAlpha" operator="arithmetic" k2="-1" k3="1"/>
<feColorMatrix type="matrix" values="0 0 0 0 1 0 0 0 0 1 0 0 0 0 1 0 0 0 0.15 0"/>
<feBlend mode="normal" in2="shape" result="effect2_innerShadow_202_2162"/>
</filter>
<filter id="filter3_i_202_2162" x="53.5378" y="5.53955" width="36.9231" height="44.9231" filterUnits="userSpaceOnUse" color-interpolation-filters="sRGB">
<feFlood flood-opacity="0" result="BackgroundImageFix"/>
<feBlend mode="normal" in="SourceGraphic" in2="BackgroundImageFix" result="shape"/>
<feColorMatrix in="SourceAlpha" type="matrix" values="0 0 0 0 0 0 0 0 0 0 0 0 0 0 0 0 0 0 127 0" result="hardAlpha"/>
<feOffset dy="8"/>
<feGaussianBlur stdDeviation="4"/>
<feComposite in2="hardAlpha" operator="arithmetic" k2="-1" k3="1"/>
<feColorMatrix type="matrix" values="0 0 0 0 1 0 0 0 0 1 0 0 0 0 1 0 0 0 0.1 0"/>
<feBlend mode="normal" in2="shape" result="effect1_innerShadow_202_2162"/>
</filter>
<filter id="filter4_i_202_2162" x="61.3325" y="13.3325" width="21.333" height="29.3334" filterUnits="userSpaceOnUse" color-interpolation-filters="sRGB">
<feFlood flood-opacity="0" result="BackgroundImageFix"/>
<feBlend mode="normal" in="SourceGraphic" in2="BackgroundImageFix" result="shape"/>
<feColorMatrix in="SourceAlpha" type="matrix" values="0 0 0 0 0 0 0 0 0 0 0 0 0 0 0 0 0 0 127 0" result="hardAlpha"/>
<feOffset dy="8"/>
<feGaussianBlur stdDeviation="4"/>
<feComposite in2="hardAlpha" operator="arithmetic" k2="-1" k3="1"/>
<feColorMatrix type="matrix" values="0 0 0 0 1 0 0 0 0 1 0 0 0 0 1 0 0 0 0.1 0"/>
<feBlend mode="normal" in2="shape" result="effect1_innerShadow_202_2162"/>
</filter>
<linearGradient id="paint0_linear_202_2162" x1="14.2667" y1="44.2499" x2="90.3134" y2="59.9809" gradientUnits="userSpaceOnUse">
<stop stop-color="#8AE6CF"/>
<stop offset="1" stop-color="#7C3AE7"/>
</linearGradient>
<linearGradient id="paint1_linear_202_2162" x1="3.91489" y1="29.8203" x2="105.442" y2="46.8899" gradientUnits="userSpaceOnUse">
<stop stop-color="#66FECB"/>
<stop offset="1" stop-color="#8940FF"/>
</linearGradient>
<linearGradient id="paint2_linear_202_2162" x1="2.93617" y1="17.8249" x2="93.9574" y2="17.8249" gradientUnits="userSpaceOnUse">
<stop stop-color="#C8A6FF"/>
<stop offset="1" stop-color="#69CFB5"/>
</linearGradient>
<linearGradient id="paint3_linear_202_2162" x1="50" y1="9.60001" x2="102.324" y2="16.8672" gradientUnits="userSpaceOnUse">
<stop stop-color="#66FECB"/>
<stop offset="1" stop-color="#8940FF"/>
</linearGradient>
<linearGradient id="paint4_linear_202_2162" x1="49.5" y1="2.18182" x2="96" y2="2.18182" gradientUnits="userSpaceOnUse">
<stop stop-color="#C8A6FF"/>
<stop offset="1" stop-color="#69CFB5"/>
</linearGradient>
<linearGradient id="paint5_linear_202_2162" x1="62.2214" y1="17.5992" x2="85.4762" y2="20.829" gradientUnits="userSpaceOnUse">
<stop stop-color="#8AE6CF"/>
<stop offset="1" stop-color="#7C3AE7"/>
</linearGradient>
</defs>
</svg>
