<svg width="90" height="90" viewBox="0 0 90 90" fill="none" xmlns="http://www.w3.org/2000/svg">
<path d="M65.9967 26.0176L70.1045 30.1254C70.4677 30.4885 70.6717 30.9811 70.6717 31.4947C70.6717 32.0082 70.4677 32.5008 70.1045 32.8639C69.7414 33.2271 69.2488 33.4311 68.7353 33.4311C68.2217 33.4311 67.7292 33.2271 67.366 32.8639L63.2582 28.7561L65.9967 26.0176Z" fill="url(#paint0_linear_605_4542)"/>
<path d="M60.5202 31.4927L64.628 35.6005C64.9912 35.9636 65.1952 36.4562 65.1952 36.9697C65.1952 37.4833 64.9912 37.9759 64.628 38.339C64.2649 38.7022 63.7724 38.9062 63.2588 38.9062C62.7452 38.9062 62.2527 38.7022 61.8895 38.339L57.7817 34.2312L60.5202 31.4927Z" fill="url(#paint1_linear_605_4542)"/>
<path d="M55.0419 36.972L59.1497 41.0798C59.3295 41.2596 59.4721 41.4731 59.5694 41.708C59.6667 41.943 59.7168 42.1948 59.7168 42.4491C59.7168 42.7034 59.6667 42.9552 59.5694 43.1901C59.4721 43.425 59.3295 43.6385 59.1497 43.8183C58.7865 44.1815 58.294 44.3855 57.7804 44.3855C57.2668 44.3855 56.7743 44.1815 56.4111 43.8183L52.3033 39.7105L55.0419 36.972Z" fill="url(#paint2_linear_605_4542)"/>
<path d="M49.5654 42.4471L53.6732 46.5549C54.0363 46.918 54.2403 47.4106 54.2403 47.9241C54.2403 48.4377 54.0363 48.9303 53.6732 49.2934C53.31 49.6566 52.8175 49.8606 52.3039 49.8606C51.7903 49.8606 51.2978 49.6566 50.9346 49.2934L46.8268 45.1856L49.5654 42.4471Z" fill="url(#paint3_linear_605_4542)"/>
<path d="M44.0884 47.9254L48.1962 52.0333C48.5594 52.3964 48.7634 52.889 48.7634 53.4025C48.7634 53.9161 48.5594 54.4086 48.1962 54.7718C47.833 55.1349 47.3405 55.339 46.8269 55.339C46.3134 55.339 45.8208 55.1349 45.4577 54.7718L41.3499 50.664L44.0884 47.9254Z" fill="url(#paint4_linear_605_4542)"/>
<g filter="url(#filter0_bi_605_4542)">
<mask id="path-2-inside-1_605_4542" fill="white">
<path fill-rule="evenodd" clip-rule="evenodd" d="M57.4869 79.942V80.3174C57.4869 81.3868 58.3539 82.2538 59.4233 82.2538C60.4928 82.2538 61.3598 81.3868 61.3598 80.3174V54.127C61.3598 53.0575 60.4928 52.1906 59.4233 52.1906C58.3539 52.1906 57.4869 53.0575 57.4869 54.127V54.7007C51.9211 56.1147 46.8272 58.973 42.7201 62.9866L32.4569 73.2497C31.912 73.7946 31.173 74.1007 30.4024 74.1007C29.6318 74.1007 28.8927 73.7946 28.3478 73.2497C27.8029 72.7048 27.4968 71.9658 27.4968 71.1952C27.4968 70.4245 27.8029 69.6855 28.3478 69.1406L74.2124 23.2779C75.8414 21.6448 76.832 19.4825 77.005 17.1823C77.1779 14.8821 76.5219 12.596 75.1554 10.7376L67.3671 0L63.258 1.36906L69.9793 13.8184C70.2377 14.3577 70.3226 14.9638 70.2224 15.5533C70.1222 16.1428 69.8418 16.6868 69.4197 17.1104L19.3008 59.1389C18.8786 59.4874 18.4681 59.8534 18.0731 60.2485C14.8047 63.5168 12.9685 67.9497 12.9685 72.572C12.9685 77.1942 14.8047 81.6271 18.0731 84.8955C21.3415 88.1639 25.7744 90 30.3966 90C35.0188 90 39.4517 88.1639 42.7201 84.8955C44.6511 83.0132 46.9816 81.5904 49.5382 80.7328C52.0947 79.8753 54.8116 79.605 57.4869 79.942Z"/>
</mask>
<path fill-rule="evenodd" clip-rule="evenodd" d="M57.4869 79.942V80.3174C57.4869 81.3868 58.3539 82.2538 59.4233 82.2538C60.4928 82.2538 61.3598 81.3868 61.3598 80.3174V54.127C61.3598 53.0575 60.4928 52.1906 59.4233 52.1906C58.3539 52.1906 57.4869 53.0575 57.4869 54.127V54.7007C51.9211 56.1147 46.8272 58.973 42.7201 62.9866L32.4569 73.2497C31.912 73.7946 31.173 74.1007 30.4024 74.1007C29.6318 74.1007 28.8927 73.7946 28.3478 73.2497C27.8029 72.7048 27.4968 71.9658 27.4968 71.1952C27.4968 70.4245 27.8029 69.6855 28.3478 69.1406L74.2124 23.2779C75.8414 21.6448 76.832 19.4825 77.005 17.1823C77.1779 14.8821 76.5219 12.596 75.1554 10.7376L67.3671 0L63.258 1.36906L69.9793 13.8184C70.2377 14.3577 70.3226 14.9638 70.2224 15.5533C70.1222 16.1428 69.8418 16.6868 69.4197 17.1104L19.3008 59.1389C18.8786 59.4874 18.4681 59.8534 18.0731 60.2485C14.8047 63.5168 12.9685 67.9497 12.9685 72.572C12.9685 77.1942 14.8047 81.6271 18.0731 84.8955C21.3415 88.1639 25.7744 90 30.3966 90C35.0188 90 39.4517 88.1639 42.7201 84.8955C44.6511 83.0132 46.9816 81.5904 49.5382 80.7328C52.0947 79.8753 54.8116 79.605 57.4869 79.942Z" fill="#1D1D1D" fill-opacity="0.05"/>
<path fill-rule="evenodd" clip-rule="evenodd" d="M57.4869 79.942V80.3174C57.4869 81.3868 58.3539 82.2538 59.4233 82.2538C60.4928 82.2538 61.3598 81.3868 61.3598 80.3174V54.127C61.3598 53.0575 60.4928 52.1906 59.4233 52.1906C58.3539 52.1906 57.4869 53.0575 57.4869 54.127V54.7007C51.9211 56.1147 46.8272 58.973 42.7201 62.9866L32.4569 73.2497C31.912 73.7946 31.173 74.1007 30.4024 74.1007C29.6318 74.1007 28.8927 73.7946 28.3478 73.2497C27.8029 72.7048 27.4968 71.9658 27.4968 71.1952C27.4968 70.4245 27.8029 69.6855 28.3478 69.1406L74.2124 23.2779C75.8414 21.6448 76.832 19.4825 77.005 17.1823C77.1779 14.8821 76.5219 12.596 75.1554 10.7376L67.3671 0L63.258 1.36906L69.9793 13.8184C70.2377 14.3577 70.3226 14.9638 70.2224 15.5533C70.1222 16.1428 69.8418 16.6868 69.4197 17.1104L19.3008 59.1389C18.8786 59.4874 18.4681 59.8534 18.0731 60.2485C14.8047 63.5168 12.9685 67.9497 12.9685 72.572C12.9685 77.1942 14.8047 81.6271 18.0731 84.8955C21.3415 88.1639 25.7744 90 30.3966 90C35.0188 90 39.4517 88.1639 42.7201 84.8955C44.6511 83.0132 46.9816 81.5904 49.5382 80.7328C52.0947 79.8753 54.8116 79.605 57.4869 79.942Z" fill="url(#paint5_linear_605_4542)" fill-opacity="0.2"/>
<path d="M57.4869 79.942H58.6119V78.9498L57.6275 78.8258L57.4869 79.942ZM57.4869 54.7007L57.7639 55.791L58.6119 55.5756V54.7007H57.4869ZM42.7201 62.9866L41.9337 62.1819L41.9246 62.1911L42.7201 62.9866ZM32.4569 73.2497L31.6614 72.4542L32.4569 73.2497ZM28.3478 69.1406L27.5523 68.3451L27.5523 68.3451L28.3478 69.1406ZM74.2124 23.2779L75.0079 24.0735L75.0089 24.0724L74.2124 23.2779ZM77.005 17.1823L78.1268 17.2667V17.2667L77.005 17.1823ZM75.1554 10.7376L74.2447 11.3981L74.2491 11.404L75.1554 10.7376ZM67.3671 0L68.2777 -0.66054L67.7937 -1.32793L67.0115 -1.06732L67.3671 0ZM63.258 1.36906L62.9024 0.301744L61.6318 0.72507L62.268 1.90353L63.258 1.36906ZM69.9793 13.8184L70.9939 13.3324L70.9822 13.3079L70.9693 13.284L69.9793 13.8184ZM70.2224 15.5533L71.3315 15.7418V15.7418L70.2224 15.5533ZM69.4197 17.1104L70.1426 17.9724L70.1811 17.9401L70.2167 17.9044L69.4197 17.1104ZM19.3008 59.1389L20.0171 60.0064L20.0236 60.0009L19.3008 59.1389ZM18.0731 60.2485L18.8686 61.0439H18.8686L18.0731 60.2485ZM18.0731 84.8955L17.2776 85.691H17.2776L18.0731 84.8955ZM42.7201 84.8955L41.9348 84.0899L41.9297 84.0949L41.9246 84.1L42.7201 84.8955ZM49.5382 80.7328L49.1804 79.6662L49.5382 80.7328ZM56.3619 79.942V80.3174H58.6119V79.942H56.3619ZM56.3619 80.3174C56.3619 82.0081 57.7325 83.3788 59.4233 83.3788V81.1288C58.9752 81.1288 58.6119 80.7655 58.6119 80.3174H56.3619ZM59.4233 83.3788C61.1141 83.3788 62.4848 82.0081 62.4848 80.3174H60.2348C60.2348 80.7655 59.8715 81.1288 59.4233 81.1288V83.3788ZM62.4848 80.3174V54.127H60.2348V80.3174H62.4848ZM62.4848 54.127C62.4848 52.4362 61.1141 51.0656 59.4233 51.0656V53.3156C59.8715 53.3156 60.2348 53.6789 60.2348 54.127H62.4848ZM59.4233 51.0656C57.7325 51.0656 56.3619 52.4362 56.3619 54.127H58.6119C58.6119 53.6789 58.9752 53.3156 59.4233 53.3156V51.0656ZM56.3619 54.127V54.7007H58.6119V54.127H56.3619ZM57.2099 53.6103C51.4521 55.0731 46.1826 58.03 41.9338 62.182L43.5064 63.7912C47.4719 59.916 52.3901 57.1563 57.7639 55.791L57.2099 53.6103ZM41.9246 62.1911L31.6614 72.4542L33.2524 74.0452L43.5156 63.7821L41.9246 62.1911ZM31.6614 72.4542C31.3275 72.7881 30.8746 72.9757 30.4024 72.9757V75.2257C31.4714 75.2257 32.4966 74.8011 33.2524 74.0452L31.6614 72.4542ZM30.4024 72.9757C29.9301 72.9757 29.4772 72.7881 29.1433 72.4542L27.5523 74.0452C28.3082 74.8011 29.3334 75.2257 30.4024 75.2257V72.9757ZM29.1433 72.4542C28.8094 72.1203 28.6218 71.6674 28.6218 71.1952H26.3718C26.3718 72.2641 26.7964 73.2893 27.5523 74.0452L29.1433 72.4542ZM28.6218 71.1952C28.6218 70.7229 28.8094 70.27 29.1433 69.9361L27.5523 68.3451C26.7964 69.101 26.3718 70.1262 26.3718 71.1952H28.6218ZM29.1433 69.9361L75.0079 24.0735L73.4169 22.4824L27.5523 68.3451L29.1433 69.9361ZM75.0089 24.0724C76.8277 22.249 77.9337 19.8348 78.1268 17.2667L75.8831 17.0979C75.7303 19.1302 74.8551 21.0406 73.4159 22.4835L75.0089 24.0724ZM78.1268 17.2667C78.3199 14.6985 77.5874 12.146 76.0618 10.0711L74.2491 11.404C75.4563 13.0459 76.0359 15.0657 75.8831 17.0979L78.1268 17.2667ZM76.0661 10.077L68.2777 -0.66054L66.4564 0.66054L74.2448 11.3981L76.0661 10.077ZM67.0115 -1.06732L62.9024 0.301744L63.6136 2.43638L67.7227 1.06732L67.0115 -1.06732ZM62.268 1.90353L68.9894 14.3529L70.9693 13.284L64.2479 0.834599L62.268 1.90353ZM68.9648 14.3045C69.1227 14.6341 69.1746 15.0045 69.1133 15.3648L71.3315 15.7418C71.4707 14.9231 71.3527 14.0813 70.9939 13.3324L68.9648 14.3045ZM69.1133 15.3647C69.0521 15.725 68.8807 16.0575 68.6228 16.3163L70.2167 17.9044C70.8028 17.3161 71.1923 16.5606 71.3315 15.7418L69.1133 15.3647ZM68.6968 16.2484L18.5779 58.2768L20.0236 60.0009L70.1426 17.9724L68.6968 16.2484ZM18.5845 58.2714C18.1404 58.6381 17.7025 59.028 17.2776 59.453L18.8686 61.0439C19.2337 60.6788 19.6169 60.3368 20.0171 60.0064L18.5845 58.2714ZM17.2776 59.453C13.7982 62.9323 11.8435 67.6514 11.8435 72.572H14.0935C14.0935 68.2481 15.8111 64.1014 18.8686 61.0439L17.2776 59.453ZM11.8435 72.572C11.8435 77.4925 13.7982 82.2116 17.2776 85.691L18.8686 84.1C15.8111 81.0425 14.0935 76.8958 14.0935 72.572H11.8435ZM17.2776 85.691C20.7569 89.1703 25.476 91.125 30.3966 91.125V88.875C26.0727 88.875 21.926 87.1574 18.8686 84.1L17.2776 85.691ZM30.3966 91.125C35.3172 91.125 40.0362 89.1703 43.5156 85.691L41.9246 84.1C38.8672 87.1574 34.7204 88.875 30.3966 88.875V91.125ZM43.5053 85.7011C45.3153 83.9368 47.4996 82.6032 49.896 81.7994L49.1804 79.6662C46.4635 80.5776 43.9869 82.0896 41.9348 84.0899L43.5053 85.7011ZM49.896 81.7994C52.2922 80.9957 54.8387 80.7423 57.3463 81.0582L57.6275 78.8258C54.7844 78.4677 51.8972 78.7549 49.1804 79.6662L49.896 81.7994Z" fill="url(#paint6_linear_605_4542)" fill-opacity="0.1" mask="url(#path-2-inside-1_605_4542)"/>
</g>
<g filter="url(#filter1_i_605_4542)">
<path d="M61.3597 54.1271C61.3597 53.0576 60.4927 52.1907 59.4233 52.1907C58.3538 52.1907 57.4868 53.0576 57.4868 54.1271V80.3175C57.4868 81.3869 58.3538 82.2539 59.4233 82.2539C60.4927 82.2539 61.3597 81.3869 61.3597 80.3175V54.1271Z" fill="url(#paint7_linear_605_4542)"/>
</g>
<defs>
<filter id="filter0_bi_605_4542" x="6.96851" y="-6" width="76.0637" height="102" filterUnits="userSpaceOnUse" color-interpolation-filters="sRGB">
<feFlood flood-opacity="0" result="BackgroundImageFix"/>
<feGaussianBlur in="BackgroundImageFix" stdDeviation="3"/>
<feComposite in2="SourceAlpha" operator="in" result="effect1_backgroundBlur_605_4542"/>
<feBlend mode="normal" in="SourceGraphic" in2="effect1_backgroundBlur_605_4542" result="shape"/>
<feColorMatrix in="SourceAlpha" type="matrix" values="0 0 0 0 0 0 0 0 0 0 0 0 0 0 0 0 0 0 127 0" result="hardAlpha"/>
<feOffset dy="2"/>
<feGaussianBlur stdDeviation="1.5"/>
<feComposite in2="hardAlpha" operator="arithmetic" k2="-1" k3="1"/>
<feColorMatrix type="matrix" values="0 0 0 0 1 0 0 0 0 1 0 0 0 0 1 0 0 0 0.15 0"/>
<feBlend mode="normal" in2="shape" result="effect2_innerShadow_605_4542"/>
</filter>
<filter id="filter1_i_605_4542" x="57.4868" y="52.1907" width="3.8728" height="32.0632" filterUnits="userSpaceOnUse" color-interpolation-filters="sRGB">
<feFlood flood-opacity="0" result="BackgroundImageFix"/>
<feBlend mode="normal" in="SourceGraphic" in2="BackgroundImageFix" result="shape"/>
<feColorMatrix in="SourceAlpha" type="matrix" values="0 0 0 0 0 0 0 0 0 0 0 0 0 0 0 0 0 0 127 0" result="hardAlpha"/>
<feOffset dy="2"/>
<feGaussianBlur stdDeviation="1"/>
<feComposite in2="hardAlpha" operator="arithmetic" k2="-1" k3="1"/>
<feColorMatrix type="matrix" values="0 0 0 0 1 0 0 0 0 1 0 0 0 0 1 0 0 0 0.1 0"/>
<feBlend mode="normal" in2="shape" result="effect1_innerShadow_605_4542"/>
</filter>
<linearGradient id="paint0_linear_605_4542" x1="41.3499" y1="26.0176" x2="75.89" y2="34.7881" gradientUnits="userSpaceOnUse">
<stop stop-color="#FFA39E"/>
<stop offset="1" stop-color="#F01E33"/>
</linearGradient>
<linearGradient id="paint1_linear_605_4542" x1="41.3499" y1="26.0176" x2="75.89" y2="34.7881" gradientUnits="userSpaceOnUse">
<stop stop-color="#FFA39E"/>
<stop offset="1" stop-color="#F01E33"/>
</linearGradient>
<linearGradient id="paint2_linear_605_4542" x1="41.3499" y1="26.0176" x2="75.89" y2="34.7881" gradientUnits="userSpaceOnUse">
<stop stop-color="#FFA39E"/>
<stop offset="1" stop-color="#F01E33"/>
</linearGradient>
<linearGradient id="paint3_linear_605_4542" x1="41.3499" y1="26.0176" x2="75.89" y2="34.7881" gradientUnits="userSpaceOnUse">
<stop stop-color="#FFA39E"/>
<stop offset="1" stop-color="#F01E33"/>
</linearGradient>
<linearGradient id="paint4_linear_605_4542" x1="41.3499" y1="26.0176" x2="75.89" y2="34.7881" gradientUnits="userSpaceOnUse">
<stop stop-color="#FFA39E"/>
<stop offset="1" stop-color="#F01E33"/>
</linearGradient>
<linearGradient id="paint5_linear_605_4542" x1="12.9685" y1="0" x2="90.7579" y2="14.0599" gradientUnits="userSpaceOnUse">
<stop stop-color="#FFD580"/>
<stop offset="1" stop-color="#FF384C"/>
</linearGradient>
<linearGradient id="paint6_linear_605_4542" x1="14.9705" y1="4.09091" x2="77.0322" y2="4.09091" gradientUnits="userSpaceOnUse">
<stop stop-color="#FFD580"/>
<stop offset="1" stop-color="#E65A53"/>
</linearGradient>
<linearGradient id="paint7_linear_605_4542" x1="57.4868" y1="52.1907" x2="62.3379" y2="52.3494" gradientUnits="userSpaceOnUse">
<stop stop-color="#FFA39E"/>
<stop offset="1" stop-color="#F01E33"/>
</linearGradient>
</defs>
</svg>
