<svg width="208" height="199" viewBox="0 0 208 199" fill="none" xmlns="http://www.w3.org/2000/svg">
<g filter="url(#filter0_f_1_158)">
<path d="M107.94 90.2043C111.44 93.7043 111.65 99.3743 113.44 103.684C115.29 108.154 119.08 112.344 119.08 117.104C119.08 121.864 115.29 126.054 113.44 130.524C111.66 134.834 111.45 140.494 107.94 144.004C104.43 147.514 98.77 147.714 94.46 149.504C89.99 151.354 85.8 155.144 81.04 155.144C76.28 155.144 72.09 151.354 67.62 149.504C63.31 147.724 57.65 147.514 54.14 144.004C50.64 140.504 50.43 134.834 48.64 130.524C46.85 126.214 43 121.864 43 117.104C43 112.344 46.79 108.154 48.64 103.684C50.42 99.3743 50.63 93.7143 54.14 90.2043C57.64 86.7043 63.31 86.4943 67.62 84.7043C72.09 82.8543 76.28 79.0643 81.04 79.0643C85.8 79.0643 89.99 82.8543 94.46 84.7043C98.77 86.4843 104.43 86.6943 107.94 90.2043Z" fill="url(#paint0_linear_1_158)"/>
</g>
<g filter="url(#filter1_f_1_158)">
<path d="M164.55 66.7443C164.66 69.9543 162.26 72.7243 161.21 75.5543C160.11 78.4843 160.06 82.1443 157.96 84.3943C155.86 86.6443 152.21 86.9543 149.37 88.2543C146.62 89.5043 144.03 92.0943 140.82 92.2143C137.61 92.3343 134.84 89.9243 132.01 88.8743C129.18 87.8243 125.42 87.7243 123.17 85.6243C120.92 83.5243 120.61 79.8743 119.31 77.0343C118.06 74.2843 115.47 71.6943 115.35 68.4843C115.24 65.2743 117.64 62.5043 118.69 59.6743C119.79 56.7443 119.84 53.0843 121.94 50.8343C124.04 48.5843 127.69 48.2743 130.53 46.9743C133.27 45.7143 135.87 43.1243 139.07 43.0043C142.27 42.8843 145.05 45.2943 147.88 46.3443C150.71 47.3943 154.47 47.4943 156.72 49.5943C158.97 51.6943 159.28 55.3443 160.58 58.1843C161.83 60.9343 164.42 63.5243 164.54 66.7343L164.55 66.7443Z" fill="url(#paint1_linear_1_158)"/>
</g>
<path d="M107.94 90.2043C111.44 93.7043 111.65 99.3743 113.44 103.684C115.29 108.154 119.08 112.344 119.08 117.104C119.08 121.864 115.29 126.054 113.44 130.524C111.66 134.834 111.45 140.494 107.94 144.004C104.43 147.514 98.77 147.714 94.46 149.504C89.99 151.354 85.8 155.144 81.04 155.144C76.28 155.144 72.09 151.354 67.62 149.504C63.31 147.724 57.65 147.514 54.14 144.004C50.64 140.504 50.43 134.834 48.64 130.524C46.85 126.214 43 121.864 43 117.104C43 112.344 46.79 108.154 48.64 103.684C50.42 99.3743 50.63 93.7143 54.14 90.2043C57.64 86.7043 63.31 86.4943 67.62 84.7043C72.09 82.8543 76.28 79.0643 81.04 79.0643C85.8 79.0643 89.99 82.8543 94.46 84.7043C98.77 86.4843 104.43 86.6943 107.94 90.2043Z" fill="url(#paint2_linear_1_158)"/>
<path d="M164.55 66.7443C164.66 69.9543 162.26 72.7243 161.21 75.5543C160.11 78.4843 160.06 82.1443 157.96 84.3943C155.86 86.6443 152.21 86.9543 149.37 88.2543C146.62 89.5043 144.03 92.0943 140.82 92.2143C137.61 92.3343 134.84 89.9243 132.01 88.8743C129.18 87.8243 125.42 87.7243 123.17 85.6243C120.92 83.5243 120.61 79.8743 119.31 77.0343C118.06 74.2843 115.47 71.6943 115.35 68.4843C115.24 65.2743 117.64 62.5043 118.69 59.6743C119.79 56.7443 119.84 53.0843 121.94 50.8343C124.04 48.5843 127.69 48.2743 130.53 46.9743C133.27 45.7143 135.87 43.1243 139.07 43.0043C142.27 42.8843 145.05 45.2943 147.88 46.3443C150.71 47.3943 154.47 47.4943 156.72 49.5943C158.97 51.6943 159.28 55.3443 160.58 58.1843C161.83 60.9343 164.42 63.5243 164.54 66.7343L164.55 66.7443Z" fill="url(#paint3_linear_1_158)"/>
<g filter="url(#filter2_b_1_158)">
<path d="M154.86 134.384L145.58 125.104C159.18 106.564 157.61 80.3643 140.84 63.6043C122.33 45.0943 92.32 45.0943 73.81 63.6043C55.3 82.1143 55.3 112.124 73.81 130.624C90.09 146.904 115.28 148.854 133.7 136.484L143.23 146.014C146.44 149.224 151.65 149.224 154.86 146.014C158.07 142.804 158.07 137.594 154.86 134.384Z" fill="url(#paint4_linear_1_158)"/>
<path d="M145.378 124.956L145.252 125.129L145.403 125.281L154.683 134.561C157.796 137.673 157.796 142.725 154.683 145.838C151.571 148.95 146.519 148.95 143.407 145.838L133.877 136.308L133.731 136.162L133.561 136.277C115.238 148.581 90.1806 146.641 73.9868 130.448L73.9867 130.448C55.5744 112.045 55.5744 82.1935 73.9868 63.7811C92.3991 45.3687 122.251 45.3687 140.663 63.7811L140.663 63.7812C157.345 80.4525 158.907 106.514 145.378 124.956Z" stroke="url(#paint5_linear_1_158)" stroke-width="0.5"/>
</g>
<defs>
<filter id="filter0_f_1_158" x="0" y="36.0643" width="162.08" height="162.08" filterUnits="userSpaceOnUse" color-interpolation-filters="sRGB">
<feFlood flood-opacity="0" result="BackgroundImageFix"/>
<feBlend mode="normal" in="SourceGraphic" in2="BackgroundImageFix" result="shape"/>
<feGaussianBlur stdDeviation="21.5" result="effect1_foregroundBlur_1_158"/>
</filter>
<filter id="filter1_f_1_158" x="72.3463" y="0" width="135.207" height="135.219" filterUnits="userSpaceOnUse" color-interpolation-filters="sRGB">
<feFlood flood-opacity="0" result="BackgroundImageFix"/>
<feBlend mode="normal" in="SourceGraphic" in2="BackgroundImageFix" result="shape"/>
<feGaussianBlur stdDeviation="21.5" result="effect1_foregroundBlur_1_158"/>
</filter>
<filter id="filter2_b_1_158" x="41.9275" y="31.7218" width="133.34" height="134.7" filterUnits="userSpaceOnUse" color-interpolation-filters="sRGB">
<feFlood flood-opacity="0" result="BackgroundImageFix"/>
<feGaussianBlur in="BackgroundImageFix" stdDeviation="9"/>
<feComposite in2="SourceAlpha" operator="in" result="effect1_backgroundBlur_1_158"/>
<feBlend mode="normal" in="SourceGraphic" in2="effect1_backgroundBlur_1_158" result="shape"/>
</filter>
<linearGradient id="paint0_linear_1_158" x1="98.82" y1="87.4243" x2="63.5" y2="146.384" gradientUnits="userSpaceOnUse">
<stop stop-color="#10994D"/>
<stop offset="1" stop-color="#00FF79"/>
</linearGradient>
<linearGradient id="paint1_linear_1_158" x1="161.237" y1="61.3253" x2="118.491" y2="73.6655" gradientUnits="userSpaceOnUse">
<stop stop-color="#10E4E2"/>
<stop offset="1" stop-color="#00FF79"/>
</linearGradient>
<linearGradient id="paint2_linear_1_158" x1="98.82" y1="87.4243" x2="63.5" y2="146.384" gradientUnits="userSpaceOnUse">
<stop stop-color="#10994D"/>
<stop offset="1" stop-color="#00FF79"/>
</linearGradient>
<linearGradient id="paint3_linear_1_158" x1="161.237" y1="61.3253" x2="118.491" y2="73.6655" gradientUnits="userSpaceOnUse">
<stop stop-color="#10E4E2"/>
<stop offset="1" stop-color="#00FF79"/>
</linearGradient>
<linearGradient id="paint4_linear_1_158" x1="65.4229" y1="142.85" x2="152.97" y2="56.5088" gradientUnits="userSpaceOnUse">
<stop stop-color="white" stop-opacity="0.2"/>
<stop offset="1" stop-color="white" stop-opacity="0.49"/>
</linearGradient>
<linearGradient id="paint5_linear_1_158" x1="66.7986" y1="57.4844" x2="149.371" y2="144.557" gradientUnits="userSpaceOnUse">
<stop stop-color="white"/>
<stop offset="1" stop-color="white" stop-opacity="0"/>
</linearGradient>
</defs>
</svg>
