<svg width="147" height="147" viewBox="0 0 147 147" fill="none" xmlns="http://www.w3.org/2000/svg">
<rect x="21.6293" y="108.657" width="67.692" height="24.6153" rx="12.3076" transform="rotate(-45 21.6293 108.657)" fill="url(#paint0_linear_26_205)"/>
<g filter="url(#filter0_b_26_205)">
<path d="M110.769 98.4611C93.7755 115.454 65.947 115.177 48.6121 97.8426C31.2772 80.5077 31.0003 52.6792 47.9936 35.6859C64.9869 18.6926 92.8154 18.9695 110.15 36.3044C127.485 53.6393 127.762 81.4678 110.769 98.4611Z" fill="#6AE092" fill-opacity="0.6"/>
</g>
<g filter="url(#filter1_b_26_205)">
<path d="M53.9008 92.5541C67.6524 106.306 90.1919 105.987 104.244 91.9356C118.295 77.884 118.614 55.3445 104.862 41.5929C91.1105 27.8413 68.571 28.1597 54.5193 42.2114C40.4676 56.263 40.1492 78.8025 53.9008 92.5541Z" stroke="url(#paint1_linear_26_205)" stroke-width="2.44758"/>
</g>
<defs>
<filter id="filter0_b_26_205" x="21.7517" y="9.44405" width="115.259" height="115.259" filterUnits="userSpaceOnUse" color-interpolation-filters="sRGB">
<feFlood flood-opacity="0" result="BackgroundImageFix"/>
<feGaussianBlur in="BackgroundImageFix" stdDeviation="6.83793"/>
<feComposite in2="SourceAlpha" operator="in" result="effect1_backgroundBlur_26_205"/>
<feBlend mode="normal" in="SourceGraphic" in2="effect1_backgroundBlur_26_205" result="shape"/>
</filter>
<filter id="filter1_b_26_205" x="28.8812" y="16.5732" width="101.001" height="101.001" filterUnits="userSpaceOnUse" color-interpolation-filters="sRGB">
<feFlood flood-opacity="0" result="BackgroundImageFix"/>
<feGaussianBlur in="BackgroundImageFix" stdDeviation="6.83793"/>
<feComposite in2="SourceAlpha" operator="in" result="effect1_backgroundBlur_26_205"/>
<feBlend mode="normal" in="SourceGraphic" in2="effect1_backgroundBlur_26_205" result="shape"/>
</filter>
<linearGradient id="paint0_linear_26_205" x1="26.2178" y1="91.1146" x2="-7.85965" y2="142.955" gradientUnits="userSpaceOnUse">
<stop stop-color="#75EDA1"/>
<stop offset="1" stop-color="#349256"/>
</linearGradient>
<linearGradient id="paint1_linear_26_205" x1="15.2975" y1="31.8186" x2="115.26" y2="89.2661" gradientUnits="userSpaceOnUse">
<stop stop-color="white"/>
<stop offset="1" stop-color="white" stop-opacity="0"/>
</linearGradient>
</defs>
</svg>
