<svg width="1138" height="1156" viewBox="0 0 1138 1156" fill="none" xmlns="http://www.w3.org/2000/svg">
<g filter="url(#filter0_bd_2_730)">
<path d="M890.463 771.886C886.88 773.954 882.474 775.548 877.568 776.449L719.461 805.486C674.581 813.717 634.267 817.15 596.187 816.02C512.874 813.566 434.68 793.819 376.031 760.365L182.926 650.298C142.841 628.382 150.567 574.54 164.464 557.874L293.628 452.256C300.935 443.357 313.55 436.008 329.028 431.591L585.487 357.888C614.16 349.618 648.432 352.62 670.666 365.321L863.913 475.47C922.505 508.858 961.969 512.671 967.313 560.692C974.834 607.697 959.997 647.047 946.315 672.952L898.168 764.393C896.693 767.241 894.018 769.801 890.463 771.886Z" fill="#05D536" shape-rendering="crispEdges"/>
<path d="M891.284 772.352L891.277 772.356C887.57 774.495 883.007 776.148 877.917 777.082L719.81 806.12L719.461 805.486L719.81 806.12C674.827 814.369 634.373 817.819 596.127 816.684C512.538 814.222 434.075 794.408 375.222 760.838C375.222 760.838 375.222 760.838 375.222 760.838L182.134 650.78C182.131 650.779 182.128 650.777 182.125 650.776C161.754 639.633 153.647 620.473 152.301 602.145C150.955 583.804 156.364 566.055 163.426 557.586C163.454 557.552 163.486 557.521 163.523 557.491L292.631 451.92C300.056 442.906 312.841 435.47 328.515 430.996L891.284 772.352ZM891.284 772.352C894.966 770.192 897.74 767.539 899.27 764.584C899.27 764.584 899.271 764.584 899.271 764.583L947.417 673.146C947.417 673.146 947.417 673.146 947.417 673.145C961.124 647.191 975.997 607.754 968.461 560.639C965.772 536.502 954.483 523.395 936.426 512.142C927.485 506.57 916.897 501.459 904.966 495.7L904.775 495.608C892.752 489.805 879.332 483.322 864.722 474.997L671.475 364.848M891.284 772.352L671.475 364.848M671.475 364.848L671.474 364.848C648.879 351.941 614.073 348.901 584.974 357.293L671.475 364.848ZM584.972 357.294L328.518 430.995L584.972 357.294Z" stroke="url(#paint0_linear_2_730)" stroke-width="1.88021" stroke-linecap="round" stroke-linejoin="round" shape-rendering="crispEdges"/>
</g>
<g filter="url(#filter1_b_2_730)">
<mask id="path-3-outside-1_2_730" maskUnits="userSpaceOnUse" x="53.2693" y="244.071" width="1090.35" height="629.459" fill="black">
<rect fill="white" x="53.2693" y="244.071" width="1090.35" height="629.459"/>
<path d="M890.461 724.488C886.877 726.557 882.472 728.15 877.565 729.051L719.459 758.089C674.578 766.319 634.265 769.752 596.184 768.622C512.872 766.169 434.677 746.422 376.029 712.967L182.923 602.9C160.632 590.2 155.058 570.467 168.955 553.802L293.626 404.859C300.932 395.959 313.548 388.611 329.026 384.193L585.484 310.491C614.157 302.221 648.429 305.222 670.663 317.923L863.91 428.072C922.503 461.461 957.694 506.296 963.037 554.317C965.482 576.347 959.994 599.65 946.313 625.555L898.165 716.996C896.69 719.844 894.015 722.403 890.461 724.488Z"/>
</mask>
<path d="M890.461 724.488C886.877 726.557 882.472 728.15 877.565 729.051L719.459 758.089C674.578 766.319 634.265 769.752 596.184 768.622C512.872 766.169 434.677 746.422 376.029 712.967L182.923 602.9C160.632 590.2 155.058 570.467 168.955 553.802L293.626 404.859C300.932 395.959 313.548 388.611 329.026 384.193L585.484 310.491C614.157 302.221 648.429 305.222 670.663 317.923L863.91 428.072C922.503 461.461 957.694 506.296 963.037 554.317C965.482 576.347 959.994 599.65 946.313 625.555L898.165 716.996C896.69 719.844 894.015 722.403 890.461 724.488Z" fill="url(#paint1_linear_2_730)"/>
<path d="M894.81 726.999C897.212 725.612 897.212 723.364 894.81 721.977C892.408 720.591 888.513 720.591 886.112 721.977L894.81 726.999ZM877.565 729.051L875.701 725.668L875.701 725.668L877.565 729.051ZM719.459 758.089L721.321 761.473L721.323 761.473L719.459 758.089ZM596.184 768.622L596.5 765.076L596.498 765.076L596.184 768.622ZM376.029 712.967L380.352 710.442L380.35 710.441L376.029 712.967ZM182.923 602.9L187.245 600.374L187.244 600.373L182.923 602.9ZM168.955 553.802L163.417 552.257L163.413 552.262L168.955 553.802ZM293.626 404.859L299.164 406.404C299.171 406.396 299.177 406.388 299.184 406.38L293.626 404.859ZM329.026 384.193L331.752 387.376L331.767 387.372L329.026 384.193ZM585.484 310.491L588.225 313.669L588.233 313.667L585.484 310.491ZM670.663 317.923L666.337 320.447L666.342 320.45L670.663 317.923ZM863.91 428.072L859.589 430.599L859.59 430.599L863.91 428.072ZM963.037 554.317L969.175 554.09L969.175 554.09L963.037 554.317ZM946.313 625.555L940.43 624.519L940.428 624.522L946.313 625.555ZM898.165 716.996L892.281 715.963C892.278 715.968 892.275 715.973 892.272 715.979L898.165 716.996ZM886.077 721.997C883.694 723.395 883.725 725.643 886.146 727.019C888.567 728.394 892.461 728.376 894.844 726.979L886.077 721.997ZM886.112 721.977C883.189 723.665 879.625 724.947 875.701 725.668L879.43 732.435C885.319 731.354 890.566 729.449 894.81 726.999L886.112 721.977ZM875.701 725.668L717.594 754.706L721.323 761.473L879.43 732.435L875.701 725.668ZM717.597 754.705C673.263 762.835 633.696 766.18 596.5 765.076L595.868 772.168C634.834 773.325 675.894 769.804 721.321 761.473L717.597 754.705ZM596.498 765.076C514.671 762.667 437.91 743.274 380.352 710.442L371.706 715.493C431.444 749.569 511.073 769.671 595.871 772.168L596.498 765.076ZM380.35 710.441L187.245 600.374L178.602 605.427L371.708 715.494L380.35 710.441ZM187.244 600.373C166.889 588.776 161.7 570.689 174.497 555.342L163.413 552.262C148.417 570.246 154.376 591.624 178.603 605.428L187.244 600.373ZM174.493 555.347L299.164 406.404L288.088 403.314L163.417 552.257L174.493 555.347ZM299.184 406.38C305.886 398.216 317.491 391.446 331.752 387.376L326.3 381.011C309.604 385.776 295.979 393.703 288.068 403.338L299.184 406.38ZM331.767 387.372L588.225 313.669L582.744 307.312L326.285 381.015L331.767 387.372ZM588.233 313.667C614.624 306.056 646.035 308.85 666.337 320.447L674.989 315.4C650.824 301.595 613.691 298.387 582.736 307.315L588.233 313.667ZM666.342 320.45L859.589 430.599L868.231 425.546L674.984 315.397L666.342 320.45ZM859.59 430.599C917.093 463.367 951.651 507.38 956.899 554.545L969.175 554.09C963.736 505.212 927.913 459.554 868.231 425.545L859.59 430.599ZM956.899 554.544C959.287 576.062 953.944 598.932 940.43 624.519L952.196 626.59C966.045 600.368 971.677 576.632 969.175 554.09L956.899 554.544ZM940.428 624.522L892.281 715.963L904.05 718.028L952.197 626.587L940.428 624.522ZM892.272 715.979C891.094 718.255 888.95 720.313 886.077 721.997L894.844 726.979C899.081 724.494 902.287 721.433 904.058 718.012L892.272 715.979Z" fill="url(#paint2_linear_2_730)" mask="url(#path-3-outside-1_2_730)"/>
</g>
<g filter="url(#filter2_d_2_730)">
<path d="M191.779 389.651L203.335 382.979C401.09 268.816 730.298 287.559 885.612 421.824L848.911 489.888C842.845 501.138 830.795 511 814.472 518.073L609.915 548.907C594.832 551.181 578.938 550.925 564.097 548.171L365.865 511.378L191.779 389.651Z" fill="#27F171"/>
</g>
<g filter="url(#filter3_b_2_730)">
<path d="M838.635 522.284L838.628 522.288C834.921 524.428 830.358 526.08 825.268 527.015L667.161 556.052L666.812 555.419L667.161 556.052C622.178 564.301 581.725 567.751 543.479 566.616C459.889 564.154 381.426 544.341 322.573 510.77C322.573 510.77 322.573 510.77 322.573 510.77L129.485 400.713C129.482 400.711 129.479 400.71 129.476 400.708C109.105 389.566 100.998 370.406 99.6525 352.077C98.3062 333.736 103.715 315.987 110.777 307.518C110.805 307.485 110.837 307.453 110.874 307.423L239.982 201.852C247.407 192.839 260.192 185.402 275.866 180.928L838.635 522.284ZM838.635 522.284C842.317 520.125 845.091 517.472 846.621 514.516C846.622 514.516 846.622 514.516 846.622 514.516L894.768 423.078C894.768 423.078 894.768 423.078 894.768 423.078C908.475 397.124 923.348 357.687 915.812 310.572C913.123 286.434 901.834 273.328 883.777 262.074C874.836 256.502 864.248 251.392 852.317 245.633L852.126 245.541C840.103 239.738 826.683 233.255 812.073 224.929L618.826 114.781M838.635 522.284L618.826 114.781M618.826 114.781L618.826 114.78C596.231 101.873 561.424 98.8332 532.325 107.226L618.826 114.781ZM532.323 107.226L275.869 180.927L532.323 107.226Z" fill="white" fill-opacity="0.5" stroke="url(#paint3_linear_2_730)" stroke-width="1.88021" stroke-linecap="round" stroke-linejoin="round"/>
</g>
<g filter="url(#filter4_b_2_730)">
<mask id="path-7-outside-2_2_730" maskUnits="userSpaceOnUse" x="0.623826" y="-5.99671" width="1090.35" height="629.459" fill="black">
<rect fill="white" x="0.623826" y="-5.99671" width="1090.35" height="629.459"/>
<path d="M837.815 474.42C834.232 476.489 829.826 478.083 824.92 478.984L666.813 508.021C621.933 516.252 581.619 519.685 543.539 518.555C460.227 516.101 382.032 496.354 323.383 462.9L130.278 352.833C107.987 340.132 102.413 320.4 116.31 303.734L240.98 154.791C248.287 145.892 260.902 138.543 276.381 134.126L532.839 60.4233C561.512 52.1534 595.784 55.1547 618.018 67.8558L811.265 178.005C869.857 211.393 905.048 256.228 910.391 304.25C912.836 326.28 907.349 349.582 893.667 375.487L845.52 466.928C844.045 469.776 841.37 472.336 837.815 474.42Z"/>
</mask>
<path d="M837.815 474.42C834.232 476.489 829.826 478.083 824.92 478.984L666.813 508.021C621.933 516.252 581.619 519.685 543.539 518.555C460.227 516.101 382.032 496.354 323.383 462.9L130.278 352.833C107.987 340.132 102.413 320.4 116.31 303.734L240.98 154.791C248.287 145.892 260.902 138.543 276.381 134.126L532.839 60.4233C561.512 52.1534 595.784 55.1547 618.018 67.8558L811.265 178.005C869.857 211.393 905.048 256.228 910.391 304.25C912.836 326.28 907.349 349.582 893.667 375.487L845.52 466.928C844.045 469.776 841.37 472.336 837.815 474.42Z" fill="white" fill-opacity="0.5"/>
<path d="M842.164 476.931C844.566 475.545 844.566 473.296 842.164 471.91C839.762 470.523 835.868 470.523 833.466 471.91L842.164 476.931ZM824.92 478.984L823.056 475.6L823.055 475.6L824.92 478.984ZM666.813 508.021L668.675 511.406L668.678 511.405L666.813 508.021ZM543.539 518.555L543.854 515.009L543.852 515.009L543.539 518.555ZM323.383 462.9L327.706 460.374L327.704 460.373L323.383 462.9ZM130.278 352.833L134.599 350.306L134.598 350.306L130.278 352.833ZM116.31 303.734L110.772 302.189L110.768 302.194L116.31 303.734ZM240.98 154.791L246.518 156.336C246.525 156.328 246.532 156.32 246.538 156.312L240.98 154.791ZM276.381 134.126L279.106 137.309L279.121 137.304L276.381 134.126ZM532.839 60.4233L535.58 63.6018L535.588 63.5996L532.839 60.4233ZM618.018 67.8558L613.692 70.3797L613.696 70.3824L618.018 67.8558ZM811.265 178.005L806.943 180.531L806.944 180.532L811.265 178.005ZM910.391 304.25L916.529 304.023L916.529 304.022L910.391 304.25ZM893.667 375.487L887.784 374.452L887.783 374.455L893.667 375.487ZM845.52 466.928L839.635 465.895C839.632 465.901 839.63 465.906 839.627 465.911L845.52 466.928ZM833.432 471.93C831.049 473.327 831.08 475.575 833.501 476.951C835.921 478.327 839.816 478.309 842.198 476.911L833.432 471.93ZM833.466 471.91C830.544 473.597 826.979 474.88 823.056 475.6L826.784 482.367C832.674 481.286 837.92 479.381 842.164 476.931L833.466 471.91ZM823.055 475.6L664.949 504.638L668.678 511.405L826.784 482.367L823.055 475.6ZM664.951 504.637C620.618 512.767 581.05 516.113 543.854 515.009L543.223 522.101C582.188 523.257 623.248 519.736 668.675 511.406L664.951 504.637ZM543.852 515.009C462.026 512.599 385.265 493.207 327.706 460.374L319.06 465.426C378.799 499.501 458.427 519.604 543.225 522.101L543.852 515.009ZM327.704 460.373L134.599 350.306L125.957 355.359L319.062 465.426L327.704 460.373ZM134.598 350.306C114.243 338.708 109.054 320.621 121.851 305.274L110.768 302.194C95.7717 320.178 101.73 341.556 125.958 355.36L134.598 350.306ZM121.847 305.279L246.518 156.336L235.443 153.247L110.772 302.189L121.847 305.279ZM246.538 156.312C253.241 148.148 264.846 141.379 279.106 137.309L273.655 130.943C256.959 135.708 243.333 143.635 235.423 153.271L246.538 156.312ZM279.121 137.304L535.58 63.6018L530.098 57.2447L273.64 130.947L279.121 137.304ZM535.588 63.5996C561.978 55.988 593.389 58.782 613.692 70.3797L622.344 65.3319C598.178 51.5275 561.045 48.3189 530.09 57.247L535.588 63.5996ZM613.696 70.3824L806.943 180.531L815.586 175.478L622.339 65.3292L613.696 70.3824ZM806.944 180.532C864.447 213.299 899.006 257.313 904.254 304.477L916.529 304.022C911.09 255.144 875.267 209.487 815.585 175.478L806.944 180.532ZM904.254 304.477C906.642 325.995 901.298 348.864 887.784 374.452L899.55 376.523C913.399 350.3 919.031 326.564 916.529 304.023L904.254 304.477ZM887.783 374.455L839.635 465.895L851.404 467.961L899.552 376.52L887.783 374.455ZM839.627 465.911C838.448 468.188 836.304 470.245 833.432 471.93L842.198 476.911C846.436 474.426 849.642 471.365 851.413 467.945L839.627 465.911Z" fill="url(#paint4_linear_2_730)" mask="url(#path-7-outside-2_2_730)"/>
</g>
<g filter="url(#filter5_i_2_730)">
<path d="M466.753 349.458L466.753 349.457C466.854 340.249 479.883 332.633 495.839 332.449L572.996 331.568L574.174 331.555L574.182 330.875L575.53 220.748C575.659 211.521 588.691 203.906 604.614 203.738C620.577 203.57 633.386 210.875 633.232 220.033L633.232 220.035L631.686 347.555L631.686 347.555C631.635 352.173 628.358 356.362 623.083 359.439C617.804 362.517 610.599 364.471 602.6 364.564C602.6 364.564 602.6 364.564 602.6 364.564L495.344 365.771C495.343 365.771 495.343 365.771 495.342 365.771C479.409 365.923 466.625 358.635 466.753 349.458Z" fill="#26F172" stroke="url(#paint5_linear_2_730)" stroke-width="1.97579"/>
</g>
<defs>
<filter id="filter0_bd_2_730" x="0.526871" y="306.802" width="1121.53" height="849.194" filterUnits="userSpaceOnUse" color-interpolation-filters="sRGB">
<feFlood flood-opacity="0" result="BackgroundImageFix"/>
<feGaussianBlur in="BackgroundImageFix" stdDeviation="22.5625"/>
<feComposite in2="SourceAlpha" operator="in" result="effect1_backgroundBlur_2_730"/>
<feColorMatrix in="SourceAlpha" type="matrix" values="0 0 0 0 0 0 0 0 0 0 0 0 0 0 0 0 0 0 127 0" result="hardAlpha"/>
<feOffset dy="188.021"/>
<feGaussianBlur stdDeviation="75.2084"/>
<feComposite in2="hardAlpha" operator="out"/>
<feColorMatrix type="matrix" values="0 0 0 0 0.343982 0 0 0 0 1 0 0 0 0 0.448945 0 0 0 0.5 0"/>
<feBlend mode="normal" in2="effect1_backgroundBlur_2_730" result="effect2_dropShadow_2_730"/>
<feBlend mode="normal" in="SourceGraphic" in2="effect2_dropShadow_2_730" result="shape"/>
</filter>
<filter id="filter1_b_2_730" x="110.112" y="257.184" width="904.765" height="560.323" filterUnits="userSpaceOnUse" color-interpolation-filters="sRGB">
<feFlood flood-opacity="0" result="BackgroundImageFix"/>
<feGaussianBlur in="BackgroundImageFix" stdDeviation="22.5625"/>
<feComposite in2="SourceAlpha" operator="in" result="effect1_backgroundBlur_2_730"/>
<feBlend mode="normal" in="SourceGraphic" in2="effect1_backgroundBlur_2_730" result="shape"/>
</filter>
<filter id="filter2_d_2_730" x="118.127" y="291.254" width="841.137" height="389.754" filterUnits="userSpaceOnUse" color-interpolation-filters="sRGB">
<feFlood flood-opacity="0" result="BackgroundImageFix"/>
<feColorMatrix in="SourceAlpha" type="matrix" values="0 0 0 0 0 0 0 0 0 0 0 0 0 0 0 0 0 0 127 0" result="hardAlpha"/>
<feOffset dy="56.9127"/>
<feGaussianBlur stdDeviation="36.8259"/>
<feComposite in2="hardAlpha" operator="out"/>
<feColorMatrix type="matrix" values="0 0 0 0 0 0 0 0 0 0.824769 0 0 0 0 0.300654 0 0 0 1 0"/>
<feBlend mode="normal" in2="BackgroundImageFix" result="effect1_dropShadow_2_730"/>
<feBlend mode="normal" in="SourceGraphic" in2="effect1_dropShadow_2_730" result="shape"/>
</filter>
<filter id="filter3_b_2_730" x="64.8166" y="68.3818" width="887.656" height="532.587" filterUnits="userSpaceOnUse" color-interpolation-filters="sRGB">
<feFlood flood-opacity="0" result="BackgroundImageFix"/>
<feGaussianBlur in="BackgroundImageFix" stdDeviation="16.739"/>
<feComposite in2="SourceAlpha" operator="in" result="effect1_backgroundBlur_2_730"/>
<feBlend mode="normal" in="SourceGraphic" in2="effect1_backgroundBlur_2_730" result="shape"/>
</filter>
<filter id="filter4_b_2_730" x="35.6351" y="-14.7145" width="948.427" height="603.986" filterUnits="userSpaceOnUse" color-interpolation-filters="sRGB">
<feFlood flood-opacity="0" result="BackgroundImageFix"/>
<feGaussianBlur in="BackgroundImageFix" stdDeviation="33.4781"/>
<feComposite in2="SourceAlpha" operator="in" result="effect1_backgroundBlur_2_730"/>
<feBlend mode="normal" in="SourceGraphic" in2="effect1_backgroundBlur_2_730" result="shape"/>
</filter>
<filter id="filter5_i_2_730" x="465.542" y="203.037" width="168.902" height="167.222" filterUnits="userSpaceOnUse" color-interpolation-filters="sRGB">
<feFlood flood-opacity="0" result="BackgroundImageFix"/>
<feBlend mode="normal" in="SourceGraphic" in2="BackgroundImageFix" result="shape"/>
<feColorMatrix in="SourceAlpha" type="matrix" values="0 0 0 0 0 0 0 0 0 0 0 0 0 0 0 0 0 0 127 0" result="hardAlpha"/>
<feOffset dy="8.80474"/>
<feGaussianBlur stdDeviation="1.89372"/>
<feComposite in2="hardAlpha" operator="arithmetic" k2="-1" k3="1"/>
<feColorMatrix type="matrix" values="0 0 0 0 1 0 0 0 0 1 0 0 0 0 1 0 0 0 1 0"/>
<feBlend mode="normal" in2="shape" result="effect1_innerShadow_2_730"/>
</filter>
<linearGradient id="paint0_linear_2_730" x1="209.932" y1="574.803" x2="985.17" y2="614.887" gradientUnits="userSpaceOnUse">
<stop stop-color="white" stop-opacity="0.25"/>
<stop offset="1" stop-color="white" stop-opacity="0"/>
</linearGradient>
<linearGradient id="paint1_linear_2_730" x1="309.621" y1="392.06" x2="598.751" y2="892.892" gradientUnits="userSpaceOnUse">
<stop stop-color="#24EF7F"/>
<stop offset="1" stop-color="#26F16D"/>
</linearGradient>
<linearGradient id="paint2_linear_2_730" x1="561.715" y1="500.497" x2="586.195" y2="793.644" gradientUnits="userSpaceOnUse">
<stop stop-color="white" stop-opacity="0.43"/>
<stop offset="0.846595" stop-color="white"/>
<stop offset="1" stop-color="white" stop-opacity="0"/>
</linearGradient>
<linearGradient id="paint3_linear_2_730" x1="157.283" y1="324.735" x2="932.521" y2="364.819" gradientUnits="userSpaceOnUse">
<stop stop-color="white" stop-opacity="0.25"/>
<stop offset="1" stop-color="white" stop-opacity="0"/>
</linearGradient>
<linearGradient id="paint4_linear_2_730" x1="648.758" y1="535.649" x2="697.06" y2="130.715" gradientUnits="userSpaceOnUse">
<stop stop-color="white" stop-opacity="0.79"/>
<stop offset="1" stop-color="white" stop-opacity="0"/>
</linearGradient>
<linearGradient id="paint5_linear_2_730" x1="446.922" y1="307.472" x2="654.062" y2="401.188" gradientUnits="userSpaceOnUse">
<stop stop-color="white" stop-opacity="0.25"/>
<stop offset="1" stop-color="white" stop-opacity="0"/>
</linearGradient>
</defs>
</svg>
