<svg width="147" height="147" viewBox="0 0 147 147" fill="none" xmlns="http://www.w3.org/2000/svg">
<path d="M75.4437 97.9177C82.3724 95.3018 109.526 82.2674 110.728 38.3219C110.779 36.4497 109.802 34.6803 108.212 33.6909C87.1716 20.5991 60.5204 20.5991 39.4801 33.6909C37.8899 34.6803 36.913 36.4497 36.9642 38.3219C38.166 82.2675 65.3196 95.3018 72.2482 97.9177C73.2827 98.3083 74.4093 98.3083 75.4437 97.9177Z" fill="url(#paint0_linear_26_199)"/>
<g filter="url(#filter0_b_26_199)">
<path d="M37.2082 49.0831L33.8699 50.9907C31.9525 52.0863 30.7552 54.1541 30.828 56.3612C32.4 104 65.0437 117.558 72.3876 120.01C73.3535 120.333 74.3385 120.333 75.3044 120.01C82.6483 117.558 115.292 104 116.864 56.3612C116.937 54.1541 115.739 52.0863 113.822 50.9907L110.484 49.0831C87.7811 36.1102 59.9108 36.1102 37.2082 49.0831Z" fill="#6AE092" fill-opacity="0.6"/>
<path d="M34.0217 51.2563L37.36 49.3487C59.9685 36.4296 87.7234 36.4295 110.332 49.3487L113.67 51.2563C115.493 52.2978 116.627 54.2615 116.558 56.3511C115.775 80.0942 107.252 95.3217 98.028 104.919C88.7984 114.522 78.8512 118.503 75.2074 119.72C74.3045 120.022 73.3875 120.022 72.4845 119.72C68.8407 118.503 58.8935 114.522 49.6639 104.919C40.4403 95.3217 31.9172 80.0942 31.1338 56.3511C31.0648 54.2615 32.1992 52.2978 34.0217 51.2563Z" stroke="url(#paint1_linear_26_199)" stroke-width="0.611895"/>
</g>
<path d="M70.5958 83.3314C70.6417 83.3773 70.704 83.4031 70.7689 83.4031C70.8338 83.4031 70.896 83.3773 70.9419 83.3314L89.2168 65.0566C90.9236 63.3497 93.6909 63.3497 95.3977 65.0566C97.1046 66.7634 97.1046 69.5307 95.3977 71.2375L73.8594 92.7759C73.0397 93.5955 71.928 94.056 70.7689 94.056C69.6097 94.056 68.498 93.5955 67.6784 92.7759L55.3707 80.4683C53.6639 78.7614 53.6639 75.9941 55.3708 74.2873C57.0776 72.5805 59.8449 72.5805 61.5517 74.2873L70.5958 83.3314Z" fill="url(#paint2_linear_26_199)" fill-opacity="0.9" stroke="url(#paint3_linear_26_199)" stroke-width="0.489516" stroke-linecap="round" stroke-linejoin="round"/>
<defs>
<filter id="filter0_b_26_199" x="18.5172" y="27.0458" width="110.658" height="105.514" filterUnits="userSpaceOnUse" color-interpolation-filters="sRGB">
<feFlood flood-opacity="0" result="BackgroundImageFix"/>
<feGaussianBlur in="BackgroundImageFix" stdDeviation="6.15382"/>
<feComposite in2="SourceAlpha" operator="in" result="effect1_backgroundBlur_26_199"/>
<feBlend mode="normal" in="SourceGraphic" in2="effect1_backgroundBlur_26_199" result="shape"/>
</filter>
<linearGradient id="paint0_linear_26_199" x1="53.3466" y1="42.9214" x2="133.59" y2="103.314" gradientUnits="userSpaceOnUse">
<stop stop-color="#75EDA1"/>
<stop offset="1" stop-color="#349256"/>
</linearGradient>
<linearGradient id="paint1_linear_26_199" x1="32.4306" y1="47.7279" x2="139.236" y2="126.491" gradientUnits="userSpaceOnUse">
<stop stop-color="white"/>
<stop offset="0.734375" stop-color="white" stop-opacity="0"/>
</linearGradient>
<linearGradient id="paint2_linear_26_199" x1="60.5776" y1="75.2632" x2="127.886" y2="83.2178" gradientUnits="userSpaceOnUse">
<stop stop-color="white"/>
<stop offset="1" stop-color="white" stop-opacity="0"/>
</linearGradient>
<linearGradient id="paint3_linear_26_199" x1="55.0706" y1="67.9204" x2="82.6059" y2="77.0988" gradientUnits="userSpaceOnUse">
<stop stop-color="white"/>
<stop offset="1" stop-color="white" stop-opacity="0"/>
</linearGradient>
</defs>
</svg>
