<svg width="86" height="74" viewBox="0 0 86 74" fill="none" xmlns="http://www.w3.org/2000/svg">
<g opacity="0.2" filter="url(#filter0_f_102_3)">
<ellipse cx="38.4589" cy="49.8197" rx="24.0321" ry="10.2194" fill="#65B8E5"/>
</g>
<g filter="url(#filter1_d_102_3)">
<path d="M48.4382 17.5135C48.9026 16.6021 50.0276 16.2296 50.8645 16.8177C52.3245 17.8436 53.5651 19.1609 54.5043 20.6934C55.7673 22.7544 56.4357 25.1246 56.4357 27.5419C56.4357 29.9592 55.7673 32.3294 54.5043 34.3905C53.5651 35.923 52.3245 37.2402 50.8645 38.2661C50.0276 38.8543 48.9026 38.4818 48.4382 37.5703C47.9738 36.6589 48.3515 35.5564 49.1544 34.9226C50.0209 34.2387 50.764 33.4044 51.3458 32.455C52.2519 30.9764 52.7315 29.276 52.7315 27.5419C52.7315 25.8078 52.2519 24.1074 51.3458 22.6289C50.764 21.6794 50.0209 20.8452 49.1544 20.1612C48.3515 19.5274 47.9738 18.4249 48.4382 17.5135Z" fill="url(#paint0_linear_102_3)"/>
</g>
<g filter="url(#filter2_d_102_3)">
<path d="M55.6669 12.5567C56.3608 11.1948 58.0419 10.6382 59.2925 11.517C61.4741 13.05 63.3279 15.0183 64.7312 17.3083C66.6186 20.3881 67.6174 23.9298 67.6174 27.5419C67.6174 31.154 66.6186 34.6957 64.7312 37.7755C63.3279 40.0655 61.4741 42.0338 59.2925 43.5669C58.0419 44.4457 56.3608 43.8891 55.6669 42.5272C54.9729 41.1652 55.5374 39.5178 56.7371 38.5707C58.0319 37.5487 59.1423 36.3021 60.0117 34.8834C61.3656 32.674 62.0822 30.1332 62.0822 27.5419C62.0822 24.9507 61.3656 22.4099 60.0117 20.2005C59.1423 18.7817 58.0319 17.5352 56.7371 16.5131C55.5374 15.5661 54.9729 13.9186 55.6669 12.5567Z" fill="url(#paint1_linear_102_3)"/>
</g>
<g filter="url(#filter3_d_102_3)">
<path d="M41.7004 20.5445C42.0244 19.9085 42.8095 19.6486 43.3934 20.059C44.4121 20.7748 45.2778 21.6939 45.9331 22.7633C46.8144 24.2014 47.2808 25.8552 47.2808 27.5419C47.2808 29.2286 46.8144 30.8824 45.9331 32.3206C45.2778 33.3899 44.4121 34.309 43.3934 35.0249C42.8095 35.4353 42.0244 35.1753 41.7004 34.5394C41.3764 33.9034 41.6399 33.1341 42.2002 32.6919C42.8048 32.2147 43.3233 31.6326 43.7293 30.9701C44.3615 29.9384 44.6961 28.7519 44.6961 27.5419C44.6961 26.3319 44.3615 25.1455 43.7293 24.1138C43.3233 23.4513 42.8048 22.8692 42.2002 22.3919C41.6399 21.9497 41.3764 21.1804 41.7004 20.5445Z" fill="url(#paint2_linear_102_3)"/>
</g>
<g filter="url(#filter4_bi_102_3)">
<rect x="7.66309" y="14.3847" width="22.9625" height="26.3146" rx="10" fill="#FBFFFE" fill-opacity="0.3"/>
<path d="M20.7412 15.8984C20.7412 15.1043 21.211 14.3854 21.9384 14.0666L47.7399 2.75844C49.0614 2.17925 50.5428 3.14737 50.5428 4.59023V50.4878C50.5428 51.9322 49.0586 52.9003 47.7367 52.3181L21.9351 40.9552C21.2095 40.6357 20.7412 39.9177 20.7412 39.1249V15.8984Z" fill="#FBFFFE" fill-opacity="0.3"/>
</g>
<defs>
<filter id="filter0_f_102_3" x="0.985905" y="26.1594" width="74.9462" height="47.3206" filterUnits="userSpaceOnUse" color-interpolation-filters="sRGB">
<feFlood flood-opacity="0" result="BackgroundImageFix"/>
<feBlend mode="normal" in="SourceGraphic" in2="BackgroundImageFix" result="shape"/>
<feGaussianBlur stdDeviation="6.72043" result="effect1_foregroundBlur_102_3"/>
</filter>
<filter id="filter1_d_102_3" x="34.7166" y="1.521" width="44.1992" height="58.0156" filterUnits="userSpaceOnUse" color-interpolation-filters="sRGB">
<feFlood flood-opacity="0" result="BackgroundImageFix"/>
<feColorMatrix in="SourceAlpha" type="matrix" values="0 0 0 0 0 0 0 0 0 0 0 0 0 0 0 0 0 0 127 0" result="hardAlpha"/>
<feOffset dx="4.48028" dy="2.98686"/>
<feGaussianBlur stdDeviation="9"/>
<feComposite in2="hardAlpha" operator="out"/>
<feColorMatrix type="matrix" values="0 0 0 0 0.392157 0 0 0 0 0.713726 0 0 0 0 0.894118 0 0 0 0.2 0"/>
<feBlend mode="normal" in2="BackgroundImageFix" result="effect1_dropShadow_102_3"/>
<feBlend mode="normal" in="SourceGraphic" in2="effect1_dropShadow_102_3" result="shape"/>
</filter>
<filter id="filter2_d_102_3" x="46.4047" y="0.63928" width="39.1337" height="59.779" filterUnits="userSpaceOnUse" color-interpolation-filters="sRGB">
<feFlood flood-opacity="0" result="BackgroundImageFix"/>
<feColorMatrix in="SourceAlpha" type="matrix" values="0 0 0 0 0 0 0 0 0 0 0 0 0 0 0 0 0 0 127 0" result="hardAlpha"/>
<feOffset dx="4.48028" dy="2.98686"/>
<feGaussianBlur stdDeviation="6.72043"/>
<feComposite in2="hardAlpha" operator="out"/>
<feColorMatrix type="matrix" values="0 0 0 0 0.517647 0 0 0 0 0.833569 0 0 0 0 0.933333 0 0 0 0.2 0"/>
<feBlend mode="normal" in2="BackgroundImageFix" result="effect1_dropShadow_102_3"/>
<feBlend mode="normal" in="SourceGraphic" in2="effect1_dropShadow_102_3" result="shape"/>
</filter>
<filter id="filter3_d_102_3" x="32.599" y="9.40711" width="32.6034" height="42.2433" filterUnits="userSpaceOnUse" color-interpolation-filters="sRGB">
<feFlood flood-opacity="0" result="BackgroundImageFix"/>
<feColorMatrix in="SourceAlpha" type="matrix" values="0 0 0 0 0 0 0 0 0 0 0 0 0 0 0 0 0 0 127 0" result="hardAlpha"/>
<feOffset dx="4.48028" dy="2.98686"/>
<feGaussianBlur stdDeviation="6.72043"/>
<feComposite in2="hardAlpha" operator="out"/>
<feColorMatrix type="matrix" values="0 0 0 0 0.933333 0 0 0 0 0.517647 0 0 0 0 0.517647 0 0 0 0.2 0"/>
<feBlend mode="normal" in2="BackgroundImageFix" result="effect1_dropShadow_102_3"/>
<feBlend mode="normal" in="SourceGraphic" in2="effect1_dropShadow_102_3" result="shape"/>
</filter>
<filter id="filter4_bi_102_3" x="2.66309" y="-2.41198" width="52.8799" height="59.902" filterUnits="userSpaceOnUse" color-interpolation-filters="sRGB">
<feFlood flood-opacity="0" result="BackgroundImageFix"/>
<feGaussianBlur in="BackgroundImageFix" stdDeviation="2.5"/>
<feComposite in2="SourceAlpha" operator="in" result="effect1_backgroundBlur_102_3"/>
<feBlend mode="normal" in="SourceGraphic" in2="effect1_backgroundBlur_102_3" result="shape"/>
<feColorMatrix in="SourceAlpha" type="matrix" values="0 0 0 0 0 0 0 0 0 0 0 0 0 0 0 0 0 0 127 0" result="hardAlpha"/>
<feOffset dx="2"/>
<feGaussianBlur stdDeviation="6"/>
<feComposite in2="hardAlpha" operator="arithmetic" k2="-1" k3="1"/>
<feColorMatrix type="matrix" values="0 0 0 0 0.396078 0 0 0 0 0.721569 0 0 0 0 0.894118 0 0 0 0.45 0"/>
<feBlend mode="normal" in2="shape" result="effect2_innerShadow_102_3"/>
</filter>
<linearGradient id="paint0_linear_102_3" x1="30.2211" y1="30.422" x2="65.8784" y2="9.08185" gradientUnits="userSpaceOnUse">
<stop stop-color="#92EAEF"/>
<stop offset="1" stop-color="#4392DC"/>
</linearGradient>
<linearGradient id="paint1_linear_102_3" x1="28.4456" y1="31.8455" x2="81.7274" y2="-0.0425109" gradientUnits="userSpaceOnUse">
<stop stop-color="#92EAEF"/>
<stop offset="1" stop-color="#4392DC"/>
</linearGradient>
<linearGradient id="paint2_linear_102_3" x1="28.9892" y1="29.5515" x2="53.8696" y2="14.6612" gradientUnits="userSpaceOnUse">
<stop stop-color="#92EAEF"/>
<stop offset="1" stop-color="#4392DC"/>
</linearGradient>
</defs>
</svg>
