<svg width="240" height="240" viewBox="0 0 240 240" fill="none" xmlns="http://www.w3.org/2000/svg">
<g filter="url(#filter0_di_9_18)">
<path d="M190 210H130C118.954 210 110 201.046 110 190V79.6125C110 73.5368 112.762 67.7906 117.506 63.9951L147.506 39.9951C154.81 34.1516 165.19 34.1516 172.494 39.9951L202.494 63.9951C207.238 67.7906 210 73.5368 210 79.6125V190C210 201.046 201.046 210 190 210Z" fill="url(#paint0_linear_9_18)"/>
</g>
<mask id="mask0_9_18" style="mask-type:alpha" maskUnits="userSpaceOnUse" x="110" y="35" width="100" height="175">
<path d="M190 210H130C118.954 210 110 201.046 110 190V79.6125C110 73.5368 112.762 67.7906 117.506 63.9951L147.506 39.9951C154.81 34.1516 165.19 34.1516 172.494 39.9951L202.494 63.9951C207.238 67.7906 210 73.5368 210 79.6125V190C210 201.046 201.046 210 190 210Z" fill="url(#paint1_linear_9_18)"/>
</mask>
<g mask="url(#mask0_9_18)">
<g filter="url(#filter1_d_9_18)">
<path fill-rule="evenodd" clip-rule="evenodd" d="M23.4484 135.368L65.8748 177.795C73.6853 185.605 86.3486 185.605 94.1591 177.795L172.215 99.7391C176.511 95.4429 178.621 89.4268 177.95 83.3883L173.708 45.2046C172.675 35.9076 165.336 28.5685 156.039 27.5355L117.855 23.2929C111.816 22.6219 105.8 24.7323 101.504 29.0284L23.4484 107.084C15.638 114.895 15.638 127.558 23.4484 135.368ZM150 60C155.523 60 160 55.5228 160 50C160 44.4771 155.523 40 150 40C144.477 40 140 44.4771 140 50C140 55.5228 144.477 60 150 60Z" fill="url(#paint2_linear_9_18)"/>
</g>
</g>
<g filter="url(#filter2_bii_9_18)">
<path fill-rule="evenodd" clip-rule="evenodd" d="M23.4484 135.368L65.8748 177.795C73.6853 185.605 86.3486 185.605 94.1591 177.795L172.215 99.7391C176.511 95.4429 178.621 89.4268 177.95 83.3883L173.708 45.2046C172.675 35.9076 165.336 28.5685 156.039 27.5355L117.855 23.2929C111.816 22.6219 105.8 24.7323 101.504 29.0284L23.4484 107.084C15.638 114.895 15.638 127.558 23.4484 135.368ZM150 60C155.523 60 160 55.5228 160 50C160 44.4771 155.523 40 150 40C144.477 40 140 44.4771 140 50C140 55.5228 144.477 60 150 60Z" fill="url(#paint3_linear_9_18)" fill-opacity="0.1"/>
</g>
<g opacity="0.5" filter="url(#filter3_b_9_18)">
<rect x="35" y="124.569" width="80" height="20" rx="10" transform="rotate(-45 35 124.569)" fill="white"/>
</g>
<g opacity="0.5" filter="url(#filter4_b_9_18)">
<rect x="63" y="149.083" width="35.4733" height="20" rx="10" transform="rotate(-45 63 149.083)" fill="white"/>
</g>
<defs>
<filter id="filter0_di_9_18" x="100" y="29.6125" width="128" height="198.387" filterUnits="userSpaceOnUse" color-interpolation-filters="sRGB">
<feFlood flood-opacity="0" result="BackgroundImageFix"/>
<feColorMatrix in="SourceAlpha" type="matrix" values="0 0 0 0 0 0 0 0 0 0 0 0 0 0 0 0 0 0 127 0" result="hardAlpha"/>
<feOffset dx="6" dy="6"/>
<feGaussianBlur stdDeviation="6"/>
<feColorMatrix type="matrix" values="0 0 0 0 0.941176 0 0 0 0 0.733333 0 0 0 0 0.470588 0 0 0 0.2 0"/>
<feBlend mode="normal" in2="BackgroundImageFix" result="effect1_dropShadow_9_18"/>
<feBlend mode="normal" in="SourceGraphic" in2="effect1_dropShadow_9_18" result="shape"/>
<feColorMatrix in="SourceAlpha" type="matrix" values="0 0 0 0 0 0 0 0 0 0 0 0 0 0 0 0 0 0 127 0" result="hardAlpha"/>
<feOffset dx="-10" dy="10"/>
<feGaussianBlur stdDeviation="10"/>
<feComposite in2="hardAlpha" operator="arithmetic" k2="-1" k3="1"/>
<feColorMatrix type="matrix" values="0 0 0 0 1 0 0 0 0 1 0 0 0 0 1 0 0 0 0.24 0"/>
<feBlend mode="normal" in2="shape" result="effect2_innerShadow_9_18"/>
</filter>
<filter id="filter1_d_9_18" x="10.5906" y="16.1704" width="184.482" height="184.482" filterUnits="userSpaceOnUse" color-interpolation-filters="sRGB">
<feFlood flood-opacity="0" result="BackgroundImageFix"/>
<feColorMatrix in="SourceAlpha" type="matrix" values="0 0 0 0 0 0 0 0 0 0 0 0 0 0 0 0 0 0 127 0" result="hardAlpha"/>
<feOffset dx="5" dy="5"/>
<feGaussianBlur stdDeviation="6"/>
<feColorMatrix type="matrix" values="0 0 0 0 0.845833 0 0 0 0 0.548529 0 0 0 0 0.172691 0 0 0 0.5 0"/>
<feBlend mode="normal" in2="BackgroundImageFix" result="effect1_dropShadow_9_18"/>
<feBlend mode="normal" in="SourceGraphic" in2="effect1_dropShadow_9_18" result="shape"/>
</filter>
<filter id="filter2_bii_9_18" x="-2.40942" y="3.17041" width="200.482" height="200.482" filterUnits="userSpaceOnUse" color-interpolation-filters="sRGB">
<feFlood flood-opacity="0" result="BackgroundImageFix"/>
<feGaussianBlur in="BackgroundImageFix" stdDeviation="10"/>
<feComposite in2="SourceAlpha" operator="in" result="effect1_backgroundBlur_9_18"/>
<feBlend mode="normal" in="SourceGraphic" in2="effect1_backgroundBlur_9_18" result="shape"/>
<feColorMatrix in="SourceAlpha" type="matrix" values="0 0 0 0 0 0 0 0 0 0 0 0 0 0 0 0 0 0 127 0" result="hardAlpha"/>
<feOffset dy="10"/>
<feGaussianBlur stdDeviation="5"/>
<feComposite in2="hardAlpha" operator="arithmetic" k2="-1" k3="1"/>
<feColorMatrix type="matrix" values="0 0 0 0 1 0 0 0 0 1 0 0 0 0 1 0 0 0 0.15 0"/>
<feBlend mode="normal" in2="shape" result="effect2_innerShadow_9_18"/>
<feColorMatrix in="SourceAlpha" type="matrix" values="0 0 0 0 0 0 0 0 0 0 0 0 0 0 0 0 0 0 127 0" result="hardAlpha"/>
<feOffset dy="-10"/>
<feGaussianBlur stdDeviation="5"/>
<feComposite in2="hardAlpha" operator="arithmetic" k2="-1" k3="1"/>
<feColorMatrix type="matrix" values="0 0 0 0 0.941176 0 0 0 0 0.733333 0 0 0 0 0.470588 0 0 0 0.15 0"/>
<feBlend mode="normal" in2="effect2_innerShadow_9_18" result="effect3_innerShadow_9_18"/>
</filter>
<filter id="filter3_b_9_18" x="19.1421" y="52.1422" width="102.426" height="102.426" filterUnits="userSpaceOnUse" color-interpolation-filters="sRGB">
<feFlood flood-opacity="0" result="BackgroundImageFix"/>
<feGaussianBlur in="BackgroundImageFix" stdDeviation="10"/>
<feComposite in2="SourceAlpha" operator="in" result="effect1_backgroundBlur_9_18"/>
<feBlend mode="normal" in="SourceGraphic" in2="effect1_backgroundBlur_9_18" result="shape"/>
</filter>
<filter id="filter4_b_9_18" x="47.1421" y="108.142" width="70.9413" height="70.9413" filterUnits="userSpaceOnUse" color-interpolation-filters="sRGB">
<feFlood flood-opacity="0" result="BackgroundImageFix"/>
<feGaussianBlur in="BackgroundImageFix" stdDeviation="10"/>
<feComposite in2="SourceAlpha" operator="in" result="effect1_backgroundBlur_9_18"/>
<feBlend mode="normal" in="SourceGraphic" in2="effect1_backgroundBlur_9_18" result="shape"/>
</filter>
<linearGradient id="paint0_linear_9_18" x1="160" y1="210" x2="160" y2="30" gradientUnits="userSpaceOnUse">
<stop stop-color="#F0BB78"/>
<stop offset="1" stop-color="#FFDBA7"/>
</linearGradient>
<linearGradient id="paint1_linear_9_18" x1="160" y1="210" x2="160" y2="30" gradientUnits="userSpaceOnUse">
<stop stop-color="#F0BB78"/>
<stop offset="1" stop-color="#FFDBA7"/>
</linearGradient>
<linearGradient id="paint2_linear_9_18" x1="97.8317" y1="183.653" x2="97.8317" y2="23.1704" gradientUnits="userSpaceOnUse">
<stop stop-color="#F0BB78"/>
<stop offset="1" stop-color="#FFDBA7"/>
</linearGradient>
<linearGradient id="paint3_linear_9_18" x1="97.8317" y1="183.653" x2="97.8317" y2="23.1704" gradientUnits="userSpaceOnUse">
<stop stop-color="#F0BB78"/>
<stop offset="1" stop-color="#FFDBA7"/>
</linearGradient>
</defs>
</svg>
