<svg width="448" height="549" viewBox="0 0 448 549" fill="none" xmlns="http://www.w3.org/2000/svg">
<rect width="448" height="549" rx="20" fill="#212121"/>
<circle cx="223.253" cy="275.174" r="69.44" fill="#FF4D00"/>
<g filter="url(#filter0_b_19_26)">
<mask id="path-3-outside-1_19_26" maskUnits="userSpaceOnUse" x="92.0798" y="144" width="262" height="262" fill="black">
<rect fill="white" x="92.0798" y="144" width="262" height="262"/>
<path d="M352.426 275.173C352.426 300.722 344.851 325.696 330.657 346.938C316.463 368.181 296.289 384.737 272.686 394.514C249.082 404.291 223.11 406.849 198.053 401.865C172.996 396.881 149.979 384.578 131.914 366.513C113.849 348.448 101.546 325.431 96.5619 300.374C91.5777 275.317 94.1357 249.344 103.913 225.741C113.689 202.138 130.246 181.963 151.488 167.77C172.731 153.576 197.705 146 223.253 146V275.173H352.426Z"/>
</mask>
<path d="M352.426 275.173C352.426 300.722 344.851 325.696 330.657 346.938C316.463 368.181 296.289 384.737 272.686 394.514C249.082 404.291 223.11 406.849 198.053 401.865C172.996 396.881 149.979 384.578 131.914 366.513C113.849 348.448 101.546 325.431 96.5619 300.374C91.5777 275.317 94.1357 249.344 103.913 225.741C113.689 202.138 130.246 181.963 151.488 167.77C172.731 153.576 197.705 146 223.253 146V275.173H352.426Z" fill="url(#paint0_linear_19_26)"/>
<path d="M352.426 275.173C352.426 300.722 344.851 325.696 330.657 346.938C316.463 368.181 296.289 384.737 272.686 394.514C249.082 404.291 223.11 406.849 198.053 401.865C172.996 396.881 149.979 384.578 131.914 366.513C113.849 348.448 101.546 325.431 96.5619 300.374C91.5777 275.317 94.1357 249.344 103.913 225.741C113.689 202.138 130.246 181.963 151.488 167.77C172.731 153.576 197.705 146 223.253 146V275.173H352.426Z" stroke="url(#paint1_radial_19_26)" stroke-opacity="0.6" stroke-width="2.98667" mask="url(#path-3-outside-1_19_26)"/>
</g>
<path d="M256.686 150.401C255.838 150.174 254.988 149.956 254.136 149.746L248.85 171.213C249.557 171.387 250.261 171.568 250.964 171.756L256.686 150.401Z" fill="#535353"/>
<path d="M287.84 163.306C287.08 162.867 286.315 162.436 285.547 162.013L274.885 181.38C275.522 181.731 276.156 182.088 276.786 182.452L287.84 163.306Z" fill="#535353"/>
<path d="M314.593 183.834C313.972 183.213 313.345 182.599 312.712 181.991L297.401 197.939C297.926 198.443 298.446 198.952 298.96 199.467L314.593 183.834Z" fill="#535353"/>
<path d="M335.121 210.587C334.682 209.827 334.235 209.071 333.781 208.32L314.864 219.762C315.241 220.384 315.611 221.011 315.975 221.641L335.121 210.587Z" fill="#535353"/>
<path d="M348.025 241.741C347.798 240.893 347.562 240.048 347.318 239.205L326.084 245.361C326.287 246.059 326.482 246.76 326.671 247.463L348.025 241.741Z" fill="#535353"/>
<defs>
<filter id="filter0_b_19_26" x="62.7198" y="114.64" width="321.067" height="321.067" filterUnits="userSpaceOnUse" color-interpolation-filters="sRGB">
<feFlood flood-opacity="0" result="BackgroundImageFix"/>
<feGaussianBlur in="BackgroundImageFix" stdDeviation="14.9333"/>
<feComposite in2="SourceAlpha" operator="in" result="effect1_backgroundBlur_19_26"/>
<feBlend mode="normal" in="SourceGraphic" in2="effect1_backgroundBlur_19_26" result="shape"/>
</filter>
<linearGradient id="paint0_linear_19_26" x1="151.034" y1="181.816" x2="313.6" y2="385.68" gradientUnits="userSpaceOnUse">
<stop stop-color="white" stop-opacity="0.45"/>
<stop offset="1" stop-color="white" stop-opacity="0"/>
<stop offset="1" stop-color="white" stop-opacity="0"/>
</linearGradient>
<radialGradient id="paint1_radial_19_26" cx="0" cy="0" r="1" gradientUnits="userSpaceOnUse" gradientTransform="translate(223.253 275.173) rotate(-43.0379) scale(254.654)">
<stop stop-color="white"/>
<stop offset="1" stop-color="white" stop-opacity="0"/>
</radialGradient>
</defs>
</svg>
