<svg width="90" height="90" viewBox="0 0 90 90" fill="none" xmlns="http://www.w3.org/2000/svg">
<g clip-path="url(#clip0_605_4546)">
<path d="M81.6944 38.6701H8.30567C4.16353 38.6701 0.805664 35.3122 0.805664 31.1701V22.2545C0.805664 18.8944 3.04048 15.9444 6.27508 15.0346L18.3324 11.6435C19.7135 11.2551 20.9542 10.4786 21.9074 9.40634L28.031 2.51727C29.4543 0.916109 31.4943 0 33.6366 0H56.3635C58.5058 0 60.5458 0.916108 61.9691 2.51727L68.0927 9.40634C69.0459 10.4786 70.2866 11.2551 71.6677 11.6435L83.725 15.0346C86.9596 15.9444 89.1944 18.8944 89.1944 22.2545V31.1701C89.1944 35.3122 85.8366 38.6701 81.6944 38.6701Z" fill="url(#paint0_linear_605_4546)"/>
<g filter="url(#filter0_bi_605_4546)">
<path d="M15.1916 77.6071L9.43716 44.9984C7.99624 36.8332 7.27578 32.7506 9.52383 30.0711C11.7719 27.3916 15.9176 27.3916 24.2089 27.3916H65.7914C74.0828 27.3916 78.2285 27.3916 80.4765 30.0711C82.7245 32.7506 82.0041 36.8332 80.5632 44.9984L74.8087 77.6071C73.7635 83.5301 73.2408 86.4916 71.1498 88.246C69.0588 90.0003 66.0515 90.0003 60.037 90.0003H29.9634C23.9488 90.0003 20.9416 90.0003 18.8505 88.246C16.7595 86.4916 16.2369 83.5301 15.1916 77.6071Z" fill="#1D1D1D" fill-opacity="0.05"/>
<path d="M15.1916 77.6071L9.43716 44.9984C7.99624 36.8332 7.27578 32.7506 9.52383 30.0711C11.7719 27.3916 15.9176 27.3916 24.2089 27.3916H65.7914C74.0828 27.3916 78.2285 27.3916 80.4765 30.0711C82.7245 32.7506 82.0041 36.8332 80.5632 44.9984L74.8087 77.6071C73.7635 83.5301 73.2408 86.4916 71.1498 88.246C69.0588 90.0003 66.0515 90.0003 60.037 90.0003H29.9634C23.9488 90.0003 20.9416 90.0003 18.8505 88.246C16.7595 86.4916 16.2369 83.5301 15.1916 77.6071Z" fill="url(#paint1_linear_605_4546)" fill-opacity="0.2"/>
<path d="M15.7456 77.5093L9.9911 44.9006C9.26764 40.801 8.7369 37.7857 8.65932 35.4589C8.58226 33.1476 8.95796 31.6207 9.95475 30.4326C10.9515 29.2445 12.3899 28.6092 14.6794 28.2834C16.9843 27.9555 20.046 27.9541 24.2089 27.9541H65.7914C69.9544 27.9541 73.016 27.9555 75.321 28.2834C77.6104 28.6092 79.0488 29.2445 80.0456 30.4326C81.0424 31.6207 81.4181 33.1476 81.341 35.4589C81.2634 37.7857 80.7327 40.801 80.0092 44.9006L74.2548 77.5093C73.7296 80.485 73.3438 82.6656 72.8338 84.3245C72.3283 85.9685 71.7194 87.0339 70.7883 87.8151C69.8572 88.5962 68.7021 89.0108 66.9953 89.2228C65.273 89.4368 63.0586 89.4378 60.037 89.4378H29.9634C26.9418 89.4378 24.7273 89.4368 23.005 89.2228C21.2982 89.0108 20.1432 88.5962 19.2121 87.8151C18.281 87.0339 17.672 85.9685 17.1666 84.3245C16.6565 82.6656 16.2707 80.485 15.7456 77.5093Z" stroke="url(#paint2_linear_605_4546)" stroke-opacity="0.1" stroke-width="1.125"/>
</g>
<g filter="url(#filter1_i_605_4546)">
<path fill-rule="evenodd" clip-rule="evenodd" d="M45.0002 35.908C46.5257 35.908 47.7624 37.1447 47.7624 38.6702V77.3403C47.7624 78.8658 46.5257 80.1024 45.0002 80.1024C43.4747 80.1024 42.2381 78.8658 42.2381 77.3403V38.6702C42.2381 37.1447 43.4747 35.908 45.0002 35.908Z" fill="white" fill-opacity="0.1"/>
<path fill-rule="evenodd" clip-rule="evenodd" d="M67.4883 35.9351C68.9985 36.1508 70.0478 37.5499 69.8321 39.0601L64.3078 77.7302C64.092 79.2404 62.6929 80.2897 61.1827 80.074C59.6726 79.8582 58.6232 78.4591 58.839 76.9489L64.3633 38.2789C64.579 36.7687 65.9781 35.7194 67.4883 35.9351Z" fill="white" fill-opacity="0.1"/>
<path fill-rule="evenodd" clip-rule="evenodd" d="M22.5125 35.9351C21.0023 36.1508 19.953 37.5499 20.1687 39.0601L25.693 77.7302C25.9088 79.2404 27.3079 80.2897 28.8181 80.074C30.3282 79.8582 31.3776 78.4591 31.1618 76.9489L25.6375 38.2789C25.4218 36.7687 24.0227 35.7194 22.5125 35.9351Z" fill="white" fill-opacity="0.1"/>
</g>
</g>
<defs>
<filter id="filter0_bi_605_4546" x="2.08716" y="21.3916" width="85.8262" height="74.6086" filterUnits="userSpaceOnUse" color-interpolation-filters="sRGB">
<feFlood flood-opacity="0" result="BackgroundImageFix"/>
<feGaussianBlur in="BackgroundImageFix" stdDeviation="3"/>
<feComposite in2="SourceAlpha" operator="in" result="effect1_backgroundBlur_605_4546"/>
<feBlend mode="normal" in="SourceGraphic" in2="effect1_backgroundBlur_605_4546" result="shape"/>
<feColorMatrix in="SourceAlpha" type="matrix" values="0 0 0 0 0 0 0 0 0 0 0 0 0 0 0 0 0 0 127 0" result="hardAlpha"/>
<feOffset dy="2"/>
<feGaussianBlur stdDeviation="1.5"/>
<feComposite in2="hardAlpha" operator="arithmetic" k2="-1" k3="1"/>
<feColorMatrix type="matrix" values="0 0 0 0 1 0 0 0 0 1 0 0 0 0 1 0 0 0 0.15 0"/>
<feBlend mode="normal" in2="shape" result="effect2_innerShadow_605_4546"/>
</filter>
<filter id="filter1_i_605_4546" x="20.1406" y="35.907" width="49.7195" height="46.1953" filterUnits="userSpaceOnUse" color-interpolation-filters="sRGB">
<feFlood flood-opacity="0" result="BackgroundImageFix"/>
<feBlend mode="normal" in="SourceGraphic" in2="BackgroundImageFix" result="shape"/>
<feColorMatrix in="SourceAlpha" type="matrix" values="0 0 0 0 0 0 0 0 0 0 0 0 0 0 0 0 0 0 127 0" result="hardAlpha"/>
<feOffset dy="2"/>
<feGaussianBlur stdDeviation="1"/>
<feComposite in2="hardAlpha" operator="arithmetic" k2="-1" k3="1"/>
<feColorMatrix type="matrix" values="0 0 0 0 1 0 0 0 0 1 0 0 0 0 1 0 0 0 0.1 0"/>
<feBlend mode="normal" in2="shape" result="effect1_innerShadow_605_4546"/>
</filter>
<linearGradient id="paint0_linear_605_4546" x1="0.805664" y1="0" x2="83.7114" y2="48.1173" gradientUnits="userSpaceOnUse">
<stop stop-color="#FFA39E"/>
<stop offset="1" stop-color="#F01E33"/>
</linearGradient>
<linearGradient id="paint1_linear_605_4546" x1="6.33008" y1="27.3916" x2="94.6218" y2="55.0855" gradientUnits="userSpaceOnUse">
<stop stop-color="#FFD580"/>
<stop offset="1" stop-color="#FF384C"/>
</linearGradient>
<linearGradient id="paint2_linear_605_4546" x1="8.74696" y1="30.2375" x2="83.6703" y2="30.2375" gradientUnits="userSpaceOnUse">
<stop stop-color="#FFD580"/>
<stop offset="1" stop-color="#E65A53"/>
</linearGradient>
<clipPath id="clip0_605_4546">
<rect width="90" height="90" fill="white"/>
</clipPath>
</defs>
</svg>
