<svg width="187" height="174" viewBox="0 0 187 174" fill="none" xmlns="http://www.w3.org/2000/svg">
<g filter="url(#filter0_i_152_3)">
<path d="M185.479 154.815V161.276C185.479 167.684 178.891 173.649 169.45 173.649H17.0299C7.36788 173.649 1.00695 167.357 1.00696 160.826L1.00708 154.949L185.479 154.815Z" fill="url(#paint0_linear_152_3)"/>
</g>
<g filter="url(#filter1_i_152_3)">
<path d="M80.5574 70.5366C86.9622 64.0729 99.5183 64.0729 105.923 70.5366L182.133 147.449C190.226 155.616 182.725 167.439 169.45 167.439H17.0301C3.75588 167.439 -3.74527 155.616 4.3473 147.449L80.5574 70.5366Z" fill="url(#paint1_radial_152_3)"/>
</g>
<g filter="url(#filter2_f_152_3)">
<path d="M1.0324 154.191C0.480768 160.902 7.1593 167.439 17.03 167.439H169.45C179.321 167.439 186 160.902 185.448 154.191C184.947 160.322 178.557 166.283 169.45 166.283H17.03C7.9234 166.283 1.53393 160.322 1.0324 154.191Z" fill="url(#paint2_linear_152_3)"/>
</g>
<g filter="url(#filter3_bi_152_3)">
<path d="M1.00707 122.589L1.00696 128.098C1.00695 134.629 7.36788 140.921 17.0299 140.921H169.45C178.891 140.921 185.479 134.956 185.479 128.548V122.35C185.404 128.738 178.886 134.712 169.45 134.712H17.0301C7.71249 134.712 1.23935 128.886 1.00707 122.589Z" fill="#E4E8F3" fill-opacity="0.4"/>
<path d="M185.479 122.088V122.128C185.479 122.114 185.479 122.101 185.479 122.088Z" fill="#E4E8F3" fill-opacity="0.4"/>
</g>
<g filter="url(#filter4_bi_152_3)">
<path d="M80.5574 37.8089C86.9622 31.3451 99.5183 31.3451 105.923 37.8089L182.133 114.721C190.226 122.888 182.725 134.712 169.45 134.712H17.0301C3.75588 134.712 -3.74527 122.888 4.3473 114.721L80.5574 37.8089Z" fill="#E4E8F3" fill-opacity="0.4"/>
</g>
<g filter="url(#filter5_f_152_3)">
<path d="M1.0324 121.463C0.480768 128.174 7.1593 134.712 17.03 134.712H169.45C179.321 134.712 186 128.174 185.448 121.463C184.947 127.595 178.557 133.555 169.45 133.555H17.03C7.9234 133.555 1.53393 127.595 1.0324 121.463Z" fill="url(#paint3_linear_152_3)"/>
</g>
<g filter="url(#filter6_bi_152_3)">
<path d="M1.00646 89.6283L1.00635 95.1377C1.00634 101.669 7.36727 107.961 17.0293 107.961H169.45C178.891 107.961 185.479 101.995 185.479 95.5875V89.3891C185.404 95.7773 178.885 101.751 169.45 101.751H17.0294C7.71188 101.751 1.23874 95.9256 1.00646 89.6283Z" fill="#E4E8F3" fill-opacity="0.4"/>
<path d="M185.479 89.1269V89.167C185.478 89.1537 185.479 89.1403 185.479 89.1269Z" fill="#E4E8F3" fill-opacity="0.4"/>
</g>
<g filter="url(#filter7_bi_152_3)">
<path d="M80.5568 4.84784C86.9616 -1.61593 99.5177 -1.61595 105.922 4.84782L182.133 81.7606C190.225 89.9278 182.724 101.751 169.45 101.751H17.0294C3.75527 101.751 -3.74588 89.9278 4.34668 81.7606L80.5568 4.84784Z" fill="#E4E8F3" fill-opacity="0.4"/>
</g>
<g filter="url(#filter8_f_152_3)">
<path d="M1.03179 88.5028C0.480158 95.2134 7.15869 101.751 17.0294 101.751H169.45C179.32 101.751 185.999 95.2134 185.447 88.5028C184.946 94.634 178.556 100.594 169.45 100.594H17.0294C7.92278 100.594 1.53332 94.634 1.03179 88.5028Z" fill="url(#paint4_linear_152_3)"/>
</g>
<defs>
<filter id="filter0_i_152_3" x="1.00696" y="154.315" width="184.472" height="19.3335" filterUnits="userSpaceOnUse" color-interpolation-filters="sRGB">
<feFlood flood-opacity="0" result="BackgroundImageFix"/>
<feBlend mode="normal" in="SourceGraphic" in2="BackgroundImageFix" result="shape"/>
<feColorMatrix in="SourceAlpha" type="matrix" values="0 0 0 0 0 0 0 0 0 0 0 0 0 0 0 0 0 0 127 0" result="hardAlpha"/>
<feOffset dy="-0.5"/>
<feGaussianBlur stdDeviation="0.5"/>
<feComposite in2="hardAlpha" operator="arithmetic" k2="-1" k3="1"/>
<feColorMatrix type="matrix" values="0 0 0 0 0 0 0 0 0 0 0 0 0 0 0 0 0 0 0.15 0"/>
<feBlend mode="darken" in2="shape" result="effect1_innerShadow_152_3"/>
</filter>
<filter id="filter1_i_152_3" x="1.00061" y="65.6888" width="184.479" height="102.25" filterUnits="userSpaceOnUse" color-interpolation-filters="sRGB">
<feFlood flood-opacity="0" result="BackgroundImageFix"/>
<feBlend mode="normal" in="SourceGraphic" in2="BackgroundImageFix" result="shape"/>
<feColorMatrix in="SourceAlpha" type="matrix" values="0 0 0 0 0 0 0 0 0 0 0 0 0 0 0 0 0 0 127 0" result="hardAlpha"/>
<feOffset dy="0.5"/>
<feGaussianBlur stdDeviation="0.5"/>
<feComposite in2="hardAlpha" operator="arithmetic" k2="-1" k3="1"/>
<feColorMatrix type="matrix" values="0 0 0 0 0 0 0 0 0 0 0 0 0 0 0 0 0 0 0.1 0"/>
<feBlend mode="darken" in2="shape" result="effect1_innerShadow_152_3"/>
</filter>
<filter id="filter2_f_152_3" x="0.000610352" y="153.191" width="186.479" height="15.2481" filterUnits="userSpaceOnUse" color-interpolation-filters="sRGB">
<feFlood flood-opacity="0" result="BackgroundImageFix"/>
<feBlend mode="normal" in="SourceGraphic" in2="BackgroundImageFix" result="shape"/>
<feGaussianBlur stdDeviation="0.5" result="effect1_foregroundBlur_152_3"/>
</filter>
<filter id="filter3_bi_152_3" x="-18.993" y="102.088" width="224.472" height="58.8335" filterUnits="userSpaceOnUse" color-interpolation-filters="sRGB">
<feFlood flood-opacity="0" result="BackgroundImageFix"/>
<feGaussianBlur in="BackgroundImageFix" stdDeviation="10"/>
<feComposite in2="SourceAlpha" operator="in" result="effect1_backgroundBlur_152_3"/>
<feBlend mode="normal" in="SourceGraphic" in2="effect1_backgroundBlur_152_3" result="shape"/>
<feColorMatrix in="SourceAlpha" type="matrix" values="0 0 0 0 0 0 0 0 0 0 0 0 0 0 0 0 0 0 127 0" result="hardAlpha"/>
<feOffset dy="-0.5"/>
<feGaussianBlur stdDeviation="0.5"/>
<feComposite in2="hardAlpha" operator="arithmetic" k2="-1" k3="1"/>
<feColorMatrix type="matrix" values="0 0 0 0 0.341176 0 0 0 0 0.352941 0 0 0 0 0.580392 0 0 0 0.25 0"/>
<feBlend mode="darken" in2="shape" result="effect2_innerShadow_152_3"/>
</filter>
<filter id="filter4_bi_152_3" x="-18.9994" y="12.9611" width="224.479" height="141.75" filterUnits="userSpaceOnUse" color-interpolation-filters="sRGB">
<feFlood flood-opacity="0" result="BackgroundImageFix"/>
<feGaussianBlur in="BackgroundImageFix" stdDeviation="10"/>
<feComposite in2="SourceAlpha" operator="in" result="effect1_backgroundBlur_152_3"/>
<feBlend mode="normal" in="SourceGraphic" in2="effect1_backgroundBlur_152_3" result="shape"/>
<feColorMatrix in="SourceAlpha" type="matrix" values="0 0 0 0 0 0 0 0 0 0 0 0 0 0 0 0 0 0 127 0" result="hardAlpha"/>
<feOffset dy="0.5"/>
<feGaussianBlur stdDeviation="0.5"/>
<feComposite in2="hardAlpha" operator="arithmetic" k2="-1" k3="1"/>
<feColorMatrix type="matrix" values="0 0 0 0 0.342674 0 0 0 0 0.352133 0 0 0 0 0.579167 0 0 0 0.1 0"/>
<feBlend mode="darken" in2="shape" result="effect2_innerShadow_152_3"/>
</filter>
<filter id="filter5_f_152_3" x="0.000610352" y="120.463" width="186.479" height="15.2481" filterUnits="userSpaceOnUse" color-interpolation-filters="sRGB">
<feFlood flood-opacity="0" result="BackgroundImageFix"/>
<feBlend mode="normal" in="SourceGraphic" in2="BackgroundImageFix" result="shape"/>
<feGaussianBlur stdDeviation="0.5" result="effect1_foregroundBlur_152_3"/>
</filter>
<filter id="filter6_bi_152_3" x="-18.9937" y="69.1269" width="224.472" height="58.8336" filterUnits="userSpaceOnUse" color-interpolation-filters="sRGB">
<feFlood flood-opacity="0" result="BackgroundImageFix"/>
<feGaussianBlur in="BackgroundImageFix" stdDeviation="10"/>
<feComposite in2="SourceAlpha" operator="in" result="effect1_backgroundBlur_152_3"/>
<feBlend mode="normal" in="SourceGraphic" in2="effect1_backgroundBlur_152_3" result="shape"/>
<feColorMatrix in="SourceAlpha" type="matrix" values="0 0 0 0 0 0 0 0 0 0 0 0 0 0 0 0 0 0 127 0" result="hardAlpha"/>
<feOffset dy="-0.5"/>
<feGaussianBlur stdDeviation="0.5"/>
<feComposite in2="hardAlpha" operator="arithmetic" k2="-1" k3="1"/>
<feColorMatrix type="matrix" values="0 0 0 0 0.341176 0 0 0 0 0.352941 0 0 0 0 0.580392 0 0 0 0.25 0"/>
<feBlend mode="darken" in2="shape" result="effect2_innerShadow_152_3"/>
</filter>
<filter id="filter7_bi_152_3" x="-19" y="-20" width="224.479" height="141.751" filterUnits="userSpaceOnUse" color-interpolation-filters="sRGB">
<feFlood flood-opacity="0" result="BackgroundImageFix"/>
<feGaussianBlur in="BackgroundImageFix" stdDeviation="10"/>
<feComposite in2="SourceAlpha" operator="in" result="effect1_backgroundBlur_152_3"/>
<feBlend mode="normal" in="SourceGraphic" in2="effect1_backgroundBlur_152_3" result="shape"/>
<feColorMatrix in="SourceAlpha" type="matrix" values="0 0 0 0 0 0 0 0 0 0 0 0 0 0 0 0 0 0 127 0" result="hardAlpha"/>
<feOffset dy="0.5"/>
<feGaussianBlur stdDeviation="0.5"/>
<feComposite in2="hardAlpha" operator="arithmetic" k2="-1" k3="1"/>
<feColorMatrix type="matrix" values="0 0 0 0 0.342674 0 0 0 0 0.352133 0 0 0 0 0.579167 0 0 0 0.1 0"/>
<feBlend mode="darken" in2="shape" result="effect2_innerShadow_152_3"/>
</filter>
<filter id="filter8_f_152_3" x="0" y="87.5028" width="186.479" height="15.2482" filterUnits="userSpaceOnUse" color-interpolation-filters="sRGB">
<feFlood flood-opacity="0" result="BackgroundImageFix"/>
<feBlend mode="normal" in="SourceGraphic" in2="BackgroundImageFix" result="shape"/>
<feGaussianBlur stdDeviation="0.5" result="effect1_foregroundBlur_152_3"/>
</filter>
<linearGradient id="paint0_linear_152_3" x1="1.00696" y1="164.232" x2="185.479" y2="164.232" gradientUnits="userSpaceOnUse">
<stop stop-color="#D478F4"/>
<stop offset="0.681928" stop-color="#DAC46E"/>
<stop offset="1" stop-color="#F6E979"/>
</linearGradient>
<radialGradient id="paint1_radial_152_3" cx="0" cy="0" r="1" gradientUnits="userSpaceOnUse" gradientTransform="translate(4.99497 116.564) scale(149.628 149.628)">
<stop stop-color="#D478F4"/>
<stop offset="1" stop-color="#F6E979"/>
</radialGradient>
<linearGradient id="paint2_linear_152_3" x1="-4.58862" y1="127.656" x2="191.07" y2="127.656" gradientUnits="userSpaceOnUse">
<stop stop-color="white" stop-opacity="0.24"/>
<stop offset="0.130208" stop-color="white" stop-opacity="0.865636"/>
<stop offset="0.489583" stop-color="white" stop-opacity="0.494792"/>
<stop offset="1" stop-color="white" stop-opacity="0"/>
</linearGradient>
<linearGradient id="paint3_linear_152_3" x1="-4.58862" y1="94.9284" x2="191.07" y2="94.9284" gradientUnits="userSpaceOnUse">
<stop stop-color="white" stop-opacity="0.24"/>
<stop offset="0.130208" stop-color="white" stop-opacity="0.865636"/>
<stop offset="0.489583" stop-color="white" stop-opacity="0.494792"/>
<stop offset="1" stop-color="white" stop-opacity="0"/>
</linearGradient>
<linearGradient id="paint4_linear_152_3" x1="-4.58923" y1="61.9676" x2="191.069" y2="61.9676" gradientUnits="userSpaceOnUse">
<stop stop-color="white" stop-opacity="0.24"/>
<stop offset="0.130208" stop-color="white" stop-opacity="0.865636"/>
<stop offset="0.489583" stop-color="white" stop-opacity="0.494792"/>
<stop offset="1" stop-color="white" stop-opacity="0"/>
</linearGradient>
</defs>
</svg>
