<svg width="228" height="168" viewBox="0 0 228 168" fill="none" xmlns="http://www.w3.org/2000/svg">
<g filter="url(#filter0_f_1_160)">
<path d="M175.91 43.4H133.29C128.358 43.4 124.36 47.3981 124.36 52.33V115.11C124.36 120.042 128.358 124.04 133.29 124.04H175.91C180.842 124.04 184.84 120.042 184.84 115.11V52.33C184.84 47.3981 180.842 43.4 175.91 43.4Z" fill="url(#paint0_linear_1_160)"/>
<path d="M94.55 43.4H51.93C46.9981 43.4 43 47.3981 43 52.33V115.11C43 120.042 46.9981 124.04 51.93 124.04H94.55C99.4819 124.04 103.48 120.042 103.48 115.11V52.33C103.48 47.3981 99.4819 43.4 94.55 43.4Z" fill="url(#paint1_linear_1_160)"/>
</g>
<path d="M175.91 43.4H133.29C128.358 43.4 124.36 47.3981 124.36 52.33V115.11C124.36 120.042 128.358 124.04 133.29 124.04H175.91C180.842 124.04 184.84 120.042 184.84 115.11V52.33C184.84 47.3981 180.842 43.4 175.91 43.4Z" fill="url(#paint2_linear_1_160)"/>
<path d="M94.55 43.4H51.93C46.9981 43.4 43 47.3981 43 52.33V115.11C43 120.042 46.9981 124.04 51.93 124.04H94.55C99.4819 124.04 103.48 120.042 103.48 115.11V52.33C103.48 47.3981 99.4819 43.4 94.55 43.4Z" fill="url(#paint3_linear_1_160)"/>
<g filter="url(#filter1_b_1_160)">
<path d="M146.39 29H82.17C77.2381 29 73.24 32.9981 73.24 37.93V129.5C73.24 134.432 77.2381 138.43 82.17 138.43H146.39C151.322 138.43 155.32 134.432 155.32 129.5V37.93C155.32 32.9981 151.322 29 146.39 29Z" fill="url(#paint4_linear_1_160)"/>
<path d="M82.17 29.25H146.39C151.184 29.25 155.07 33.1362 155.07 37.93V129.5C155.07 134.294 151.184 138.18 146.39 138.18H82.17C77.3762 138.18 73.49 134.294 73.49 129.5V37.93C73.49 33.1362 77.3762 29.25 82.17 29.25Z" stroke="url(#paint5_linear_1_160)" stroke-width="0.5"/>
</g>
<path d="M126.09 80.47L107.31 69.63C104.81 68.19 101.69 69.99 101.69 72.88V94.56C101.69 97.45 104.81 99.25 107.31 97.81L126.09 86.97C128.59 85.53 128.59 81.92 126.09 80.48V80.47Z" fill="white"/>
<defs>
<filter id="filter0_f_1_160" x="0" y="0.399994" width="227.84" height="166.64" filterUnits="userSpaceOnUse" color-interpolation-filters="sRGB">
<feFlood flood-opacity="0" result="BackgroundImageFix"/>
<feBlend mode="normal" in="SourceGraphic" in2="BackgroundImageFix" result="shape"/>
<feGaussianBlur stdDeviation="21.5" result="effect1_foregroundBlur_1_160"/>
</filter>
<filter id="filter1_b_1_160" x="55.24" y="11" width="118.08" height="145.43" filterUnits="userSpaceOnUse" color-interpolation-filters="sRGB">
<feFlood flood-opacity="0" result="BackgroundImageFix"/>
<feGaussianBlur in="BackgroundImageFix" stdDeviation="9"/>
<feComposite in2="SourceAlpha" operator="in" result="effect1_backgroundBlur_1_160"/>
<feBlend mode="normal" in="SourceGraphic" in2="effect1_backgroundBlur_1_160" result="shape"/>
</filter>
<linearGradient id="paint0_linear_1_160" x1="54.4701" y1="142.43" x2="192.9" y2="61.26" gradientUnits="userSpaceOnUse">
<stop stop-color="#7C00FF"/>
<stop offset="0.52" stop-color="#FF6700"/>
<stop offset="1" stop-color="#FFD400"/>
</linearGradient>
<linearGradient id="paint1_linear_1_160" x1="33.66" y1="106.93" x2="172.08" y2="25.7499" gradientUnits="userSpaceOnUse">
<stop stop-color="#7C00FF"/>
<stop offset="0.52" stop-color="#FF6700"/>
<stop offset="1" stop-color="#FFD400"/>
</linearGradient>
<linearGradient id="paint2_linear_1_160" x1="54.4701" y1="142.43" x2="192.9" y2="61.26" gradientUnits="userSpaceOnUse">
<stop stop-color="#7C00FF"/>
<stop offset="0.52" stop-color="#FF6700"/>
<stop offset="1" stop-color="#FFD400"/>
</linearGradient>
<linearGradient id="paint3_linear_1_160" x1="33.66" y1="106.93" x2="172.08" y2="25.7499" gradientUnits="userSpaceOnUse">
<stop stop-color="#7C00FF"/>
<stop offset="0.52" stop-color="#FF6700"/>
<stop offset="1" stop-color="#FFD400"/>
</linearGradient>
<linearGradient id="paint4_linear_1_160" x1="77.8739" y1="132.252" x2="171.067" y2="62.3505" gradientUnits="userSpaceOnUse">
<stop stop-color="white" stop-opacity="0.2"/>
<stop offset="1" stop-color="white" stop-opacity="0.49"/>
</linearGradient>
<linearGradient id="paint5_linear_1_160" x1="79.0339" y1="37.6065" x2="168.525" y2="109.378" gradientUnits="userSpaceOnUse">
<stop stop-color="white"/>
<stop offset="1" stop-color="white" stop-opacity="0"/>
</linearGradient>
</defs>
</svg>
