<svg width="96" height="96" viewBox="0 0 96 96" fill="none" xmlns="http://www.w3.org/2000/svg">
<g filter="url(#filter0_i_202_2059)">
<path d="M47.9996 89.8567C45.4064 89.8913 42.8323 89.4085 40.4278 88.4367C38.0233 87.4648 35.8368 86.0233 33.9959 84.1965C32.1551 82.3697 30.6969 80.1942 29.7067 77.7972C28.7165 75.4002 28.214 72.8299 28.2288 70.2365C28.2288 59.7784 41.8809 44.1917 44.6186 41.1711C45.0576 40.7183 45.583 40.3582 46.1638 40.1123C46.7446 39.8664 47.3689 39.7397 47.9996 39.7397C48.6303 39.7397 49.2546 39.8664 49.8354 40.1123C50.4162 40.3582 50.9417 40.7183 51.3807 41.1711C54.1184 44.1917 67.7704 59.783 67.7704 70.2365C67.7852 72.8299 67.2828 75.4002 66.2926 77.7972C65.3024 80.1942 63.8442 82.3697 62.0033 84.1965C60.1625 86.0233 57.9759 87.4648 55.5714 88.4367C53.167 89.4085 50.5929 89.8913 47.9996 89.8567Z" fill="url(#paint0_linear_202_2059)"/>
</g>
<path d="M48.0263 87.8569L47.9996 87.8565L47.9729 87.8569C45.6455 87.8879 43.3353 87.4547 41.1773 86.5824C39.0193 85.7102 37.0569 84.4164 35.4047 82.7769C33.7526 81.1373 32.4439 79.1848 31.5552 77.0336C30.6664 74.8823 30.2155 72.5754 30.2288 70.2479H30.2288V70.2365C30.2288 68.0205 30.9625 65.3804 32.2327 62.5194C33.4922 59.6825 35.2174 56.7646 37.0564 54.0312C40.7116 48.5985 44.7096 44.0505 46.075 42.5424C46.3234 42.2916 46.6184 42.0917 46.9436 41.9541C47.2777 41.8126 47.6368 41.7397 47.9996 41.7397C48.3625 41.7397 48.7216 41.8126 49.0557 41.9541C49.3809 42.0917 49.6759 42.2916 49.9242 42.5424C51.2895 44.0504 55.2876 48.5995 58.9428 54.0328C60.7818 56.7666 62.5071 59.6846 63.7666 62.5213C65.0369 65.3822 65.7704 68.0217 65.7704 70.2365L65.7705 70.2479C65.7837 72.5754 65.3328 74.8823 64.4441 77.0336C63.5554 79.1848 62.2467 81.1373 60.5946 82.7769C58.9424 84.4164 56.98 85.7102 54.822 86.5824C52.664 87.4547 50.3537 87.8879 48.0263 87.8569Z" stroke="url(#paint1_linear_202_2059)" stroke-opacity="0.1" stroke-width="4"/>
<g filter="url(#filter1_bi_202_2059)">
<path d="M47.9996 95.9965C43.2242 96.063 38.4834 95.177 34.0544 93.3903C29.6253 91.6035 25.5968 88.9518 22.2044 85.5902C18.8119 82.2286 16.1236 78.2245 14.2964 73.8119C12.4693 69.3994 11.54 64.6669 11.5629 59.891C11.5629 38.7611 44.1572 2.58604 45.5451 1.03914C45.8638 0.710377 46.2453 0.448989 46.6669 0.270485C47.0886 0.0919813 47.5418 0 47.9996 0C48.4575 0 48.9107 0.0919813 49.3323 0.270485C49.754 0.448989 50.1354 0.710377 50.4541 1.03914C51.842 2.55292 84.4363 38.7445 84.4363 59.891C84.4592 64.6669 83.53 69.3994 81.7028 73.8119C79.8757 78.2245 77.1873 82.2286 73.7949 85.5902C70.4024 88.9518 66.374 91.6035 61.9449 93.3903C57.5158 95.177 52.775 96.063 47.9996 95.9965Z" fill="#1D1D1D" fill-opacity="0.05"/>
<path d="M47.9996 95.9965C43.2242 96.063 38.4834 95.177 34.0544 93.3903C29.6253 91.6035 25.5968 88.9518 22.2044 85.5902C18.8119 82.2286 16.1236 78.2245 14.2964 73.8119C12.4693 69.3994 11.54 64.6669 11.5629 59.891C11.5629 38.7611 44.1572 2.58604 45.5451 1.03914C45.8638 0.710377 46.2453 0.448989 46.6669 0.270485C47.0886 0.0919813 47.5418 0 47.9996 0C48.4575 0 48.9107 0.0919813 49.3323 0.270485C49.754 0.448989 50.1354 0.710377 50.4541 1.03914C51.842 2.55292 84.4363 38.7445 84.4363 59.891C84.4592 64.6669 83.53 69.3994 81.7028 73.8119C79.8757 78.2245 77.1873 82.2286 73.7949 85.5902C70.4024 88.9518 66.374 91.6035 61.9449 93.3903C57.5158 95.177 52.775 96.063 47.9996 95.9965Z" fill="url(#paint2_linear_202_2059)" fill-opacity="0.2"/>
<path d="M48.008 95.3966L47.9996 95.3965L47.9913 95.3966C43.2956 95.462 38.6339 94.5908 34.2788 92.8338C29.9237 91.0769 25.9625 88.4695 22.6267 85.164C19.2909 81.8585 16.6474 77.9213 14.8508 73.5824C13.0541 69.2435 12.1404 64.59 12.1629 59.8939V59.891C12.1629 54.7437 14.1538 48.6187 17.218 42.2592C20.2761 35.9122 24.3741 29.3904 28.5249 23.4657C36.7219 11.7659 45.0897 2.4446 45.9621 1.47279L45.9836 1.44887C46.2448 1.18152 46.5566 0.968754 46.9008 0.82301C47.2485 0.675837 47.6221 0.6 47.9996 0.6C48.3771 0.6 48.7508 0.675837 49.0984 0.82301C49.4436 0.969133 49.7561 1.18262 50.0177 1.45096C50.7429 2.24283 59.1957 11.6287 67.4743 23.447C71.6251 29.3727 75.7231 35.8971 78.7812 42.2474C81.8453 48.6102 83.8363 54.7395 83.8363 59.891L83.8363 59.8939C83.8589 64.59 82.9451 69.2435 81.1485 73.5824C79.3518 77.9213 76.7084 81.8585 73.3726 85.164C70.0368 88.4695 66.0755 91.0769 61.7204 92.8338C57.3653 94.5908 52.7037 95.462 48.008 95.3966Z" stroke="url(#paint3_linear_202_2059)" stroke-opacity="0.1" stroke-width="1.2"/>
</g>
<g filter="url(#filter2_i_202_2059)">
<path d="M45.1043 78.6046C37.511 78.6046 25.4609 73.2725 25.4609 58.9612C25.6639 56.2286 26.406 53.5636 27.6435 51.1191C29.8261 65.9193 40.1935 74.6497 54.1446 76.422C51.3312 77.8123 48.2429 78.5587 45.1043 78.6046Z" fill="white" fill-opacity="0.1"/>
</g>
<defs>
<filter id="filter0_i_202_2059" x="28.2285" y="39.7397" width="39.5422" height="58.1187" filterUnits="userSpaceOnUse" color-interpolation-filters="sRGB">
<feFlood flood-opacity="0" result="BackgroundImageFix"/>
<feBlend mode="normal" in="SourceGraphic" in2="BackgroundImageFix" result="shape"/>
<feColorMatrix in="SourceAlpha" type="matrix" values="0 0 0 0 0 0 0 0 0 0 0 0 0 0 0 0 0 0 127 0" result="hardAlpha"/>
<feOffset dy="8"/>
<feGaussianBlur stdDeviation="4"/>
<feComposite in2="hardAlpha" operator="arithmetic" k2="-1" k3="1"/>
<feColorMatrix type="matrix" values="0 0 0 0 1 0 0 0 0 1 0 0 0 0 1 0 0 0 0.1 0"/>
<feBlend mode="normal" in2="shape" result="effect1_innerShadow_202_2059"/>
</filter>
<filter id="filter1_bi_202_2059" x="-12.4375" y="-24" width="120.874" height="144" filterUnits="userSpaceOnUse" color-interpolation-filters="sRGB">
<feFlood flood-opacity="0" result="BackgroundImageFix"/>
<feGaussianBlur in="BackgroundImageFix" stdDeviation="12"/>
<feComposite in2="SourceAlpha" operator="in" result="effect1_backgroundBlur_202_2059"/>
<feBlend mode="normal" in="SourceGraphic" in2="effect1_backgroundBlur_202_2059" result="shape"/>
<feColorMatrix in="SourceAlpha" type="matrix" values="0 0 0 0 0 0 0 0 0 0 0 0 0 0 0 0 0 0 127 0" result="hardAlpha"/>
<feOffset dy="8"/>
<feGaussianBlur stdDeviation="6"/>
<feComposite in2="hardAlpha" operator="arithmetic" k2="-1" k3="1"/>
<feColorMatrix type="matrix" values="0 0 0 0 1 0 0 0 0 1 0 0 0 0 1 0 0 0 0.15 0"/>
<feBlend mode="normal" in2="shape" result="effect2_innerShadow_202_2059"/>
</filter>
<filter id="filter2_i_202_2059" x="25.4609" y="51.1191" width="28.6837" height="35.4855" filterUnits="userSpaceOnUse" color-interpolation-filters="sRGB">
<feFlood flood-opacity="0" result="BackgroundImageFix"/>
<feBlend mode="normal" in="SourceGraphic" in2="BackgroundImageFix" result="shape"/>
<feColorMatrix in="SourceAlpha" type="matrix" values="0 0 0 0 0 0 0 0 0 0 0 0 0 0 0 0 0 0 127 0" result="hardAlpha"/>
<feOffset dy="8"/>
<feGaussianBlur stdDeviation="4"/>
<feComposite in2="hardAlpha" operator="arithmetic" k2="-1" k3="1"/>
<feColorMatrix type="matrix" values="0 0 0 0 1 0 0 0 0 1 0 0 0 0 1 0 0 0 0.1 0"/>
<feBlend mode="normal" in2="shape" result="effect1_innerShadow_202_2059"/>
</filter>
<linearGradient id="paint0_linear_202_2059" x1="29.8761" y1="49.7635" x2="73.2906" y2="54.5208" gradientUnits="userSpaceOnUse">
<stop stop-color="#8AE6CF"/>
<stop offset="1" stop-color="#7C3AE7"/>
</linearGradient>
<linearGradient id="paint1_linear_202_2059" x1="29.4642" y1="42.0179" x2="67.7707" y2="42.0179" gradientUnits="userSpaceOnUse">
<stop stop-color="#C8A6FF"/>
<stop offset="1" stop-color="#69CFB5"/>
</linearGradient>
<linearGradient id="paint2_linear_202_2059" x1="14.5989" y1="19.2" x2="94.6801" y2="27.6431" gradientUnits="userSpaceOnUse">
<stop stop-color="#66FECB"/>
<stop offset="1" stop-color="#8940FF"/>
</linearGradient>
<linearGradient id="paint3_linear_202_2059" x1="13.8398" y1="4.36364" x2="84.4367" y2="4.36364" gradientUnits="userSpaceOnUse">
<stop stop-color="#C8A6FF"/>
<stop offset="1" stop-color="#69CFB5"/>
</linearGradient>
</defs>
</svg>
