<svg width="240" height="240" viewBox="0 0 240 240" fill="none" xmlns="http://www.w3.org/2000/svg">
<g clip-path="url(#clip0_1_29)">
<g filter="url(#filter0_di_1_29)">
<circle cx="105" cy="85" r="65" fill="url(#paint0_radial_1_29)"/>
</g>
<mask id="mask0_1_29" style="mask-type:alpha" maskUnits="userSpaceOnUse" x="40" y="20" width="130" height="130">
<circle cx="105" cy="85" r="65" fill="url(#paint1_radial_1_29)"/>
</mask>
<g mask="url(#mask0_1_29)">
<g filter="url(#filter1_bd_1_29)">
<path fill-rule="evenodd" clip-rule="evenodd" d="M110 210C123.87 210 136.641 205.293 146.803 197.39C155.633 205.235 167.26 210 180 210C207.614 210 230 187.614 230 160C230 132.386 207.614 110 180 110C172.341 110 165.084 111.722 158.595 114.8C147.691 99.7727 129.987 90 110 90C87.5485 90 67.9772 102.331 57.6896 120.591C36.3136 124.083 20 142.636 20 165C20 189.853 40.1472 210 65 210C72.502 210 79.5752 208.164 85.795 204.917C93.1985 208.185 101.387 210 110 210Z" fill="url(#paint2_linear_1_29)" fill-opacity="0.1"/>
</g>
</g>
<g filter="url(#filter2_bii_1_29)">
<path fill-rule="evenodd" clip-rule="evenodd" d="M110 210C123.87 210 136.641 205.293 146.803 197.39C155.633 205.235 167.26 210 180 210C207.614 210 230 187.614 230 160C230 132.386 207.614 110 180 110C172.341 110 165.084 111.722 158.595 114.8C147.691 99.7727 129.987 90 110 90C87.5485 90 67.9772 102.331 57.6896 120.591C36.3136 124.083 20 142.636 20 165C20 189.853 40.1472 210 65 210C72.502 210 79.5752 208.164 85.795 204.917C93.1985 208.185 101.387 210 110 210Z" fill="#FFC774" fill-opacity="0.1"/>
</g>
</g>
<defs>
<filter id="filter0_di_1_29" x="30" y="-2" width="162" height="162" filterUnits="userSpaceOnUse" color-interpolation-filters="sRGB">
<feFlood flood-opacity="0" result="BackgroundImageFix"/>
<feColorMatrix in="SourceAlpha" type="matrix" values="0 0 0 0 0 0 0 0 0 0 0 0 0 0 0 0 0 0 127 0" result="hardAlpha"/>
<feOffset dx="6" dy="-6"/>
<feGaussianBlur stdDeviation="8"/>
<feColorMatrix type="matrix" values="0 0 0 0 1 0 0 0 0 0.670588 0 0 0 0 0.282353 0 0 0 0.2 0"/>
<feBlend mode="normal" in2="BackgroundImageFix" result="effect1_dropShadow_1_29"/>
<feBlend mode="normal" in="SourceGraphic" in2="effect1_dropShadow_1_29" result="shape"/>
<feColorMatrix in="SourceAlpha" type="matrix" values="0 0 0 0 0 0 0 0 0 0 0 0 0 0 0 0 0 0 127 0" result="hardAlpha"/>
<feOffset dx="-10" dy="10"/>
<feGaussianBlur stdDeviation="10"/>
<feComposite in2="hardAlpha" operator="arithmetic" k2="-1" k3="1"/>
<feColorMatrix type="matrix" values="0 0 0 0 1 0 0 0 0 1 0 0 0 0 1 0 0 0 0.24 0"/>
<feBlend mode="normal" in2="shape" result="effect2_innerShadow_1_29"/>
</filter>
<filter id="filter1_bd_1_29" x="-30" y="40" width="310" height="220" filterUnits="userSpaceOnUse" color-interpolation-filters="sRGB">
<feFlood flood-opacity="0" result="BackgroundImageFix"/>
<feGaussianBlur in="BackgroundImageFix" stdDeviation="25"/>
<feComposite in2="SourceAlpha" operator="in" result="effect1_backgroundBlur_1_29"/>
<feColorMatrix in="SourceAlpha" type="matrix" values="0 0 0 0 0 0 0 0 0 0 0 0 0 0 0 0 0 0 127 0" result="hardAlpha"/>
<feOffset dy="-5"/>
<feGaussianBlur stdDeviation="10"/>
<feColorMatrix type="matrix" values="0 0 0 0 1 0 0 0 0 0.540984 0 0 0 0 0 0 0 0 0.5 0"/>
<feBlend mode="normal" in2="effect1_backgroundBlur_1_29" result="effect2_dropShadow_1_29"/>
<feBlend mode="normal" in="SourceGraphic" in2="effect2_dropShadow_1_29" result="shape"/>
</filter>
<filter id="filter2_bii_1_29" x="0" y="70" width="250" height="160" filterUnits="userSpaceOnUse" color-interpolation-filters="sRGB">
<feFlood flood-opacity="0" result="BackgroundImageFix"/>
<feGaussianBlur in="BackgroundImageFix" stdDeviation="10"/>
<feComposite in2="SourceAlpha" operator="in" result="effect1_backgroundBlur_1_29"/>
<feBlend mode="normal" in="SourceGraphic" in2="effect1_backgroundBlur_1_29" result="shape"/>
<feColorMatrix in="SourceAlpha" type="matrix" values="0 0 0 0 0 0 0 0 0 0 0 0 0 0 0 0 0 0 127 0" result="hardAlpha"/>
<feOffset dy="10"/>
<feGaussianBlur stdDeviation="5"/>
<feComposite in2="hardAlpha" operator="arithmetic" k2="-1" k3="1"/>
<feColorMatrix type="matrix" values="0 0 0 0 1 0 0 0 0 1 0 0 0 0 1 0 0 0 0.15 0"/>
<feBlend mode="normal" in2="shape" result="effect2_innerShadow_1_29"/>
<feColorMatrix in="SourceAlpha" type="matrix" values="0 0 0 0 0 0 0 0 0 0 0 0 0 0 0 0 0 0 127 0" result="hardAlpha"/>
<feOffset dy="-10"/>
<feGaussianBlur stdDeviation="5"/>
<feComposite in2="hardAlpha" operator="arithmetic" k2="-1" k3="1"/>
<feColorMatrix type="matrix" values="0 0 0 0 1 0 0 0 0 0.670333 0 0 0 0 0.283333 0 0 0 0.15 0"/>
<feBlend mode="normal" in2="effect2_innerShadow_1_29" result="effect3_innerShadow_1_29"/>
</filter>
<radialGradient id="paint0_radial_1_29" cx="0" cy="0" r="1" gradientUnits="userSpaceOnUse" gradientTransform="translate(70 10) rotate(63.4349) scale(89.4427)">
<stop stop-color="#FFE974"/>
<stop offset="1" stop-color="#FFAB48"/>
</radialGradient>
<radialGradient id="paint1_radial_1_29" cx="0" cy="0" r="1" gradientUnits="userSpaceOnUse" gradientTransform="translate(50 5) rotate(53.4711) scale(168.003)">
<stop stop-color="#FFDB03"/>
<stop offset="1" stop-color="#F87A1D"/>
</radialGradient>
<linearGradient id="paint2_linear_1_29" x1="20" y1="90" x2="230" y2="210" gradientUnits="userSpaceOnUse">
<stop stop-color="#FFAB48"/>
<stop offset="1" stop-color="#F87A1D"/>
</linearGradient>
<clipPath id="clip0_1_29">
<rect width="240" height="240" fill="white"/>
</clipPath>
</defs>
</svg>
