<svg width="256" height="256" viewBox="0 0 256 256" fill="none" xmlns="http://www.w3.org/2000/svg">
<g clip-path="url(#clip0_1_803)">
<g filter="url(#filter0_b_1_803)">
<path d="M20.998 56.7613C20.998 32.3356 40.799 12.5347 65.2247 12.5347H187.352C211.777 12.5347 231.578 32.3356 231.578 56.7613V197.181C231.578 221.606 211.777 241.407 187.352 241.407H65.2247C40.799 241.407 20.998 221.606 20.998 197.181V56.7613Z" fill="#313036" fill-opacity="0.3"/>
<path d="M20.998 56.7613C20.998 32.3356 40.799 12.5347 65.2247 12.5347H187.352C211.777 12.5347 231.578 32.3356 231.578 56.7613V197.181C231.578 221.606 211.777 241.407 187.352 241.407H65.2247C40.799 241.407 20.998 221.606 20.998 197.181V56.7613Z" fill="url(#paint0_linear_1_803)"/>
<path d="M22.1037 56.7613C22.1037 32.9463 41.4096 13.6403 65.2247 13.6403H187.352C211.167 13.6403 230.473 32.9462 230.473 56.7613V197.181C230.473 220.996 211.167 240.302 187.352 240.302H65.2247C41.4096 240.302 22.1037 220.996 22.1037 197.181V56.7613Z" stroke="url(#paint1_linear_1_803)" stroke-width="2.21133"/>
</g>
<g filter="url(#filter1_d_1_803)">
<path d="M57 169.918L86.0195 125.607L59.7227 85.0024H79.7638L96.7936 112.284L113.475 85.0024H133.343L106.93 126.244L135.949 169.918H115.271L96.4456 140.55L77.5623 169.918L57 169.918Z" fill="#DA2286"/>
<path d="M195.125 169.917H180.007V160.88C177.496 164.394 174.533 167.011 171.116 168.729C167.698 170.446 164.252 171.307 160.776 171.307C153.71 171.307 147.657 168.459 142.617 162.763C137.578 157.067 135.059 149.122 135.059 138.928C135.059 128.501 137.511 120.576 142.414 115.15C147.318 109.725 153.516 107.012 161.008 107.012C167.881 107.012 173.828 109.87 178.849 115.584V85.0005H195.125V169.917H195.125ZM151.682 137.827C151.682 144.392 152.589 149.142 154.405 152.076C157.03 156.324 160.699 158.448 165.41 158.448C169.155 158.448 172.341 156.855 174.967 153.669C177.593 150.483 178.906 145.724 178.906 139.391C178.906 132.324 177.632 127.237 175.084 124.128C172.535 121.02 169.272 119.465 165.295 119.465C161.433 119.465 158.199 121 155.592 124.07C152.986 127.14 151.682 131.726 151.682 137.827Z" fill="#DA2286"/>
</g>
</g>
<defs>
<filter id="filter0_b_1_803" x="16.5754" y="8.11201" width="219.425" height="237.718" filterUnits="userSpaceOnUse" color-interpolation-filters="sRGB">
<feFlood flood-opacity="0" result="BackgroundImageFix"/>
<feGaussianBlur in="BackgroundImageFix" stdDeviation="2.21133"/>
<feComposite in2="SourceAlpha" operator="in" result="effect1_backgroundBlur_1_803"/>
<feBlend mode="normal" in="SourceGraphic" in2="effect1_backgroundBlur_1_803" result="shape"/>
</filter>
<filter id="filter1_d_1_803" x="52.5773" y="85.0005" width="146.97" height="95.1515" filterUnits="userSpaceOnUse" color-interpolation-filters="sRGB">
<feFlood flood-opacity="0" result="BackgroundImageFix"/>
<feColorMatrix in="SourceAlpha" type="matrix" values="0 0 0 0 0 0 0 0 0 0 0 0 0 0 0 0 0 0 127 0" result="hardAlpha"/>
<feOffset dy="4.42266"/>
<feGaussianBlur stdDeviation="2.21133"/>
<feColorMatrix type="matrix" values="0 0 0 0 0 0 0 0 0 0 0 0 0 0 0 0 0 0 0.25 0"/>
<feBlend mode="normal" in2="BackgroundImageFix" result="effect1_dropShadow_1_803"/>
<feBlend mode="normal" in="SourceGraphic" in2="effect1_dropShadow_1_803" result="shape"/>
</filter>
<linearGradient id="paint0_linear_1_803" x1="31.3641" y1="25.238" x2="139.848" y2="234.374" gradientUnits="userSpaceOnUse">
<stop stop-color="#797583" stop-opacity="0.2"/>
<stop offset="1" stop-color="#363567" stop-opacity="0.2"/>
</linearGradient>
<linearGradient id="paint1_linear_1_803" x1="-23.3642" y1="-3.95431" x2="51.9936" y2="262.261" gradientUnits="userSpaceOnUse">
<stop stop-opacity="0.2"/>
<stop offset="1" stop-color="white" stop-opacity="0"/>
</linearGradient>
<clipPath id="clip0_1_803">
<rect width="256" height="256" fill="white"/>
</clipPath>
</defs>
</svg>
